<?xml version="1.0" standalone="no"?>
<!DOCTYPE svg PUBLIC "-//W3C//DTD SVG 20010904//EN"
 "http://www.w3.org/TR/2001/REC-SVG-20010904/DTD/svg10.dtd">
<svg version="1.0" xmlns="http://www.w3.org/2000/svg"
 width="1600.000000pt" height="2560.000000pt" viewBox="0 0 1600.000000 2560.000000"
 preserveAspectRatio="xMidYMid meet">

<g transform="translate(0.000000,2560.000000) scale(0.100000,-0.100000)"
fill="#000000" stroke="none">
<path d="M0 17750 l0 -7850 6825 0 6825 0 0 -720 0 -720 -6825 0 -6825 0 0
-4230 0 -4230 8000 0 8000 0 0 12800 0 12800 -710 0 -710 0 0 -1120 0 -1120
-720 0 -720 0 0 1120 0 1120 -6570 0 -6570 0 0 -7850z m4749 5027 c14 -6 26
-17 28 -24 4 -11 -219 -285 -267 -328 -40 -36 -240 -33 -240 4 0 4 46 81 101
170 79 127 108 166 133 177 40 17 212 18 245 1z m-2449 -102 c171 -30 289 -86
316 -150 17 -41 19 -159 3 -204 -7 -19 -18 -31 -29 -31 -9 0 -56 20 -103 44
-403 205 -789 63 -862 -318 -53 -277 48 -547 238 -641 85 -41 204 -61 291 -48
39 6 88 17 109 26 l37 16 0 185 0 186 -154 0 c-187 0 -186 0 -186 120 0 128
-21 120 324 120 l293 0 24 -26 24 -26 0 -368 0 -368 -24 -26 c-16 -17 -57 -36
-115 -55 -149 -47 -216 -56 -406 -55 -147 0 -188 4 -255 22 -214 58 -372 184
-458 363 -72 149 -82 203 -81 419 0 172 2 191 28 275 94 308 310 494 636 548
63 11 272 6 350 -8z m3221 -409 c156 -33 249 -115 284 -251 12 -49 15 -134 15
-492 0 -502 14 -453 -127 -453 -103 0 -124 10 -128 61 -2 19 -3 41 -4 48 -1
10 -12 5 -33 -16 -87 -81 -198 -118 -337 -110 -161 8 -271 68 -327 180 -70
136 -38 335 65 416 102 80 211 110 430 118 l164 6 -6 77 c-8 127 -46 175 -150
193 -84 14 -193 -6 -309 -58 -46 -21 -95 -39 -110 -42 -39 -7 -60 31 -61 111
-1 73 15 105 66 136 39 24 163 66 232 79 77 14 263 12 336 -3z m2001 -18 c167
-77 254 -245 265 -514 19 -443 -169 -701 -498 -682 -89 5 -155 33 -234 99
l-50 41 -3 -265 c-2 -226 -5 -267 -18 -278 -18 -15 -174 -25 -228 -15 -71 13
-66 -46 -66 815 0 712 1 780 17 792 22 19 216 20 235 1 7 -7 15 -42 18 -77 l5
-64 60 50 c118 99 201 130 340 126 83 -2 110 -7 157 -29z m1139 18 c156 -33
249 -115 284 -251 12 -49 15 -134 15 -492 l0 -433 -26 -10 c-37 -15 -187 -13
-207 3 -15 11 -24 43 -26 91 -1 15 -6 14 -36 -12 -95 -84 -196 -117 -334 -109
-161 8 -271 68 -327 180 -70 136 -38 335 65 416 104 82 208 110 430 118 l164
6 -6 77 c-8 127 -46 175 -150 193 -84 14 -193 -6 -309 -58 -114 -51 -132 -53
-154 -21 -12 19 -17 47 -17 97 0 60 3 73 24 95 40 43 157 91 274 113 77 14
263 12 336 -3z m1272 -9 c20 -13 25 -26 30 -89 7 -81 -4 -183 -21 -200 -8 -8
-27 -6 -73 6 -36 11 -75 15 -94 12 -48 -9 -109 -58 -160 -127 l-45 -61 0 -348
c0 -311 -2 -349 -17 -361 -12 -10 -49 -14 -138 -14 -89 0 -126 4 -138 14 -15
12 -17 65 -17 576 0 511 2 564 17 576 23 19 189 24 223 7 22 -12 26 -21 30
-86 l5 -73 38 50 c42 55 120 117 165 132 41 13 167 5 195 -14z m798 9 c156
-33 249 -115 284 -251 12 -49 15 -134 15 -492 l0 -433 -26 -10 c-39 -15 -187
-12 -209 4 -12 9 -19 28 -21 57 -2 24 -3 46 -3 48 -1 1 -17 -11 -36 -27 -95
-84 -196 -117 -334 -109 -170 8 -280 73 -336 198 -23 53 -27 75 -27 151 0 79
3 95 31 153 34 69 74 106 156 147 87 44 168 59 344 65 l164 6 -6 77 c-5 83
-15 109 -55 152 -68 73 -267 56 -454 -38 -26 -13 -56 -24 -67 -24 -33 0 -53
43 -54 114 -1 73 15 105 66 136 39 24 163 66 232 79 77 14 263 12 336 -3z
m3330 -18 c106 -48 169 -127 205 -254 14 -49 18 -125 21 -457 3 -218 2 -408
-1 -421 -4 -15 -18 -28 -37 -35 -41 -14 -197 -14 -236 0 l-31 10 -4 377 c-5
392 -8 413 -51 476 -23 33 -88 65 -133 66 -48 0 -127 -46 -188 -110 l-56 -59
0 -369 c0 -332 -2 -371 -17 -383 -12 -10 -49 -14 -138 -14 -89 0 -126 4 -138
14 -15 12 -17 65 -17 576 0 511 2 564 17 576 23 19 190 24 223 7 22 -12 25
-21 28 -81 l3 -67 58 48 c126 106 200 133 341 129 77 -2 106 -8 151 -29z
m-10862 1 c18 -7 33 -20 36 -32 3 -12 6 -188 7 -392 l3 -370 25 -45 c28 -50
92 -90 145 -90 50 1 117 38 183 103 l62 61 0 372 c0 333 2 373 17 385 12 10
49 14 138 14 89 0 126 -4 138 -14 15 -12 17 -65 17 -576 0 -511 -2 -564 -17
-576 -23 -19 -190 -24 -223 -7 -22 12 -25 21 -28 81 l-3 67 -59 -50 c-124
-102 -212 -135 -349 -128 -183 9 -303 109 -346 289 -12 52 -15 144 -15 481 l0
416 28 10 c37 14 202 15 241 1z m1364 -8 c15 -12 17 -65 17 -576 0 -511 -2
-564 -17 -576 -12 -10 -49 -14 -138 -14 -89 0 -126 4 -138 14 -15 12 -17 65
-17 576 0 593 -1 576 45 588 42 11 232 2 248 -12z m7596 8 c18 -7 33 -20 36
-32 3 -12 6 -188 7 -392 l3 -370 25 -45 c28 -50 92 -90 145 -90 50 1 117 38
183 103 l62 61 0 372 c0 333 2 373 17 385 12 10 49 14 138 14 89 0 126 -4 138
-14 15 -12 17 -65 17 -576 0 -511 -2 -564 -17 -576 -23 -19 -190 -24 -223 -7
-22 12 -25 21 -28 81 l-3 67 -59 -50 c-124 -102 -212 -135 -349 -128 -183 9
-303 109 -346 289 -12 52 -15 144 -15 481 l0 416 28 10 c37 14 202 15 241 1z
m-7240 -2025 c48 -19 71 -67 71 -147 0 -110 -53 -157 -178 -157 -137 0 -177
36 -177 160 0 87 17 123 68 145 44 19 167 19 216 -1z m-2803 -465 c58 -18 78
-30 124 -78 30 -31 60 -64 65 -73 9 -15 19 -10 80 43 39 33 99 75 135 92 61
30 72 32 175 32 105 0 114 -2 178 -33 113 -56 174 -153 196 -316 6 -44 11
-237 11 -445 0 -301 -3 -371 -14 -387 -13 -17 -27 -19 -139 -19 -90 0 -128 4
-140 14 -15 12 -17 49 -17 356 0 344 -6 416 -37 482 -31 67 -114 97 -189 68
-45 -17 -146 -101 -165 -138 -7 -13 -11 -142 -10 -381 1 -198 -2 -366 -7 -373
-14 -22 -63 -33 -152 -33 -89 0 -138 11 -152 33 -4 7 -8 176 -8 377 0 235 -4
379 -11 405 -15 51 -74 111 -120 120 -66 12 -116 -10 -196 -89 l-73 -72 0
-371 c0 -333 -2 -372 -17 -384 -12 -10 -49 -14 -138 -14 -89 0 -126 4 -138 14
-15 12 -17 65 -17 576 0 511 2 564 17 576 23 19 190 24 223 7 22 -12 25 -21
28 -81 l3 -68 57 49 c67 57 136 99 195 117 65 21 175 18 253 -6z m1965 -11
c187 -69 285 -222 296 -460 6 -121 2 -149 -29 -178 -21 -19 -34 -20 -370 -20
l-348 0 0 -45 c0 -55 24 -130 56 -172 74 -99 282 -118 504 -47 41 13 85 24 97
24 34 0 45 -33 41 -121 -4 -102 -14 -111 -143 -145 -132 -34 -353 -44 -464
-20 -204 43 -334 163 -387 356 -26 92 -26 358 -1 450 55 205 187 343 377 395
87 24 286 15 371 -17z m1894 17 c152 -32 274 -123 334 -248 102 -215 87 -543
-34 -732 -69 -109 -195 -191 -338 -222 -88 -18 -297 -13 -370 11 -183 59 -302
191 -342 382 -22 104 -20 303 5 400 60 236 199 366 445 418 49 10 236 4 300
-9z m1308 -8 c21 -13 25 -26 30 -94 7 -83 -3 -177 -21 -195 -8 -8 -28 -6 -73
6 -36 11 -75 15 -94 12 -48 -9 -109 -58 -160 -127 l-45 -61 0 -348 c0 -311 -2
-349 -17 -361 -12 -10 -49 -14 -138 -14 -89 0 -126 4 -138 14 -15 12 -17 65
-17 576 0 511 2 564 17 576 11 10 46 14 118 14 130 0 135 -4 135 -97 l0 -70
45 54 c47 58 119 115 163 129 42 13 167 4 195 -14z m-2333 -22 l21 -19 -4
-641 c-3 -536 -6 -648 -19 -690 -56 -184 -170 -263 -368 -253 -111 5 -136 20
-146 84 -8 55 1 141 17 160 8 10 26 12 63 8 62 -6 92 8 120 56 20 34 21 50 24
660 2 404 7 629 13 637 15 18 43 21 155 20 86 -2 105 -5 124 -22z m-2613
-1966 c15 -5 31 -16 35 -22 4 -7 8 -380 8 -829 l0 -818 -25 -16 c-19 -13 -45
-15 -121 -12 -115 4 -124 11 -124 101 l0 59 -57 -53 c-32 -29 -92 -68 -133
-88 -73 -35 -79 -36 -190 -36 -108 0 -119 2 -181 31 -121 58 -202 166 -245
329 -26 99 -27 358 -1 468 41 174 131 297 265 360 63 30 74 32 177 32 128 0
181 -18 272 -92 l53 -43 0 305 0 306 33 14 c38 17 193 20 234 4z m7217 -8 c15
-12 16 -86 16 -836 0 -753 -1 -824 -17 -836 -12 -10 -49 -14 -138 -14 -89 0
-126 4 -138 14 -16 12 -17 83 -17 830 0 449 4 821 8 828 16 25 60 33 163 30
72 -1 112 -7 123 -16z m610 0 c15 -12 16 -86 16 -836 0 -753 -1 -824 -17 -836
-12 -10 -49 -14 -138 -14 -89 0 -126 4 -138 14 -16 12 -17 83 -17 830 0 449 4
821 8 828 16 25 60 33 163 30 72 -1 112 -7 123 -16z m3233 8 c15 -5 31 -16 35
-22 4 -7 8 -380 8 -829 l0 -818 -25 -16 c-19 -13 -45 -15 -121 -12 -115 4
-124 11 -124 101 l0 59 -57 -53 c-32 -29 -92 -68 -133 -88 -73 -35 -79 -36
-190 -36 -108 0 -119 2 -181 31 -120 57 -203 168 -245 329 -26 100 -26 359 -1
468 41 174 131 297 265 360 63 30 74 32 177 32 128 0 181 -18 272 -92 l53 -43
0 305 0 306 33 14 c38 17 193 20 234 4z m-10012 -518 c189 -67 291 -224 302
-463 6 -121 2 -149 -29 -178 -21 -19 -34 -20 -370 -20 l-348 0 0 -43 c0 -59
23 -130 54 -172 77 -101 282 -121 506 -49 128 41 140 33 140 -90 0 -104 -14
-118 -145 -152 -132 -34 -353 -44 -464 -20 -209 44 -342 171 -392 376 -21 84
-19 348 4 430 55 203 188 342 377 395 81 22 284 14 365 -14z m1145 0 c107 -35
114 -44 118 -148 4 -111 -8 -135 -60 -114 -161 66 -242 81 -317 61 -116 -31
-124 -153 -13 -209 21 -10 79 -35 131 -55 134 -52 186 -83 241 -143 64 -70 84
-129 78 -237 -8 -139 -70 -235 -192 -298 -146 -74 -382 -77 -545 -7 -77 33
-91 56 -91 151 0 82 11 118 34 118 8 0 47 -16 87 -35 171 -80 313 -83 382 -7
26 29 32 83 13 119 -20 40 -54 60 -206 122 -193 79 -264 144 -296 271 -28 109
0 227 74 311 39 44 130 94 208 114 85 21 269 14 354 -14z m1041 15 c160 -34
255 -122 289 -268 5 -25 10 -227 10 -475 0 -502 14 -453 -127 -453 -107 0
-123 9 -128 70 -2 25 -4 47 -4 49 -1 1 -17 -11 -36 -27 -95 -84 -196 -117
-334 -109 -119 6 -192 32 -259 92 -73 65 -104 143 -105 256 0 79 3 94 32 154
73 147 245 215 547 215 l117 0 -6 79 c-5 84 -15 110 -55 153 -67 72 -268 56
-449 -36 -29 -14 -61 -26 -72 -26 -34 0 -53 42 -53 120 -1 61 2 74 23 96 40
43 157 91 274 113 77 14 263 12 336 -3z m1240 4 c20 -6 41 -16 47 -23 13 -17
22 -151 13 -215 -10 -74 -18 -78 -92 -58 -36 11 -75 15 -94 12 -48 -9 -109
-58 -160 -127 l-45 -61 0 -348 c0 -311 -2 -349 -17 -361 -12 -10 -49 -14 -138
-14 -89 0 -126 4 -138 14 -15 12 -17 65 -17 576 0 511 2 564 17 576 23 19 189
24 223 7 22 -12 26 -21 30 -86 l5 -73 38 50 c42 55 121 118 165 131 39 12 121
12 163 0z m922 -13 c20 -13 25 -26 30 -84 7 -78 -4 -188 -21 -205 -8 -8 -27
-6 -73 6 -36 11 -75 15 -94 12 -48 -9 -109 -58 -160 -127 l-45 -61 0 -348 c0
-311 -2 -349 -17 -361 -12 -10 -49 -14 -138 -14 -89 0 -126 4 -138 14 -15 12
-17 65 -17 576 0 511 2 564 17 576 23 19 189 24 223 7 22 -12 26 -21 30 -86
l5 -73 43 56 c44 56 113 111 160 126 42 13 167 4 195 -14z m892 8 c152 -32
274 -123 334 -248 102 -215 87 -543 -34 -732 -69 -109 -195 -191 -338 -222
-88 -18 -297 -13 -370 11 -183 59 -302 191 -342 382 -20 94 -19 296 1 387 45
205 172 349 359 407 33 11 71 21 85 23 61 10 241 5 305 -8z m2570 0 c152 -32
274 -123 334 -248 102 -215 87 -543 -34 -732 -69 -109 -194 -191 -335 -221
-92 -19 -299 -14 -373 10 -183 59 -302 191 -342 382 -20 94 -19 296 1 387 52
236 201 379 449 431 49 10 236 4 300 -9z m3250 -14 c189 -67 291 -224 302
-463 6 -121 2 -149 -29 -178 -21 -19 -34 -20 -370 -20 l-348 0 0 -43 c0 -195
147 -291 395 -258 48 7 122 23 164 36 130 42 141 34 141 -90 0 -67 -3 -79 -24
-100 -68 -67 -410 -108 -590 -70 -204 43 -337 172 -387 375 -21 84 -19 348 4
430 55 204 187 343 377 395 81 22 285 14 365 -14z m-1930 -1981 c12 -23 22
-30 45 -30 37 0 45 -13 20 -35 -14 -13 -20 -31 -20 -62 l0 -43 -33 14 c-28 11
-37 11 -58 0 -42 -24 -52 -18 -45 24 5 33 2 42 -19 62 -29 27 -24 40 15 40 23
0 33 7 45 30 9 17 20 30 25 30 5 0 16 -13 25 -30z m-8054 -2 c47 -20 63 -64
57 -159 -5 -93 -15 -102 -88 -83 -144 39 -200 -17 -200 -200 l0 -76 205 0 205
0 0 134 c0 112 3 136 17 147 18 16 172 25 228 15 61 -12 65 -23 65 -167 l0
-129 130 0 c118 0 130 -2 140 -19 14 -27 13 -174 -2 -206 -11 -25 -12 -25
-140 -25 l-128 0 0 -292 c0 -266 2 -297 19 -335 16 -35 27 -44 62 -54 35 -11
51 -10 108 4 62 17 66 17 78 0 8 -10 13 -50 13 -106 0 -84 -2 -90 -28 -117
-34 -34 -103 -50 -211 -50 -166 0 -272 61 -322 186 -23 58 -24 68 -27 412 l-3
352 -205 0 -204 0 0 -449 c0 -405 -2 -450 -17 -462 -12 -10 -49 -14 -138 -14
-89 0 -126 4 -138 14 -15 12 -17 57 -17 462 l0 449 -74 0 c-97 0 -106 11 -106
125 0 113 10 125 104 125 l73 0 6 118 c9 178 40 266 117 336 42 37 87 61 145
77 49 13 235 4 276 -13z m8969 6 c0 -21 -13 -31 -130 -101 -122 -73 -260 -171
-260 -185 0 -45 156 -212 247 -264 26 -15 50 -29 52 -31 7 -5 -165 -228 -258
-336 -199 -230 -485 -465 -672 -551 l-52 -25 32 -13 32 -13 -39 -40 c-24 -25
-45 -60 -56 -94 -48 -148 -213 -285 -378 -313 -35 -6 -73 -8 -82 -5 -17 7 -17
9 -2 32 9 14 14 25 12 25 -3 0 -33 -6 -68 -14 -35 -8 -88 -16 -118 -17 -122
-5 -139 6 -97 63 13 18 39 80 57 138 77 251 178 395 310 440 35 12 62 31 94
67 40 44 46 57 46 95 0 98 50 224 138 348 60 84 323 353 455 464 56 48 142
115 192 151 91 65 105 67 105 18 0 -13 2 -23 5 -23 2 0 32 20 67 44 63 44 203
118 268 142 52 19 100 18 100 -2z m-11434 -104 c116 -30 183 -65 200 -106 17
-40 18 -158 3 -203 -14 -39 -37 -40 -96 -6 -220 130 -454 101 -478 -58 -14
-93 44 -165 185 -229 303 -138 383 -195 446 -323 30 -61 37 -87 41 -157 17
-269 -145 -468 -426 -524 -130 -26 -288 -16 -409 25 -123 41 -179 79 -189 129
-11 53 -7 176 6 201 17 30 38 26 132 -23 114 -60 185 -80 294 -80 174 -2 263
71 253 206 -4 50 -9 63 -39 94 -47 50 -94 79 -223 136 -270 120 -372 226 -399
413 -36 248 111 455 363 509 98 22 242 20 336 -4z m10248 -375 c9 -25 -5 -45
-30 -45 -26 0 -40 20 -30 45 3 8 16 15 30 15 13 0 26 -7 30 -15z m-386 -38 c4
-34 -13 -57 -42 -57 -28 0 -46 18 -46 45 0 30 20 46 55 43 25 -2 31 -8 33 -31z
m-8633 8 c200 -42 334 -175 379 -376 49 -215 17 -454 -79 -604 -69 -109 -195
-191 -338 -222 -102 -21 -298 -13 -387 17 -172 58 -285 189 -325 376 -20 94
-19 296 1 387 53 237 200 379 449 431 49 10 236 4 300 -9z m4696 1 c160 -34
255 -122 289 -268 5 -25 10 -227 10 -475 0 -502 13 -453 -125 -453 -110 0
-123 7 -131 70 l-7 50 -38 -35 c-85 -76 -191 -110 -328 -102 -119 6 -192 32
-259 92 -73 65 -104 143 -105 256 0 79 3 94 32 154 25 50 45 75 84 103 105 77
199 102 416 109 l164 6 -6 78 c-10 124 -42 170 -136 190 -97 20 -237 -8 -368
-75 -29 -14 -61 -26 -72 -26 -35 0 -54 43 -53 121 0 60 4 75 24 96 40 45 142
84 303 117 49 10 246 4 306 -8z m1272 -9 c21 -13 25 -25 29 -89 6 -86 -3 -183
-19 -199 -9 -9 -27 -8 -74 5 -36 11 -75 15 -94 12 -48 -9 -109 -58 -160 -127
l-45 -61 0 -348 c0 -311 -2 -349 -17 -361 -12 -10 -49 -14 -138 -14 -89 0
-126 4 -138 14 -15 12 -17 65 -17 576 0 511 2 564 17 576 23 19 189 24 223 7
22 -12 26 -21 30 -86 l5 -73 43 56 c41 52 104 104 154 125 35 15 172 6 201
-13z m892 -6 c189 -67 291 -224 302 -463 6 -121 2 -149 -29 -178 -21 -19 -34
-20 -370 -20 l-348 0 0 -43 c0 -59 23 -130 54 -172 77 -101 282 -121 506 -49
41 13 85 24 97 24 34 0 45 -33 41 -121 -4 -102 -14 -111 -143 -145 -132 -34
-353 -44 -464 -20 -209 44 -342 171 -392 376 -21 84 -19 348 4 430 53 194 175
331 342 383 77 24 91 26 220 22 90 -2 135 -8 180 -24z m-4441 -13 c7 -9 62
-200 122 -424 109 -405 109 -406 121 -363 6 24 53 207 104 407 51 199 98 370
105 380 11 15 30 17 139 17 107 0 129 -3 139 -17 7 -9 61 -199 121 -422 60
-223 110 -404 112 -402 2 2 51 185 108 406 60 232 111 410 120 419 12 12 41
17 123 19 133 4 162 -5 162 -50 0 -54 -308 -1090 -331 -1113 -17 -18 -35 -20
-162 -23 -158 -3 -204 9 -218 58 -4 14 -47 169 -95 344 -61 220 -90 313 -96
300 -4 -10 -43 -163 -87 -338 -59 -236 -86 -325 -101 -340 -19 -19 -33 -21
-180 -21 -146 0 -161 2 -179 20 -23 23 -334 1080 -329 1117 5 39 42 49 171 46
98 -3 121 -6 131 -20z m7885 -487 c14 -26 -8 -54 -39 -49 -25 3 -36 27 -26 54
8 20 53 17 65 -5z m-265 -477 c9 -8 16 -22 16 -29 0 -13 -26 -45 -36 -45 -14
0 -42 21 -48 36 -7 19 19 54 40 54 7 0 20 -7 28 -16z m-10314 -7129 l0 -255
-26 0 c-17 0 -28 6 -31 19 -5 18 -7 18 -40 -5 -46 -31 -110 -32 -147 -3 -44
35 -60 76 -60 159 0 124 49 190 142 190 24 0 49 -8 65 -20 14 -11 28 -20 31
-20 3 0 6 43 6 95 l0 95 30 0 30 0 0 -255z m4025 0 l0 -250 -30 0 -30 0 -3
240 c-1 132 0 246 3 253 3 8 16 12 32 10 l28 -3 0 -250z m3490 0 l0 -250 -30
0 -30 0 -3 240 c-1 132 0 246 3 253 3 8 16 12 32 10 l28 -3 0 -250z m4075 0
l0 -255 -26 0 c-17 0 -28 6 -31 19 -5 18 -7 18 -40 -5 -46 -31 -110 -32 -147
-3 -44 35 -60 76 -60 159 0 124 49 190 142 190 24 0 49 -8 65 -20 14 -11 28
-20 31 -20 3 0 6 43 6 95 l0 95 30 0 30 0 0 -255z m535 0 l0 -250 -30 0 -30 0
-3 240 c-1 132 0 246 3 253 3 8 16 12 32 10 l28 -3 0 -250z m-13121 209 c10
-27 -12 -56 -42 -52 -27 3 -39 25 -28 54 7 19 62 18 70 -2z m6710 0 c10 -27
-12 -56 -42 -52 -27 3 -39 25 -28 54 7 19 62 18 70 -2z m880 0 c10 -27 -12
-56 -42 -52 -27 3 -39 25 -28 54 7 19 62 18 70 -2z m-8181 -16 c8 -13 43 -94
77 -180 35 -87 66 -158 70 -158 3 0 39 79 80 175 79 186 82 191 146 183 l29
-3 3 -232 2 -233 -30 0 -30 0 0 202 c0 111 -4 198 -8 193 -5 -6 -44 -97 -88
-203 l-79 -193 -30 3 c-28 3 -32 9 -107 198 l-77 195 -3 -195 -3 -195 -30 0
-30 0 -3 220 c-1 121 0 225 2 232 3 8 23 13 50 13 36 0 48 -5 59 -22z m3237
-53 l0 -45 50 0 c47 0 50 -2 50 -25 0 -23 -3 -25 -51 -25 l-51 0 4 -120 c3
-134 9 -145 66 -135 29 5 32 4 32 -18 0 -28 -16 -37 -65 -37 -81 0 -95 29 -95
190 l0 120 -30 0 c-25 0 -30 4 -30 25 0 21 5 25 30 25 29 0 30 2 30 45 0 43 1
45 30 45 29 0 30 -2 30 -45z m8630 0 l0 -45 50 0 c47 0 50 -2 50 -25 0 -23 -3
-25 -51 -25 l-51 0 4 -120 c3 -134 9 -145 66 -135 29 5 32 4 32 -18 0 -28 -16
-37 -65 -37 -81 0 -95 29 -95 190 l0 120 -30 0 c-25 0 -30 4 -30 25 0 21 5 25
30 25 29 0 30 2 30 45 0 43 1 45 30 45 29 0 30 -2 30 -45z m-10982 -68 c3 -27
2 -28 -30 -22 -28 5 -37 2 -63 -25 -29 -30 -30 -34 -35 -153 l-5 -122 -30 0
-30 0 0 170 0 170 28 3 c23 3 27 0 27 -22 l0 -24 30 29 c24 25 37 30 67 27 33
-3 38 -7 41 -31z m278 0 c28 -33 36 -84 32 -217 l-3 -105 -27 -3 c-20 -2 -28
1 -28 12 0 21 -7 20 -37 -4 -17 -13 -41 -20 -70 -20 -38 0 -50 5 -79 34 -81
81 -11 186 126 186 l50 0 0 35 c0 26 -6 39 -26 52 -26 17 -60 14 -142 -12 -21
-7 -23 -5 -20 16 5 38 60 61 137 56 54 -3 67 -7 87 -30z m750 0 c28 -33 36
-84 32 -217 l-3 -105 -27 -3 c-20 -2 -28 1 -28 12 0 21 -7 20 -37 -4 -65 -51
-169 -7 -180 75 -9 73 56 125 157 125 l50 0 0 35 c0 26 -6 39 -26 52 -26 17
-60 14 -142 -12 -21 -7 -23 -5 -20 16 5 38 60 61 137 56 54 -3 67 -7 87 -30z
m544 -2 c34 -33 53 -85 48 -130 l-3 -30 -117 -3 c-111 -2 -118 -4 -118 -23 0
-35 28 -76 60 -89 25 -10 45 -11 93 -2 67 13 85 6 68 -26 -13 -25 -77 -37
-152 -30 -68 7 -114 50 -130 123 -21 96 7 184 73 226 50 31 137 23 178 -16z
m368 19 c44 -30 52 -64 52 -209 l0 -135 -30 0 -30 0 0 109 c0 135 -6 168 -36
188 -27 17 -57 12 -94 -16 -24 -19 -25 -26 -30 -148 l-5 -128 -30 0 -30 0 0
170 0 170 28 3 c23 3 27 0 27 -23 l0 -27 35 31 c28 24 45 31 78 31 23 0 53 -7
65 -16z m813 -7 c53 -35 71 -79 67 -169 -3 -85 -19 -115 -78 -155 -42 -29
-120 -31 -170 -4 -113 60 -103 286 14 337 50 22 128 18 167 -9z m357 -10 c3
-27 2 -28 -30 -22 -28 5 -37 2 -63 -25 -29 -30 -30 -34 -35 -153 l-5 -122 -30
0 -30 0 0 170 0 170 28 3 c23 3 27 0 27 -22 l0 -24 30 29 c24 25 37 30 67 27
33 -3 38 -7 41 -31z m300 17 c44 -30 52 -64 52 -209 l0 -135 -30 0 -30 0 0
109 c0 135 -6 168 -36 188 -27 17 -57 12 -94 -16 -24 -19 -25 -26 -30 -148
l-5 -128 -30 0 -30 0 0 170 0 170 28 3 c23 3 27 0 27 -23 l0 -27 35 31 c28 24
45 31 78 31 23 0 53 -7 65 -16z m393 -7 c53 -35 71 -79 67 -169 -3 -85 -19
-115 -78 -155 -42 -29 -120 -31 -170 -4 -113 60 -103 286 14 337 50 22 128 18
167 -9z m555 -10 c28 -33 36 -84 32 -217 l-3 -105 -27 -3 c-20 -2 -28 1 -28
12 0 21 -7 20 -37 -4 -17 -13 -41 -20 -70 -20 -38 0 -50 5 -79 34 -81 81 -11
186 126 186 l50 0 0 35 c0 26 -6 39 -26 52 -26 17 -60 14 -142 -12 -21 -7 -23
-5 -20 16 5 38 60 61 137 56 54 -3 67 -7 87 -30z m715 10 c53 -35 71 -79 67
-169 -3 -85 -19 -115 -78 -155 -42 -29 -120 -31 -170 -4 -113 60 -103 286 14
337 50 22 128 18 167 -9z m319 8 c21 -11 30 -23 30 -40 0 -29 -7 -30 -46 -10
-55 29 -109 10 -102 -36 2 -18 18 -32 68 -57 36 -17 71 -40 78 -49 15 -20 16
-87 2 -114 -16 -29 -64 -49 -117 -49 -63 0 -97 18 -101 53 -4 31 2 33 51 12
48 -20 70 -19 97 3 37 30 21 65 -41 92 -71 30 -99 60 -99 105 0 20 5 45 10 55
25 46 114 64 170 35z m546 -4 c46 -28 68 -93 62 -179 -3 -37 -13 -82 -22 -100
-35 -67 -120 -91 -183 -52 l-32 19 -3 -82 -3 -82 -30 0 -30 0 0 240 0 240 27
3 c20 2 27 -2 30 -18 3 -21 3 -21 37 4 43 32 102 34 147 7z m342 -14 c3 -27 2
-28 -30 -22 -28 5 -37 2 -63 -25 -29 -30 -30 -34 -35 -153 l-5 -122 -30 0 -30
0 0 170 0 170 28 3 c23 3 27 0 27 -22 l0 -24 30 29 c24 25 37 30 67 27 33 -3
38 -7 41 -31z m470 17 c44 -30 52 -64 52 -209 l0 -135 -30 0 -30 0 0 109 c0
135 -6 168 -36 188 -27 17 -57 12 -94 -16 -24 -19 -25 -26 -30 -148 l-5 -128
-30 0 -30 0 0 170 0 170 28 3 c23 3 27 0 27 -23 l0 -27 35 31 c28 24 45 31 78
31 23 0 53 -7 65 -16z m372 1 c23 -12 30 -22 30 -45 0 -36 0 -36 -47 -10 -93
49 -148 -3 -141 -133 3 -61 7 -72 31 -93 34 -29 61 -30 112 -4 22 11 41 20 42
20 2 0 3 -14 3 -31 0 -25 -6 -32 -35 -45 -78 -32 -167 -8 -200 56 -41 79 -27
206 28 257 18 17 39 33 47 36 31 11 102 7 130 -8z m526 -4 c46 -28 68 -93 62
-179 -3 -37 -13 -82 -22 -100 -35 -67 -120 -91 -183 -52 l-32 19 -3 -82 -3
-82 -30 0 -30 0 0 240 0 240 27 3 c20 2 27 -2 30 -18 3 -21 3 -21 37 4 43 32
102 34 147 7z m370 -14 c28 -33 36 -84 32 -217 l-3 -105 -27 -3 c-20 -2 -28 1
-28 12 0 21 -7 20 -37 -4 -17 -13 -41 -20 -70 -20 -38 0 -50 5 -79 34 -81 81
-11 186 126 186 l50 0 0 35 c0 26 -6 39 -26 52 -26 17 -60 14 -142 -12 -21 -7
-23 -5 -20 16 5 38 60 61 137 56 54 -3 67 -7 87 -30z m544 -2 c34 -33 53 -85
48 -130 l-3 -30 -117 -3 c-111 -2 -118 -4 -118 -23 0 -35 28 -76 60 -89 25
-10 45 -11 93 -2 67 13 85 6 68 -26 -13 -25 -77 -37 -152 -30 -68 7 -114 50
-130 123 -21 96 7 184 73 226 50 31 137 23 178 -16z m310 20 c21 -11 30 -23
30 -40 0 -29 -7 -30 -46 -10 -55 29 -109 10 -102 -36 2 -18 18 -32 68 -57 36
-17 71 -40 78 -49 15 -20 16 -87 2 -114 -16 -29 -64 -49 -117 -49 -63 0 -97
18 -101 53 -4 31 2 33 51 12 48 -20 70 -19 97 3 37 30 21 65 -41 92 -71 30
-99 60 -99 105 0 20 5 45 10 55 25 46 114 64 170 35z m516 -18 c28 -33 36 -84
32 -217 l-3 -105 -27 -3 c-20 -2 -28 1 -28 12 0 21 -7 20 -37 -4 -17 -13 -41
-20 -70 -20 -38 0 -50 5 -79 34 -81 81 -11 186 126 186 l50 0 0 35 c0 26 -6
39 -26 52 -26 17 -60 14 -142 -12 -21 -7 -23 -5 -20 16 5 38 60 61 137 56 54
-3 67 -7 87 -30z m304 18 c21 -11 30 -23 30 -40 0 -29 -7 -30 -46 -10 -55 29
-109 10 -102 -36 2 -18 18 -32 68 -57 36 -17 71 -40 78 -49 15 -20 16 -87 2
-114 -16 -29 -64 -49 -117 -49 -63 0 -97 18 -101 53 -4 31 2 33 51 12 48 -20
70 -19 97 3 37 30 21 65 -41 92 -71 30 -99 60 -99 105 0 20 5 45 10 55 25 46
114 64 170 35z m366 -4 c46 -28 68 -93 62 -179 -3 -37 -13 -82 -22 -100 -35
-67 -120 -91 -183 -52 l-32 19 -3 -82 -3 -82 -30 0 -30 0 0 240 0 240 28 3
c22 3 27 -1 27 -18 0 -18 2 -19 21 -8 55 34 66 38 99 38 19 0 49 -9 66 -19z
m384 -16 c34 -33 53 -85 48 -130 l-3 -30 -117 -3 c-111 -2 -118 -4 -118 -23 0
-35 28 -76 60 -89 25 -10 45 -11 93 -2 66 12 84 4 66 -29 -11 -21 -80 -33
-150 -27 -68 7 -114 50 -130 123 -21 96 7 184 73 226 50 31 137 23 178 -16z
m350 20 c23 -12 30 -22 30 -45 0 -36 0 -36 -47 -10 -93 49 -148 -3 -141 -133
3 -61 7 -72 31 -93 34 -29 61 -30 112 -4 22 11 41 20 42 20 2 0 3 -14 3 -31 0
-25 -6 -32 -35 -45 -79 -32 -167 -7 -201 57 -22 44 -29 137 -14 185 14 42 53
91 85 104 33 14 104 11 135 -5z m591 -8 c53 -35 71 -79 67 -169 -3 -85 -19
-115 -78 -155 -42 -29 -120 -31 -170 -4 -113 60 -103 286 14 337 50 22 128 18
167 -9z m319 8 c21 -11 30 -23 30 -40 0 -29 -7 -30 -46 -10 -55 29 -109 10
-102 -36 2 -18 18 -32 68 -57 36 -17 71 -40 78 -49 15 -20 16 -87 2 -114 -16
-29 -64 -49 -117 -49 -63 0 -97 18 -101 53 -4 31 2 33 51 12 48 -20 70 -19 97
3 37 30 21 65 -41 92 -71 30 -99 60 -99 105 0 20 5 45 10 55 25 46 114 64 170
35z m930 -20 c34 -33 53 -85 48 -130 l-3 -30 -117 -3 c-111 -2 -118 -4 -118
-23 0 -35 28 -76 60 -89 25 -10 45 -11 93 -2 67 13 85 6 68 -26 -13 -25 -77
-37 -152 -30 -68 7 -114 50 -130 123 -21 96 7 184 73 226 50 31 137 23 178
-16z m-12935 -150 l0 -170 -30 0 -30 0 -3 160 c-1 87 0 165 3 173 3 8 16 12
32 10 l28 -3 0 -170z m6710 0 l0 -170 -30 0 -30 0 -3 160 c-1 87 0 165 3 173
3 8 16 12 32 10 l28 -3 0 -170z m880 0 l0 -170 -30 0 -30 0 -3 160 c-1 87 0
165 3 173 3 8 16 12 32 10 l28 -3 0 -170z m-3257 -567 c7 -7 12 -20 12 -31 0
-16 -5 -18 -38 -12 -47 8 -60 -5 -68 -69 l-7 -46 77 0 76 0 0 45 c0 43 1 45
30 45 29 0 30 -2 30 -45 l0 -45 50 0 c47 0 50 -2 50 -25 0 -23 -3 -25 -50 -25
l-50 0 0 -102 c0 -129 11 -154 63 -151 33 2 37 0 37 -21 0 -27 -17 -36 -65
-36 -81 0 -95 29 -95 190 l0 120 -75 0 -75 0 0 -150 0 -150 -30 0 -30 0 0 149
0 150 -27 3 c-20 2 -28 9 -28 23 0 14 8 21 28 23 24 3 27 7 27 43 0 48 22 103
47 118 25 14 96 14 111 -1z m-4748 -253 l0 -255 -26 0 c-17 0 -28 6 -31 19 -5
18 -7 18 -40 -5 -46 -31 -110 -32 -147 -3 -44 35 -60 76 -60 159 0 124 49 190
142 190 24 0 49 -8 65 -20 14 -11 28 -20 31 -20 3 0 6 43 6 95 l0 95 30 0 30
0 0 -255z m2095 0 l0 -250 -30 0 -30 0 -3 240 c-1 132 0 246 3 253 3 8 16 12
32 10 l28 -3 0 -250z m180 0 l0 -250 -30 0 -30 0 -3 240 c-1 132 0 246 3 253
3 8 16 12 32 10 l28 -3 0 -250z m955 0 l0 -255 -26 0 c-17 0 -28 6 -31 19 -5
18 -7 18 -40 -5 -46 -31 -110 -32 -147 -3 -44 35 -60 76 -60 159 0 124 49 190
142 190 24 0 49 -8 65 -20 14 -11 28 -20 31 -20 3 0 6 43 6 95 l0 95 30 0 30
0 0 -255z m4485 0 l0 -250 -30 0 -30 0 -3 240 c-1 132 0 246 3 253 3 8 16 12
32 10 l28 -3 0 -250z m2779 209 c10 -27 -12 -56 -42 -52 -27 3 -39 25 -28 54
7 19 62 18 70 -2z m-10154 -139 c34 -33 53 -85 48 -130 l-3 -30 -117 -3 c-111
-2 -118 -4 -118 -23 0 -35 28 -76 60 -89 25 -10 45 -11 93 -2 67 13 85 6 68
-26 -13 -25 -77 -37 -152 -30 -68 7 -114 50 -130 123 -21 96 7 184 73 226 50
31 137 23 178 -16z m310 20 c21 -11 30 -23 30 -40 0 -29 -7 -30 -46 -10 -55
29 -109 10 -102 -36 2 -18 18 -32 68 -57 36 -17 71 -40 78 -49 15 -20 16 -87
2 -114 -16 -29 -64 -49 -117 -49 -63 0 -97 18 -101 53 -4 31 2 33 51 12 48
-20 70 -19 97 3 37 30 21 65 -41 92 -71 30 -99 60 -99 105 0 20 5 45 10 55 25
46 114 64 170 35z m346 -18 c28 -33 36 -84 32 -217 l-3 -105 -27 -3 c-20 -2
-28 1 -28 12 0 21 -7 20 -37 -4 -65 -51 -169 -7 -180 75 -9 73 56 125 157 125
l50 0 0 35 c0 26 -6 39 -26 52 -26 17 -60 14 -142 -12 -21 -7 -23 -5 -20 16 5
38 60 61 137 56 54 -3 67 -7 87 -30z m332 0 c3 -27 2 -28 -30 -22 -28 5 -37 2
-63 -25 -29 -30 -30 -34 -35 -153 l-5 -122 -30 0 -30 0 0 170 0 170 28 3 c23
3 27 0 27 -22 l0 -24 30 29 c24 25 37 30 67 27 33 -3 38 -7 41 -31z m260 0 c3
-27 2 -28 -30 -22 -28 5 -37 2 -63 -25 -29 -30 -30 -34 -35 -153 l-5 -122 -30
0 -30 0 0 170 0 170 28 3 c23 3 27 0 27 -22 l0 -24 30 29 c24 25 37 30 67 27
33 -3 38 -7 41 -31z m293 10 c53 -35 71 -79 67 -169 -3 -85 -19 -115 -78 -155
-42 -29 -120 -31 -170 -4 -113 60 -103 286 14 337 50 22 128 18 167 -9z m740
0 c53 -35 71 -79 67 -169 -3 -85 -19 -115 -78 -155 -42 -29 -120 -31 -170 -4
-113 60 -103 286 14 337 50 22 128 18 167 -9z m959 -12 c34 -33 53 -85 48
-130 l-3 -30 -117 -3 c-111 -2 -118 -4 -118 -23 0 -35 28 -76 60 -89 25 -10
45 -11 93 -2 67 13 85 6 68 -26 -13 -25 -77 -37 -152 -30 -68 7 -114 50 -130
123 -21 96 7 184 73 226 50 31 137 23 178 -16z m470 20 c21 -11 30 -23 30 -40
0 -29 -7 -30 -46 -10 -55 29 -109 10 -102 -36 2 -18 18 -32 68 -57 36 -17 71
-40 78 -49 15 -20 16 -87 2 -114 -16 -29 -64 -49 -117 -49 -63 0 -97 18 -101
53 -4 31 2 33 51 12 48 -20 70 -19 97 3 37 30 21 65 -41 92 -71 30 -99 60 -99
105 0 20 5 45 10 55 25 46 114 64 170 35z m361 -8 c53 -35 71 -79 67 -169 -3
-85 -19 -115 -78 -155 -42 -29 -120 -31 -170 -4 -113 60 -103 286 14 337 50
22 128 18 167 -9z m1375 -10 c28 -33 36 -84 32 -217 l-3 -105 -27 -3 c-20 -2
-28 1 -28 12 0 21 -7 20 -37 -4 -17 -13 -41 -20 -70 -20 -38 0 -50 5 -79 34
-81 81 -11 186 126 186 l50 0 0 35 c0 26 -6 39 -26 52 -26 17 -60 14 -142 -12
-21 -7 -23 -5 -20 16 5 38 60 61 137 56 54 -3 67 -7 87 -30z m332 0 c3 -27 2
-28 -30 -22 -28 5 -37 2 -63 -25 -29 -30 -30 -34 -35 -153 l-5 -122 -30 0 -30
0 0 170 0 170 28 3 c23 3 27 0 27 -22 l0 -24 30 29 c24 25 37 30 67 27 33 -3
38 -7 41 -31z m292 -2 c34 -33 53 -85 48 -130 l-3 -30 -117 -3 c-111 -2 -118
-4 -118 -23 0 -35 28 -76 60 -89 25 -10 45 -11 93 -2 67 13 85 6 68 -26 -13
-25 -77 -37 -152 -30 -68 7 -114 50 -130 123 -21 96 7 184 73 226 50 31 137
23 178 -16z m540 0 c34 -33 53 -85 48 -130 l-3 -30 -117 -3 c-111 -2 -118 -4
-118 -23 0 -35 28 -76 60 -89 25 -10 45 -11 93 -2 66 12 84 4 66 -29 -11 -21
-80 -33 -150 -27 -68 7 -114 50 -130 123 -21 96 7 184 73 226 50 31 137 23
178 -16z m378 19 c44 -30 52 -64 52 -209 l0 -135 -30 0 -30 0 0 109 c0 135 -6
168 -36 188 -27 17 -57 12 -94 -16 -24 -19 -25 -26 -30 -148 l-5 -128 -30 0
-30 0 0 170 0 170 28 3 c23 3 27 0 27 -23 l0 -27 35 31 c28 24 45 31 78 31 23
0 53 -7 65 -16z m733 -7 c53 -35 71 -79 67 -169 -3 -85 -19 -115 -78 -155 -42
-29 -120 -31 -170 -4 -113 60 -103 286 14 337 50 22 128 18 167 -9z m329 8
c21 -11 30 -23 30 -40 0 -29 -7 -30 -46 -10 -55 29 -109 10 -102 -36 2 -18 18
-32 68 -57 36 -17 71 -40 78 -49 15 -20 16 -87 2 -114 -16 -29 -64 -49 -117
-49 -63 0 -97 18 -101 53 -4 31 2 33 51 12 48 -20 70 -19 97 3 37 30 21 65
-41 92 -71 30 -99 60 -99 105 0 20 5 45 10 55 25 46 114 64 170 35z m531 -8
c53 -35 71 -79 67 -169 -3 -85 -19 -115 -78 -155 -42 -29 -120 -31 -170 -4
-113 60 -103 286 14 337 50 22 128 18 167 -9z m347 -10 c3 -27 2 -28 -30 -22
-28 5 -37 2 -63 -25 -29 -30 -30 -34 -35 -153 l-5 -122 -30 0 -30 0 0 170 0
170 28 3 c23 3 27 0 27 -22 l0 -24 30 29 c24 25 37 30 67 27 33 -3 38 -7 41
-31z m305 23 c33 0 37 -3 37 -25 0 -20 -5 -25 -25 -25 -23 0 -24 -2 -14 -27
16 -43 3 -88 -38 -123 -35 -31 -40 -32 -100 -27 -60 4 -63 4 -63 -18 0 -29 16
-35 92 -35 96 0 148 -36 148 -104 0 -32 -36 -75 -76 -92 -72 -30 -199 -10
-223 34 -17 31 -13 77 8 103 17 21 17 24 2 50 -14 24 -14 33 -2 61 7 18 12 38
12 43 -16 121 -11 143 42 176 27 17 43 19 97 15 36 -3 82 -6 103 -6z m323 -23
c28 -33 36 -84 32 -217 l-3 -105 -27 -3 c-20 -2 -28 1 -28 12 0 21 -7 20 -37
-4 -65 -51 -169 -7 -180 75 -9 73 56 125 157 125 l50 0 0 35 c0 26 -6 39 -26
52 -26 17 -60 14 -142 -12 -21 -7 -23 -5 -20 16 5 38 60 61 137 56 54 -3 67
-7 87 -30z m362 17 c44 -30 52 -64 52 -209 l0 -135 -30 0 -30 0 0 109 c0 135
-6 168 -36 188 -27 17 -57 12 -94 -16 -24 -19 -25 -26 -30 -148 l-5 -128 -30
0 -30 0 0 170 0 170 28 3 c23 3 27 0 27 -23 l0 -27 35 31 c28 24 45 31 78 31
23 0 53 -7 65 -16z m502 1 c21 -11 30 -23 30 -40 0 -29 -7 -30 -46 -10 -55 29
-109 10 -102 -36 2 -18 18 -32 68 -57 36 -17 71 -40 78 -49 15 -20 16 -87 2
-114 -16 -29 -64 -49 -117 -49 -63 0 -97 18 -101 53 -4 31 2 33 51 12 48 -20
70 -19 97 3 37 30 21 65 -41 92 -71 30 -99 60 -99 105 0 20 5 45 10 55 25 46
114 64 170 35z m362 -16 c30 -30 31 -30 52 -11 78 72 170 50 196 -47 6 -22 9
-91 8 -153 l-3 -113 -30 0 -30 0 -5 138 c-4 122 -7 140 -24 153 -30 21 -52 17
-91 -17 l-35 -31 0 -124 0 -124 -30 0 -30 0 0 119 c0 66 -4 131 -10 145 -13
36 -45 50 -81 36 -49 -21 -54 -34 -59 -169 l-5 -126 -30 0 -30 0 0 170 0 170
28 3 c23 3 27 0 27 -23 l0 -27 35 31 c49 43 104 43 147 0z m599 8 c53 -35 71
-79 67 -169 -3 -85 -19 -115 -78 -155 -42 -29 -120 -31 -170 -4 -113 60 -103
286 14 337 50 22 128 18 167 -9z m329 8 c21 -11 30 -23 30 -40 0 -29 -7 -30
-46 -10 -55 29 -109 10 -102 -36 2 -18 18 -32 68 -57 36 -17 71 -40 78 -49 15
-20 16 -87 2 -114 -16 -29 -64 -49 -117 -49 -63 0 -97 18 -101 53 -4 31 2 33
51 12 48 -20 70 -19 97 3 37 30 21 65 -41 92 -71 30 -99 60 -99 105 0 20 5 45
10 55 25 46 114 64 170 35z m-6949 -123 c20 -68 39 -125 41 -127 2 -3 20 53
39 123 35 126 35 127 66 130 l30 3 38 -130 c21 -72 40 -129 43 -127 2 3 21 60
41 128 37 122 38 123 69 126 18 2 32 0 32 -5 0 -18 -100 -327 -109 -336 -4 -4
-24 -7 -42 -5 l-34 3 -35 118 -35 118 -22 -83 c-13 -46 -28 -100 -33 -120 -10
-36 -13 -38 -50 -38 l-39 0 -37 118 c-78 251 -76 234 -32 230 31 -3 32 -4 69
-126z m5384 -47 l0 -170 -30 0 -30 0 -3 160 c-1 87 0 165 3 173 3 8 16 12 32
10 l28 -3 0 -170z m-10145 -571 c0 -4 -17 -29 -37 -55 -25 -34 -44 -49 -60
-49 -30 0 -29 4 8 62 25 39 36 48 60 48 16 0 29 -3 29 -6z m228 -91 c1 -51 5
-93 8 -93 3 0 17 9 31 20 31 24 92 26 132 5 83 -43 96 -234 22 -317 -39 -44
-111 -50 -163 -14 -37 24 -38 25 -38 5 0 -16 -5 -20 -27 -17 l-28 3 -3 240
c-1 132 0 246 3 253 3 8 16 12 32 10 l28 -3 3 -92z m387 -158 l0 -250 -30 0
-30 0 -3 240 c-1 132 0 246 3 253 3 8 16 12 32 10 l28 -3 0 -250z m3850 0 l0
-250 -30 0 -30 0 -3 240 c-1 132 0 246 3 253 3 8 16 12 32 10 l28 -3 0 -250z
m1415 249 c0 -4 -17 -29 -37 -55 -25 -34 -44 -49 -60 -49 -30 0 -29 4 8 62 25
39 36 48 60 48 16 0 29 -3 29 -6z m3000 -249 l0 -255 -26 0 c-17 0 -28 6 -31
19 -5 18 -7 18 -40 -5 -46 -31 -110 -32 -147 -3 -44 35 -60 76 -60 159 0 124
49 190 142 190 24 0 49 -8 65 -20 14 -11 28 -20 31 -20 3 0 6 43 6 95 l0 95
30 0 30 0 0 -255z m-8086 209 c10 -27 -12 -56 -42 -52 -27 3 -39 25 -28 54 7
19 62 18 70 -2z m6020 0 c10 -27 -12 -56 -42 -52 -27 3 -39 25 -28 54 7 19 62
18 70 -2z m4610 0 c10 -27 -12 -56 -42 -52 -27 3 -39 25 -28 54 7 19 62 18 70
-2z m-8937 -14 c47 -28 67 -65 67 -121 0 -87 -58 -141 -159 -147 l-64 -4 -3
-87 -3 -86 -32 -3 -33 -3 0 229 c0 126 3 232 7 235 3 4 47 7 97 7 73 0 97 -4
123 -20z m3003 -55 l0 -45 50 0 c47 0 50 -2 50 -25 0 -23 -3 -25 -51 -25 l-51
0 4 -120 c3 -134 9 -145 66 -135 29 5 32 4 32 -18 0 -28 -16 -37 -65 -37 -81
0 -95 29 -95 190 l0 120 -30 0 c-25 0 -30 4 -30 25 0 21 5 25 30 25 29 0 30 2
30 45 0 43 1 45 30 45 29 0 30 -2 30 -45z m-5879 -51 c65 -33 91 -179 49 -271
-34 -76 -119 -105 -187 -63 l-32 19 -3 -82 -3 -82 -30 0 -30 0 0 240 0 240 27
3 c20 2 27 -2 30 -18 3 -21 3 -21 37 4 41 30 96 34 142 10z m1489 1 c23 -12
30 -22 30 -45 0 -36 0 -36 -47 -10 -93 49 -148 -3 -141 -133 3 -61 7 -72 31
-93 34 -29 61 -30 112 -4 22 11 41 20 42 20 2 0 3 -14 3 -31 0 -25 -6 -32 -35
-45 -79 -32 -167 -7 -201 57 -22 44 -29 137 -14 185 14 42 53 91 85 104 33 14
104 11 135 -5z m351 -8 c53 -35 71 -79 67 -169 -3 -85 -19 -115 -78 -155 -42
-29 -120 -31 -170 -4 -113 60 -103 286 14 337 50 22 128 18 167 -9z m319 8
c21 -11 30 -23 30 -40 0 -29 -7 -30 -46 -10 -55 29 -109 10 -102 -36 2 -18 18
-32 68 -57 36 -17 71 -40 78 -49 15 -20 16 -87 2 -114 -16 -29 -64 -49 -117
-49 -63 0 -97 18 -101 53 -4 31 2 33 51 12 48 -20 70 -19 97 3 37 30 21 65
-41 92 -71 30 -99 60 -99 105 0 20 5 45 10 55 25 46 114 64 170 35z m1057 -5
c43 -26 54 -73 51 -217 l-3 -118 -27 -3 c-20 -2 -28 1 -28 12 0 21 -7 20 -37
-4 -65 -51 -169 -7 -180 75 -9 73 56 125 157 125 l50 0 0 35 c0 26 -6 39 -26
52 -26 17 -60 14 -142 -12 -21 -7 -23 -5 -20 16 7 54 140 79 205 39z m351 -13
c3 -27 2 -28 -30 -22 -28 5 -37 2 -63 -25 -29 -30 -30 -34 -35 -153 l-5 -122
-30 0 -30 0 0 170 0 170 28 3 c23 3 27 0 27 -22 l0 -24 30 29 c24 25 37 30 67
27 33 -3 38 -7 41 -31z m278 0 c28 -33 36 -84 32 -217 l-3 -105 -27 -3 c-20
-2 -28 1 -28 12 0 21 -7 20 -37 -4 -17 -13 -41 -20 -70 -20 -38 0 -50 5 -79
34 -81 81 -11 186 126 186 l50 0 0 35 c0 26 -6 39 -26 52 -26 17 -60 14 -142
-12 -21 -7 -23 -5 -20 16 5 38 60 61 137 56 54 -3 67 -7 87 -30z m502 0 c3
-27 2 -28 -30 -22 -28 5 -37 2 -63 -25 -29 -30 -30 -34 -35 -153 l-5 -122 -30
0 -30 0 0 170 0 170 28 3 c23 3 27 0 27 -22 l0 -24 30 29 c24 25 37 30 67 27
33 -3 38 -7 41 -31z m293 10 c53 -35 71 -79 67 -169 -3 -85 -19 -115 -78 -155
-42 -29 -120 -31 -170 -4 -113 60 -103 286 14 337 50 22 128 18 167 -9z m569
-12 c34 -33 53 -85 48 -130 l-3 -30 -117 -3 c-111 -2 -118 -4 -118 -23 0 -35
28 -76 60 -89 25 -10 45 -11 93 -2 67 13 85 6 68 -26 -13 -25 -77 -37 -152
-30 -68 7 -114 50 -130 123 -21 96 7 184 73 226 50 31 137 23 178 -16z m300
20 c21 -11 30 -23 30 -40 0 -29 -7 -30 -46 -10 -55 29 -109 10 -102 -36 2 -18
18 -32 68 -57 36 -17 71 -40 78 -49 15 -20 16 -87 2 -114 -16 -29 -64 -49
-117 -49 -63 0 -97 18 -101 53 -4 31 2 33 51 12 48 -20 70 -19 97 3 37 30 21
65 -41 92 -71 30 -99 60 -99 105 0 20 5 45 10 55 25 46 114 64 170 35z m770
-20 c34 -33 53 -85 48 -130 l-3 -30 -117 -3 c-111 -2 -118 -4 -118 -23 0 -72
68 -110 160 -90 60 13 83 3 64 -26 -15 -24 -68 -36 -141 -31 -55 3 -67 8 -98
38 -82 80 -68 251 27 311 50 31 137 23 178 -16z m350 20 c23 -12 30 -22 30
-45 0 -36 0 -36 -47 -10 -93 49 -148 -3 -141 -133 3 -61 7 -72 31 -93 34 -29
61 -30 112 -4 22 11 41 20 42 20 2 0 3 -14 3 -31 0 -25 -6 -32 -35 -45 -79
-32 -167 -7 -201 57 -22 44 -29 137 -14 185 14 42 53 91 85 104 33 14 104 11
135 -5z m348 -1 c44 -30 52 -64 52 -209 l0 -135 -30 0 -30 0 0 109 c0 135 -6
168 -36 188 -27 17 -57 12 -94 -16 -24 -19 -25 -26 -30 -148 l-5 -128 -30 0
-30 0 0 170 0 170 28 3 c23 3 27 0 27 -23 l0 -27 35 31 c28 24 45 31 78 31 23
0 53 -7 65 -16z m532 1 c23 -12 30 -22 30 -45 0 -36 0 -36 -47 -10 -93 49
-148 -3 -141 -133 3 -61 7 -72 31 -93 34 -29 61 -30 112 -4 22 11 41 20 42 20
2 0 3 -14 3 -31 0 -25 -6 -32 -35 -45 -79 -32 -167 -7 -201 57 -22 44 -29 137
-14 185 14 42 53 91 85 104 33 14 104 11 135 -5z m341 -8 c53 -35 71 -79 67
-169 -3 -85 -19 -115 -78 -155 -42 -29 -120 -31 -170 -4 -113 60 -103 286 14
337 50 22 128 18 167 -9z m329 8 c21 -11 30 -23 30 -40 0 -29 -7 -30 -46 -10
-55 29 -109 10 -102 -36 2 -18 18 -32 68 -57 36 -17 71 -40 78 -49 15 -20 16
-87 2 -114 -16 -29 -64 -49 -117 -49 -63 0 -97 18 -101 53 -4 31 2 33 51 12
48 -20 70 -19 97 3 37 30 21 65 -41 92 -71 30 -99 60 -99 105 0 20 5 45 10 55
25 46 114 64 170 35z m1430 -20 c34 -33 53 -85 48 -130 l-3 -30 -117 -3 c-111
-2 -118 -4 -118 -23 0 -35 28 -76 60 -89 25 -10 45 -11 93 -2 67 13 85 6 68
-26 -13 -25 -77 -37 -152 -30 -68 7 -114 50 -130 123 -21 96 7 184 73 226 50
31 137 23 178 -16z m548 19 c44 -30 52 -64 52 -209 l0 -135 -30 0 -30 0 0 109
c0 135 -6 168 -36 188 -27 17 -57 12 -94 -16 -24 -19 -25 -26 -30 -148 l-5
-128 -30 0 -30 0 0 170 0 170 28 3 c23 3 27 0 27 -23 l0 -27 35 31 c28 24 45
31 78 31 23 0 53 -7 65 -16z m392 -19 c34 -33 53 -85 48 -130 l-3 -30 -117 -3
c-111 -2 -118 -4 -118 -23 0 -35 28 -76 60 -89 25 -10 45 -11 93 -2 67 13 85
6 68 -26 -13 -25 -77 -37 -152 -30 -68 7 -114 50 -130 123 -21 96 7 184 73
226 50 31 137 23 178 -16z m373 25 c33 0 37 -3 37 -25 0 -20 -5 -25 -25 -25
-23 0 -24 -2 -14 -27 16 -43 3 -88 -38 -123 -35 -31 -40 -32 -100 -27 -60 4
-63 4 -63 -18 0 -29 17 -35 90 -35 68 0 100 -10 129 -41 43 -47 15 -126 -55
-155 -72 -30 -199 -10 -223 34 -17 31 -13 77 8 103 17 21 17 24 2 50 -14 24
-14 33 -2 61 7 18 12 38 12 43 -16 121 -11 143 42 176 27 17 43 19 97 15 36
-3 82 -6 103 -6z m348 -13 c53 -35 71 -79 67 -169 -3 -85 -19 -115 -78 -155
-42 -29 -120 -31 -170 -4 -113 60 -103 286 14 337 50 22 128 18 167 -9z m370
6 c21 -13 29 -25 29 -45 0 -33 0 -33 -47 -8 -93 49 -148 -3 -141 -133 3 -61 7
-72 31 -93 34 -29 61 -30 112 -4 22 11 41 20 42 20 2 0 3 -14 3 -31 0 -25 -6
-32 -35 -45 -79 -32 -167 -7 -201 57 -22 44 -29 137 -14 185 14 42 53 91 85
104 34 15 106 11 136 -7z m520 -6 c53 -35 71 -79 67 -169 -3 -85 -19 -115 -78
-155 -42 -29 -120 -31 -170 -4 -113 60 -103 286 14 337 50 22 128 18 167 -9z
m-11941 -124 c4 -106 8 -136 22 -153 21 -24 39 -25 77 -6 52 27 61 54 61 181
l0 115 30 0 30 0 0 -175 0 -175 -26 0 c-17 0 -28 6 -31 19 -5 18 -7 18 -40 -5
-41 -27 -91 -31 -132 -9 -46 23 -61 77 -61 214 0 65 3 121 7 125 4 4 19 6 33
4 l25 -3 5 -132z m955 -38 l0 -170 -30 0 -30 0 -3 160 c-1 87 0 165 3 173 3 8
16 12 32 10 l28 -3 0 -170z m6020 0 l0 -170 -30 0 -30 0 -3 160 c-1 87 0 165
3 173 3 8 16 12 32 10 l28 -3 0 -170z m1321 115 c12 -30 34 -91 49 -134 l28
-80 46 135 c46 133 46 134 79 137 17 2 32 0 32 -3 0 -4 -36 -109 -80 -233 -45
-125 -83 -233 -85 -239 -4 -13 -56 -18 -67 -7 -3 3 5 32 17 65 l24 60 -65 171
c-35 94 -64 175 -64 180 0 5 15 8 33 6 29 -3 34 -8 53 -58z m3289 -115 l0
-170 -30 0 -30 0 -3 160 c-1 87 0 165 3 173 3 8 16 12 32 10 l28 -3 0 -170z
m-9444 -106 c16 -30 -3 -69 -34 -69 -29 0 -47 17 -47 45 0 45 60 63 81 24z
m10030 0 c16 -30 -3 -69 -34 -69 -29 0 -47 17 -47 45 0 45 60 63 81 24z
m-5783 -1570 c30 -10 30 -11 18 -52 l-12 -41 -82 3 -83 3 -38 -39 c-44 -44
-59 -106 -41 -170 23 -81 63 -106 167 -102 l77 4 8 -39 c6 -26 5 -43 -2 -50
-7 -7 -54 -11 -113 -11 -85 0 -109 4 -142 22 -76 40 -115 103 -123 199 -9 120
57 231 159 267 52 18 163 22 207 6z m368 -8 c52 -24 108 -90 124 -147 17 -61
8 -169 -18 -221 -68 -132 -262 -167 -372 -67 -126 114 -97 354 51 428 65 32
153 35 215 7z m933 8 c35 -12 35 -11 21 -61 l-10 -36 -79 5 c-72 5 -80 4 -90
-15 -18 -34 -2 -52 85 -92 95 -44 124 -78 124 -145 0 -97 -71 -153 -195 -154
-60 -1 -130 13 -139 27 -3 5 0 27 6 51 9 37 14 42 32 36 12 -4 50 -9 86 -12
73 -6 94 6 88 49 -2 18 -22 33 -83 63 -93 47 -125 86 -125 149 0 88 74 146
186 146 34 0 75 -5 93 -11z m2272 1 l36 -10 -10 -44 -10 -43 -91 4 c-79 4 -95
2 -123 -16 -50 -32 -67 -65 -67 -135 0 -95 39 -145 126 -161 63 -12 78 -1 78
56 l0 49 -40 0 -40 0 0 45 0 45 95 0 95 0 0 -134 0 -134 -50 -11 c-166 -36
-307 8 -362 112 -34 63 -32 184 2 252 27 53 94 107 154 124 43 13 163 13 207
1z m-2843 -80 c25 -41 64 -112 88 -158 l44 -83 -7 161 -6 160 56 0 57 0 0
-245 0 -245 -60 0 -59 0 -43 73 c-23 39 -66 117 -95 172 l-53 100 0 -172 0
-173 -55 0 -55 0 0 245 0 246 72 -3 71 -3 45 -75z m794 -93 c2 -143 6 -178 20
-199 37 -56 123 -42 145 22 7 21 12 98 12 193 l1 157 55 0 55 0 0 -169 c0
-100 -5 -182 -12 -202 -29 -87 -91 -128 -191 -129 -70 0 -114 17 -150 59 -40
47 -47 90 -47 274 l0 167 54 0 54 0 4 -173z m468 -22 l0 -195 100 0 100 0 0
-50 0 -50 -155 0 -155 0 0 245 0 245 55 0 55 0 0 -195z m510 145 l0 -50 -70 0
-70 0 0 -195 0 -195 -55 0 -55 0 0 195 0 194 -67 3 -68 3 -3 48 -3 47 195 0
196 0 0 -50z m150 -195 l0 -245 -55 0 -55 0 0 245 0 245 55 0 55 0 0 -245z
m248 165 c25 -41 64 -112 88 -158 l44 -83 -7 161 -6 160 56 0 57 0 0 -245 0
-245 -60 0 -59 0 -43 73 c-23 39 -66 117 -95 172 l-53 100 0 -172 0 -173 -55
0 -55 0 0 245 0 246 72 -3 71 -3 45 -75z m-6966 35 c186 -39 333 -165 389
-332 18 -55 21 -81 17 -157 -6 -107 -30 -173 -112 -311 -56 -94 -76 -147 -76
-203 0 -18 -6 -47 -14 -65 -11 -28 -11 -34 1 -46 12 -11 12 -15 0 -29 -8 -10
-17 -32 -21 -50 -3 -19 -15 -47 -26 -62 -11 -16 -20 -32 -19 -37 6 -33 -29
-43 -262 -72 -163 -21 -233 -16 -237 15 -3 20 2 22 120 28 136 8 268 23 301
35 11 4 -81 6 -205 3 l-226 -5 -21 41 c-12 23 -21 51 -21 63 0 12 -8 28 -17
35 -15 11 -16 16 -6 33 9 14 10 28 3 43 -5 13 -14 54 -19 92 -6 39 -22 92 -37
120 -144 271 -164 335 -145 455 45 280 340 469 633 406z m1735 -280 c149 -28
259 -102 315 -209 67 -129 53 -328 -31 -450 -85 -123 -239 -188 -453 -190
l-118 -1 0 -232 0 -233 -150 0 -150 0 0 650 c0 511 3 652 13 655 65 25 461 32
574 10z m1733 -230 l0 -135 105 0 105 0 0 -110 0 -110 -106 0 -105 0 3 -212
c2 -179 6 -218 20 -245 22 -40 71 -57 138 -48 l50 7 0 -115 c0 -135 11 -125
-146 -134 -81 -5 -112 -2 -158 12 -78 25 -139 80 -167 153 -21 53 -23 75 -27
320 l-4 262 -64 0 -64 0 0 110 0 110 65 0 65 0 0 104 0 104 118 27 c64 15 122
28 127 30 44 15 45 11 45 -130z m-770 -131 c80 -18 135 -50 184 -105 83 -91
95 -157 98 -552 l3 -297 -131 0 -132 0 -6 45 c-4 25 -10 45 -13 45 -2 0 -23
-16 -46 -35 -94 -80 -269 -98 -384 -39 -64 33 -123 101 -142 164 -15 50 -13
156 3 203 51 141 194 223 432 247 60 6 110 13 112 15 10 10 -11 59 -34 80 -57
52 -208 52 -338 0 -33 -13 -63 -21 -67 -17 -7 8 -49 155 -49 171 0 18 85 51
180 71 105 23 244 25 330 4z m1620 0 c80 -18 135 -50 184 -105 83 -91 95 -157
98 -552 l3 -297 -131 0 -132 0 -6 45 c-4 25 -10 45 -13 45 -2 0 -23 -16 -46
-35 -78 -67 -224 -93 -335 -60 -76 23 -131 70 -170 145 -32 62 -34 69 -30 150
8 155 90 251 259 305 60 19 228 45 290 45 13 0 11 27 -6 59 -35 70 -184 86
-325 37 -41 -15 -81 -28 -89 -29 -15 -2 -66 156 -57 178 6 17 111 54 197 70
101 18 231 18 309 -1z m946 -5 c36 -14 74 -38 101 -65 39 -40 43 -42 43 -20 0
13 3 38 6 55 l7 31 126 0 126 0 -2 -442 c-3 -455 -9 -551 -44 -644 -45 -119
-139 -205 -273 -246 -60 -19 -94 -23 -216 -23 -150 0 -214 10 -302 47 -40 17
-47 24 -42 42 39 157 53 201 60 199 5 -1 41 -14 79 -29 49 -19 97 -28 161 -31
83 -5 97 -3 146 19 89 41 119 93 134 225 l7 68 -43 -39 c-70 -63 -120 -81
-230 -81 -83 0 -103 4 -155 28 -147 69 -232 207 -242 397 -17 299 168 527 429
529 45 1 86 -6 124 -20z m1222 -9 c82 -29 168 -93 214 -161 105 -151 117 -371
31 -549 -108 -225 -436 -317 -689 -195 -106 52 -183 142 -225 265 -30 89 -30
246 -1 340 52 161 179 278 345 315 89 21 244 13 325 -15z m1147 -1 c98 -46
162 -140 184 -270 6 -38 11 -190 11 -367 l0 -302 -150 0 -150 0 0 288 c0 172
-4 302 -11 325 -6 22 -25 55 -44 75 -31 34 -37 37 -92 37 -71 0 -116 -28 -144
-89 -17 -37 -19 -70 -19 -338 l0 -298 -150 0 -150 0 0 398 c0 220 -3 433 -6
475 l-7 77 130 0 c148 0 143 3 143 -89 l0 -43 60 56 c79 73 151 98 265 92 57
-2 94 -10 130 -27z m-7505 -734 c0 -29 -24 -37 -176 -60 -166 -25 -275 -30
-285 -14 -25 41 -16 44 154 57 89 7 189 19 222 26 84 19 85 19 85 -9z m-20
-82 c-1 -29 -23 -37 -114 -41 -57 -3 -96 -1 -96 5 0 5 42 16 93 25 116 19 117
20 117 11z"/>
<path d="M5291 21569 c-68 -12 -109 -35 -139 -80 -34 -49 -27 -127 13 -169 75
-78 206 -60 318 43 l37 35 0 91 0 91 -87 -1 c-49 -1 -112 -5 -142 -10z"/>
<path d="M7201 22008 c-49 -14 -117 -65 -162 -122 l-39 -49 0 -174 0 -175 32
-40 c45 -57 122 -116 170 -128 170 -46 295 161 260 433 -26 203 -121 296 -261
255z"/>
<path d="M8431 21569 c-68 -12 -109 -35 -139 -80 -34 -49 -27 -127 13 -169 75
-78 206 -60 318 43 l37 35 0 91 0 91 -87 -1 c-49 -1 -112 -5 -142 -10z"/>
<path d="M10489 21566 c-106 -23 -153 -75 -146 -164 5 -64 40 -107 101 -123
81 -22 165 7 249 84 l37 35 0 91 0 91 -92 -1 c-51 0 -118 -6 -149 -13z"/>
<path d="M3786 19548 c-81 -22 -156 -133 -156 -230 l0 -28 225 0 225 0 0 33
c0 54 -29 135 -61 172 -49 55 -142 77 -233 53z"/>
<path d="M5702 19522 c-63 -23 -96 -52 -127 -112 -35 -69 -48 -155 -43 -282 6
-134 29 -206 85 -262 89 -89 265 -84 355 11 102 107 114 419 23 564 -53 84
-184 120 -293 81z"/>
<path d="M1757 17006 c-104 -38 -157 -154 -157 -341 0 -226 74 -349 210 -350
74 0 121 24 198 103 l62 64 0 185 0 184 -52 56 c-92 96 -179 130 -261 99z"/>
<path d="M12817 17006 c-104 -38 -157 -154 -157 -341 0 -226 74 -349 210 -350
74 0 121 24 198 103 l62 64 0 185 0 184 -52 56 c-92 96 -179 130 -261 99z"/>
<path d="M3096 17048 c-81 -22 -156 -133 -156 -230 l0 -28 225 0 225 0 0 33
c0 54 -29 135 -61 172 -49 55 -142 77 -233 53z"/>
<path d="M5341 16569 c-68 -12 -109 -35 -139 -80 -34 -49 -27 -127 13 -169 75
-78 206 -60 318 43 l37 35 0 91 0 91 -87 -1 c-49 -1 -112 -5 -142 -10z"/>
<path d="M8352 17022 c-63 -23 -96 -52 -127 -112 -35 -69 -48 -155 -43 -282 6
-134 29 -206 85 -262 89 -89 265 -84 355 11 102 107 114 419 23 564 -53 84
-184 120 -293 81z"/>
<path d="M10922 17022 c-127 -46 -179 -163 -170 -388 6 -141 30 -215 86 -270
90 -87 265 -81 354 13 102 107 114 419 23 564 -53 84 -184 120 -293 81z"/>
<path d="M14156 17048 c-81 -22 -156 -133 -156 -230 l0 -28 225 0 225 0 0 33
c0 54 -29 135 -61 172 -49 55 -142 77 -233 53z"/>
<path d="M12888 14731 c-69 -22 -108 -74 -108 -146 0 -91 62 -155 150 -155
114 0 185 119 134 226 -28 58 -113 94 -176 75z"/>
<path d="M12370 14134 c-83 -48 -257 -197 -344 -295 -204 -232 -208 -237 -185
-277 14 -25 73 -72 90 -72 13 0 149 112 237 195 90 84 206 218 265 304 37 53
61 118 55 149 -5 28 -66 26 -118 -4z"/>
<path d="M2952 14522 c-63 -23 -91 -47 -125 -110 -39 -72 -50 -144 -45 -278 6
-140 28 -211 85 -268 89 -89 265 -84 355 11 103 108 114 430 20 567 -55 81
-184 115 -290 78z"/>
<path d="M7691 14069 c-68 -12 -109 -35 -139 -80 -34 -49 -27 -127 13 -169 75
-78 206 -60 318 43 l37 35 0 91 0 91 -87 -1 c-49 -1 -112 -5 -142 -10z"/>
<path d="M9796 14548 c-81 -22 -156 -133 -156 -230 l0 -28 225 0 225 0 0 33
c0 54 -29 135 -61 172 -49 55 -142 77 -233 53z"/>
<path d="M2757 6689 c-44 -25 -61 -136 -33 -204 19 -46 54 -62 96 -45 49 20
70 59 70 127 0 65 -15 95 -60 118 -34 18 -48 18 -73 4z"/>
<path d="M14347 6689 c-44 -25 -61 -136 -33 -204 19 -46 54 -62 96 -45 49 20
70 59 70 127 0 65 -15 95 -60 118 -34 18 -48 18 -73 4z"/>
<path d="M2383 6535 c-26 -11 -33 -20 -33 -42 0 -38 11 -52 45 -58 20 -4 41 1
63 14 27 18 32 26 32 61 0 40 0 40 -37 40 -21 -1 -53 -7 -70 -15z"/>
<path d="M3133 6535 c-26 -11 -33 -20 -33 -42 0 -38 11 -52 45 -58 20 -4 41 1
63 14 27 18 32 26 32 61 0 40 0 40 -37 40 -21 -1 -53 -7 -70 -15z"/>
<path d="M3685 6690 c-27 -10 -42 -29 -50 -63 l-7 -27 89 0 90 0 -5 30 c-8 53
-64 82 -117 60z"/>
<path d="M4863 6689 c-46 -24 -68 -124 -42 -198 21 -60 111 -79 153 -32 42 46
43 160 2 207 -24 28 -80 39 -113 23z"/>
<path d="M5913 6688 c-71 -34 -71 -208 -1 -244 85 -44 158 33 142 150 -11 85
-74 127 -141 94z"/>
<path d="M6463 6535 c-26 -11 -33 -20 -33 -42 0 -38 11 -52 45 -58 20 -4 41 1
63 14 27 18 32 26 32 61 0 40 0 40 -37 40 -21 -1 -53 -7 -70 -15z"/>
<path d="M7183 6689 c-46 -24 -68 -124 -42 -198 21 -60 111 -79 153 -32 42 46
43 160 2 207 -24 28 -80 39 -113 23z"/>
<path d="M8045 6669 c-34 -30 -35 -33 -35 -104 0 -71 1 -74 35 -104 43 -37 65
-39 101 -7 24 20 28 32 32 89 5 81 -11 135 -45 148 -38 14 -50 11 -88 -22z"/>
<path d="M9755 6669 c-34 -30 -35 -33 -35 -104 0 -71 1 -74 35 -104 43 -37 65
-39 101 -7 24 20 28 32 32 89 5 81 -11 135 -45 148 -38 14 -50 11 -88 -22z"/>
<path d="M10123 6535 c-26 -11 -33 -20 -33 -42 0 -38 11 -52 45 -58 20 -4 41
1 63 14 27 18 32 26 32 61 0 40 0 40 -37 40 -21 -1 -53 -7 -70 -15z"/>
<path d="M10675 6690 c-27 -10 -42 -29 -50 -63 l-7 -27 89 0 90 0 -5 30 c-8
53 -64 82 -117 60z"/>
<path d="M11493 6535 c-26 -11 -33 -20 -33 -42 0 -38 11 -52 45 -58 20 -4 41
1 63 14 27 18 32 26 32 61 0 40 0 40 -37 40 -21 -1 -53 -7 -70 -15z"/>
<path d="M12165 6669 c-34 -30 -35 -33 -35 -104 0 -71 1 -74 35 -104 43 -37
65 -39 101 -7 24 20 28 32 32 89 5 81 -11 135 -45 148 -38 14 -50 11 -88 -22z"/>
<path d="M12555 6690 c-27 -10 -42 -29 -50 -63 l-7 -27 89 0 90 0 -5 30 c-8
53 -64 82 -117 60z"/>
<path d="M13493 6689 c-46 -24 -68 -124 -42 -198 21 -60 111 -79 153 -32 42
46 43 160 2 207 -24 28 -80 39 -113 23z"/>
<path d="M14745 6690 c-27 -10 -42 -29 -50 -63 l-7 -27 89 0 90 0 -5 30 c-8
53 -64 82 -117 60z"/>
<path d="M1337 5789 c-44 -25 -61 -136 -33 -204 19 -46 54 -62 96 -45 49 20
70 59 70 127 0 65 -15 95 -60 118 -34 18 -48 18 -73 4z"/>
<path d="M4567 5789 c-44 -25 -61 -136 -33 -204 19 -46 54 -62 96 -45 49 20
70 59 70 127 0 65 -15 95 -60 118 -34 18 -48 18 -73 4z"/>
<path d="M1735 5790 c-27 -10 -42 -29 -50 -63 l-7 -27 89 0 90 0 -5 30 c-8 53
-64 82 -117 60z"/>
<path d="M2383 5635 c-26 -11 -33 -20 -33 -42 0 -38 11 -52 45 -58 20 -4 41 1
63 14 27 18 32 26 32 61 0 40 0 40 -37 40 -21 -1 -53 -7 -70 -15z"/>
<path d="M3273 5789 c-46 -24 -68 -124 -42 -198 21 -60 111 -79 153 -32 42 46
43 160 2 207 -24 28 -80 39 -113 23z"/>
<path d="M4013 5789 c-46 -24 -68 -124 -42 -198 21 -60 111 -79 153 -32 42 46
43 160 2 207 -24 28 -80 39 -113 23z"/>
<path d="M4975 5790 c-27 -10 -42 -29 -50 -63 l-7 -27 89 0 90 0 -5 30 c-8 53
-64 82 -117 60z"/>
<path d="M5803 5789 c-72 -37 -69 -222 4 -250 35 -13 85 -4 107 20 42 46 43
160 2 207 -24 28 -80 39 -113 23z"/>
<path d="M7173 5635 c-26 -11 -33 -20 -33 -42 0 -38 11 -52 45 -58 20 -4 41 1
63 14 27 18 32 26 32 61 0 40 0 40 -37 40 -21 -1 -53 -7 -70 -15z"/>
<path d="M7805 5790 c-27 -10 -42 -29 -50 -63 l-7 -27 89 0 90 0 -5 30 c-8 53
-64 82 -117 60z"/>
<path d="M8345 5790 c-27 -10 -42 -29 -50 -63 l-7 -27 89 0 90 0 -5 30 c-8 53
-64 82 -117 60z"/>
<path d="M9453 5789 c-46 -24 -68 -124 -42 -198 21 -60 111 -79 153 -32 42 46
43 160 2 207 -24 28 -80 39 -113 23z"/>
<path d="M10313 5789 c-46 -24 -68 -124 -42 -198 21 -60 111 -79 153 -32 42
46 43 160 2 207 -24 28 -80 39 -113 23z"/>
<path d="M10930 5780 c-40 -40 -12 -120 43 -120 41 0 67 27 67 70 0 29 -6 43
-22 54 -31 22 -64 20 -88 -4z"/>
<path d="M10905 5487 c-35 -54 5 -92 89 -83 58 6 76 19 76 57 0 35 -3 37 -82
45 -63 6 -67 5 -83 -19z"/>
<path d="M11283 5635 c-26 -11 -33 -20 -33 -42 0 -38 11 -52 45 -58 20 -4 41
1 63 14 27 18 32 26 32 61 0 40 0 40 -37 40 -21 -1 -53 -7 -70 -15z"/>
<path d="M13113 5789 c-46 -24 -68 -124 -42 -198 21 -60 111 -79 153 -32 42
46 43 160 2 207 -24 28 -80 39 -113 23z"/>
<path d="M2135 4869 c-34 -30 -35 -33 -35 -104 0 -71 1 -74 35 -104 43 -37 65
-39 102 -7 27 23 28 28 28 111 0 83 -1 88 -28 111 -37 32 -59 30 -102 -7z"/>
<path d="M10557 4889 c-44 -25 -61 -136 -33 -204 19 -46 54 -62 96 -45 49 20
70 59 70 127 0 65 -15 95 -60 118 -34 18 -48 18 -73 4z"/>
<path d="M4200 4916 l0 -96 34 0 c84 0 134 49 120 119 -9 44 -37 64 -99 69
l-55 4 0 -96z"/>
<path d="M1345 4869 c-34 -30 -35 -33 -35 -104 0 -71 1 -74 35 -104 43 -37 65
-39 101 -7 24 20 28 32 32 89 5 81 -11 135 -45 148 -38 14 -50 11 -88 -22z"/>
<path d="M3183 4889 c-46 -24 -68 -124 -42 -198 21 -60 111 -79 153 -32 42 46
43 160 2 207 -24 28 -80 39 -113 23z"/>
<path d="M4573 4735 c-26 -11 -33 -20 -33 -42 0 -38 11 -52 45 -58 20 -4 41 1
63 14 27 18 32 26 32 61 0 40 0 40 -37 40 -21 -1 -53 -7 -70 -15z"/>
<path d="M5183 4735 c-26 -11 -33 -20 -33 -42 0 -38 11 -52 45 -58 20 -4 41 1
63 14 27 18 32 26 32 61 0 40 0 40 -37 40 -21 -1 -53 -7 -70 -15z"/>
<path d="M5983 4889 c-46 -24 -68 -124 -42 -198 21 -60 111 -79 153 -32 42 46
43 160 2 207 -24 28 -80 39 -113 23z"/>
<path d="M6555 4890 c-27 -10 -42 -29 -50 -63 l-7 -27 89 0 90 0 -5 30 c-8 53
-64 82 -117 60z"/>
<path d="M7625 4890 c-27 -10 -42 -29 -50 -63 l-7 -27 91 0 91 0 -6 28 c-12
55 -67 84 -119 62z"/>
<path d="M9193 4888 c-71 -34 -71 -208 -1 -244 85 -44 158 33 142 150 -11 85
-74 127 -141 94z"/>
<path d="M10955 4890 c-27 -10 -42 -29 -50 -63 l-7 -27 89 0 90 0 -5 30 c-8
53 -64 82 -117 60z"/>
<path d="M11895 4890 c-27 -10 -42 -29 -50 -63 l-7 -27 89 0 90 0 -5 30 c-8
53 -64 82 -117 60z"/>
<path d="M12230 4880 c-40 -40 -12 -120 43 -120 41 0 67 27 67 70 0 29 -6 43
-22 54 -31 22 -64 20 -88 -4z"/>
<path d="M12205 4587 c-35 -54 5 -92 89 -83 58 6 76 19 76 57 0 35 -3 37 -82
45 -63 6 -67 5 -83 -19z"/>
<path d="M12613 4889 c-46 -24 -68 -124 -42 -198 21 -60 111 -79 153 -32 42
46 43 160 2 207 -24 28 -80 39 -113 23z"/>
<path d="M13503 4889 c-46 -24 -68 -124 -42 -198 21 -60 111 -79 153 -32 42
46 43 160 2 207 -24 28 -80 39 -113 23z"/>
<path d="M8298 2992 c-41 -25 -62 -76 -62 -152 0 -79 21 -124 68 -147 95 -45
178 47 163 179 -14 112 -92 168 -169 120z"/>
<path d="M4049 2335 c-4 -3 -2 -22 4 -42 11 -36 11 -37 -38 -80 l-50 -43 2
-90 2 -90 -73 0 -73 0 8 43 c4 23 8 62 9 87 0 40 -5 49 -46 91 -45 45 -46 49
-35 80 6 18 9 34 7 37 -11 10 -26 -11 -32 -44 -6 -33 -3 -40 40 -83 38 -38 46
-53 46 -83 0 -58 -20 -138 -35 -138 -7 0 -19 -8 -26 -17 -13 -15 -12 -16 9
-11 18 5 22 2 22 -18 0 -30 18 -32 22 -1 3 20 9 22 86 25 82 3 82 3 82 -23 0
-14 5 -25 10 -25 6 0 10 11 10 25 0 24 2 26 38 20 20 -3 55 -11 77 -16 25 -7
49 -7 65 -1 24 9 23 10 -20 22 -25 7 -71 16 -104 20 -32 5 -60 10 -61 12 -2 2
-7 38 -11 81 l-7 77 52 47 c31 28 51 54 51 67 -1 28 -23 79 -31 71z"/>
<path d="M3631 1951 c-11 -7 -9 -10 8 -16 28 -9 74 2 66 15 -8 12 -55 13 -74
1z"/>
<path d="M5477 2543 c-4 -3 -7 -93 -7 -199 l0 -194 26 -6 c44 -11 159 3 208
27 80 37 124 119 113 211 -14 116 -89 168 -243 168 -50 0 -94 -3 -97 -7z"/>
<path d="M6583 1890 c-22 -5 -60 -18 -83 -30 -73 -37 -91 -133 -35 -189 22
-22 35 -26 84 -26 45 0 67 5 87 21 55 41 69 70 73 155 l3 79 -43 -1 c-24 -1
-63 -5 -86 -9z"/>
<path d="M8203 1890 c-22 -5 -60 -18 -83 -30 -73 -37 -91 -133 -35 -189 22
-22 35 -26 84 -26 45 0 67 5 87 21 55 41 69 70 73 155 l3 79 -43 -1 c-24 -1
-63 -5 -86 -9z"/>
<path d="M9145 2171 c-77 -46 -110 -117 -110 -236 0 -99 22 -161 75 -209 76
-68 193 -56 248 27 26 39 27 45 27 188 0 164 -5 179 -75 227 -42 28 -122 30
-165 3z"/>
<path d="M10243 2191 c-99 -46 -149 -218 -108 -376 17 -65 51 -122 87 -144 69
-43 152 -31 210 30 47 50 68 118 68 224 0 137 -40 228 -116 265 -50 25 -87 25
-141 1z"/>
<path d="M2808 9558 c-24 -20 -89 -128 -83 -139 9 -13 69 -11 86 4 9 6 37 38
64 70 39 47 46 60 34 68 -21 13 -83 11 -101 -3z"/>
<path d="M2353 9553 c-10 -4 -13 -80 -13 -333 0 -359 -3 -340 60 -340 63 0 60
-19 60 340 0 290 -2 329 -16 334 -18 7 -73 7 -91 -1z"/>
<path d="M5103 9553 c-10 -4 -13 -80 -13 -333 0 -359 -3 -340 60 -340 63 0 60
-19 60 340 0 290 -2 329 -16 334 -18 7 -73 7 -91 -1z"/>
<path d="M5343 9553 c-10 -4 -13 -80 -13 -333 0 -359 -3 -340 60 -340 63 0 60
-19 60 340 0 290 -2 329 -16 334 -18 7 -73 7 -91 -1z"/>
<path d="M7673 9553 c-10 -4 -13 -80 -13 -334 l0 -329 24 -6 c13 -3 38 -4 57
-2 l34 3 3 329 c2 257 -1 331 -10 338 -14 8 -75 9 -95 1z"/>
<path d="M8213 9553 c-10 -3 -13 -38 -13 -124 l0 -118 -46 24 c-26 14 -59 25
-73 25 -82 0 -152 -54 -176 -134 -18 -59 -19 -174 -4 -227 37 -122 172 -166
278 -89 l40 29 3 -27 c3 -25 7 -27 48 -27 l45 0 3 329 c2 257 -1 331 -10 338
-14 8 -75 9 -95 1z m-48 -324 c35 -31 35 -32 35 -114 0 -82 0 -83 -35 -114
-58 -51 -111 -39 -139 29 -41 102 1 230 75 230 17 0 42 -12 64 -31z"/>
<path d="M10313 9553 c-10 -3 -13 -38 -13 -122 l0 -118 -47 23 c-73 38 -142
28 -200 -28 -47 -46 -66 -111 -61 -216 4 -102 24 -150 76 -190 30 -23 45 -27
98 -27 54 0 68 4 108 32 l45 32 3 -27 c3 -25 7 -27 48 -27 l45 0 3 329 c2 257
-1 331 -10 338 -14 8 -75 9 -95 1z m-48 -324 c35 -31 35 -32 35 -114 0 -82 0
-83 -35 -114 -58 -51 -111 -39 -139 29 -40 101 2 230 75 230 17 0 42 -12 64
-31z"/>
<path d="M1160 9520 c-42 -42 -10 -110 51 -110 53 0 69 15 69 65 0 34 -5 47
-19 55 -31 16 -79 12 -101 -10z"/>
<path d="M518 9499 c-17 -9 -18 -35 -18 -309 l0 -300 24 -6 c13 -3 37 -4 52
-2 l29 3 5 245 c5 224 6 242 19 210 34 -84 215 -417 237 -437 19 -17 37 -23
74 -23 82 0 80 -10 80 325 0 323 4 305 -65 305 -56 0 -58 -9 -53 -235 3 -113
3 -205 1 -205 -2 0 -10 15 -18 33 -31 73 -197 373 -217 390 -23 19 -121 24
-150 6z"/>
<path d="M3738 9499 c-17 -9 -18 -35 -18 -308 0 -329 -4 -311 63 -311 18 0 38
4 44 8 9 6 13 74 15 261 l3 252 85 -247 c47 -136 91 -253 98 -260 14 -15 89
-19 108 -6 7 4 52 119 100 256 l89 249 3 -243 c1 -164 6 -248 14 -257 7 -9 27
-13 57 -11 l46 3 3 299 c2 223 -1 302 -10 313 -14 18 -160 15 -178 -3 -6 -6
-45 -101 -87 -210 -41 -110 -78 -202 -82 -206 -4 -4 -36 72 -71 170 -77 216
-93 248 -122 256 -36 9 -141 6 -160 -5z"/>
<path d="M6328 9500 c-17 -10 -18 -36 -18 -309 0 -329 -4 -311 63 -311 18 0
38 4 44 8 9 6 13 74 15 261 l3 252 85 -247 c47 -136 91 -253 98 -260 14 -15
89 -19 108 -6 6 4 42 93 79 197 37 105 78 217 91 250 l23 60 1 -245 c0 -178 3
-249 12 -258 7 -7 26 -12 44 -12 68 0 64 -18 64 310 0 251 -2 299 -15 310 -18
15 -159 10 -175 -6 -6 -6 -45 -101 -87 -210 -41 -110 -78 -202 -82 -206 -4 -4
-40 83 -80 195 -40 111 -79 209 -87 217 -18 18 -160 26 -186 10z"/>
<path d="M1518 9351 c-101 -33 -148 -108 -148 -238 0 -95 15 -142 62 -190 42
-44 117 -61 191 -44 79 17 97 33 97 86 0 24 -4 46 -9 50 -5 3 -26 -6 -47 -20
-90 -61 -174 -3 -174 120 0 122 73 174 172 124 48 -25 61 -17 56 36 -2 27 -11
44 -28 56 -29 22 -131 33 -172 20z"/>
<path d="M1941 9349 c-55 -13 -125 -81 -140 -135 -6 -22 -11 -73 -11 -114 1
-129 50 -198 156 -220 171 -36 291 49 302 213 7 118 -27 202 -99 239 -44 22
-148 31 -208 17z m144 -111 c55 -49 55 -189 0 -244 -29 -29 -89 -32 -124 -8
-65 46 -68 204 -4 254 35 28 94 27 128 -2z"/>
<path d="M2693 9350 c-46 -10 -84 -27 -95 -44 -11 -16 -10 -74 1 -80 5 -3 33
5 63 19 100 47 178 26 178 -49 l0 -33 -76 -6 c-79 -7 -149 -32 -173 -61 -23
-27 -26 -117 -6 -155 19 -38 82 -71 135 -71 39 0 113 30 126 51 6 10 10 7 14
-11 5 -22 11 -25 50 -25 l45 0 0 192 c0 179 -1 193 -21 220 -11 15 -33 34 -47
41 -34 17 -141 23 -194 12z m147 -310 c0 -35 -5 -43 -32 -60 -42 -25 -83 -25
-108 0 -23 23 -24 33 -9 61 14 26 43 38 102 38 l47 1 0 -40z"/>
<path d="M3157 9346 c-72 -27 -102 -73 -94 -143 6 -57 41 -95 116 -124 92 -37
115 -71 69 -103 -30 -22 -84 -20 -137 4 -24 11 -45 20 -48 20 -2 0 -3 -21 -1
-47 3 -42 7 -50 33 -63 43 -20 171 -19 212 3 65 35 95 104 73 171 -14 45 -46
70 -122 98 -35 12 -66 31 -75 45 -14 21 -14 25 2 43 22 24 80 26 132 5 19 -8
37 -15 39 -15 2 0 4 20 4 45 0 40 -3 47 -27 56 -46 18 -135 21 -176 5z"/>
<path d="M4715 9351 c-104 -27 -155 -110 -155 -250 1 -130 49 -199 157 -221
63 -14 158 -6 210 15 30 13 33 18 33 54 0 46 -1 47 -60 26 -23 -8 -67 -15 -97
-15 -49 0 -59 4 -89 34 -21 21 -34 44 -34 60 l0 25 148 3 147 3 3 55 c6 93
-26 163 -89 195 -34 18 -132 27 -174 16z m114 -98 c12 -10 26 -35 30 -55 l9
-38 -94 0 c-78 0 -94 3 -94 15 0 24 28 73 47 84 28 16 79 13 102 -6z"/>
<path d="M5683 9350 c-46 -10 -84 -27 -95 -44 -12 -18 -9 -76 5 -81 6 -3 34 6
61 20 95 48 176 26 176 -49 l0 -33 -74 -6 c-88 -8 -149 -30 -176 -65 -26 -32
-28 -127 -4 -161 21 -30 89 -61 134 -61 39 0 113 30 126 51 6 10 10 7 14 -11
5 -22 11 -25 50 -25 l45 0 3 180 c3 202 -5 233 -64 267 -37 22 -141 31 -201
18z m147 -310 c0 -35 -5 -43 -32 -60 -60 -37 -120 -19 -120 35 0 43 33 65 98
65 l54 0 0 -40z"/>
<path d="M7285 9354 c-95 -24 -115 -40 -115 -90 0 -44 17 -51 63 -24 20 12 60
24 90 27 47 5 58 2 76 -16 13 -13 21 -34 21 -55 l0 -33 -74 -6 c-146 -13 -196
-51 -196 -148 0 -50 4 -63 28 -89 52 -57 154 -64 225 -15 l36 24 3 -22 c3 -19
9 -22 48 -22 l45 0 0 192 c0 179 -1 193 -21 220 -11 15 -33 34 -47 41 -29 14
-149 24 -182 16z m135 -314 c0 -35 -5 -43 -32 -60 -53 -32 -103 -25 -119 17
-19 50 20 81 104 82 l47 1 0 -40z"/>
<path d="M8581 9349 c-55 -13 -125 -81 -140 -135 -6 -22 -11 -73 -11 -114 1
-129 50 -198 156 -220 171 -36 291 49 302 213 7 118 -27 202 -99 239 -44 22
-148 31 -208 17z m144 -111 c55 -49 55 -189 0 -244 -29 -29 -89 -32 -124 -8
-65 46 -68 204 -4 254 35 28 94 27 128 -2z"/>
<path d="M9187 9350 c-16 -5 -44 -20 -63 -35 -30 -23 -34 -24 -34 -8 0 27 -20
43 -51 43 -61 0 -59 8 -59 -236 l0 -224 24 -6 c13 -3 38 -4 57 -2 l34 3 5 154
5 153 35 29 c48 40 98 38 123 -5 7 -12 14 -83 17 -176 l5 -155 34 -3 c19 -2
45 -1 58 3 l25 6 -4 177 c-3 193 -11 221 -69 265 -30 22 -100 31 -142 17z"/>
<path d="M9635 9354 c-55 -14 -87 -27 -100 -41 -18 -18 -20 -82 -2 -88 6 -3
34 6 61 20 95 48 176 26 176 -49 l0 -33 -74 -6 c-88 -8 -149 -30 -176 -65 -23
-29 -27 -112 -7 -152 16 -32 91 -70 140 -70 39 0 110 30 123 52 6 9 10 5 14
-12 5 -22 11 -25 50 -25 l45 0 3 180 c3 202 -5 233 -65 268 -32 18 -148 31
-188 21z m135 -314 c0 -35 -5 -43 -32 -60 -86 -52 -169 20 -96 83 14 11 37 17
74 17 l54 0 0 -40z"/>
<path d="M10693 9351 c-51 -13 -96 -44 -127 -89 -27 -37 -30 -52 -34 -132 -7
-152 39 -226 154 -250 171 -36 291 49 302 213 7 118 -27 202 -99 239 -41 21
-148 31 -196 19z m129 -111 c63 -49 55 -224 -11 -260 -29 -15 -84 -12 -110 6
-31 22 -51 73 -51 129 0 56 20 107 51 129 32 22 91 20 121 -4z"/>
<path d="M1163 9343 c-10 -3 -13 -59 -13 -229 l0 -224 24 -6 c13 -3 38 -4 57
-2 l34 3 3 224 c2 173 -1 226 -10 233 -14 8 -75 10 -95 1z"/>
</g>
</svg>
