<svg width="291" height="123" viewBox="0 0 291 123" fill="none" xmlns="http://www.w3.org/2000/svg">
<g clip-path="url(#clip0)">
<path fill-rule="evenodd" clip-rule="evenodd" d="M119.664 38.3381C114.933 47.1553 115.495 69.5208 121.609 71.0967C124.047 71.7251 129.241 70.1857 134.527 66.9997L131.209 90.4733H150.801L144.057 59.0362C147.818 54.6211 150.364 49.2103 149.938 43.1474C148.712 25.6778 124.394 29.5209 119.664 38.3381Z" fill="#915B3C"/>
<path fill-rule="evenodd" clip-rule="evenodd" d="M125.495 21.9023C120.986 21.9023 117.332 25.5571 117.332 30.0656C117.332 34.4256 120.75 37.9872 125.052 38.217C127.514 38.9765 130.677 39.5342 134.184 39.7693C133.843 41.0489 133.658 42.504 133.658 44.1484C133.658 45.6 133.818 47.1394 134.113 48.7026C134.874 47.7983 135.891 47.2083 136.923 47.2083C139.811 47.2083 141.821 49.5839 141.821 52.1063C141.821 55.3074 139.973 57.6233 137.276 57.8085C139.705 62.4717 143.065 65.9837 146.422 65.9837C152.798 65.9837 157.331 57.4591 157.331 48.2937C157.331 47.9718 157.325 47.6521 157.312 47.3347C164.057 51.9623 169.255 61.0858 178.18 61.0858C190.321 61.0858 195.143 36.5961 178.18 36.5961C166.643 36.5961 160.968 38.2783 156.077 40.7658C155.113 38.046 153.642 35.7597 151.844 34.1632C151.41 33.6753 150.746 33.2087 149.888 32.7761L149.708 32.68C149.244 32.4393 148.767 32.2401 148.278 32.0855C145.328 31.0008 141.053 30.2353 136.278 30.0685C135.387 30.0374 134.511 30.0283 133.657 30.0398C133.644 25.543 129.995 21.9023 125.495 21.9023Z" fill="#191847"/>
<path fill-rule="evenodd" clip-rule="evenodd" d="M201.789 134.045L187.412 136.648C204.098 169.758 213.035 187.265 214.223 189.168C216.896 193.451 214.198 201.166 213.18 205.236C219.095 206.722 216.909 197.739 224.392 199.738C231.223 201.562 236.964 206.036 243.464 200.25C244.263 199.538 244.878 197.282 242.217 196.073C235.587 193.06 225.811 187.464 224.248 185.331C222.115 182.421 214.629 165.326 201.789 134.045ZM83.9525 142.009L57.9133 161.13C50.8509 163.036 44.9505 165.407 40.2121 168.243C39.0928 169.263 37.7401 171.328 42.382 170.972C47.024 170.615 51.9227 170.448 52.5632 172.031C53.2037 173.614 50.3947 175.508 51.6894 177.644C52.5525 179.068 56.6304 175.497 63.9231 166.931L89.7088 156.238L83.9525 142.009Z" fill="#915B3C"/>
<path fill-rule="evenodd" clip-rule="evenodd" d="M130.993 74.1807C118.823 99.3374 102.352 123.472 77.8853 144.088C74.5345 143.847 70.8909 144.402 66.9845 145.719C65.0619 146.366 64.0285 148.45 64.6763 150.373C65.0524 151.489 65.9128 152.306 66.9446 152.667C66.1978 153.213 65.4435 153.755 64.6824 154.295L71.2515 167.705C98.8946 153.922 124.876 143.531 136.716 120.776C140.689 113.139 139.344 87.1984 139.724 77.7612L130.993 74.1807Z" fill="#69A1AC"/>
<path fill-rule="evenodd" clip-rule="evenodd" d="M170.393 165.501C144.729 168.32 124.529 168.32 109.792 165.501C107.966 165.152 108.046 157.281 108.893 155.132C122.078 121.658 130.752 97.1538 130.752 73.9038C133.171 75.1676 137.405 75.3569 143.454 74.472C159.71 98.4318 167.182 125.923 170.393 165.501Z" fill="#191847"/>
<path fill-rule="evenodd" clip-rule="evenodd" d="M140.72 72.5142C143.454 108.661 105.699 187.579 118.808 254.977C143.039 260.388 177.632 243.552 211.304 257.003C210.051 229.861 184.952 197.974 175.16 169.457C176.032 168.638 176.487 167.409 176.263 166.143L175.838 163.731C175.55 162.097 174.224 160.908 172.658 160.721C172.382 159.497 172.145 158.28 171.95 157.072C170.302 146.871 173.118 136.869 172.986 127.047C186.112 138.246 197.888 157.584 208.312 185.061L223.73 180.525C223.141 178.338 222.532 176.179 221.901 174.047C223.68 173.04 225.761 168.404 224.264 167.629C222.719 166.828 221.082 166.265 219.358 165.933C205.221 123.354 182.103 92.2146 150.004 72.5142L140.72 72.5142Z" fill="#89C5CC"/>
<path fill-rule="evenodd" clip-rule="evenodd" d="M146.633 73.3306L150.844 86.2819L142.363 95.9909L150.028 103.621L131.485 135.371L154.161 103.684L146.633 95.9909L154.161 87.4109L146.633 73.3306Z" fill="black" fill-opacity="0.1"/>
</g>
<g clip-path="url(#clip1)">
<path fill-rule="evenodd" clip-rule="evenodd" d="M202.082 12.6689C196.323 23.4029 197.008 50.6305 204.45 52.549C207.418 53.314 213.741 51.44 220.176 47.5613L216.137 76.138H239.988L231.778 37.8667C236.357 32.4917 239.456 25.9047 238.938 18.5238C237.446 -2.74359 207.841 1.93497 202.082 12.6689Z" fill="#B28B67"/>
<path fill-rule="evenodd" clip-rule="evenodd" d="M215.012 2.22097C208.32 2.79497 202.345 4.83555 200.651 6.04741C200.651 12.383 201.879 14.2627 212.364 14.0971C214.94 15.4576 216.921 17.8003 218.984 20.8716C218.072 33.5895 215.656 39.9491 211.739 39.9491C205.863 39.9491 200.878 36.2188 198.299 36.2188C196.42 36.2188 196.84 38.5707 198.085 40.3146C199.113 41.7533 204.119 43.14 204.119 45.3705C204.119 47.601 200.164 45.8754 200.164 47.1983C200.164 49.3864 199.469 53.5006 203.267 53.5006C207.11 53.5006 218.13 52.0999 220.019 46.3955C221.237 42.7142 222.025 35.0861 222.383 23.511C222.616 23.4818 222.853 23.4675 223.094 23.4675C226.387 23.4675 229.057 26.1371 229.057 29.4302C229.057 31.1019 228.369 32.613 227.26 33.6957C228.64 35.6431 230.186 37.6775 231.958 39.7766C238.614 35.7831 243.554 24.0925 237.046 12.8621C235.247 7.36049 231.175 4.42187 226.366 3.05737C222.47 1.42778 218.426 1.24404 215.012 2.22097Z" fill="#191847"/>
<path fill-rule="evenodd" clip-rule="evenodd" d="M226.379 59.5736L217.785 58.0997C202.99 95.0587 177.16 128.641 140.294 158.846L168.152 192.69C205.013 149.682 227.735 105.31 226.379 59.5736Z" fill="#191847"/>
<path fill-rule="evenodd" clip-rule="evenodd" d="M263.839 167.566H187.318C205.046 124.461 213.91 87.8436 213.91 57.7141L236.993 54.2749C255.133 83.4508 260.256 119.372 263.839 167.566Z" fill="#DDE3E9"/>
<path fill-rule="evenodd" clip-rule="evenodd" d="M235.965 54.2749C234.162 54.337 231.416 54.4488 227.727 54.6105L222.149 70.55C221.559 89.9839 218.114 129.149 211.813 188.044L261.974 188.044C261.843 192.111 261.626 196.217 261.324 200.361H298.621C293.042 137.419 272.668 88.7234 237.499 54.2749L237.482 54.2918L237.472 54.2749H235.965Z" fill="#2F3676"/>
</g>
<g clip-path="url(#clip2)">
<path fill-rule="evenodd" clip-rule="evenodd" d="M66.4186 47.5456C69.6623 53.5908 69.2769 68.9248 65.0847 70.0052C63.4129 70.4361 59.8515 69.3807 56.2267 67.1963L58.5017 83.29H45.0674L49.6919 61.7365C47.1128 58.7094 45.3672 54.9998 45.6589 50.843C46.4994 38.8656 63.1749 41.5005 66.4186 47.5456Z" fill="#EAC7A8"/>
<path fill-rule="evenodd" clip-rule="evenodd" d="M39.8022 46.8558C39.3683 46.4258 39.1316 45.8122 38.9268 45.2295C38.7142 44.6242 38.5076 44.0126 38.3664 43.3826C38.0844 42.1237 38.0817 40.6761 38.9799 39.6986C39.7002 38.9147 40.781 38.5631 41.7785 38.4867C42.4431 38.4358 43.1257 38.5288 43.7627 38.7382C44.3948 38.946 44.9396 39.36 45.5524 39.6169C45.5758 38.2603 45.8082 36.8409 46.4965 35.6826C47.1589 34.5681 48.2149 33.9427 49.4176 33.7772C50.652 33.6074 51.871 33.8962 52.9761 34.4937C53.2527 34.6434 53.5268 34.8001 53.7891 34.9776C54.0088 35.1262 54.2371 35.3051 54.4948 35.3655C54.7821 35.433 54.9245 35.2671 55.1112 35.0575C55.3301 34.8118 55.5768 34.5954 55.8378 34.4035C56.9919 33.5553 58.5061 33.2066 59.8431 33.715C60.4592 33.9492 61.0582 34.347 61.4762 34.8952C61.8487 35.3838 62.1145 36.159 62.6287 36.4994C62.8469 36.6439 63.001 36.4524 63.1996 36.3109C63.498 36.0983 63.7826 35.8637 64.0847 35.6568C64.5089 35.3662 64.9682 35.1489 65.4601 35.0351C66.1802 34.8685 67.1753 34.9076 67.3811 35.8505C67.4584 36.2047 67.3992 36.5835 67.3742 36.9404C67.3399 37.4304 67.3042 37.9203 67.2616 38.4096C67.2293 38.7811 67.1884 39.1399 67.1183 39.5048C67.0809 39.6992 66.9639 40.0618 67.0473 40.2565C67.1515 40.5 67.6326 40.3616 67.8381 40.37C68.244 40.3868 68.6517 40.458 69.027 40.6314C69.3179 40.7658 69.6237 40.9635 69.7465 41.2969C69.822 41.5017 69.8021 41.712 69.7664 41.9227C69.7237 42.1755 69.7726 42.3096 69.8045 42.5648C70.3497 42.2963 72.239 41.6999 72.4767 42.6769C72.5559 43.0022 72.3757 43.3697 72.2381 43.6441C71.997 44.1252 71.6808 44.565 71.3575 44.9844C70.6833 45.8594 69.8783 46.6141 69.0122 47.2595C70.0269 47.7105 70.2918 49.0409 69.4133 49.8336C69.0253 50.1835 68.5038 50.2614 68.0145 50.239C67.8354 50.2309 67.5772 50.162 67.4363 50.1932C67.3605 50.21 67.2793 50.2742 67.1742 50.2814C66.4837 50.3287 65.7041 50.1624 65.0291 50.0092C63.8263 49.7362 62.6875 49.1664 61.7576 48.2986C61.5191 48.076 61.322 47.9479 61.0009 47.9511C60.7196 47.954 60.4435 48.0311 60.1624 48.0382C59.4186 48.0572 58.748 47.6937 58.0574 47.4517C58.0151 48.3846 57.7494 49.412 57.3677 50.2513C57.0565 50.9357 56.4065 51.0352 55.7679 51.0952C53.7255 51.2873 51.676 51.0729 49.6311 51.0757C51.6106 51.5231 53.6561 51.7075 55.6181 52.234C56.5049 52.4719 55.8277 53.0695 55.4485 53.4838C54.8241 54.166 54.3599 55.0113 54.0379 55.9018C53.0695 54.6397 51.3579 53.8081 49.8415 54.1958C48.166 54.6242 46.9862 56.8896 48.0576 58.5183C48.6797 59.4638 49.8029 59.8288 50.7376 60.235C50.0085 60.9929 49.8321 62.1124 49.3932 63.0553C49.1768 63.5204 48.873 64.0461 48.3889 64.2082C48.2098 64.2682 47.9998 64.2733 47.8586 64.4193C47.6835 64.6 47.6419 64.802 47.4184 64.9574C46.5265 65.5773 45.1334 65.5295 44.3429 64.7205C43.628 63.9888 43.814 62.831 44.4111 62.0892C43.4607 61.6931 41.7293 61.1837 42.107 59.7034C40.0476 59.5666 35.0477 56.2273 37.8116 53.7871C36.2948 52.93 34.9012 50.8352 35.8755 48.9887C36.6258 47.5668 38.3706 46.9312 39.8022 46.8558Z" fill="#191847"/>
<path fill-rule="evenodd" clip-rule="evenodd" d="M19.4911 123.038L31.1887 123.084C23.966 146.397 20.0668 158.766 19.4911 160.192C18.1959 163.402 20.9368 168.29 22.109 170.917C18.2914 172.625 18.6981 166.299 13.8823 168.539C9.48666 170.584 6.1429 174.289 1.06435 171.156C0.439978 170.771 -0.244237 169.32 1.40891 168.187C5.52751 165.363 11.4627 160.421 12.2646 158.795C13.3582 156.577 15.767 144.658 19.4911 123.038ZM88.0472 122.585L105.903 135.695C110.745 137.002 114.791 138.627 118.041 140.572C118.808 141.271 119.736 142.687 116.553 142.442C113.37 142.198 110.011 142.083 109.571 143.169C109.132 144.254 111.058 145.553 110.171 147.017C109.579 147.994 106.782 145.545 101.782 139.672L84.1001 132.341L88.0472 122.585Z" fill="#EAC7A8"/>
<path fill-rule="evenodd" clip-rule="evenodd" d="M52.7339 73.9613L57.5743 73.1312C75.5334 88.6429 82.9098 118.443 104.923 134.229L99.6248 140.795C61.4355 136.068 51.97 99.7192 52.7339 73.9613Z" fill="#E87613"/>
<path fill-rule="evenodd" clip-rule="evenodd" d="M31.6338 134.78C51.0418 134.78 65.3179 134.78 74.4621 134.78C76.4191 134.78 76.0504 131.955 75.7675 130.529C72.5024 114.074 59.757 96.3369 59.757 72.9139L47.4033 70.9771C37.1852 87.4083 33.6516 107.638 31.6338 134.78Z" fill="#DDE3E9"/>
<path fill-rule="evenodd" clip-rule="evenodd" d="M46.4725 70.977C46.8898 70.977 47.272 71.0031 47.6192 71.0553L51.4888 71.2763C62.5847 108.876 65.6449 133.961 60.6694 146.534L26.9598 146.534C24.9627 151.19 23.0516 155.108 21.2266 158.287H12.0414C11.177 130.34 17.8223 106.621 31.9775 87.128C30.1834 86.6127 28.7624 85.41 27.7148 83.5201C23.1995 75.3739 24.8302 70.8888 29.6556 69.4146C34.481 67.9403 38.7843 70.977 46.4725 70.977Z" fill="#FF9B21"/>
</g>
<defs>
<clipPath id="clip0">
<rect width="209.058" height="332.849" fill="white" transform="matrix(-1 0 0 1 246.39 20.4795)"/>
</clipPath>
<clipPath id="clip1">
<rect width="209.058" height="396.136" fill="white" transform="matrix(-1 0 0 1 320 0)"/>
</clipPath>
<clipPath id="clip2">
<rect width="119.462" height="229.907" fill="white" transform="translate(0 33.5986)"/>
</clipPath>
</defs>
</svg>
