<?xml version="1.0" encoding="UTF-8"?>
<svg width="1038px" height="1405px" viewBox="0 0 1038 1405" version="1.1" xmlns="http://www.w3.org/2000/svg" xmlns:xlink="http://www.w3.org/1999/xlink">
    <!-- Generator: Sketch 54.1 (76490) - https://sketchapp.com -->
    <title>mailbox</title>
    <desc>Created with Sketch.</desc>
    <defs>
        <rect id="path-1" x="0" y="0" width="311.691609" height="272.847238"></rect>
    </defs>
    <g id="Page-1" stroke="none" stroke-width="1" fill="none" fill-rule="evenodd">
        <g id="Artboard" transform="translate(-202.000000, 0.000000)">
            <g id="mailbox" transform="translate(167.000000, 0.000000)">
                <g id="Layer_2">
                    <g>
                        <g id="Shadow" transform="translate(492.806529, 1350.378091)" fill="#F3F6F8" fill-rule="nonzero">
                            <path d="M0.944947411,27.339963 C0.944947411,12.2531157 258.929694,0.0552391412 373.056776,0.0552391412 C487.183857,0.0552391412 579.732288,12.2531157 579.732288,27.339963 C579.732288,42.4268102 487.183857,54.6246868 373.056776,54.6246868 C258.929694,54.6246868 0.944947411,42.4268102 0.944947411,27.339963 Z" id="Shape"></path>
                        </g>
                        <g id="Layer_1-2">
                            <polygon id="Rectangle-path" fill="#0813A8" fill-rule="nonzero" points="511.174238 610.054325 609.956502 610.054325 609.956502 1374.34759 511.174238 1374.34759"></polygon>
                            <path d="M202.199941,1110.40801 C198.771083,1110.47598 195.829515,1107.96707 195.341661,1104.55848 C194.853807,1101.14989 196.972686,1097.91074 200.281839,1097.0064 C215.853124,1092.13462 224.711621,1075.68044 220.242473,1059.93061 C215.773324,1044.18077 199.608258,1034.88569 183.818128,1038.98623 C181.476782,1039.67432 178.947701,1039.05591 177.183565,1037.36396 C175.419429,1035.67201 174.688253,1033.16357 175.265463,1030.78353 C175.842673,1028.40349 177.640578,1026.51345 179.981924,1025.82537 C203.177025,1019.04434 227.454988,1032.42782 234.208272,1055.71819 C240.961555,1079.00856 227.632828,1103.38624 204.437727,1110.16726 C203.710318,1110.37189 202.954012,1110.45325 202.199941,1110.40801 Z" id="Shape" fill="#5E69F8" fill-rule="nonzero"></path>
                            <g id="Group" opacity="0.15" transform="translate(199.291138, 1053.909276)" fill="#F2F3F4" fill-rule="nonzero">
                                <path d="M2.90880284,52.2455273 C1.60209777,52.2924195 0.470608019,51.3420725 0.285694036,50.0423581 C0.100780053,48.7426437 0.92200156,47.5121923 2.18951451,47.1898285 C20.389124,41.8395106 30.832854,22.6978269 25.5264247,4.41701147 C25.1450799,3.50819225 25.3157494,2.46037607 25.965571,1.72089699 C26.6153925,0.981417902 27.6295552,0.680927632 28.5750922,0.947711588 C29.5206292,1.21449554 30.2304825,2.00141813 30.4016011,2.97252609 C36.477622,23.9787208 24.460553,45.9568562 3.54817024,52.085029 L2.90880284,52.2455273 Z" id="Shape"></path>
                            </g>
                            <path d="M197.244844,610.616688 L197.244844,610.616688 C231.694503,610.510057 264.769596,624.176656 289.166759,648.598742 C313.563922,673.020828 327.276353,706.18955 327.276189,740.780871 L327.276189,1056.72192 L67.6131028,1056.72192 L67.6131028,740.780871 C67.6131028,668.893178 125.65121,610.616688 197.244844,610.616688 Z" id="Shape" fill="#080D57" fill-rule="nonzero" transform="translate(197.444646, 833.668996) rotate(180.000000) translate(-197.444646, -833.668996) "></path>
                            <path d="M908.700921,294.594768 L908.700921,611.739558 L181.4205,611.739558 L181.4205,166.196068 L780.82744,166.196068 C851.450013,166.196068 908.700921,223.682124 908.700921,294.594768 Z" id="Shape" fill="#0813A8" fill-rule="nonzero"></path>
                            <path d="M181.580342,611.659333 L181.580342,611.659333 C215.960818,611.659333 248.933158,625.37302 273.243825,649.78354 C297.554492,674.194059 311.212083,707.301828 311.212083,741.823516 L311.212083,1056.72133 L51.8686805,1056.72133 L51.8686805,741.823516 C51.868674,707.28792 65.5372349,674.167983 89.8651903,649.755156 C114.193146,625.342328 147.186022,611.638041 181.580342,611.659333 Z" id="Shape" fill="#0813A8" fill-rule="nonzero" transform="translate(181.540382, 834.190318) rotate(180.000000) translate(-181.540382, -834.190318) "></path>
                            <ellipse id="Oval" fill="#5E69F8" fill-rule="nonzero" cx="391.212929" cy="410.314097" rx="34.6856816" ry="34.8281475"></ellipse>
                            <ellipse id="Oval" fill="#5E69F8" fill-rule="nonzero" cx="391.212929" cy="410.314097" rx="19.5007058" ry="19.5808018"></ellipse>
                            <polygon id="Shape" fill="#5E69F8" fill-rule="nonzero" points="484.880254 49.1125029 380.103921 54.2484509 380.103921 0 484.880254 5.13594801"></polygon>
                            <rect id="Rectangle-path" fill="#080D57" fill-rule="nonzero" x="311.212083" y="581.485614" width="597.488837" height="29.6119503"></rect>
                            <rect id="Rectangle-path" fill="#080D57" fill-rule="nonzero" x="311.212083" y="581.485614" width="133.308103" height="29.6119503"></rect>
                            <rect id="Rectangle-path" fill="#424AC0" fill-rule="nonzero" x="444.520186" y="581.485614" width="133.308103" height="29.6119503"></rect>
                            <polygon id="Rectangle-path" fill="#080D57" fill-rule="nonzero" points="577.82829 581.485614 711.136393 581.485614 711.136393 611.097564 577.82829 611.097564"></polygon>
                            <rect id="Rectangle-path" fill="#424AC0" fill-rule="nonzero" x="711.056472" y="581.485614" width="133.308103" height="29.6119503"></rect>
                            <path d="M241.361194,179.196436 L240.08246,179.196436 C216.570583,174.404463 201.29776,151.48154 205.859366,127.831122 C210.420972,104.180703 233.112427,88.6404657 256.706012,93.0088085 C259.104464,93.481868 261.069383,95.2038073 261.860603,97.5259887 C262.651823,99.84817 262.149139,102.417799 260.541908,104.26692 C258.934676,106.116042 256.467073,106.963732 254.068621,106.490672 C237.759221,103.321764 221.97944,114.028541 218.823494,130.40493 C215.667548,146.781319 226.330529,162.625913 242.639929,165.794822 C246.210815,166.329428 248.74145,169.575291 248.401162,173.184341 C248.060875,176.793392 244.968553,179.504717 241.361194,179.356934 L241.361194,179.196436 Z" id="Shape" fill="#5E69F8" fill-rule="nonzero"></path>
                            <path d="M212.110136,128.880195 C213.981021,119.160103 219.645761,110.595049 227.842396,105.093108 C236.039031,99.5911665 246.086672,97.6093808 255.746961,99.5892419" id="Shape" stroke="#5E69F8" stroke-width="0.75" opacity="0.15" stroke-linecap="round"></path>
                            <path d="M363.480368,410.314097 C363.480368,394.934917 375.896659,382.467628 391.212929,382.467628" id="Shape" stroke="#FFFFFF" stroke-width="3" opacity="0.1" stroke-linecap="round"></path>
                            <path d="M181.580342,639.104531 L181.580342,639.104531 C244.314941,639.148829 295.147993,690.226589 295.147977,753.218876 L295.147977,1030.72057 L67.9327865,1030.72057 L67.9327865,753.218876 C67.9327865,690.195263 118.81453,639.104531 181.580342,639.104531 Z" id="Shape" stroke="#0813A8" stroke-width="5" opacity="0.05" transform="translate(181.540382, 834.912549) rotate(-180.000000) translate(-181.540382, -834.912549) "></path>
                            <polygon id="Shape" fill="#204458" fill-rule="nonzero" opacity="0.2" points="609.956502 632.363599 511.174238 661.413805 511.174238 610.054325 609.956502 610.054325"></polygon>
                            <path d="M531.474153,716.304249 L531.474153,1309.18525" id="Shape" stroke="#FFFFFF" stroke-width="12" opacity="0.1" stroke-linecap="round"></path>
                            <ellipse id="Oval" fill="#8088FF" fill-rule="nonzero" cx="371.712224" cy="597.134206" rx="7.2728042" ry="7.30267608"></ellipse>
                            <ellipse id="Oval" fill="#8088FF" fill-rule="nonzero" cx="511.174238" cy="597.134206" rx="7.2728042" ry="7.30267608"></ellipse>
                            <ellipse id="Oval" fill="#8088FF" fill-rule="nonzero" cx="650.636253" cy="597.134206" rx="7.2728042" ry="7.30267608"></ellipse>
                            <ellipse id="Oval" fill="#8088FF" fill-rule="nonzero" cx="790.018346" cy="597.134206" rx="7.2728042" ry="7.30267608"></ellipse>
                            <rect id="Rectangle-path" fill="#141414" fill-rule="nonzero" opacity="0.1" x="312.251055" y="568.886491" width="596.449865" height="12.5991225"></rect>
                            <path d="M908.700921,294.594768 L908.700921,322.521485 L906.622976,322.521485 L181.660263,322.521485 L181.660263,166.196068 L781.067203,166.196068 C851.596125,166.328853 908.701045,223.776035 908.700921,294.594768 L908.700921,294.594768 Z" id="Shape" fill="#FFFFFF" fill-rule="nonzero" opacity="0.05"></path>
                            <path d="M311.691609,296.199752 L311.691609,611.739558 L51.9486014,611.739558 L51.9486014,296.199752 C51.9486025,224.267739 110.022491,165.955322 181.660263,165.955322 C253.298035,165.955322 311.371924,224.267739 311.371925,296.199752 L311.691609,296.199752 Z" id="Shape" fill="#111442" fill-rule="nonzero"></path>
                            <g id="mail" transform="translate(0.000000, 353.905818)">
                                <mask id="mask-2" fill="white">
                                    <use xlink:href="#path-1"></use>
                                </mask>
                                <g id="Mask"></g>
                                <g mask="url(#mask-2)">
                                    <g transform="translate(35.708829, 32.099675)">
                                        <polygon id="Star" fill="#F0F0F0" transform="translate(184.075787, 115.958644) scale(-1, 1) rotate(-90.000000) translate(-184.075787, -115.958644) " points="238.17945 297.563578 75.4039861 297.563578 75.4039861 22.1437735 75.4039861 -65.646289 265.463519 251.086486 292.747587 297.563578"></polygon>
                                        <polygon id="Star" fill="#DADADA" transform="translate(210.222500, 115.652857) rotate(-90.000000) translate(-210.222500, -115.652857) " points="264.326164 297.257791 101.5507 297.257791 101.5507 21.8379866 101.5507 -65.9520759 291.610233 250.780699 318.894301 297.257791"></polygon>
                                        <polygon id="Star-2" fill="#C7C7C7" transform="translate(197.149144, 79.724481) rotate(-180.000000) translate(-197.149144, -79.724481) " points="199.763815 159.016852 0.177233692 159.016852 0.177233692 150.806743 199.763815 0.432111011 394.121053 150.806743 394.121053 159.016852"></polygon>
                                    </g>
                                </g>
                            </g>
                            <path d="M267.655179,972.620155 C247.392465,995.62915 218.85619,1009.61259 188.324911,1011.49383 C157.793633,1013.37507 127.768717,1002.99998 104.856254,982.651303" id="Shape" fill="#FFFFFF" fill-rule="nonzero" opacity="0.08"></path>
                            <path d="M462.822078,198.777238 L758.049976,198.777238" id="Shape" stroke="#FFFFFF" stroke-width="7" opacity="0.1" stroke-linecap="round"></path>
                            <rect id="Rectangle-path" fill="#5E69F8" fill-rule="nonzero" x="380.103921" y="45.8222862" width="22.2180172" height="340.256556"></rect>
                        </g>
                        <g id="Flower" transform="translate(327.675794, 1038.955307)">
                            <path d="M277.24569,335.552779 C246.702272,243.69197 283.523521,142.833693 365.957917,92.5582391" id="Shape" stroke="#D0D5F4" stroke-width="2" stroke-linecap="round"></path>
                            <path d="M464.340576,65.5945121 C464.340576,74.8231686 417.18723,71.4527028 412.8715,78.9158772 C408.55577,86.3790517 434.769834,125.941901 427.097425,130.435856 C419.425016,134.92981 399.04518,92.5582391 389.854274,92.5582391 C380.663367,92.5582391 359.963848,135.010059 352.531201,130.676603 C345.098555,126.343147 371.232698,86.940796 366.757126,79.236874 C362.281554,71.5329519 315.28805,75.1441654 315.28805,65.9155088 C315.28805,56.6868522 362.441396,60.0573181 366.757126,52.5941436 C371.072856,45.1309692 344.858793,5.56811967 352.531201,1.07416516 C360.20361,-3.41978935 380.583446,39.1925293 389.854274,39.1925293 C399.125101,39.1925293 419.7447,-3.25929098 427.177346,1.07416516 C434.609992,5.40762129 408.395928,44.4087265 412.8715,52.4336453 C417.347072,60.458564 464.340576,56.3658555 464.340576,65.5945121 Z" id="Shape" fill="#FFC50A" fill-rule="nonzero"></path>
                            <path d="M201.720415,335.552779 C224.96312,241.397223 180.118226,143.639774 93.7472454,100.181912" id="Shape" stroke="#D0D5F4" stroke-width="2" stroke-linecap="round"></path>
                            <path d="M41.3990393,77.7121394 C42.1183276,86.940796 1.43857666,111.015552 6.55351587,117.836733 C11.6684551,124.657914 48.5120017,95.6077082 56.5040942,99.4596693 C64.4961867,103.31163 64.4961867,150.658651 73.846935,149.936408 C83.1976832,149.214166 75.8449581,102.268391 82.9579205,97.2929412 C90.0708828,92.3174915 131.390001,115.429258 135.226206,107.404339 C139.06241,99.3794201 95.2657429,82.3665923 94.3866128,73.1379357 C93.5074826,63.9092791 134.347075,39.8345228 129.232136,33.0133419 C124.117197,26.1921609 87.2736504,55.2423668 79.2815579,51.3904058 C71.2894654,47.5384448 71.2894654,0.191424092 61.9387171,0.913666781 C52.5879688,1.63590947 59.940694,48.5816843 52.8277316,53.5571339 C45.7147693,58.5325835 4.39565089,35.4208175 0.559446477,43.4457363 C-3.27675794,51.470655 40.679751,68.4834828 41.3990393,77.7121394 Z" id="Shape" fill="#35D554" fill-rule="nonzero"></path>
                        </g>
                    </g>
                </g>
            </g>
        </g>
    </g>
</svg>