<svg width="1038" height="1405" xmlns="http://www.w3.org/2000/svg" xmlns:xlink="http://www.w3.org/1999/xlink">
 <!-- Generator: Sketch 54.1 (76490) - https://sketchapp.com -->
 <title>mailbox</title>
 <desc>Created with Sketch.</desc>
 <defs>
  <rect height="272.84724" width="311.69161" y="0" x="0" id="path-1"/>
 </defs>
 <g>
  <title>background</title>
  <rect fill="none" id="canvas_background" height="602" width="802" y="-1" x="-1"/>
 </g>
 <g>
  <title>Layer 1</title>
  <g fill-rule="nonzero" fill="#F3F6F8" id="Shadow">
   <path id="Shape" d="m456.75147,1369.71801c0,-15.08684 257.98474,-27.28472 372.11183,-27.28472c114.12708,0 206.67551,12.19788 206.67551,27.28472c0,15.08685 -92.54843,27.28473 -206.67551,27.28473c-114.12709,0 -372.11183,-12.19788 -372.11183,-27.28473z"/>
  </g>
  <g id="Layer_1-2">
   <polygon points="474.1742248535156,602.0543212890625 572.9564819335938,602.0543212890625 572.9564819335938,1366.3475341796875 474.1742248535156,1366.3475341796875 " fill-rule="nonzero" fill="#0813A8" id="Rectangle-path"/>
   <path fill-rule="nonzero" fill="#5E69F8" id="Shape" d="m165.19994,1102.40801c-3.42886,0.06797 -6.37043,-2.44094 -6.85828,-5.84953c-0.48785,-3.40859 1.63103,-6.64774 4.94018,-7.55208c15.57128,-4.87178 24.42978,-21.32596 19.96063,-37.07579c-4.46915,-15.74984 -20.63421,-25.04492 -36.42434,-20.94438c-2.34135,0.68809 -4.87043,0.06968 -6.63457,-1.62227c-1.76413,-1.69195 -2.49531,-4.20039 -1.9181,-6.58043c0.57721,-2.38004 2.37512,-4.27008 4.71646,-4.95816c23.1951,-6.78103 47.47307,6.60245 54.22635,29.89282c6.75329,23.29037 -6.57544,47.66805 -29.77054,54.44907c-0.72741,0.20463 -1.48372,0.28599 -2.23779,0.24075z"/>
   <g fill-rule="nonzero" fill="#F2F3F4" opacity="0.15" id="Group">
    <path id="Shape" d="m165.19994,1098.15483c-1.3067,0.04689 -2.43819,-0.90346 -2.62311,-2.20317c-0.18491,-1.29972 0.63631,-2.53017 1.90382,-2.85253c18.19961,-5.35032 28.64334,-24.492 23.33691,-42.77282c-0.38134,-0.90882 -0.21067,-1.95663 0.43915,-2.69611c0.64982,-0.73948 1.66399,-1.03997 2.60952,-0.77319c0.94554,0.26679 1.65539,1.05371 1.82651,2.02482c6.07602,21.00619 -5.94105,42.98433 -26.85343,49.1125l-0.63937,0.1605z"/>
   </g>
   <path fill-rule="nonzero" fill="#080D57" id="Shape" d="m160.24484,602.61669l0,0c34.44966,-0.10663 67.52476,13.55997 91.92192,37.98205c24.39716,24.42209 38.10959,57.59081 38.10943,92.18213l0,315.94105l-259.66309,0l0,-315.94105c0,-71.88769 58.03811,-130.16418 129.63174,-130.16418z"/>
   <path fill-rule="nonzero" fill="#0813A8" id="Shape" d="m871.70092,286.59477l0,317.14479l-727.28042,0l0,-445.54349l599.40694,0c70.62257,0 127.87348,57.48605 127.87348,128.3987z"/>
   <path fill-rule="nonzero" fill="#0813A8" id="Shape" d="m144.58034,603.65933l0,0c34.38048,0 67.35282,13.71369 91.66349,38.12421c24.31066,24.41052 37.96825,57.51829 37.96825,92.03998l0,314.89781l-259.3434,0l0,-314.89781c-0.00001,-34.5356 13.66855,-67.65554 37.99651,-92.06836c24.32796,-24.41283 57.32083,-38.11712 91.71515,-38.09583z"/>
   <ellipse ry="34.82815" rx="34.68568" cy="402.3141" cx="354.21293" fill-rule="nonzero" fill="#5E69F8" id="Oval"/>
   <ellipse ry="19.5808" rx="19.50071" cy="402.3141" cx="354.21293" fill-rule="nonzero" fill="#5E69F8" id="Oval"/>
   <polygon points="447.8802490234375,41.11250305175781 343.1039123535156,46.248451232910156 343.1039123535156,-8 447.8802490234375,-2.8640518188476562 " fill-rule="nonzero" fill="#5E69F8" id="Shape"/>
   <rect height="29.61195" width="597.48884" y="573.48561" x="274.21208" fill-rule="nonzero" fill="#080D57" id="Rectangle-path"/>
   <rect height="29.61195" width="133.3081" y="573.48561" x="274.21208" fill-rule="nonzero" fill="#080D57" id="Rectangle-path"/>
   <rect height="29.61195" width="133.3081" y="573.48561" x="407.52019" fill-rule="nonzero" fill="#424AC0" id="Rectangle-path"/>
   <polygon points="540.8283081054688,573.485595703125 674.1364135742188,573.485595703125 674.1364135742188,603.0975341796875 540.8283081054688,603.0975341796875 " fill-rule="nonzero" fill="#080D57" id="Rectangle-path"/>
   <rect height="29.61195" width="133.3081" y="573.48561" x="674.05647" fill-rule="nonzero" fill="#424AC0" id="Rectangle-path"/>
   <path fill-rule="nonzero" fill="#5E69F8" id="Shape" d="m204.36119,171.19644l-1.27873,0c-23.51188,-4.79198 -38.7847,-27.7149 -34.22309,-51.36532c4.5616,-23.65042 27.25306,-39.19065 50.84664,-34.82231c2.39845,0.47306 4.36337,2.195 5.15459,4.51718c0.79122,2.32218 0.28854,4.89181 -1.31869,6.74093c-1.60723,1.84912 -4.07484,2.69681 -6.47329,2.22375c-16.3094,-3.16891 -32.08918,7.53787 -35.24513,23.91426c-3.15594,16.37639 7.50704,32.22098 23.81644,35.38989c3.57088,0.53461 6.10152,3.78047 5.76123,7.38952c-0.34028,3.60905 -3.43261,6.32038 -7.03997,6.17259l0,-0.16049z"/>
   <path stroke-linecap="round" opacity="0.15" stroke-width="0.75" stroke="#5E69F8" id="Shape" d="m175.11014,120.88019c1.87088,-9.72009 7.53562,-18.28514 15.73226,-23.78708c8.19663,-5.50194 18.24427,-7.48373 27.90456,-5.50387"/>
   <path stroke-linecap="round" opacity="0.1" stroke-width="3" stroke="#FFFFFF" id="Shape" d="m326.48037,402.3141c0,-15.37918 12.41629,-27.84647 27.73256,-27.84647"/>
   <path opacity="0.05" stroke-width="5" stroke="#0813A8" id="Shape" d="m144.58034,631.10453l0,0c62.7346,0.0443 113.56765,51.12206 113.56764,114.11435l0,277.50169l-227.21519,0l0,-277.50169c0,-63.02362 50.88174,-114.11435 113.64755,-114.11435z"/>
   <polygon points="572.9564819335938,624.3635864257812 474.1742248535156,653.413818359375 474.1742248535156,602.0543212890625 572.9564819335938,602.0543212890625 " opacity="0.2" fill-rule="nonzero" fill="#204458" id="Shape"/>
   <path stroke-linecap="round" opacity="0.1" stroke-width="12" stroke="#FFFFFF" id="Shape" d="m494.47415,708.30425l0,592.881"/>
   <ellipse ry="7.30268" rx="7.2728" cy="589.13421" cx="334.71222" fill-rule="nonzero" fill="#8088FF" id="Oval"/>
   <ellipse ry="7.30268" rx="7.2728" cy="589.13421" cx="474.17424" fill-rule="nonzero" fill="#8088FF" id="Oval"/>
   <ellipse ry="7.30268" rx="7.2728" cy="589.13421" cx="613.63625" fill-rule="nonzero" fill="#8088FF" id="Oval"/>
   <ellipse ry="7.30268" rx="7.2728" cy="589.13421" cx="753.01835" fill-rule="nonzero" fill="#8088FF" id="Oval"/>
   <rect height="12.59912" width="596.44987" y="560.88649" x="275.25106" opacity="0.1" fill-rule="nonzero" fill="#141414" id="Rectangle-path"/>
   <path opacity="0.05" fill-rule="nonzero" fill="#FFFFFF" id="Shape" d="m871.70092,286.59477l0,27.92671l-2.07794,0l-724.96272,0l0,-156.32541l599.40694,0c70.52893,0.13278 127.63385,57.57997 127.63372,128.3987l0,0z"/>
   <path fill-rule="nonzero" fill="#111442" id="Shape" d="m274.69161,288.19975l0,315.53981l-259.74301,0l0,-315.53981c0,-71.93201 58.07389,-130.24443 129.71166,-130.24443c71.63777,0 129.71166,58.31242 129.71166,130.24443l0.31969,0z"/>
   <g id="mail">
    <mask transform="translate(0,-1) translate(0,-1) translate(0,-1) translate(0,-1) translate(-2,0) translate(0,-2) translate(0,-1) translate(0,-1) translate(0,353.90582275390625) translate(167,0) translate(-202,0) " id="mask-2">
     <use id="svg_2" xlink:href="#path-1"/>
    </mask>
    <g id="Mask"/>
    <g id="svg_3" mask="url(#mask-2)">
     <g id="svg_4">
      <polygon points="26.665771484375,559.9161987304688 -136.1096954345703,559.9161987304688 -136.1096954345703,284.49639892578125 -136.1096954345703,196.70632934570312 53.949859619140625,513.4391479492188 81.23391723632812,559.9161987304688 " transform="translate(184.075787, 115.958644) scale(-1, 1) rotate(-90.000000) translate(-184.075787, -115.958644) " fill="#F0F0F0" id="Star"/>
      <polygon points="473.25750732421875,790.9160766601562 310.4820251464844,790.9160766601562 310.4820251464844,515.496337890625 310.4820251464844,427.706298828125 500.54156494140625,744.4390258789062 527.8256225585938,790.9160766601562 " transform="rotate(-90 -2.5823364257811368,756.0109863281251) " fill="#DADADA" id="Star"/>
      <polygon points="395.62176513671875,616.746826171875 196.0352020263672,616.746826171875 196.0352020263672,608.5367431640625 395.62176513671875,458.1620788574219 589.97900390625,608.5367431640625 589.97900390625,616.746826171875 " transform="rotate(-180 195.85797119140625,457.72998046875) translate(-197.14913940429688,-79.72447967529297) " fill="#C7C7C7" id="Star-2"/>
     </g>
    </g>
   </g>
   <path opacity="0.08" fill-rule="nonzero" fill="#FFFFFF" id="Shape" d="m230.65518,964.62015c-20.26272,23.009 -48.79899,36.99244 -79.33027,38.87368c-30.53128,1.88124 -60.55619,-8.49385 -83.46866,-28.84253"/>
   <path stroke-linecap="round" opacity="0.1" stroke-width="7" stroke="#FFFFFF" id="Shape" d="m425.82208,190.77724l295.2279,0"/>
   <rect height="340.25656" width="22.21802" y="37.82229" x="343.10392" fill-rule="nonzero" fill="#5E69F8" id="Rectangle-path"/>
  </g>
 </g>
</svg>