<svg width="620" height="390" id="f5428f0e-3981-4d97-b57b-4411608bf460" data-name="Layer 1" xmlns="http://www.w3.org/2000/svg" viewBox="0 0 661 415"><g id="a36fcad6-79b9-45f3-baec-cf39a2c863a5" data-name="Layer 1"><path d="M85.16,265.3c-7-13.17-12.48-31.77-10-46.56a83.11,83.11,0,0,1,10,46.56" fill="#fff" stroke="#0052af" stroke-linecap="round" stroke-linejoin="round" stroke-width="1.07"/><path d="M95.09,247.51c-7-13.17-12.47-31.77-10-46.56a83.13,83.13,0,0,1,10,46.56" fill="#fff" stroke="#0052af" stroke-linecap="round" stroke-linejoin="round" stroke-width="1.07"/><path d="M103.76,229.37c-7.05-13.17-12.48-31.77-10.05-46.55a81.47,81.47,0,0,1,10.05,46.55" fill="#fff" stroke="#0052af" stroke-linecap="round" stroke-linejoin="round" stroke-width="1.07"/><path d="M111.84,209.16c-5.43-14-8.66-33.16-4.39-47.6a83.77,83.77,0,0,1,4.39,47.6" fill="#fff" stroke="#0052af" stroke-linecap="round" stroke-linejoin="round" stroke-width="1.07"/><path d="M117.74,194.14C117.5,179,121.09,160,130,148.39a81.37,81.37,0,0,1-12.24,45.75" fill="#fff" stroke="#0052af" stroke-linecap="round" stroke-linejoin="round" stroke-width="1.07"/><path d="M115.31,201.65c10.63-11,27-22.07,42.16-24.15a83.11,83.11,0,0,1-42.16,24.15" fill="#fff" stroke="#0052af" stroke-linecap="round" stroke-linejoin="round" stroke-width="1.07"/><path d="M108.49,219c12-10.39,30-20.44,46.09-21.25A87.15,87.15,0,0,1,108.49,219" fill="#fff" stroke="#0052af" stroke-linecap="round" stroke-linejoin="round" stroke-width="1.07"/><path d="M100.87,237.46c12-10.4,30-20.45,46.09-21.26a87.58,87.58,0,0,1-46.09,21.26" fill="#fff" stroke="#0052af" stroke-linecap="round" stroke-linejoin="round" stroke-width="1.07"/><path d="M89.43,260c12-10.39,30-20.44,46.09-21.25A87.12,87.12,0,0,1,89.43,260" fill="#fff" stroke="#0052af" stroke-linecap="round" stroke-linejoin="round" stroke-width="1.07"/><path d="M117.62,194c-7.86,24.38-21.26,57.53-42.86,87.68" fill="none" stroke="#0052af" stroke-linecap="round" stroke-linejoin="round" stroke-width="1.07"/><path d="M71,265.64c10.4-14,20-34.54,19.64-52.09A97.06,97.06,0,0,0,71,265.64" fill="#fff" stroke="#0052af" stroke-linecap="round" stroke-linejoin="round" stroke-width="1.07"/><path d="M62.63,243.35c10.4-14,20-34.54,19.64-52.1a97.09,97.09,0,0,0-19.64,52.1" fill="#fff" stroke="#0052af" stroke-linecap="round" stroke-linejoin="round" stroke-width="1.07"/><path d="M55.7,220.94c10.4-14,20-34.54,19.64-52.1a96.14,96.14,0,0,0-19.64,52.1" fill="#fff" stroke="#0052af" stroke-linecap="round" stroke-linejoin="round" stroke-width="1.07"/><path d="M49.81,196.22C58.48,181,65.52,159.37,63.21,142a97.58,97.58,0,0,0-13.4,54.18" fill="#fff" stroke="#0052af" stroke-linecap="round" stroke-linejoin="round" stroke-width="1.07"/><path d="M45.65,177.74c2.89-17.45,2-40.09-6.23-55a95,95,0,0,0,6.23,55" fill="#fff" stroke="#0052af" stroke-linecap="round" stroke-linejoin="round" stroke-width="1.07"/><path d="M47.15,187c-10.39-14.56-27.37-30.27-44.58-35.24A99.77,99.77,0,0,0,47.15,187" fill="#fff" stroke="#0052af" stroke-linecap="round" stroke-linejoin="round" stroke-width="1.07"/><path d="M52,208c-12-14.09-31.19-28.88-49.56-32.57A100.86,100.86,0,0,0,52,208" fill="#fff" stroke="#0052af" stroke-linecap="round" stroke-linejoin="round" stroke-width="1.07"/><path d="M57.55,230.76c-12-14.1-31.19-28.88-49.56-32.58a102.73,102.73,0,0,0,49.56,32.58" fill="#fff" stroke="#0052af" stroke-linecap="round" stroke-linejoin="round" stroke-width="1.07"/><path d="M67,258.83C55,244.73,35.83,230,17.47,226.25A101.6,101.6,0,0,0,67,258.83" fill="#fff" stroke="#0052af" stroke-linecap="round" stroke-linejoin="round" stroke-width="1.07"/><path d="M45.88,177.62c4.74,29.57,14.56,70.23,34.31,108.82" fill="none" stroke="#0052af" stroke-linecap="round" stroke-linejoin="round" stroke-width="1.07"/><polygon points="89.67 332.41 64.48 332.41 49.12 274.08 104.91 274.08 89.67 332.41" fill="#3dcdac"/><rect x="224.36" y="36.57" width="243.62" height="141.74" fill="none" stroke="#0052af" stroke-linecap="round" stroke-linejoin="round" stroke-width="1.07"/><rect x="265.93" y="60.83" width="40.54" height="46.55" transform="matrix(0.14, -0.99, 0.99, 0.14, 163.02, 355.78)" fill="#fff" stroke="#b38f5a" stroke-linecap="round" stroke-linejoin="round" stroke-width="1.07"/><rect x="276.22" y="95.72" width="46.55" height="40.55" transform="translate(-8.53 25.05) rotate(-4.72)" fill="#fff" stroke="#b38f5a" stroke-linecap="round" stroke-linejoin="round" stroke-width="1.07"/><line x1="669.09" y1="331.83" x2="18.51" y2="331.83" fill="none" stroke="#0052af" stroke-linecap="round" stroke-linejoin="round" stroke-width="1.07"/><path d="M360.32,114.43c-3.47-2.08,23.91-4.73,20.1-6.24C351.19,97.34,341.61,117.32,340,121c-1.62,3.92-1.39,11.32-1.39,15.59-.11,4.74,2.31,13.52,2.89,17.79.69,5.43.92,3.12,3.35,8.09a14.43,14.43,0,0,0,21.83,5.08c3.58-2.77,5.66-7.16,7.51-11.44,2.43-5.43,4.74-11.09,5.08-17s-1.38-12.36-6-16.05Z" fill="#0052af"/><path d="M382.84,345.35l15-1.85,18-31.77,35.47.35h.8c8.78-.58,11.79-6.58,12.36-13.51a51.67,51.67,0,0,0-.92-13.52,169.07,169.07,0,0,0-4.85-20.1c-4.62-15-17.91-66.08-46.79-66-1.61,0-15.13.35-15.24.81-.35,2.42-8.9,17-31.89,18.37-9.93.57-14.09-2-15.59-5.09a7.06,7.06,0,0,1-.46-4.62l.92-4.16h-.11c-9.82,3.93-20.22,5.9-27,15.14-3.7,5.08-6.24,11-8.67,16.86-5.43,12.82-12.59,24.95-18.83,37.43-5.43,11.09-12.36,24.14-12.36,36.85a9.73,9.73,0,0,0,.93,3.93c2.77,6.23,9.93,9.12,16.52,7.39a17.87,17.87,0,0,0,6.7-3.58,16.55,16.55,0,0,0,4.5-6L334,262.87c1.73,9.94,12.71,74.39,14.44,84.21Z" fill="#fa450d"/><path d="M392.89,195.76l-.69-29.23-28.88,19.06-3.93-3.81v12.47c0,3.47-6.46,8.9-9.7,10.05,0,0-5.77,6.82,3.35,10.86S387.23,233,387.23,233l5.66-37.19" fill="#f6bd96" stroke="#0052af" stroke-linecap="round" stroke-linejoin="round"/><path d="M347.84,151.51s-5-5.54-7.51.23-.23,17.1,7.05,15Z" fill="#f6bd96" stroke="#0052af" stroke-linecap="round" stroke-linejoin="round"/><path d="M392.89,195.76c-.11-4.74-.57-23-.57-23l.11-3.7L393,150l.35-10.16s1.84-18.37-15.6-21.26c-9.24-1.5-22.64-1.15-29.8,6-6.82,6.93-4.39,19.64-4.51,28.53v12.25c0,6.12,4.51,11.2,8.78,15.71,5.78,6,13.29,10.74,28.88-2.89" fill="#f6bd96" stroke="#0052af" stroke-linecap="round" stroke-linejoin="round"/><ellipse cx="368.64" cy="150.01" rx="1.73" ry="3.12" transform="translate(-3.6 9.17) rotate(-1.42)" fill="#0052af"/><path d="M349.35,150.47c0,1.74.92,3.12,1.84,3.12s1.74-1.5,1.74-3.23-.93-3.12-1.85-3.12S349.35,148.74,349.35,150.47Z" fill="#0052af"/><path d="M374.3,145.39a10.34,10.34,0,0,0-3-2.89" fill="#fff" stroke="#0052af" stroke-linecap="round" stroke-linejoin="round" stroke-width="1.07"/><path d="M352.46,143a8.66,8.66,0,0,0-3.58,2.88" fill="#fff" stroke="#0052af" stroke-linecap="round" stroke-linejoin="round" stroke-width="1.07"/><path d="M359.28,148.28c-1.16,3.58-2.43,7.16-3.47,10.74-.34,1.16-.69,2.66.23,3.47s2,.34,3,.69" fill="none" stroke="#0052af" stroke-linecap="round" stroke-linejoin="round" stroke-width="1.07"/><path d="M356.16,171.61a10.15,10.15,0,0,0,8,5.43,5.72,5.72,0,0,0,3.12-.46,6.43,6.43,0,0,0,2.66-2.89,14.19,14.19,0,0,0,1-3.93" fill="#fff" stroke="#0052af" stroke-linecap="round" stroke-linejoin="round" stroke-width="1.07"/><path d="M355.93,171.38c4.85-.23,9.82-.69,14.55-1.38" fill="#fff" stroke="#0052af" stroke-linecap="round" stroke-linejoin="round" stroke-width="1.07"/><line x1="329.13" y1="238.03" x2="348.42" y2="347.08" fill="none" stroke="#0052af" stroke-linecap="round" stroke-linejoin="round" stroke-width="1.07"/><line x1="429.17" y1="324.67" x2="428.36" y2="311.85" fill="none" stroke="#0052af" stroke-linecap="round" stroke-linejoin="round" stroke-width="1.07"/><line x1="412.07" y1="311.73" x2="413.23" y2="324.21" fill="none" stroke="#0052af" stroke-linecap="round" stroke-linejoin="round" stroke-width="1.07"/><path d="M357.66,345.35s-9-55.56-14.67-87.56,6.24-44.71,6.24-44.71,22.87,17.45,47.48-13.28l11.89,88.6,14.68,49.9Z" fill="#fff" stroke="#0052af" stroke-linecap="round" stroke-linejoin="round" stroke-width="1.07"/><polyline points="427.9 337.15 348.42 347.08 351.19 406.8" fill="#fff" stroke="#0052af" stroke-linecap="round" stroke-linejoin="round" stroke-width="1.07"/><path d="M346.23,114.55c.57,5.66-6.24,13.51-1.51,16.75,7.4,5.2,21.37,4,26.92,2.77,1.27-.35,5.31-1.5,6.58-1s1.74,2.2,2.2,3.47c1.27,3.58,4.62,4.73,8.09,5.31-1.39,10.17-2.32,13.86,5.89,15.94,5.77-11.78,6.35-13.63,5.66-23.56-.81-11.79-8.78-21-19.64-25.76s-25.07-1.39-34.19,6.12Z" fill="#0052af"/><path d="M385,116.28a17.48,17.48,0,0,1-4.51-9.24,12.24,12.24,0,0,1,2.89-9.7,12.85,12.85,0,0,1,6.47-3.58,15.34,15.34,0,0,1,14.9,4.73,14.63,14.63,0,0,1,2.2,15.37,13.87,13.87,0,0,1-13.29,7.85,13.15,13.15,0,0,1-11.55-10Z" fill="#0052af"/><path d="M389.31,153.71s6.7-9.47,12-2.31c3.81,5.2-4.28,23.91-12,14.32" fill="#f6bd96" stroke="#0052af" stroke-linecap="round" stroke-linejoin="round"/><polygon points="523.31 181.66 535.56 170.34 535.33 162.49 539.02 159.95 566.28 142.04 566.98 161.91 574.95 181.09 556.7 201.76 529.32 197.6 523.31 181.66" fill="#c49b6d" stroke="#0052af" stroke-linecap="round" stroke-linejoin="round" stroke-width="1.07"/><path d="M468.33,303.07a101,101,0,0,0,2,10.63,177.8,177.8,0,0,0,6,19.64c1.15,3.11,2.31,6.35,3.58,9.47.58,1.62,1.27,3.12,2,4.62l1,2.31.58,1.15,3.46,2.89c2.66,5.78-.46-5.89,5.32-8.55s15.36,3.12,12.71-2.65v-.12l-.12-.23-4.39-8.55,3.47,6.7c-.35-.69-.58-1.38-.93-2.08-.58-1.38-2.08-3.23-2.66-4.62-1.15-2.77-1.27-5.2-2.19-8a133.74,133.74,0,0,1-4.62-17.09,71.69,71.69,0,0,1-1.16-8.21,40.8,40.8,0,0,1,0-7.5,22.05,22.05,0,0,1,.58-3.12l.23-.7h0l.23-.57v-.12c.12-.12.12-.35.23-.46h0l.12-.23.12-.12.11-.23,1.85-4.27,2-4.28,3.93-8.66,4-8.67,4.05-8.66,4-8.66c5.43-11.44,11.09-23,16.87-34.31h0a16.33,16.33,0,0,0-29.11-14.79,12.38,12.38,0,0,0-.81,1.85c-4.28,12.13-8.78,24-13.29,36L474,269l-1.74,4.51-1.61,4.62-.23.69-.35.93c-.23.57-.35,1.15-.58,1.73a9.23,9.23,0,0,1-.46,1.73c-.12.58-.23,1.16-.35,1.73-.34,2.2-.57,4.39-.69,6.47A54.63,54.63,0,0,0,468.33,303.07Z" fill="#c49b6d" stroke="#0052af" stroke-linecap="round" stroke-linejoin="round" stroke-width="1.07"/><path d="M506.79,182.93s-6,6.47-12.36,18.49-11.09,27.37-11.09,27.37L514,251.55s16.86-34.77,14.09-45.05C525.16,195.18,526,180.85,506.79,182.93Z" fill="#fff" stroke="#0052af" stroke-linecap="round" stroke-linejoin="round" stroke-width="1.07"/><path d="M599.67,353.67h0v.57a88.08,88.08,0,0,1-1.62,17.45,1.79,1.79,0,0,0-.11.81c-.12.46-.24.92-.35,1.5v.23c-.12,2.31-.35,4.85-.46,7.39-.58,7.63-1.16,16.4-1.74,25.42H543L542.37,385c-.58,0-1.27-.11-1.85-.11L538.45,407H488.89c.69-10.86,1.5-22,2.42-33.16.12-.81.12-1.62.24-2.54l.69-8.32v-.34a10.45,10.45,0,0,0,.11-1.85A97.52,97.52,0,0,1,495.59,345c.81-3,1.73-6,2.66-8.78h0c.46-1.5.92-2.88,1.5-4.27,2.54-7.39,4.85-12.71,4.85-12.71l77.86,14.33,16.28,3s.58,4.85.93,11.55v1.27C599.55,350.55,599.67,352.05,599.67,353.67Z" fill="#b1114d"/><path d="M612,276c-.12,2.31-.23,4.74-.46,7-.93,11.89-4.39,51.63-8.2,62.72a.42.42,0,0,1-.24.12l-2.08,1a10.55,10.55,0,0,0-1.61.81,80.64,80.64,0,0,1-9.94,3.81,110,110,0,0,1-11.78,3l-2.19.35h-.24c-2.42.34-5,.69-7.39.92-.92.12-1.85.12-2.77.23a109.18,109.18,0,0,1-23.1-.81,12,12,0,0,0-2-.23c-2-.34-3.81-.69-5.77-1a11.69,11.69,0,0,1-2-.46A97.28,97.28,0,0,1,512.8,347c-.69-.35-1.5-.7-2.19-1-2-1-3.93-2.08-5.78-3.24-.12,0-.12-.11-.23-.11a54.45,54.45,0,0,1-6.93-5.2c.46-2.2,1-4.62,1.5-7.16,0-.23.11-.47.11-.7q.71-3.47,1.39-7.27c2.89-16.06,5.43-35.12,6.59-44.71.23-2.42.57-4.73.69-7.05s.46-4.38.58-6.58c.23-2.43.34-4.85.46-7.05.11-1.27.11-2.42.11-3.58s.12-2.31.12-3.46v-7.16c-.12-28.31-5.2-43.44-5.08-51.64a6.83,6.83,0,0,1,.23-2.2,17.75,17.75,0,0,1,.92-3.23,20.25,20.25,0,0,1,1.39-2.66c3.58-5.08,10.39-6.12,17.09-8.43h0l2.78-1c.34-.11.81-.35,1.15-.46a4.93,4.93,0,0,0,1-.58c.46-.23,1.62-1.5,2.08-1.85,2.31-2.19,2.89-2.31,4.51-4.27a27.06,27.06,0,0,0,0,3.12c0,7.39,6.81,13.28,15.13,13.28s15.13-6,15.13-13.28c0-1.85,1.62-3.35,5.66-1.39l.69.35c.12.11.35.11.47.23.92.46,2,.81,3.12,1.27.92.35,2.07.69,3.11,1l1,.35c2,.46,4.16.92,6.47,1.27a18.87,18.87,0,0,1,10.17,4.73,21.24,21.24,0,0,1,3.58,4.16c4.39,6.24,7.05,15.48,8.2,27.38.69,7.39,1.27,14.44,1.85,21.25.23,3.24.58,6.36.81,9.59,0,.7.11,1.27.11,2,.35,5.19.7,10.28.81,15.36v3.23A120.85,120.85,0,0,1,612,276Z" fill="#fff" stroke="#0052af" stroke-linecap="round" stroke-linejoin="round" stroke-width="1.07"/><path d="M524.47,127.83s-4.62-5.2-7.05.23-.23,16.18,6.59,14.21Z" fill="#c49b6d" stroke="#0052af" stroke-linecap="round" stroke-linejoin="round" stroke-width="1.07"/><path d="M566.52,147.93l.11-3.46.58-17.91.23-9.59s1.73-17.32-14.67-20c-12-2-23.22.23-28.76,6.7-.24.23-.35.46-.47.58a14.63,14.63,0,0,0-3,8.08l-.12,17.22v4.27l-.11,12.94s.35,16.4,17.44,15.94a37.36,37.36,0,0,0,20.56-7.28" fill="#c49b6d" stroke="#0052af" stroke-linecap="round" stroke-linejoin="round" stroke-width="1.07"/><ellipse cx="544.11" cy="123.44" rx="1.62" ry="3" transform="translate(-2.89 13.5) rotate(-1.42)" fill="#0052af"/><path d="M526,123.91c0,1.61.81,3,1.73,2.88s1.62-1.38,1.62-3-.81-3-1.73-2.89S525.85,122.29,526,123.91Z" fill="#0052af"/><path d="M625.66,213.55c3.23,6.7,15.36,30.26,18.37,37.19s5.89,14,8.43,21.49c1.27,3.69,2.54,7.62,3.58,11.78a50.54,50.54,0,0,1,1.39,6.82c.11.69.11,1.27.23,2l.11,1v4.74a3.38,3.38,0,0,1-.11,1,46.82,46.82,0,0,1-1.27,7.5c-.58,2.31-1.16,4.39-1.85,6.36-1.39,4-2.89,7.74-4.51,11.43a214.86,214.86,0,0,1-10.62,20.57c-1.85,3.34-3.82,6.58-5.78,9.81-1,1.62-2,3.24-3,4.86L629.47,362c-.92,2.89-3.81,10.52-9.93,12.25-7.63,2.19-13.17,3.23-16.17,3.81-1.85.35-4.39,2.31-6.47,3.7-1.39.92-2.66,1.61-3.35,1.27s-.7-1.16-.58-2.08a12.63,12.63,0,0,1,2.42-5,13,13,0,0,1,1.85-1.62l.12-.11h0c1-.81,1.85-1.5,1.85-1.5a3.21,3.21,0,0,0-1.51,0c-.11,0-.23,0-.23.11a11.41,11.41,0,0,0-2.54,1.39,19.19,19.19,0,0,1-3.12,1.73c-3.46,1.5-7.39.46-6.47-.92a14.53,14.53,0,0,1,3-2.66c.69-.58,1.5-1.15,2.19-1.62.35-.23.7-.57,1-.81a18.19,18.19,0,0,1,5.32-2.31c-3-.23-4.62.58-8.32,1.16a5.63,5.63,0,0,0-1.27.23c-1,.23-2.08.46-3,.58-2.54.46-4.62.69-4.73-.7-.12-.8.69-1.61,1.73-2.42a16.48,16.48,0,0,1,2.08-1.27c1.5-.81,3.12-1.5,4.27-2.2a26.12,26.12,0,0,1,6.94-2,30,30,0,0,0-7.86.58c-3.58.69-6.47-1.74-4.39-2.77s5.43-3.93,9.7-4.51a25.87,25.87,0,0,1,6.82,0,4.2,4.2,0,0,0,.92.12v-.7l-.11-4.62v-.58l1.62-1.5a8.78,8.78,0,0,1,2.08-1,5.38,5.38,0,0,1,2-.34,29.49,29.49,0,0,1,6,.92c.57-1,1.15-2.19,1.61-3.23,1.62-3.12,3.12-6.36,4.62-9.48,3-6.35,5.66-12.82,8-19.17a76.5,76.5,0,0,0,2.78-9.24,35.15,35.15,0,0,0,.81-4.16c0-.35.11-.7.11-.93v-3.12c0-.11,0-.34-.11-.34h0v-.12l-.12-.34c0-.23-.12-.58-.12-.81a31.76,31.76,0,0,0-1-3.93c-.92-2.89-2.07-5.89-3.35-9-2.54-6.24-5.54-12.48-8.77-18.83l-3.82-7.28c-2-3.81-4-7.74-6.23-11.55q-2.61-4.68-5.2-9.36c-1.85-3.11-3.58-6.23-5.43-9.35s-3.7-6.24-5.55-9.24l-2.77-4.62L584,208l-.12-.23c-.11-.23-.34-.58-.46-.81a17.39,17.39,0,0,1,7.16-23.68,17.65,17.65,0,0,1,9.59-2.08,17.3,17.3,0,0,1,14.09,9.24" fill="#c49b6d" stroke="#0052af" stroke-linecap="round" stroke-linejoin="round" stroke-width="1.07"/><path d="M577.6,193c-.57-8.31,2.2-19.06,12-20.21,14.21-1.73,24.14,14.44,30.61,24.6.46.81,12,18.95,12.25,18.83l-34.66,21.37s-21.6-31.3-20.33-43.89A1.84,1.84,0,0,0,577.6,193Z" fill="#fff" stroke="#0052af" stroke-linecap="round" stroke-linejoin="round" stroke-width="1.07"/><path d="M549.42,119.05a7,7,0,0,0-2.89-2.65" fill="#fff" stroke="#0052af" stroke-linecap="round" stroke-linejoin="round" stroke-width="1.07"/><path d="M528.86,116.74a8.38,8.38,0,0,0-3.35,2.66" fill="#fff" stroke="#0052af" stroke-linecap="round" stroke-linejoin="round" stroke-width="1.07"/><path d="M538.56,148.63a14.89,14.89,0,0,0,8.78-6.36" fill="none" stroke="#0052af" stroke-linecap="round" stroke-linejoin="round" stroke-width="1.07"/><path d="M535.21,121.83c-1.15,3.35-2.19,6.81-3.35,10.16-.35,1.16-.58,2.54.23,3.24s1.85.34,2.77.69" fill="none" stroke="#0052af" stroke-linecap="round" stroke-linejoin="round" stroke-width="1.07"/><circle cx="522.73" cy="121.83" r="9.47" fill="none" stroke="#0052af" stroke-miterlimit="10" stroke-width="1.07"/><circle cx="545.72" cy="121.83" r="9.47" fill="none" stroke="#0052af" stroke-miterlimit="10" stroke-width="1.07"/><line x1="554.96" y1="120.9" x2="565.13" y2="121.83" fill="none" stroke="#0052af" stroke-miterlimit="10" stroke-width="1.07"/><path d="M571,118.94a10.1,10.1,0,0,0,7.16-12,14.37,14.37,0,0,0-11.9-24,16.11,16.11,0,0,0-10.51-14.56,15.9,15.9,0,0,0-17.21,4.85A13.37,13.37,0,0,0,523,70.65a13.2,13.2,0,0,0-6.24,14.56,7,7,0,0,0-9.47,10.39,5.08,5.08,0,0,0-.24,9.94,7.14,7.14,0,0,0,5.66,6.12,6.89,6.89,0,0,0,7.28-3.93c.81,3.81,5.66,5.66,9.36,4.39s6.24-4.85,7.51-8.43A6.94,6.94,0,0,0,542.6,107a7.2,7.2,0,0,0,5.89-3.23c-1.38,3.58,1.39,8.08,5.2,8.54a9.43,9.43,0,0,0,18.83-1.15Z" fill="#0052af"/><path d="M573.91,111.54c-.46,4.39-1.85,13.06-2.54,17.45a5.54,5.54,0,0,1-1.39,3.35c-1.39,1.15-3.7.46-4.85-1s-1.39-3.35-1.62-5.2c-.46-4.39-1-8.89-1.5-13.28Z" fill="#0052af"/><path d="M563.63,129.91s6.35-9,11.32-2.19c3.58,5-4,22.64-11.32,13.51" fill="#c49b6d" stroke="#0052af" stroke-linecap="round" stroke-linejoin="round" stroke-width="1.07"/><path d="M598.05,291.29l-15.71,42-8.2,21.94L554.85,406.8h-147l41.81-94.72,12.59-28.65a6.88,6.88,0,0,1,.93-1.5,10.3,10.3,0,0,1,7.39-4.5c.35,0,.81-.12,1.16-.12H588.35A10.35,10.35,0,0,1,598.05,291.29Z" fill="#3d4b59"/><path d="M121.78,347.43H319.2a5.55,5.55,0,0,0,5.54-5.55v-129a5.54,5.54,0,0,0-5.54-5.54H121.78a5.55,5.55,0,0,0-5.55,5.54V341.77A5.57,5.57,0,0,0,121.78,347.43Z" fill="#3d4b59"/><path d="M280.38,379.31s-21.14,6.7-23.45,8.55c-1.5,1.15-.92,2.54.93,2.54S273,387.86,273,387.86s2.19.46.58,1-13.75,6.24-15.25,7.39c-3.47,2.66-1.85,5.89.69,5.08a15.34,15.34,0,0,0,2.31-.8,5.66,5.66,0,0,0-1.38,2.65,2,2,0,0,0,2.31,1.85c1.38-.58,8.54-3.46,9-3.81a9.57,9.57,0,0,1,1.84-.81s-4.39,4.39-5,5.55,1.38,2,3.35,1,9.12-5.2,9.12-5.2,14.44-1.74,16.64-3a36.31,36.31,0,0,0,4.16-2.88l15.24,1.84L316,379.31s-29-1.62-35.58-.11" fill="#8b6239" stroke="#0052af" stroke-linecap="round" stroke-linejoin="round" stroke-width="1.07"/><path d="M481.61,207.31c0,2.08-1.62,4-1.85,6s.81,4.28.35,6.24-2.54,3.47-3.24,5.43-.23,4.39-1.15,6.12-3.23,2.78-4.39,4.39-1.27,4.16-2.54,5.66-3.81,2-5.31,3.24-2.2,3.81-3.93,5-4.16.92-6,1.84-3,3.12-5,3.82-4.27-.12-6.23.34-3.7,2.31-5.78,2.54-4.16-1.15-6.12-1.15-4.16,1.38-6.12,1.15-3.82-2.08-5.78-2.54-4.39.35-6.24-.34-3.12-2.89-5-3.82-4.27-.69-6-1.84-2.31-3.59-3.93-5-4-1.73-5.31-3.24-1.39-4-2.55-5.66-3.46-2.65-4.38-4.39-.47-4.27-1.16-6.12-2.77-3.35-3.23-5.43.57-4.27.34-6.24-1.85-3.92-1.85-6,1.62-4.05,1.85-6-.81-4.27-.34-6.24,2.54-3.46,3.23-5.43.23-4.39,1.16-6.12,3.23-2.77,4.38-4.39,1.28-4.16,2.55-5.66,3.81-2,5.31-3.23,2.19-3.82,3.93-5,4.16-.92,6-1.85,3-3.12,5-3.81,4.28.12,6.24-.35,3.7-2.31,5.78-2.54,4.15,1.16,6.12,1.16,4.16-1.39,6.12-1.16,3.81,2.08,5.78,2.54,4.39-.34,6.23.35,3.12,2.89,5,3.81,4.27.69,6,1.85,2.31,3.58,3.93,5,4,1.73,5.31,3.23,1.38,4,2.54,5.66,3.47,2.66,4.39,4.39.46,4.28,1.15,6.12,2.78,3.35,3.24,5.43-.58,4.28-.35,6.24S481.61,205.23,481.61,207.31Z" fill="#0052af"/><path d="M535.1,379.77c-.24,8.2-5.43,15.48-14.56,15.83-5.43.23-12.82-2-16.06-6.47-4.39-6.12-8.31-12.13-12-17.9l1,26.79.23,6.59h-113c.11-1.85.11-3.58.23-5.55h-.7l-70.11.47v-2.66l-.35-17.67V377l52.79-7.16c8.2-69,25.76-84.56,31-87.79,0,0,2.31-1.74,23.91-6.7.12.11.12.11.12.23,20.44,22.75,35.92-1.62,35.92-1.62.58.12,1.27.12,1.85.23,13.28,1.5,25.07,3.58,31.19,6.12a16.37,16.37,0,0,1,5.77,5v.12h0c19.3,23.33,41,85.83,41,85.83A19,19,0,0,1,535.1,379.77Z" fill="#00bfbe"/><path d="M414.27,377.81s-21.72,4.5-24.26,6.12c-1.62,1-1.16,2.43.69,2.66s15.25-.93,15.25-.93,2.08.7.46,1.16-14.32,4.74-15.94,5.78c-3.81,2.31-2.43,5.66.23,5.19a15.51,15.51,0,0,0,2.31-.57,5,5,0,0,0-1.62,2.42,2,2,0,0,0,2.08,2.08c1.39-.35,8.9-2.54,9.36-2.89s1.85-.69,1.85-.69-4.85,3.93-5.55,5,1.16,2.08,3.24,1.38,9.58-4.27,9.58-4.27S426.51,400,428.7,399a46.89,46.89,0,0,0,4.39-2.43l15,3.47,1.16-18.37s-28.65-4.62-35.47-3.7" fill="#8b6239" stroke="#0052af" stroke-linecap="round" stroke-linejoin="round" stroke-width="1.07"/><path d="M515.23,362.56l-76.59,8.9,1.15,27.84,79.83-1.74a17.72,17.72,0,0,0,14.09-24h0A17.46,17.46,0,0,0,515.23,362.56Z" fill="#00bfbe" stroke="#0052af" stroke-linecap="round" stroke-linejoin="round" stroke-width="1.07"/><polyline points="466.48 319.36 487.85 365.8 438.75 371.46" fill="none" stroke="#0052af" stroke-linecap="round" stroke-linejoin="round" stroke-width="1.07"/><path d="M380.3,408.77s-.23-56.49,6.59-97.5" fill="none" stroke="#0052af" stroke-linecap="round" stroke-linejoin="round" stroke-width="1.07"/><path d="M453.19,240.58l-31.53,26.33-4.28-.34.24,11.55s2.54,8.43,16.28,7.51a41.36,41.36,0,0,0,19.41-6,4.52,4.52,0,0,0,2.19-4.16Z" fill="#8b6239" stroke="#0052af" stroke-linecap="round" stroke-linejoin="round" stroke-width="1.07"/><path d="M404.79,229.49s-5.43-6.13-8.2.23-.23,18.83,7.74,16.52Z" fill="#8b6239" stroke="#0052af" stroke-linecap="round" stroke-linejoin="round" stroke-width="1.07"/><path d="M453.89,244.73,454,241l.35-13,.35-11.21s2.08-20.22-17.22-23.33c-14-2.31-27,.34-33.5,7.74a2.89,2.89,0,0,0-.57.69,18.39,18.39,0,0,0-3.58,9.47l-.12,20.1v13.4c0,6.7,5,12.36,9.59,17.21,6.35,6.59,14.67,11.78,31.76-3.12" fill="#8b6239" stroke="#0052af" stroke-linecap="round" stroke-linejoin="round" stroke-width="1.07"/><ellipse cx="427.67" cy="227.87" rx="1.96" ry="3.47" transform="translate(-5.51 10.65) rotate(-1.42)" fill="#0052af"/><path d="M406.41,228.33c0,2,.92,3.47,2.08,3.47s1.85-1.62,1.85-3.47-.93-3.46-2.08-3.46S406.41,226.37,406.41,228.33Z" fill="#0052af"/><path d="M434.25,222a9.26,9.26,0,0,0-4.27-1.73" fill="#fff" stroke="#0052af" stroke-linecap="round" stroke-linejoin="round" stroke-width="2.14"/><path d="M410.34,221.17a10.52,10.52,0,0,0-5,.58" fill="#fff" stroke="#0052af" stroke-linecap="round" stroke-linejoin="round" stroke-width="2.14"/><path d="M417.27,225.91c-1.27,3.92-2.66,7.85-3.93,11.89-.46,1.27-.69,2.89.35,3.82.92.69,2.19.46,3.23.8" fill="none" stroke="#0052af" stroke-linecap="round" stroke-linejoin="round" stroke-width="1.07"/><path d="M400.63,192.87s18.14,22.18,53.6,31.07,3.47-31.88,3.47-31.88l-15.13-13.17-19.41-.58-11,2.78Z" fill="#0052af"/><path d="M420.27,195.76s-20.33,23.79-25.87,21.37,2.88-23.92,4.27-24.61,21.6-12.36,21.6-12.36Z" fill="#0052af"/><path d="M399.71,243.58s46.44,15,46.9-24.72l9.59,2.66s6,6.23,4.5,7.27c-3,2.2-10.05,5.2-9.12,9.13,1.15,5.66-2.66,7.39,2,8.43,0,0-16.4,25.07-33.38,22.07C403.29,265.64,400.4,249,399.71,243.58Z" fill="#0052af"/><path d="M415.77,254.67c2,2.66,8.43,10.28,13.28-.12.12-.34-.11-.8-.46-.8H416.23A.62.62,0,0,0,415.77,254.67Z" fill="#fff"/><path d="M448.92,232.84s6.12-8.67,10.86-2.08c3.46,4.73-3.81,21.71-10.86,12.94" fill="#8b6239" stroke="#0052af" stroke-linecap="round" stroke-linejoin="round" stroke-width="1.07"/><polyline points="362.51 369.84 309.72 377 309.72 399.76" fill="#00bfbe" stroke="#0052af" stroke-linecap="round" stroke-linejoin="round" stroke-width="1.07"/><path d="M494.09,284.59l1.15.34a1.45,1.45,0,0,0,1.39-2.42,13,13,0,0,0-6-3.35c-6.12-1.39-13.4-4.16-17-5.32s-10.28-5.08-13.05-4-3.93,3.58-5,8.32,1.85,5.54,4,3.7a36.93,36.93,0,0,0,5-5.32,55.78,55.78,0,0,1-2.08,7.28c-2,6,2.08,6.35,4.39,4.16a66.93,66.93,0,0,0,7.16-9.13s-2.19,6.24-3.69,10.28,3.81,4.62,7.16-1.5,4.27-5.54,4.27-5.54-.11,2-2.08,6.81-.69,8.55,2.08,6.59,7.05-12.36,7.05-12.36Z" fill="#c49b6d" stroke="#0052af" stroke-linecap="round" stroke-linejoin="round" stroke-width="1.07"/><path d="M260.4,133.49a39.76,39.76,0,0,1-17.21,32.81l-24.38,25.64-26.34-30h0a39.89,39.89,0,1,1,67.93-28.42Z" fill="#9ec1cd"/><path d="M241.57,138.58a18,18,0,0,0,.11-2.43,16.65,16.65,0,0,0-.23-2.43l-4.16-.69-1.38-3.93,2.77-3.23a18.94,18.94,0,0,0-3-3.81l-3.81,1.84-3.47-2.31.35-4.27a29.48,29.48,0,0,0-4.51-1.39l-2,3.82-4.16.11-2.2-3.69a8.19,8.19,0,0,0-.92.23,10.91,10.91,0,0,0-1.85.57c-.58.24-1.15.47-1.85.81l.58,4.16-3.35,2.54-3.93-1.73a25.07,25.07,0,0,0-2.77,4l3,3-1.15,4-4.16.92a19.7,19.7,0,0,0-.11,2.54,13.92,13.92,0,0,0,.23,2.32l4.15.69,1.39,3.93-2.77,3.23a23.81,23.81,0,0,0,3,3.93l3.81-1.85,3.47,2.43-.35,4.27a20.87,20.87,0,0,0,4.74,1.39l2-3.82,4.16-.11,2.2,3.69a21.83,21.83,0,0,0,4.62-1.61l-.58-4.16,3.35-2.54,3.93,1.61a25.07,25.07,0,0,0,2.77-4l-3-3,1.15-4Zm-14-8.09a9.49,9.49,0,1,1-13.28-.81A9.36,9.36,0,0,1,227.59,130.49Z" fill="#3d4b59"/><path d="M492.24,63.84v40.31a11.64,11.64,0,0,1-11.67,11.67H442.34l-24.26,19.06.34-19.06h-8.31a11.64,11.64,0,0,1-11.67-11.67V63.84a11.64,11.64,0,0,1,11.67-11.67h70.35A11.66,11.66,0,0,1,492.24,63.84Z" fill="#9ec1cd"/><path d="M466.36,86.71a16.48,16.48,0,0,0,.12-2.43,18,18,0,0,0-.23-2.42l-4.16-.7-1.39-3.92L463.47,74a18.79,18.79,0,0,0-3-3.81L456.66,72l-3.47-2.31.35-4.28a29.33,29.33,0,0,0-4.5-1.38l-2,3.81-4.16.12-2.19-3.7a8.42,8.42,0,0,0-.93.23,11.84,11.84,0,0,0-1.84.58c-.58.23-1.16.46-1.85.81l.58,4.15-3.35,2.55-3.93-1.74a24.12,24.12,0,0,0-2.77,4.05l3,3-1.16,4-4.15.93a18,18,0,0,0-.12,2.54,14.81,14.81,0,0,0,.23,2.31l4.16.69L430,92.37,427.2,95.6a23.34,23.34,0,0,0,3,3.93L434,97.68l3.46,2.43-.34,4.27a20.29,20.29,0,0,0,4.73,1.39l2-3.81,4.16-.12,2.19,3.7a22.23,22.23,0,0,0,4.62-1.62l-.58-4.16,3.35-2.54,3.93,1.62a24.12,24.12,0,0,0,2.77-4l-3-3,1.16-4ZM452.5,78.62a9.49,9.49,0,1,1-13.28-.81A9.37,9.37,0,0,1,452.5,78.62Z" fill="#3d4b59"/><circle cx="427.2" cy="70.42" r="10.86" fill="#3dcdac"/><rect x="422.18" y="67.16" width="2.89" height="9.13" transform="translate(73.36 320.56) rotate(-45)" fill="#fff"/><rect x="422.93" y="69.03" width="12.94" height="2.89" transform="translate(75.94 324.27) rotate(-45)" fill="#fff"/><circle cx="202.52" cy="122.17" r="10.86" fill="#fa450d"/><rect x="200.56" y="115.93" width="2.89" height="9.13" fill="#fff"/><circle cx="202.06" cy="127.72" r="1.5" fill="#fff"/><circle cx="126.86" cy="84.98" r="25.88" fill="#fff" stroke="#0052af" stroke-linecap="round" stroke-linejoin="round" stroke-width="1.07"/><polyline points="126.86 69.15 126.86 84.98 140.15 91.44" fill="#fff" stroke="#0052af" stroke-linecap="round" stroke-linejoin="round" stroke-width="1.07"/><circle cx="216.96" cy="277.31" r="14.44" fill="#fff"/><path d="M80,389.13a12.82,12.82,0,0,1,0-25.64" fill="#fff" stroke="#0052af" stroke-linecap="round" stroke-linejoin="round" stroke-width="1.07"/><rect x="79.96" y="354.94" width="32.46" height="42.63" fill="#fff" stroke="#0052af" stroke-linecap="round" stroke-linejoin="round" stroke-width="1.07"/><rect x="42.77" y="395.6" width="602.19" height="18.25" fill="#7c9cb5"/><rect x="196.06" y="329.41" width="44.36" height="60.41" fill="#3d4b59"/><rect x="157.82" y="382.31" width="120.71" height="14.44" fill="#3d4b59"/></g></svg>