<svg width="835" height="500" xmlns="http://www.w3.org/2000/svg">
 <defs>
  <style>.cls-1,.cls-31{fill:none;stroke-miterlimit:10;}.cls-1{stroke:#d0d8dc;stroke-width:2px;}.cls-2{fill:#bdddf4;}.cls-3{fill:#eceff0;}.cls-4{fill:#37474f;}.cls-5{fill:#d0d8dc;}.cls-6{fill:#b0bec5;}.cls-7{fill:#90a4ae;}.cls-8{fill:#57a7db;}.cls-9{fill:#fff;}.cls-10{fill:#fbb040;}.cls-11{fill:#71be71;}.cls-12{fill:#f5844e;}.cls-13{fill:#99cf8c;}.cls-14{fill:#dd9585;}.cls-15{fill:#95c8ec;}.cls-16{fill:#addba1;}.cls-17{fill:#cbeafb;}.cls-18{fill:#a3d1ee;}.cls-19{fill:#e4f2fb;}.cls-20{fill:#d1e6f2;}.cls-21{fill:#5a4146;}.cls-22{fill:#694b4b;}.cls-23{fill:#e6af78;}.cls-24{fill:#d29b6e;}.cls-25{fill:#afb9d2;}.cls-26{fill:#f0c087;}.cls-27{fill:#959cb5;}.cls-28{fill:#c7cfe2;}.cls-29{fill:#707487;}.cls-30{fill:#5b5d6e;}.cls-31{stroke:#fff;stroke-width:1.34px;}.cls-32{fill:#a6adad;}.cls-33{fill:#546e7a;}.cls-34{fill:#73c073;}.cls-35{fill:#3f535c;}.cls-36{fill:#ce775f;}.cls-37{fill:#546a79;}.cls-38{fill:#0071bc;}.cls-39{fill:#7c7a75;}.cls-40{fill:#f9d19b;}.cls-41{fill:#605e5a;}.cls-42{fill:#e08f3f;}.cls-43{fill:#3e3b3a;}.cls-44{fill:#f5b67e;}.cls-45{fill:#f6c085;}.cls-46{fill:#f8c997;}.cls-47{fill:#84dbff;}.cls-48{fill:#cdd6e0;}.cls-49{fill:#f2f2f2;}.cls-50{fill:#334a5e;}.cls-51{fill:#acb3ba;}</style>
 </defs>
 <title>Vendor Portals</title>
 <g>
  <title>background</title>
  <rect fill="none" id="canvas_background" height="502" width="837" y="-1" x="-1"/>
 </g>
 <g>
  <title>Layer 1</title>
  <polyline id="svg_1" points="272 102.9 183.3 102.9 183.3 218.8" class="cls-1"/>
  <line id="svg_2" y2="227.76" x2="648.7" y1="138.6" x1="648.7" class="cls-1"/>
  <line id="svg_3" y2="218.8" x2="250.1" y1="218.8" x1="147.3" class="cls-1"/>
  <line id="svg_4" y2="228.8" x2="687.1" y1="228.8" x1="598.37" class="cls-1"/>
  <path d="m290.4,49.7l-2.3,3.8a31.7,31.7 0 0 0 -8.6,-1.5l-0.9,-4.2a4.71,4.71 0 0 0 -5.4,-3.8a2,2 0 0 1 -0.5,0.1l-5.3,1.3a4.75,4.75 0 0 0 -3.6,5.7a2,2 0 0 1 0.1,0.5l0.9,4.2a38.09,38.09 0 0 0 -7.3,5.1l-3.5,-2.3a4.65,4.65 0 0 0 -6.6,1.4a0.1,0.1 0 0 1 -0.1,0.1l-2.8,4.6a5,5 0 0 0 1.4,6.8l3.5,2.3a38.85,38.85 0 0 0 -1.6,8.8l-4,1a4.8,4.8 0 0 0 -3.6,5.8a0.37,0.37 0 0 0 0.1,0.3l1.2,5.5a4.71,4.71 0 0 0 5.4,3.8a2,2 0 0 1 0.5,-0.1l4,-1a37.67,37.67 0 0 0 5,7.3l-2.3,3.4a5,5 0 0 0 1.4,6.8l4.4,2.9a3.66,3.66 0 0 0 3.6,0.5a4.8,4.8 0 0 0 3,-2.2l2.3,-3.8a31.7,31.7 0 0 0 8.6,1.5l0.9,4.2a4.71,4.71 0 0 0 5.4,3.8a2,2 0 0 1 0.5,-0.1l5.3,-1.3a4.75,4.75 0 0 0 3.6,-5.7a2,2 0 0 1 -0.1,-0.5l-0.9,-4.2a36.06,36.06 0 0 0 7.2,-5.3l3.5,2.3a3.66,3.66 0 0 0 3.6,0.5a4.8,4.8 0 0 0 3,-2.2l2.8,-4.6a4.17,4.17 0 0 0 0.5,-3.9a4.32,4.32 0 0 0 -2.1,-3.1l-3.5,-2.3a38.85,38.85 0 0 0 1.6,-8.8l4,-1a4.75,4.75 0 0 0 3.6,-5.7a2,2 0 0 1 -0.1,-0.5l-1.2,-5.5a4.71,4.71 0 0 0 -5.4,-3.8a2,2 0 0 1 -0.5,0.1l-4,1.7a37.67,37.67 0 0 0 -5,-7.3l2.3,-3.6a4.17,4.17 0 0 0 0.5,-3.9a4.32,4.32 0 0 0 -2.1,-3.1l-4,-2.7a5,5 0 0 0 -6.4,1.9zm6.4,29.3a19.82,19.82 0 0 1 0,8.4a19.55,19.55 0 0 1 -14.3,15.1a18.49,18.49 0 0 1 -22.4,-14.4l0,0a19.82,19.82 0 0 1 0,-8.4a19.41,19.41 0 0 1 14.3,-15.1c10.1,-2.7 20.1,3.9 22.4,14.4z" class="cls-2" id="_Compound_Path_"/>
  <line id="svg_5" y2="146.8" x2="340.5" y1="146.8" x1="100" class="cls-1"/>
  <line id="svg_6" y2="108.5" x2="675.25" y1="108.5" x1="525.3" class="cls-1"/>
  <line id="svg_7" y2="163.55" x2="760.1" y1="163.55" x1="525.3" class="cls-1"/>
  <circle id="svg_8" r="34.7" cy="102.7" cx="182.3" class="cls-3"/>
  <g id="_Group_3">
   <path d="m273.8,83.4a6.81,6.81 0 0 0 -6.8,6.8l0,0l0,168.8a6.81,6.81 0 0 0 6.8,6.8l261.6,0a6.81,6.81 0 0 0 6.8,-6.8l0,0l0,-168.8a6.81,6.81 0 0 0 -6.8,-6.8l-261.6,0z" class="cls-4" id="_Path_4"/>
   <path d="m252.1,273.6l305,0a14.51,14.51 0 0 0 14.5,-14.5l-334,0a14.51,14.51 0 0 0 14.5,14.5z" class="cls-5" id="_Path_5"/>
   <path d="m239.8,266.8a14.52,14.52 0 0 0 12.3,6.8l305,0a14.42,14.42 0 0 0 12.3,-6.8l-329.6,0z" class="cls-6" id="_Path_6"/>
   <circle r="1.6" cy="262.7" cx="264" class="cls-7" id="_Path_7"/>
   <circle r="1.7" cy="262.7" cx="259.5" class="cls-7" id="_Path_8"/>
   <circle r="1.7" cy="262.7" cx="254.9" class="cls-7" id="_Path_9"/>
  </g>
  <g id="_Group_2-2">
   <rect id="svg_9" height="157.4" width="252.5" y="94.3" x="278.3" class="cls-2"/>
  </g>
  <rect id="svg_10" height="27.4" width="252.5" y="94.3" x="278.3" class="cls-8"/>
  <path id="svg_11" d="m295.1,114.1l-6.3,-6.3l6.3,-6.3l-1.9,-1.9l-8.1,8.1l8.1,8.1l1.9,-1.7zm7.1,0l6.3,-6.3l-6.3,-6.3l1.9,-1.9l8.1,8.1l-8.1,8.1l-1.9,-1.7z" class="cls-9"/>
  <circle id="svg_12" r="2.4" cy="107.7" cx="505.6" class="cls-10"/>
  <circle id="svg_13" r="2.4" cy="107.7" cx="514.3" class="cls-11"/>
  <circle id="svg_14" r="2.4" cy="107.7" cx="522.9" class="cls-12"/>
  <rect height="44.7" width="45.2" y="130" x="357.5" class="cls-13" id="_Path_27"/>
  <rect height="44.7" width="45.2" y="130" x="415.2" class="cls-8" id="_Path_30-2"/>
  <rect height="44.7" width="45.2" y="130" x="473.2" class="cls-14" id="_Path_30-2-2"/>
  <rect height="44.7" width="45.2" y="200.6" x="357.5" class="cls-14" id="_Path_27-2"/>
  <rect height="44.7" width="45.2" y="200.6" x="415.2" class="cls-3" id="_Path_30-2-3"/>
  <rect height="44.7" width="45.2" y="200.6" x="472.9" class="cls-8" id="_Path_30-2-4"/>
  <path id="svg_15" d="m396.8,273.8l1.1,0c0,-0.6 -0.1,-1.2 -0.1,-1.8c-0.3,0.5 -0.7,1.2 -1,1.8z" class="cls-15"/>
  <circle id="svg_16" r="33.3" cy="146.7" cx="81.5" class="cls-16"/>
  <path id="svg_17" d="m387.3,6.9l127.5,0l0,46.4l-127.5,0l0,-46.4z" class="cls-17"/>
  <path id="svg_18" d="m401,13.9l49.6,0l0,3.6l-49.6,0l0,-3.6z" class="cls-12"/>
  <path id="svg_19" d="m401,23.1l91.1,0l0,3.6l-91.1,0l0,-3.6z" class="cls-18"/>
  <path id="svg_20" d="m401,32.8l91.1,0l0,3.6l-91.1,0l0,-3.6z" class="cls-18"/>
  <path id="svg_21" d="m401,42.5l69.4,0l0,3.6l-69.4,0l0,-3.6z" class="cls-18"/>
  <path id="svg_22" d="m497,42.6l89.3,0l0,34.4l-89.3,0l0,-34.4z" class="cls-18"/>
  <path id="svg_23" d="m508.8,50l35.7,0l0,3.6l-35.7,0l0,-3.6z" class="cls-8"/>
  <path id="svg_24" d="m508.8,57.9l65.7,0l0,3.6l-65.7,0l0,-3.6z" class="cls-19"/>
  <path id="svg_25" d="m508.8,66l45.5,0l0,3.6l-45.5,0l0,-3.6z" class="cls-19"/>
  <circle id="svg_26" r="33.93" cy="108.7" cx="650.07" class="cls-20"/>
  <circle id="svg_27" r="40.32" cy="163.6" cx="749.68" class="cls-3"/>
  <circle id="svg_28" r="26.8" cy="227.3" cx="687.1" class="cls-16"/>
  <path id="svg_29" d="m91.2,130.9l0,0c-0.1,-0.1 -0.1,-0.2 -0.2,-0.2s-0.1,-0.1 -0.1,-0.2a1.76,1.76 0 0 0 -0.4,-0.5a6.42,6.42 0 0 0 -2.3,-1.4c-0.1,0 -0.1,-0.1 -0.2,-0.1a39.37,39.37 0 0 0 -14,-2.2l0,0c-9.5,0 -17.1,2.4 -17.1,5.3l0,5.5c0,2.9 7.7,5.3 17.2,5.3s17.2,-2.4 17.2,-5.3l0,-5.5c0.1,-0.1 0,-0.4 -0.1,-0.7z" class="cls-9"/>
  <ellipse id="svg_30" ry="5.3" rx="17.2" cy="131.7" cx="74.2" class="cls-18"/>
  <path id="svg_31" d="m57,144.7c0,2.9 7.7,5.3 17.2,5.3s17.2,-2.4 17.2,-5.3l0,-5.5c0,2.9 -7.7,5.3 -17.2,5.3s-17.2,-2.4 -17.2,-5.3l0,5.5z" class="cls-9"/>
  <path id="svg_32" d="m57,152.2c0,2.9 7.7,5.3 17.2,5.3s17.2,-2.4 17.2,-5.3l0,-5.5c0,2.9 -7.7,5.3 -17.2,5.3s-17.2,-2.4 -17.2,-5.3l0,5.5z" class="cls-9"/>
  <path id="svg_33" d="m57,159.7c0,2.9 7.7,5.3 17.2,5.3s17.2,-2.4 17.2,-5.3l0,-5.5c0,2.9 -7.7,5.3 -17.2,5.3s-17.2,-2.4 -17.2,-5.3l0,5.5z" class="cls-9"/>
  <circle id="svg_34" r="15.6" cy="151" cx="92.4" class="cls-8"/>
  <path id="svg_35" d="m98.1,148.2l0,0.3a3.55,3.55 0 0 0 0.2,1l0.6,1.9l1.1,0l0,-4.4l-0.8,0a1.2,1.2 0 0 0 -1.1,1.2z" class="cls-21"/>
  <path id="svg_36" d="m103.6,149.1l-0.7,2.4l-3.2,-2.8a0.79,0.79 0 0 1 -0.8,-0.8l0,0a1.29,1.29 0 0 1 1.2,-1.2l2.8,0a0.79,0.79 0 0 1 0.8,0.8l0,0.8a2.81,2.81 0 0 1 -0.1,0.8z" class="cls-22"/>
  <rect id="svg_37" height="1.8" width="2.4" y="152.6" x="99.6" class="cls-23"/>
  <path id="svg_38" d="m99.6,153.4a2.54,2.54 0 0 0 1.2,0.2a4.3,4.3 0 0 0 1.2,-0.2l0,-0.7l-2.4,0l0,0.7z" class="cls-24"/>
  <path id="svg_39" d="m104,154.2l-2,-0.6l-1.2,0.8l-1.2,-0.8l-2,0.6a1.18,1.18 0 0 0 -0.9,1.2l0,2.9a0.43,0.43 0 0 0 0.4,0.4l7.3,0a0.43,0.43 0 0 0 0.4,-0.4l0,-3c0.1,-0.5 -0.3,-0.9 -0.8,-1.1z" class="cls-9"/>
  <polygon id="svg_40" points="101.3 158.7 100.4 158.7 100.7 154.4 101.1 154.4 101.3 158.7" class="cls-25"/>
  <path id="svg_41" d="m100.8,153l0,0a2.43,2.43 0 0 1 -2.4,-2.4l0,-0.5a1.42,1.42 0 0 1 0.2,-0.6l0.7,-0.7a0.73,0.73 0 0 1 0.6,-0.2a5.43,5.43 0 0 1 3.1,0.9a0.73,0.73 0 0 1 0.2,0.6l0,0.6a2.23,2.23 0 0 1 -2.4,2.3z" class="cls-26"/>
  <path id="svg_42" d="m99.6,150.3a0.77,0.77 0 0 1 0.9,-0.8a8.75,8.75 0 0 1 2.8,0.6c0,-0.2 -0.1,-0.3 -0.2,-0.5a4.42,4.42 0 0 0 -3.1,-0.9l0,0a1.42,1.42 0 0 0 -0.6,0.2l-0.7,0.7a0.73,0.73 0 0 0 -0.2,0.6l0,0.5a2.29,2.29 0 0 0 1.7,2.3a2.53,2.53 0 0 1 -0.6,-1.5l0,-1.2z" class="cls-23"/>
  <path id="svg_43" d="m101.1,155.2l-0.4,0a0.22,0.22 0 0 1 -0.2,-0.2l0,-0.6l0.8,0l0,0.6a0.2,0.2 0 0 1 -0.2,0.2z" class="cls-27"/>
  <path id="svg_44" d="m100.8,154.4l-0.7,0.6a0.25,0.25 0 0 1 -0.4,-0.1l-0.6,-1.1l0.2,-0.4c0.1,-0.1 0.2,-0.1 0.2,0l1.3,1z" class="cls-28"/>
  <path id="svg_45" d="m100.8,154.4l0.7,0.6a0.25,0.25 0 0 0 0.4,-0.1l0.6,-1.1l-0.2,-0.4c-0.1,-0.1 -0.2,-0.1 -0.2,0l-1.3,1z" class="cls-28"/>
  <path id="svg_46" d="m87.1,152.9a19.42,19.42 0 0 1 -0.7,-3.3a2.8,2.8 0 1 0 -5.6,0a13.94,13.94 0 0 1 -0.7,3.3c-0.1,0.2 0,0.4 0.2,0.6a6.69,6.69 0 0 0 2.1,0.6l2.4,0c0.9,-0.2 1.7,-0.5 2.1,-0.6c0.2,-0.2 0.3,-0.4 0.2,-0.6z" class="cls-21"/>
  <path id="svg_47" d="m86.8,153.4a0.45,0.45 0 0 0 0.2,-0.6a19.42,19.42 0 0 1 -0.7,-3.3a2.86,2.86 0 0 0 -2.8,-2.8l0,0a1.24,1.24 0 0 0 -0.6,2.3a0.1,0.1 0 0 1 0.1,0.1l0.9,4.9l0.8,0a5.3,5.3 0 0 0 2.1,-0.6z" class="cls-22"/>
  <path id="svg_48" d="m86.4,154.8l-1.3,-0.6c-0.2,-0.2 -0.5,-0.4 -0.5,-0.7l0,-1.2l-2.4,0l0,1.2a0.75,0.75 0 0 1 -0.5,0.7l-1.3,0.6a1.15,1.15 0 0 0 -0.6,1.1l0,2.4a0.43,0.43 0 0 0 0.4,0.4l6.5,0a0.43,0.43 0 0 0 0.4,-0.4l0,-2.4c0.1,-0.4 -0.3,-0.8 -0.7,-1.1z" class="cls-23"/>
  <path id="svg_49" d="m83.5,153.9a5.07,5.07 0 0 0 1.3,-0.2l0,-1.4l-2.4,0l0,1.4c0.3,0 0.7,0.2 1.1,0.2z" class="cls-24"/>
  <path id="svg_50" d="m86.4,154.8l-0.9,-0.5a2.59,2.59 0 0 1 -2.1,1.1a2.75,2.75 0 0 1 -2.1,-1.1l-0.9,0.5a1.15,1.15 0 0 0 -0.6,1.1l0,2.4a0.43,0.43 0 0 0 0.4,0.4l6.5,0a0.43,0.43 0 0 0 0.4,-0.4l0,-2.4c0.1,-0.4 -0.3,-0.8 -0.7,-1.1z" class="cls-9"/>
  <path id="svg_51" d="m83.5,153l0,0a2.39,2.39 0 0 1 -2.4,-2.1a0.52,0.52 0 0 1 0.2,-0.4c0.1,-0.1 0.5,-0.2 0.7,-0.5a3.19,3.19 0 0 0 0.6,-0.7c0.1,-0.2 0.2,-0.2 0.5,-0.2a8.74,8.74 0 0 1 2.8,1.4c0.1,0.1 0.2,0.2 0.2,0.3a2.67,2.67 0 0 1 -2.6,2.2z" class="cls-26"/>
  <path id="svg_52" d="m85.7,150.5a6.88,6.88 0 0 0 -2.8,-1.4c-0.2,-0.1 -0.4,0.1 -0.5,0.2a6.12,6.12 0 0 1 -0.4,0.6l0,0c-0.1,0.1 -0.1,0.2 -0.2,0.2c-0.2,0.2 -0.6,0.4 -0.7,0.5s-0.2,0.2 -0.2,0.4a2.44,2.44 0 0 0 2.1,2.1a1.77,1.77 0 0 1 -0.9,-1.6l0,-0.7c0.1,-0.1 0.2,-0.2 0.3,-0.2a4.35,4.35 0 0 0 0.6,-0.7a4.77,4.77 0 0 1 2.1,1.2l0.5,0.5a1.85,1.85 0 0 0 0.2,-0.7c0.1,-0.2 0.1,-0.3 -0.1,-0.4z" class="cls-23"/>
  <path id="svg_53" d="m98.2,154.3l-3.4,-1.3l-2.4,0.8l-2.4,-0.8l-3.4,1.3a1.64,1.64 0 0 0 -1,1.5l0,2.5a0.43,0.43 0 0 0 0.4,0.4l12.9,0a0.43,0.43 0 0 0 0.4,-0.4l0,-2.5a1.92,1.92 0 0 0 -1.1,-1.5z" class="cls-18"/>
  <polygon id="svg_54" points="92 154.7 91.6 158.7 93.2 158.7 92.8 154.7 92 154.7" class="cls-29"/>
  <path id="svg_55" d="m92.8,155.2l-0.9,0a0.32,0.32 0 0 1 -0.3,-0.3l0,-1.1l1.4,0l0,1.1c0.1,0.2 -0.1,0.3 -0.2,0.3z" class="cls-30"/>
  <path id="svg_56" d="m96.8,144.7l0,-3.4a0.79,0.79 0 0 0 -0.8,-0.8l-4.8,0a3.16,3.16 0 0 0 -3.2,3.2l0,0.9a5.85,5.85 0 0 0 0.2,1.3l0.2,0.4a0.6,0.6 0 0 1 0.1,0.4l0,0.2l8.1,0l0,-0.1a0.6,0.6 0 0 1 0.1,-0.4l0.2,-0.4a2.88,2.88 0 0 1 -0.1,-1.3z" class="cls-21"/>
  <path id="svg_57" d="m89.9,142.2a1.69,1.69 0 0 0 1.7,1.7l0.2,0l0.1,3.2l4.5,0l0,-0.3a0.6,0.6 0 0 1 0.1,-0.4l0.2,-0.4a3,3 0 0 0 0.2,-1.3l0,-3.4a0.79,0.79 0 0 0 -0.8,-0.8l-4.4,0a1.77,1.77 0 0 0 -1.8,1.7z" class="cls-22"/>
  <rect id="svg_58" height="3.6" width="4.8" y="150.3" x="89.9" class="cls-23"/>
  <path id="svg_59" d="m89.9,151.6a5.1,5.1 0 0 0 4.8,0l0,-1.3l-4.9,0l0,1.3l0.1,0z" class="cls-24"/>
  <path id="svg_60" d="m92.4,153.9l-1.3,1.3c-0.2,0.2 -0.5,0.2 -0.6,-0.1l-1.3,-1.7l0.3,-0.7a0.48,0.48 0 0 1 0.6,-0.2l2.3,1.4z" class="cls-9"/>
  <path id="svg_61" d="m92.4,153.9l1.3,1.3c0.2,0.2 0.5,0.2 0.6,-0.1l1.3,-1.7l-0.3,-0.7a0.48,0.48 0 0 0 -0.6,-0.2l-2.3,1.4z" class="cls-9"/>
  <path id="svg_62" d="m92.4,151.4l0,0a4,4 0 0 1 -4,-4l0,-0.5a1.42,1.42 0 0 1 0.2,-0.6l0.3,-0.3a0.73,0.73 0 0 0 0.2,-0.6l0,-0.9c0,-0.2 0.2,-0.3 0.3,-0.4c0.9,-0.2 3.9,-0.8 5.9,0.7c0.2,0.1 0.2,0.2 0.2,0.4l0,0.2a1.42,1.42 0 0 0 0.2,0.6l0.3,0.3a0.73,0.73 0 0 1 0.2,0.6l0,0.5a3.73,3.73 0 0 1 -3.8,4z" class="cls-26"/>
  <path id="svg_63" d="m95.4,144.8a6.69,6.69 0 0 0 -4.7,-0.9a10.5,10.5 0 0 1 -1.3,0.2c-0.2,0.1 -0.3,0.2 -0.3,0.4l0,0.9a1.42,1.42 0 0 1 -0.2,0.6l-0.3,0.3a0.73,0.73 0 0 0 -0.2,0.6l0,0.5a4,4 0 0 0 3.6,4a3.93,3.93 0 0 1 -1.1,-2.8l0,-2.9a0.77,0.77 0 0 1 0.7,-0.8a6.26,6.26 0 0 1 4.1,0.6l0,-0.2a1.07,1.07 0 0 0 -0.3,-0.5z" class="cls-23"/>
  <circle id="svg_64" r="29.2" cy="218.45" cx="129.2" class="cls-20"/>
  <polyline id="svg_65" points="107.9 219.86 122.3 230.11 131.21 216.44 147.88 207.54" class="cls-31"/>
  <rect id="svg_66" transform="rotate(-43.2599983215332 -115.63999938964841,156.1199951171875) " height="2.61" width="1.54" y="378.68" x="22.61" class="cls-32"/>
  <path id="svg_67" d="m139.51,222.07a8.87,8.87 0 0 0 -1.14,-11.32a9,9 0 1 0 -1.34,13.8a7.94,7.94 0 0 0 2.48,-2.48zm-2.88,-0.4a6.49,6.49 0 1 1 0,-9.18a6.47,6.47 0 0 1 0,9.18z" class="cls-33"/>
  <path id="svg_68" d="m146.55,228.57a1.86,1.86 0 0 1 0,2.75l-0.07,0.07a1.86,1.86 0 0 1 -2.75,0l-4.35,-4.39a1.86,1.86 0 0 1 0,-2.75l0.07,-0.07a1.86,1.86 0 0 1 2.75,0l4.35,4.39z" class="cls-8"/>
  <circle id="svg_69" r="2.14" cy="207.27" cx="147.89" class="cls-8"/>
  <circle id="svg_70" r="3.28" cy="216.44" cx="131.21" class="cls-12"/>
  <circle id="svg_71" r="2.01" cy="230.11" cx="122.44" class="cls-10"/>
  <circle id="svg_72" r="2.28" cy="219.86" cx="107.9" class="cls-34"/>
  <rect id="svg_73" transform="rotate(-45 -15.22999954223633,161.80999755859375) " height="21" width="4.4" y="250.6" x="170.28" class="cls-9"/>
  <path id="svg_74" d="m184.3,109.9l-19.3,0a0.86,0.86 0 0 0 -0.8,0.8l0,5.2l21,0l0,-5.2a0.82,0.82 0 0 0 -0.9,-0.8z" class="cls-35"/>
  <rect id="svg_75" transform="rotate(-45 -11.149999618530304,151.99999999999997) " height="11.9" width="18.4" y="235.52" x="157.56" class="cls-14"/>
  <path id="svg_76" d="m176.8,102.2l-1.3,1.3a1.22,1.22 0 0 1 -1.6,0l-10.1,-10.1a1.22,1.22 0 0 1 0,-1.6l1.3,-1.3a1.22,1.22 0 0 1 1.6,0l10.1,10.1a1.21,1.21 0 0 1 0,1.6z" class="cls-14"/>
  <path id="svg_77" d="m191.9,87.1l-1.3,1.3a1.22,1.22 0 0 1 -1.6,0l-10.1,-10.1a1.22,1.22 0 0 1 0,-1.6l1.3,-1.3a1.22,1.22 0 0 1 1.6,0l10.1,10.1a1,1 0 0 1 0,1.6z" class="cls-36"/>
  <path id="svg_78" d="m191.9,85.5l-10.1,-10.1a1.22,1.22 0 0 0 -1.6,0l-1.3,1.3l0,0a1.09,1.09 0 0 1 1.5,0l10.1,10.1a1.09,1.09 0 0 1 0,1.5l0,0l1.3,-1.3a0.89,0.89 0 0 0 0.1,-1.5z" class="cls-14"/>
  <path id="svg_79" d="m176.8,100.7l-10.1,-10.1a1.22,1.22 0 0 0 -1.6,0l-1.3,1.3l0,0a1.09,1.09 0 0 1 1.5,0l10.1,10.1a1.09,1.09 0 0 1 0,1.5l0,0l1.3,-1.3a1,1 0 0 0 0.1,-1.5z" class="cls-36"/>
  <path id="svg_80" d="m206.6,114.7l-3.6,3.6a1.09,1.09 0 0 1 -1.5,0l-10,-10a1.09,1.09 0 0 1 0,-1.5l3.6,-3.6a1.09,1.09 0 0 1 1.5,0l10,10a0.94,0.94 0 0 1 0,1.5z" class="cls-37"/>
  <path id="svg_81" d="m187.1,115.3l-24.8,0a2.54,2.54 0 0 0 -2.5,2.5l0,2.1a0.47,0.47 0 0 0 0.5,0.5l28.7,0a0.47,0.47 0 0 0 0.5,-0.5l0,-2.1a2.52,2.52 0 0 0 -2.4,-2.5z" class="cls-33"/>
  <path id="svg_82" d="m668.54,96.59l-14.23,0a0.79,0.79 0 0 0 -0.8,0.8l0,25.1a0.79,0.79 0 0 0 0.8,0.8l14.23,0a0.79,0.79 0 0 0 0.8,-0.8l0,-25.1a0.79,0.79 0 0 0 -0.8,-0.8z" class="cls-8"/>
  <path id="svg_83" d="m674.72,115.24l-11.31,0a0.57,0.57 0 0 0 -0.53,0.53l0,7a0.57,0.57 0 0 0 0.53,0.53l11.31,0a0.57,0.57 0 0 0 0.53,-0.53l0,-7a0.47,0.47 0 0 0 -0.53,-0.53z" class="cls-38"/>
  <path id="svg_84" d="m649.36,123.19l2.56,0c0.88,0 1.5,-0.53 1.5,-1.06l0,-14.76c0,-0.62 -0.71,-1.06 -1.5,-1.06l-25.62,0c-0.88,0 -1.5,0.53 -1.5,1.06l0,14.76c0,0.62 0.71,1.06 1.5,1.06l19.7,0" class="cls-34"/>
  <path id="svg_85" d="m653.51,90.32a1.07,1.07 0 0 0 -1.06,-1.06l-18,0a1.07,1.07 0 0 0 -1.06,1.06l0,14.76a1.07,1.07 0 0 0 1.06,1.06l18,0a1.07,1.07 0 0 0 1.06,-1.06l0,-14.76z" class="cls-10"/>
  <path id="svg_86" d="m640.61,89.26l0,8.48a0.49,0.49 0 0 0 0.27,0.44a0.42,0.42 0 0 0 0.53,-0.09l2.12,-1.68l2.12,1.68a0.32,0.32 0 0 0 0.27,0.09c0.09,0 0.18,0 0.18,-0.09a0.49,0.49 0 0 0 0.27,-0.44l0,-8.48l-5.74,0.09l-0.02,0z" class="cls-39"/>
  <path id="svg_87" d="m636.19,106.23l0,8.48a0.49,0.49 0 0 0 0.27,0.44a0.42,0.42 0 0 0 0.53,-0.09l2.12,-1.68l2.12,1.68a0.32,0.32 0 0 0 0.27,0.09c0.09,0 0.18,0 0.18,-0.09a0.49,0.49 0 0 0 0.27,-0.44l0,-8.48l-5.74,0.09l-0.02,0z" class="cls-39"/>
  <path id="svg_88" d="m663.5,105.34a0.32,0.32 0 0 0 0.27,0.09c0.09,0 0.18,0 0.18,-0.09a0.49,0.49 0 0 0 0.27,-0.44l0,-8.48l-5.66,0l0,8.48a0.49,0.49 0 0 0 0.27,0.44a0.42,0.42 0 0 0 0.53,-0.09l2.12,-1.68l2.02,1.77z" class="cls-39"/>
  <path id="svg_89" d="m650.69,101.81l-4,0a0.71,0.71 0 0 1 0,-1.41l4,0a0.7,0.7 0 0 1 0.71,0.71c-0.1,0.34 -0.4,0.7 -0.71,0.7z" class="cls-40"/>
  <path id="svg_90" d="m671.28,121.16l-4,0a0.71,0.71 0 0 1 0,-1.41l4,0a0.7,0.7 0 0 1 0.71,0.71a0.83,0.83 0 0 1 -0.71,0.7z" class="cls-8"/>
  <path id="svg_91" d="m650.69,104l-4,0a0.71,0.71 0 0 1 0,-1.41l4,0a0.7,0.7 0 0 1 0.71,0.71c-0.1,0.36 -0.4,0.7 -0.71,0.7z" class="cls-40"/>
  <path id="svg_92" d="m650.69,118.6l-4,0a0.71,0.71 0 0 1 0,-1.41l4,0a0.7,0.7 0 0 1 0.71,0.71c-0.1,0.34 -0.4,0.7 -0.71,0.7z" class="cls-13"/>
  <path id="svg_93" d="m650.69,120.81l-4,0a0.71,0.71 0 0 1 0,-1.41l4,0a0.7,0.7 0 0 1 0.71,0.71a0.76,0.76 0 0 1 -0.71,0.7z" class="cls-13"/>
  <path id="svg_94" d="m636.19,106.23l0,8.48a0.49,0.49 0 0 0 0.27,0.44a0.42,0.42 0 0 0 0.53,-0.09l2.12,-1.68l0,-7.25l-2.92,0.09l0,0.01z" class="cls-41"/>
  <path id="svg_95" d="m640.61,89.26l0,8.48a0.49,0.49 0 0 0 0.27,0.44a0.42,0.42 0 0 0 0.53,-0.09l2.12,-1.68l0,-7.24l-2.92,0.09z" class="cls-41"/>
  <path id="svg_96" d="m661.38,96.59l-2.83,0l0,8.48a0.49,0.49 0 0 0 0.27,0.44a0.42,0.42 0 0 0 0.53,-0.09l2.12,-1.68l0,0l0,-7.15l-0.09,0z" class="cls-41"/>
  <path id="svg_97" d="m699.3,228.6a5.48,5.48 0 0 0 -5.5,5.5c0,5.2 5.5,10.3 5.5,10.3s5.5,-5.1 5.5,-10.3a5.55,5.55 0 0 0 -5.5,-5.5z" class="cls-12"/>
  <path id="svg_98" d="m676.7,208.9a4.91,4.91 0 0 0 -4.9,4.9c0,4.6 4.9,9.2 4.9,9.2s4.9,-4.5 4.9,-9.2a4.91,4.91 0 0 0 -4.9,-4.9z" class="cls-38"/>
  <circle id="svg_99" r="3.7" cy="234.2" cx="699.3" class="cls-9"/>
  <circle id="svg_100" r="3.3" cy="213.9" cx="676.7" class="cls-9"/>
  <path id="svg_101" d="m693.7,225.8a6.66,6.66 0 0 0 -1.2,-2l-0.8,0.7a3.91,3.91 0 0 1 1,1.6l1,-0.3z" class="cls-33"/>
  <rect id="svg_102" height="1.1" width="2.1" y="221.9" x="679.6" class="cls-33"/>
  <path id="svg_103" d="m682.2,235.7a4.67,4.67 0 0 1 1.4,-1.4l-0.6,-0.9a5.17,5.17 0 0 0 -1.6,1.7l0.8,0.6z" class="cls-33"/>
  <path id="svg_104" d="m692.9,228.1a4.78,4.78 0 0 1 -0.6,1.8l1,0.5a6.26,6.26 0 0 0 0.7,-2.2l-1.1,-0.1z" class="cls-33"/>
  <path id="svg_105" d="m690.6,222.4a5.93,5.93 0 0 0 -2.3,-0.5l0,0l0,1.1l0,0a5.85,5.85 0 0 1 1.9,0.4l0.4,-1z" class="cls-33"/>
  <rect id="svg_106" height="1.1" width="2.1" y="243.4" x="689.6" class="cls-33"/>
  <path id="svg_107" d="m689.4,232.2l0.3,1.1a6.81,6.81 0 0 0 2.1,-1l-0.7,-0.9a3.37,3.37 0 0 1 -1.7,0.8z" class="cls-33"/>
  <rect id="svg_108" height="1.1" width="2.1" y="243.4" x="693.9" class="cls-33"/>
  <path id="svg_109" d="m681.4,238.4c0,-0.3 0.1,-0.6 0.1,-0.9l-1.1,-0.2a4.49,4.49 0 0 0 -0.1,1.1c0,0.4 0.1,0.8 0.1,1.2l1.1,-0.2c0,-0.3 -0.1,-0.7 -0.1,-1z" class="cls-33"/>
  <path id="svg_110" d="m682.3,241.2l-0.9,0.6a6.86,6.86 0 0 0 1.7,1.7l0.6,-0.9a4.66,4.66 0 0 1 -1.4,-1.4z" class="cls-33"/>
  <rect id="svg_111" height="1.1" width="2.1" y="221.9" x="684" class="cls-33"/>
  <path id="svg_112" d="m685.4,243.3l-0.2,1.1a4.87,4.87 0 0 0 1.2,0.1l1.1,0l0,-1.1l-1.1,0c-0.4,0 -0.7,-0.1 -1,-0.1z" class="cls-33"/>
  <path id="svg_113" d="m686.4,233.4l1,0l0,-1.1l-1,0a5,5 0 0 0 -1.2,0.2l0.2,1.1a1.64,1.64 0 0 1 1,-0.2z" class="cls-33"/>
  <polygon id="svg_114" points="729.45 176.95 725.87 176.26 724.08 173.09 724.08 181.9 727.39 183.42 726.97 179.84 729.45 176.95" class="cls-10"/>
  <polygon id="svg_115" points="722.29 176.26 718.72 176.95 721.19 179.84 720.78 183.42 724.08 181.9 724.08 173.09 722.29 176.26" class="cls-42"/>
  <polygon id="svg_116" points="742.11 180.8 738.53 180.11 736.74 176.95 736.74 185.75 740.05 187.27 739.77 183.69 742.11 180.8" class="cls-10"/>
  <polygon id="svg_117" points="734.96 180.11 731.38 180.8 733.85 183.69 733.44 187.27 736.74 185.75 736.74 176.95 734.96 180.11" class="cls-42"/>
  <polygon id="svg_118" points="755.05 183.14 751.47 182.31 749.68 179.29 749.68 187.96 752.98 189.47 752.57 185.89 755.05 183.14" class="cls-10"/>
  <polygon id="svg_119" points="747.89 182.31 744.31 183.14 746.65 185.89 746.38 189.47 749.68 187.96 749.68 179.29 747.89 182.31" class="cls-42"/>
  <polygon id="svg_120" points="767.98 180.8 764.4 180.11 762.61 176.95 762.61 185.75 765.92 187.27 765.64 183.69 767.98 180.8" class="cls-10"/>
  <polygon id="svg_121" points="760.83 180.11 757.25 180.8 759.72 183.69 759.31 187.27 762.61 185.75 762.61 176.95 760.83 180.11" class="cls-42"/>
  <polygon id="svg_122" points="780.78 176.95 777.2 176.26 775.41 173.09 775.41 181.9 778.71 183.42 778.3 179.84 780.78 176.95" class="cls-10"/>
  <polygon id="svg_123" points="773.62 176.26 770.04 176.95 772.38 179.84 772.11 183.42 775.41 181.9 775.41 173.09 773.62 176.26" class="cls-42"/>
  <path id="svg_124" d="m750,169.24c3.16,0 5.92,-3.85 5.92,-8.53s-2.75,-8.53 -5.92,-8.53s-6,3.82 -6,8.53s2.65,8.53 6,8.53z" class="cls-43"/>
  <path id="svg_125" d="m754.5,168.28c0.28,-0.14 5.37,-4 5.37,-4c2.34,0.83 3,7.43 3.3,10.6l-5.64,0l-3.03,-6.6z" class="cls-38"/>
  <path id="svg_126" d="m749.68,159.33l-2.89,0l0,1.79c0,1 -4.27,2.2 -5.23,2.48c-2.61,4.54 5.09,7.29 7.57,10.87l1.38,0c2.48,-3.72 9.36,-6.05 7.16,-10.87c-1,-0.28 -5.37,-1.51 -5.37,-2.48l0,-1.79l-2.62,0z" class="cls-44"/>
  <path id="svg_127" d="m744.31,168.83c-0.28,-0.14 -4.82,-4.54 -4.82,-4.54c-2.34,0.83 -3,7.43 -3.3,10.6l5.64,0l2.48,-6.06z" class="cls-38"/>
  <path id="svg_128" d="m743.07,163.19c-0.69,0.14 -3,1 -3.58,1.1l-0.41,0a32.13,32.13 0 0 1 1,4.54c-0.41,2.2 -1.65,3.85 -0.69,6.05l20.37,0c1,-2.2 -0.41,-3.72 -0.69,-6.05a32.13,32.13 0 0 1 1,-4.54l-0.41,0c-0.69,-0.14 -2.34,-1 -3,-1.1c0.14,0.28 0,0.83 0,1.1a5.71,5.71 0 0 1 -6.05,5.78c-4.1,0 -6.61,-1.52 -7.54,-6.88z" class="cls-8"/>
  <path id="svg_129" d="m742.25,148.19c0.41,1.93 -0.41,3.44 -1.79,3.72a2.67,2.67 0 0 1 -3.16,-2.48c-0.41,-1.93 0.41,-3.58 1.79,-4s2.91,0.83 3.16,2.76z" class="cls-45"/>
  <path id="svg_130" d="m757.52,148.19c-0.41,1.93 0.41,3.44 1.79,3.72a2.67,2.67 0 0 0 3.16,-2.48c0.41,-1.93 -0.41,-3.58 -1.79,-4s-2.74,0.83 -3.16,2.76z" class="cls-45"/>
  <path id="svg_131" d="m750,132.5l0,0a8.63,8.63 0 0 1 -1.51,-0.14l0,0.14l-0.14,0a10.08,10.08 0 0 0 -7.57,4.13c-1.79,2.48 -2.06,5.5 -1.93,8.39c0.41,7.57 4.54,16.1 11.15,16.1s10.73,-8.53 11.15,-16.1c0.14,-2.89 -0.14,-6.05 -1.93,-8.39a9.86,9.86 0 0 0 -7.57,-4.13l-0.14,0l0,-0.14a8.62,8.62 0 0 1 -1.51,0.14z" class="cls-46"/>
  <path id="svg_132" d="m754.5,135.39c-0.14,0.41 0,2.61 2.48,6.05s2.75,3.72 2.75,3.72s0,5.92 0.41,5.23s1,-5.23 1,-5.5a18.55,18.55 0 0 0 -0.14,-5.5c-0.69,-2.75 -1.38,-3.72 -2.61,-4.13s-3.89,0.13 -3.89,0.13z" class="cls-43"/>
  <path id="svg_133" d="m740.18,142.55a13.84,13.84 0 0 1 -1.93,1.65c0.41,2.06 0.83,5.78 1.24,6.05c0.42,-0.41 0.51,-4.13 0.69,-7.7z" class="cls-43"/>
  <path id="svg_134" d="m759.86,145.16c0.14,-1.93 1.1,-6.33 0.69,-7.57c-1.38,-3.44 -4,-5 -8.39,-5.37a12.32,12.32 0 0 0 -2.48,0c2.48,4 4.68,9.5 10.18,12.94z" class="cls-43"/>
  <path id="svg_135" d="m755.6,136.49c-1,5.5 -12.38,3.72 -16.24,10.32c-4.27,-6.47 2.2,-19.68 13.62,-14.45l2.62,4.13z" class="cls-43"/>
  <rect id="svg_136" height="121.7" width="59.9" y="130" x="286.1" class="cls-9"/>
  <path id="svg_137" d="m325.5,145.9l-29.5,0a2.4,2.4 0 0 1 -2.3,-2.3l0,0a2.4,2.4 0 0 1 2.3,-2.3l29.5,0a2.4,2.4 0 0 1 2.3,2.3l0,0a2.4,2.4 0 0 1 -2.3,2.3z" class="cls-8"/>
  <path id="svg_138" d="m338.6,138.8c-0.1,-0.2 -0.2,-0.2 -0.4,-0.2l-9,0c-0.2,0 -0.4,0.1 -0.4,0.2a0.44,0.44 0 0 0 0.1,0.5l3.5,3.5l0,3.5a0.76,0.76 0 0 0 0.1,0.4l1.8,1.8c0.1,0.1 0.2,0.1 0.4,0.1l0.1,0c0.2,-0.1 0.2,-0.2 0.2,-0.4l0,-5.3l3.5,-3.5a1.08,1.08 0 0 0 0.1,-0.6z" class="cls-34"/>
  <path id="svg_139" d="m337.1,158.3l-41,0a2.4,2.4 0 0 1 -2.3,-2.3l0,0a2.4,2.4 0 0 1 2.3,-2.3l41,0a2.4,2.4 0 0 1 2.3,2.3l0,0a2.4,2.4 0 0 1 -2.3,2.3z" class="cls-2"/>
  <path id="svg_140" d="m330.1,170.6l-34.1,0a2.4,2.4 0 0 1 -2.3,-2.3l0,0a2.4,2.4 0 0 1 2.3,-2.3l34.1,0a2.4,2.4 0 0 1 2.3,2.3l0,0a2.33,2.33 0 0 1 -2.3,2.3z" class="cls-2"/>
  <path id="svg_141" d="m325.5,183l-29.5,0a2.4,2.4 0 0 1 -2.3,-2.3l0,0a2.4,2.4 0 0 1 2.3,-2.3l29.5,0a2.4,2.4 0 0 1 2.3,2.3l0,0a2.2,2.2 0 0 1 -2.3,2.3z" class="cls-2"/>
  <path id="svg_142" d="m330.1,195.4l-34.1,0a2.4,2.4 0 0 1 -2.3,-2.3l0,0a2.4,2.4 0 0 1 2.3,-2.3l34.1,0a2.4,2.4 0 0 1 2.3,2.3l0,0a2.33,2.33 0 0 1 -2.3,2.3z" class="cls-2"/>
  <path id="svg_143" d="m330.1,207.7l-34.1,0a2.4,2.4 0 0 1 -2.3,-2.3l0,0a2.4,2.4 0 0 1 2.3,-2.3l34.1,0a2.4,2.4 0 0 1 2.3,2.3l0,0a2.33,2.33 0 0 1 -2.3,2.3z" class="cls-2"/>
  <path id="svg_144" d="m337.1,220.1l-41,0a2.4,2.4 0 0 1 -2.3,-2.3l0,0a2.4,2.4 0 0 1 2.3,-2.3l41,0a2.4,2.4 0 0 1 2.3,2.3l0,0a2.26,2.26 0 0 1 -2.3,2.3z" class="cls-2"/>
  <path id="svg_145" d="m337.1,232.4l-41,0a2.4,2.4 0 0 1 -2.3,-2.3l0,0a2.4,2.4 0 0 1 2.3,-2.3l41,0a2.4,2.4 0 0 1 2.3,2.3l0,0a2.2,2.2 0 0 1 -2.3,2.3z" class="cls-2"/>
  <path id="svg_146" d="m337,247.7l-27.1,0a3.54,3.54 0 0 1 -3.5,-3.5l0,0a3.54,3.54 0 0 1 3.5,-3.5l27.1,0a3.54,3.54 0 0 1 3.5,3.5l0,0a3.68,3.68 0 0 1 -3.5,3.5z" class="cls-10"/>
  <rect id="svg_147" height="2.9" width="45.2" y="180.3" x="357.5" class="cls-9"/>
  <rect id="svg_148" height="2.9" width="45.2" y="187.1" x="357.5" class="cls-9"/>
  <rect id="svg_149" height="2.9" width="45.2" y="180.3" x="415.2" class="cls-9"/>
  <rect id="svg_150" height="2.9" width="45.2" y="187.1" x="415.2" class="cls-9"/>
  <rect id="svg_151" height="2.9" width="45.2" y="180.3" x="472.9" class="cls-9"/>
  <rect id="svg_152" height="2.9" width="45.2" y="187.1" x="472.9" class="cls-9"/>
  <polygon id="svg_153" points="485.2 50.8 488.1 73.2 472.5 50 485.2 50.8" class="cls-17"/>
  <polygon id="svg_154" points="518.1 75.7 509.4 91.3 532.2 75.7 518.1 75.7" class="cls-18"/>
  <path id="svg_155" d="m282.79,207.28l-25.17,0l0,45.61l41.23,0l0,-20.53l-4.85,-16.62a11.72,11.72 0 0 0 -11.26,-8.46" class="cls-34"/>
  <path id="svg_156" d="m292.83,232.15l-4.29,-14.81a6,6 0 0 0 -5.76,-4.33l-19.43,0l0,19.14l29.48,0z" class="cls-47"/>
  <polygon id="svg_157" points="292.84 232.14 263.34 232.14 263.34 213 292.84 232.14" class="cls-48"/>
  <path id="svg_158" d="m292.83,232.15l-4.29,-14.81a6,6 0 0 0 -5.76,-4.33l-19.43,0l29.48,19.14z" class="cls-49"/>
  <path id="svg_159" d="m186.52,184.38l63.48,0a7.62,7.62 0 0 1 7.62,7.62l0,60.89l-78.72,0l0,-60.89a7.62,7.62 0 0 1 7.62,-7.62" class="cls-14"/>
  <polygon id="svg_160" points="230.5 184.39 230.5 204.52 227.55 201.57 224.46 204.66 221.38 201.57 218.29 204.66 215.2 201.57 212.08 204.66 209 201.57 206.01 204.55 206.01 184.39 230.5 184.39" class="cls-36"/>
  <path id="svg_161" d="m300.78,252.88l0,8.61l-121.87,0l0,-8.61l12.72,0a17.45,17.45 0 0 1 30.47,0l40.9,0a17.43,17.43 0 0 1 30.44,0l7.34,0z" class="cls-50"/>
  <path id="svg_162" d="m290.4,261.44a12.16,12.16 0 1 1 -12.16,-12.16a12.16,12.16 0 0 1 12.16,12.16" class="cls-33"/>
  <path id="svg_163" d="m283.13,261.44a4.89,4.89 0 1 1 -4.89,-4.89a4.89,4.89 0 0 1 4.89,4.89" class="cls-51"/>
  <path id="svg_164" d="m219,261.44a12.16,12.16 0 1 1 -12.16,-12.16a12.17,12.17 0 0 1 12.16,12.16" class="cls-33"/>
  <path id="svg_165" d="m211.74,261.44a4.89,4.89 0 1 1 -4.89,-4.89a4.88,4.88 0 0 1 4.89,4.89" class="cls-51"/>
  <path id="svg_166" d="m530.89,156.7a4.59,4.59 0 0 1 4.6,-4.6l74.6,0a4.57,4.57 0 0 1 4.5,4.6l0,112.4a4.48,4.48 0 0 1 -4.5,4.5l-74.6,0a4.57,4.57 0 0 1 -4.6,-4.5l0,-112.4z" class="cls-33"/>
  <path id="svg_167" d="m568.19,268.6a2,2 0 0 1 -2,-2l0,-0.5a2,2 0 0 1 2,-2l9.2,0a2,2 0 0 1 2,2l0,0.5a2,2 0 0 1 -2,2l-9.2,0z" class="cls-35"/>
  <path id="svg_168" d="m572.79,160.2a2.05,2.05 0 0 1 -2.1,-2.1a2.1,2.1 0 1 1 2.1,2.1z" class="cls-35"/>
  <rect id="svg_169" height="94.9" width="74.2" y="164" x="535.69" class="cls-9"/>
  <rect id="svg_170" height="13.1" width="74.2" y="164" x="535.69" class="cls-8"/>
  <rect id="svg_171" height="29" width="31.5" y="183.2" x="575.87" class="cls-13"/>
  <polygon id="svg_172" points="575.87 218.09 607.37 218.09 607.49 221.56 575.76 221.56 575.87 218.09" class="cls-2"/>
  <polygon id="svg_173" points="575.87 224.68 607.37 224.68 607.49 228.14 575.87 228.14 575.87 224.68" class="cls-2"/>
  <polygon id="svg_174" points="575.87 231.03 607.37 231.03 607.49 234.5 575.87 234.5 575.87 231.03" class="cls-2"/>
  <rect id="svg_175" height="18.2" width="31.5" y="240.7" x="575.87" class="cls-8"/>
  <rect id="svg_176" height="81.8" width="36.52" y="177.1" x="535.69" class="cls-2"/>
  <path id="svg_177" d="m558.29,187.38l-17.12,0a2.26,2.26 0 0 1 -2.17,-2.2l0,0a2.26,2.26 0 0 1 2.17,-2.2l17.12,0a2.26,2.26 0 0 1 2.17,2.2l0,0a2.18,2.18 0 0 1 -2.17,2.2z" class="cls-8"/>
  <path id="svg_178" d="m570.28,182.41a0.25,0.25 0 0 0 -0.23,-0.23l-5.82,0a0.25,0.25 0 0 0 -0.23,0.23a0.43,0.43 0 0 0 0.11,0.35l2.28,2.31l0,2.31c0,0.12 0,0.12 0.11,0.23l1.14,1.16c0,0.12 0.11,0.12 0.23,0.12l0.13,0a0.25,0.25 0 0 0 0.23,-0.23l0,-3.47l2.28,-2.31c-0.23,-0.12 -0.23,-0.24 -0.23,-0.47z" class="cls-9"/>
  <path id="svg_179" d="m568,199.34l-27.28,0a1.72,1.72 0 0 1 -1.48,-1.82l0,0a1.72,1.72 0 0 1 1.48,-1.82l27.28,0a1.72,1.72 0 0 1 1.48,1.82l0,0a1.53,1.53 0 0 1 -1.48,1.82z" class="cls-9"/>
  <path id="svg_180" d="m563.43,207.77l-22.6,0a1.72,1.72 0 0 1 -1.48,-1.82l0,0a1.72,1.72 0 0 1 1.48,-1.82l22.6,0a1.72,1.72 0 0 1 1.48,1.82l0,0a1.66,1.66 0 0 1 -1.48,1.82z" class="cls-9"/>
  <path id="svg_181" d="m560,216.2l-18.94,0a1.68,1.68 0 0 1 -1.83,-1.53l0,-0.57a1.68,1.68 0 0 1 1.83,-1.53l18.94,0a1.68,1.68 0 0 1 1.83,1.53l0,0.57a1.68,1.68 0 0 1 -1.83,1.53z" class="cls-9"/>
  <path id="svg_182" d="m563.43,224.63l-22.6,0a1.72,1.72 0 0 1 -1.48,-1.82l0,0a1.72,1.72 0 0 1 1.48,-1.82l22.6,0a1.72,1.72 0 0 1 1.48,1.82l0,0a1.66,1.66 0 0 1 -1.48,1.82z" class="cls-9"/>
  <path id="svg_183" d="m560,241.5l-18.94,0a1.68,1.68 0 0 1 -1.83,-1.53l0,-0.57a1.68,1.68 0 0 1 1.83,-1.53l18.94,0a1.68,1.68 0 0 1 1.83,1.53l0,0.6a1.68,1.68 0 0 1 -1.83,1.5z" class="cls-9"/>
  <path id="svg_184" d="m563.32,233.06l-22.6,0a1.72,1.72 0 0 1 -1.48,-1.82l0,0a1.72,1.72 0 0 1 1.48,-1.82l22.6,0a1.72,1.72 0 0 1 1.48,1.82l0,0a1.57,1.57 0 0 1 -1.48,1.82z" class="cls-9"/>
  <path id="svg_185" d="m566.74,253.36l-18.94,0a2.43,2.43 0 0 1 -2.4,-2.43l0,0a2.43,2.43 0 0 1 2.4,-2.43l18.95,0a2.43,2.43 0 0 1 2.4,2.43l0,0a2.36,2.36 0 0 1 -2.41,2.43z" class="cls-10"/>
 </g>
</svg>