<svg id="design" xmlns="http://www.w3.org/2000/svg" viewBox="0 0 835 273"><defs><style>.cls-1,.cls-31{fill:none;stroke-miterlimit:10;}.cls-1{stroke:#d0d8dc;stroke-width:2px;}.cls-2{fill:#bdddf4;}.cls-3{fill:#eceff0;}.cls-4{fill:#37474f;}.cls-5{fill:#d0d8dc;}.cls-6{fill:#b0bec5;}.cls-7{fill:#90a4ae;}.cls-8{fill:#57a7db;}.cls-9{fill:#fff;}.cls-10{fill:#fbb040;}.cls-11{fill:#71be71;}.cls-12{fill:#f5844e;}.cls-13{fill:#99cf8c;}.cls-14{fill:#dd9585;}.cls-15{fill:#95c8ec;}.cls-16{fill:#addba1;}.cls-17{fill:#cbeafb;}.cls-18{fill:#a3d1ee;}.cls-19{fill:#e4f2fb;}.cls-20{fill:#d1e6f2;}.cls-21{fill:#5a4146;}.cls-22{fill:#694b4b;}.cls-23{fill:#e6af78;}.cls-24{fill:#d29b6e;}.cls-25{fill:#afb9d2;}.cls-26{fill:#f0c087;}.cls-27{fill:#959cb5;}.cls-28{fill:#c7cfe2;}.cls-29{fill:#707487;}.cls-30{fill:#5b5d6e;}.cls-31{stroke:#fff;stroke-width:1.34px;}.cls-32{fill:#a6adad;}.cls-33{fill:#546e7a;}.cls-34{fill:#73c073;}.cls-35{fill:#3f535c;}.cls-36{fill:#ce775f;}.cls-37{fill:#546a79;}.cls-38{fill:#0071bc;}.cls-39{fill:#7c7a75;}.cls-40{fill:#f9d19b;}.cls-41{fill:#605e5a;}.cls-42{fill:#e08f3f;}.cls-43{fill:#3e3b3a;}.cls-44{fill:#f5b67e;}.cls-45{fill:#f6c085;}.cls-46{fill:#f8c997;}.cls-47{fill:#84dbff;}.cls-48{fill:#cdd6e0;}.cls-49{fill:#f2f2f2;}.cls-50{fill:#334a5e;}.cls-51{fill:#acb3ba;}</style></defs><title>Vendor Portals</title><polyline class="cls-1" points="272 102.9 183.3 102.9 183.3 218.8"/><line class="cls-1" x1="648.7" y1="138.6" x2="648.7" y2="227.76"/><line class="cls-1" x1="147.3" y1="218.8" x2="250.1" y2="218.8"/><line class="cls-1" x1="598.37" y1="228.8" x2="687.1" y2="228.8"/><path id="_Compound_Path_" data-name=" Compound Path " class="cls-2" d="M290.4,49.7l-2.3,3.8a31.7,31.7,0,0,0-8.6-1.5l-.9-4.2a4.71,4.71,0,0,0-5.4-3.8,2,2,0,0,1-.5.1l-5.3,1.3a4.75,4.75,0,0,0-3.6,5.7,2,2,0,0,1,.1.5l.9,4.2a38.09,38.09,0,0,0-7.3,5.1L254,58.6a4.65,4.65,0,0,0-6.6,1.4.1.1,0,0,1-.1.1l-2.8,4.6a5,5,0,0,0,1.4,6.8l3.5,2.3a38.85,38.85,0,0,0-1.6,8.8l-4,1a4.8,4.8,0,0,0-3.6,5.8.37.37,0,0,0,.1.3l1.2,5.5a4.71,4.71,0,0,0,5.4,3.8,2,2,0,0,1,.5-.1l4-1a37.67,37.67,0,0,0,5,7.3l-2.3,3.4a5,5,0,0,0,1.4,6.8l4.4,2.9a3.66,3.66,0,0,0,3.6.5,4.8,4.8,0,0,0,3-2.2l2.3-3.8a31.7,31.7,0,0,0,8.6,1.5l.9,4.2a4.71,4.71,0,0,0,5.4,3.8,2,2,0,0,1,.5-.1l5.3-1.3a4.75,4.75,0,0,0,3.6-5.7,2,2,0,0,1-.1-.5l-.9-4.2a36.06,36.06,0,0,0,7.2-5.3l3.5,2.3a3.66,3.66,0,0,0,3.6.5,4.8,4.8,0,0,0,3-2.2l2.8-4.6a4.17,4.17,0,0,0,.5-3.9,4.32,4.32,0,0,0-2.1-3.1l-3.5-2.3a38.85,38.85,0,0,0,1.6-8.8l4-1a4.75,4.75,0,0,0,3.6-5.7,2,2,0,0,1-.1-.5L315,70.4a4.71,4.71,0,0,0-5.4-3.8,2,2,0,0,1-.5.1l-4,1.7a37.67,37.67,0,0,0-5-7.3l2.3-3.6a4.17,4.17,0,0,0,.5-3.9,4.32,4.32,0,0,0-2.1-3.1l-4-2.7a5,5,0,0,0-6.4,1.9ZM296.8,79a19.82,19.82,0,0,1,0,8.4,19.55,19.55,0,0,1-14.3,15.1,18.49,18.49,0,0,1-22.4-14.4h0a19.82,19.82,0,0,1,0-8.4,19.41,19.41,0,0,1,14.3-15.1c10.1-2.7,20.1,3.9,22.4,14.4Z"/><line class="cls-1" x1="100" y1="146.8" x2="340.5" y2="146.8"/><line class="cls-1" x1="525.3" y1="108.5" x2="675.25" y2="108.5"/><line class="cls-1" x1="525.3" y1="163.55" x2="760.1" y2="163.55"/><circle class="cls-3" cx="182.3" cy="102.7" r="34.7"/><g id="_Group_3" data-name=" Group 3"><path id="_Path_4" data-name=" Path 4" class="cls-4" d="M273.8,83.4a6.81,6.81,0,0,0-6.8,6.8h0V259a6.81,6.81,0,0,0,6.8,6.8H535.4a6.81,6.81,0,0,0,6.8-6.8h0V90.2a6.81,6.81,0,0,0-6.8-6.8H273.8Z"/><path id="_Path_5" data-name=" Path 5" class="cls-5" d="M252.1,273.6h305a14.51,14.51,0,0,0,14.5-14.5h-334A14.51,14.51,0,0,0,252.1,273.6Z"/><path id="_Path_6" data-name=" Path 6" class="cls-6" d="M239.8,266.8a14.52,14.52,0,0,0,12.3,6.8h305a14.42,14.42,0,0,0,12.3-6.8Z"/><circle id="_Path_7" data-name=" Path 7" class="cls-7" cx="264" cy="262.7" r="1.6"/><circle id="_Path_8" data-name=" Path 8" class="cls-7" cx="259.5" cy="262.7" r="1.7"/><circle id="_Path_9" data-name=" Path 9" class="cls-7" cx="254.9" cy="262.7" r="1.7"/></g><g id="_Group_2-2" data-name=" Group 2-2"><rect class="cls-2" x="278.3" y="94.3" width="252.5" height="157.4"/></g><rect class="cls-8" x="278.3" y="94.3" width="252.5" height="27.4"/><path class="cls-9" d="M295.1,114.1l-6.3-6.3,6.3-6.3-1.9-1.9-8.1,8.1,8.1,8.1Zm7.1,0,6.3-6.3-6.3-6.3,1.9-1.9,8.1,8.1-8.1,8.1Z"/><circle class="cls-10" cx="505.6" cy="107.7" r="2.4"/><circle class="cls-11" cx="514.3" cy="107.7" r="2.4"/><circle class="cls-12" cx="522.9" cy="107.7" r="2.4"/><rect id="_Path_27" data-name=" Path 27" class="cls-13" x="357.5" y="130" width="45.2" height="44.7"/><rect id="_Path_30-2" data-name=" Path 30-2" class="cls-8" x="415.2" y="130" width="45.2" height="44.7"/><rect id="_Path_30-2-2" data-name=" Path 30-2" class="cls-14" x="473.2" y="130" width="45.2" height="44.7"/><rect id="_Path_27-2" data-name=" Path 27" class="cls-14" x="357.5" y="200.6" width="45.2" height="44.7"/><rect id="_Path_30-2-3" data-name=" Path 30-2" class="cls-3" x="415.2" y="200.6" width="45.2" height="44.7"/><rect id="_Path_30-2-4" data-name=" Path 30-2" class="cls-8" x="472.9" y="200.6" width="45.2" height="44.7"/><path class="cls-15" d="M396.8,273.8h1.1c0-.6-.1-1.2-.1-1.8C397.5,272.5,397.1,273.2,396.8,273.8Z"/><circle class="cls-16" cx="81.5" cy="146.7" r="33.3"/><path class="cls-17" d="M387.3,6.9H514.8V53.3H387.3V6.9Z"/><path class="cls-12" d="M401,13.9h49.6v3.6H401Z"/><path class="cls-18" d="M401,23.1h91.1v3.6H401Z"/><path class="cls-18" d="M401,32.8h91.1v3.6H401Z"/><path class="cls-18" d="M401,42.5h69.4v3.6H401Z"/><path class="cls-18" d="M497,42.6h89.3V77H497V42.6Z"/><path class="cls-8" d="M508.8,50h35.7v3.6H508.8V50Z"/><path class="cls-19" d="M508.8,57.9h65.7v3.6H508.8V57.9Z"/><path class="cls-19" d="M508.8,66h45.5v3.6H508.8Z"/><circle class="cls-20" cx="650.07" cy="108.7" r="33.93"/><circle class="cls-3" cx="749.68" cy="163.6" r="40.32"/><circle class="cls-16" cx="687.1" cy="227.3" r="26.8"/><path class="cls-9" d="M91.2,130.9h0c-.1-.1-.1-.2-.2-.2s-.1-.1-.1-.2a1.76,1.76,0,0,0-.4-.5,6.42,6.42,0,0,0-2.3-1.4c-.1,0-.1-.1-.2-.1a39.37,39.37,0,0,0-14-2.2h0c-9.5,0-17.1,2.4-17.1,5.3v5.5c0,2.9,7.7,5.3,17.2,5.3s17.2-2.4,17.2-5.3v-5.5C91.4,131.5,91.3,131.2,91.2,130.9Z"/><ellipse class="cls-18" cx="74.2" cy="131.7" rx="17.2" ry="5.3"/><path class="cls-9" d="M57,144.7c0,2.9,7.7,5.3,17.2,5.3s17.2-2.4,17.2-5.3v-5.5c0,2.9-7.7,5.3-17.2,5.3S57,142.1,57,139.2Z"/><path class="cls-9" d="M57,152.2c0,2.9,7.7,5.3,17.2,5.3s17.2-2.4,17.2-5.3v-5.5c0,2.9-7.7,5.3-17.2,5.3S57,149.6,57,146.7Z"/><path class="cls-9" d="M57,159.7c0,2.9,7.7,5.3,17.2,5.3s17.2-2.4,17.2-5.3v-5.5c0,2.9-7.7,5.3-17.2,5.3S57,157.1,57,154.2Z"/><circle class="cls-8" cx="92.4" cy="151" r="15.6"/><path class="cls-21" d="M98.1,148.2v.3a3.55,3.55,0,0,0,.2,1l.6,1.9H100V147h-.8A1.2,1.2,0,0,0,98.1,148.2Z"/><path class="cls-22" d="M103.6,149.1l-.7,2.4-3.2-2.8a.79.79,0,0,1-.8-.8h0a1.29,1.29,0,0,1,1.2-1.2h2.8a.79.79,0,0,1,.8.8v.8A2.81,2.81,0,0,1,103.6,149.1Z"/><rect class="cls-23" x="99.6" y="152.6" width="2.4" height="1.8"/><path class="cls-24" d="M99.6,153.4a2.54,2.54,0,0,0,1.2.2,4.3,4.3,0,0,0,1.2-.2v-.7H99.6v.7Z"/><path class="cls-9" d="M104,154.2l-2-.6-1.2.8-1.2-.8-2,.6a1.18,1.18,0,0,0-.9,1.2v2.9a.43.43,0,0,0,.4.4h7.3a.43.43,0,0,0,.4-.4v-3C104.9,154.8,104.5,154.4,104,154.2Z"/><polygon class="cls-25" points="101.3 158.7 100.4 158.7 100.7 154.4 101.1 154.4 101.3 158.7"/><path class="cls-26" d="M100.8,153h0a2.43,2.43,0,0,1-2.4-2.4v-.5a1.42,1.42,0,0,1,.2-.6l.7-.7a.73.73,0,0,1,.6-.2,5.43,5.43,0,0,1,3.1.9.73.73,0,0,1,.2.6v.6A2.23,2.23,0,0,1,100.8,153Z"/><path class="cls-23" d="M99.6,150.3a.77.77,0,0,1,.9-.8,8.75,8.75,0,0,1,2.8.6c0-.2-.1-.3-.2-.5a4.42,4.42,0,0,0-3.1-.9h0a1.42,1.42,0,0,0-.6.2l-.7.7a.73.73,0,0,0-.2.6v.5a2.29,2.29,0,0,0,1.7,2.3,2.53,2.53,0,0,1-.6-1.5v-1.2Z"/><path class="cls-27" d="M101.1,155.2h-.4a.22.22,0,0,1-.2-.2v-.6h.8v.6A.2.2,0,0,1,101.1,155.2Z"/><path class="cls-28" d="M100.8,154.4l-.7.6a.25.25,0,0,1-.4-.1l-.6-1.1.2-.4c.1-.1.2-.1.2,0Z"/><path class="cls-28" d="M100.8,154.4l.7.6a.25.25,0,0,0,.4-.1l.6-1.1-.2-.4c-.1-.1-.2-.1-.2,0Z"/><path class="cls-21" d="M87.1,152.9a19.42,19.42,0,0,1-.7-3.3,2.8,2.8,0,1,0-5.6,0,13.94,13.94,0,0,1-.7,3.3c-.1.2,0,.4.2.6a6.69,6.69,0,0,0,2.1.6h2.4c.9-.2,1.7-.5,2.1-.6C87.1,153.3,87.2,153.1,87.1,152.9Z"/><path class="cls-22" d="M86.8,153.4a.45.45,0,0,0,.2-.6,19.42,19.42,0,0,1-.7-3.3,2.86,2.86,0,0,0-2.8-2.8h0a1.24,1.24,0,0,0-.6,2.3.1.1,0,0,1,.1.1l.9,4.9h.8A5.3,5.3,0,0,0,86.8,153.4Z"/><path class="cls-23" d="M86.4,154.8l-1.3-.6c-.2-.2-.5-.4-.5-.7v-1.2H82.2v1.2a.75.75,0,0,1-.5.7l-1.3.6a1.15,1.15,0,0,0-.6,1.1v2.4a.43.43,0,0,0,.4.4h6.5a.43.43,0,0,0,.4-.4v-2.4C87.2,155.5,86.8,155.1,86.4,154.8Z"/><path class="cls-24" d="M83.5,153.9a5.07,5.07,0,0,0,1.3-.2v-1.4H82.4v1.4C82.7,153.7,83.1,153.9,83.5,153.9Z"/><path class="cls-9" d="M86.4,154.8l-.9-.5a2.59,2.59,0,0,1-2.1,1.1,2.75,2.75,0,0,1-2.1-1.1l-.9.5a1.15,1.15,0,0,0-.6,1.1v2.4a.43.43,0,0,0,.4.4h6.5a.43.43,0,0,0,.4-.4v-2.4C87.2,155.5,86.8,155.1,86.4,154.8Z"/><path class="cls-26" d="M83.5,153h0a2.39,2.39,0,0,1-2.4-2.1.52.52,0,0,1,.2-.4c.1-.1.5-.2.7-.5a3.19,3.19,0,0,0,.6-.7c.1-.2.2-.2.5-.2a8.74,8.74,0,0,1,2.8,1.4c.1.1.2.2.2.3A2.67,2.67,0,0,1,83.5,153Z"/><path class="cls-23" d="M85.7,150.5a6.88,6.88,0,0,0-2.8-1.4c-.2-.1-.4.1-.5.2a6.12,6.12,0,0,1-.4.6h0c-.1.1-.1.2-.2.2-.2.2-.6.4-.7.5s-.2.2-.2.4a2.44,2.44,0,0,0,2.1,2.1,1.77,1.77,0,0,1-.9-1.6v-.7c.1-.1.2-.2.3-.2a4.35,4.35,0,0,0,.6-.7,4.77,4.77,0,0,1,2.1,1.2l.5.5a1.85,1.85,0,0,0,.2-.7C85.9,150.7,85.9,150.6,85.7,150.5Z"/><path class="cls-18" d="M98.2,154.3,94.8,153l-2.4.8L90,153l-3.4,1.3a1.64,1.64,0,0,0-1,1.5v2.5a.43.43,0,0,0,.4.4H98.9a.43.43,0,0,0,.4-.4v-2.5A1.92,1.92,0,0,0,98.2,154.3Z"/><polygon class="cls-29" points="92 154.7 91.6 158.7 93.2 158.7 92.8 154.7 92 154.7"/><path class="cls-30" d="M92.8,155.2h-.9a.32.32,0,0,1-.3-.3v-1.1H93v1.1C93.1,155.1,92.9,155.2,92.8,155.2Z"/><path class="cls-21" d="M96.8,144.7v-3.4a.79.79,0,0,0-.8-.8H91.2a3.16,3.16,0,0,0-3.2,3.2v.9a5.85,5.85,0,0,0,.2,1.3l.2.4a.6.6,0,0,1,.1.4v.2h8.1v-.1a.6.6,0,0,1,.1-.4l.2-.4A2.88,2.88,0,0,1,96.8,144.7Z"/><path class="cls-22" d="M89.9,142.2a1.69,1.69,0,0,0,1.7,1.7h.2l.1,3.2h4.5v-.3a.6.6,0,0,1,.1-.4l.2-.4a3,3,0,0,0,.2-1.3v-3.4a.79.79,0,0,0-.8-.8H91.7A1.77,1.77,0,0,0,89.9,142.2Z"/><rect class="cls-23" x="89.9" y="150.3" width="4.8" height="3.6"/><path class="cls-24" d="M89.9,151.6a5.1,5.1,0,0,0,4.8,0v-1.3H89.8v1.3Z"/><path class="cls-9" d="M92.4,153.9l-1.3,1.3c-.2.2-.5.2-.6-.1l-1.3-1.7.3-.7a.48.48,0,0,1,.6-.2Z"/><path class="cls-9" d="M92.4,153.9l1.3,1.3c.2.2.5.2.6-.1l1.3-1.7-.3-.7a.48.48,0,0,0-.6-.2Z"/><path class="cls-26" d="M92.4,151.4h0a4,4,0,0,1-4-4v-.5a1.42,1.42,0,0,1,.2-.6l.3-.3a.73.73,0,0,0,.2-.6v-.9c0-.2.2-.3.3-.4.9-.2,3.9-.8,5.9.7.2.1.2.2.2.4v.2a1.42,1.42,0,0,0,.2.6l.3.3a.73.73,0,0,1,.2.6v.5A3.73,3.73,0,0,1,92.4,151.4Z"/><path class="cls-23" d="M95.4,144.8a6.69,6.69,0,0,0-4.7-.9,10.5,10.5,0,0,1-1.3.2c-.2.1-.3.2-.3.4v.9a1.42,1.42,0,0,1-.2.6l-.3.3a.73.73,0,0,0-.2.6v.5a4,4,0,0,0,3.6,4,3.93,3.93,0,0,1-1.1-2.8v-2.9a.77.77,0,0,1,.7-.8,6.26,6.26,0,0,1,4.1.6v-.2A1.07,1.07,0,0,0,95.4,144.8Z"/><circle class="cls-20" cx="129.2" cy="218.45" r="29.2"/><polyline class="cls-31" points="107.9 219.86 122.3 230.11 131.21 216.44 147.88 207.54"/><rect class="cls-32" x="138.25" y="222.56" width="1.54" height="2.61" transform="translate(-115.64 156.12) rotate(-43.26)"/><path class="cls-33" d="M139.51,222.07a8.87,8.87,0,0,0-1.14-11.32,9,9,0,1,0-1.34,13.8A7.94,7.94,0,0,0,139.51,222.07Zm-2.88-.4a6.49,6.49,0,1,1,0-9.18,6.47,6.47,0,0,1,0,9.18Z"/><path class="cls-8" d="M146.55,228.57a1.86,1.86,0,0,1,0,2.75l-.07.07a1.86,1.86,0,0,1-2.75,0L139.38,227a1.86,1.86,0,0,1,0-2.75l.07-.07a1.86,1.86,0,0,1,2.75,0Z"/><circle class="cls-8" cx="147.89" cy="207.27" r="2.14"/><circle class="cls-12" cx="131.21" cy="216.44" r="3.28"/><circle class="cls-10" cx="122.44" cy="230.11" r="2.01"/><circle class="cls-34" cx="107.9" cy="219.86" r="2.28"/><rect class="cls-9" x="185.51" y="88.79" width="4.4" height="21" transform="translate(-15.23 161.81) rotate(-45)"/><path class="cls-35" d="M184.3,109.9H165a.86.86,0,0,0-.8.8v5.2h21v-5.2A.82.82,0,0,0,184.3,109.9Z"/><rect class="cls-14" x="168.71" y="83.52" width="18.4" height="11.9" transform="translate(-11.15 152) rotate(-45)"/><path class="cls-14" d="M176.8,102.2l-1.3,1.3a1.22,1.22,0,0,1-1.6,0L163.8,93.4a1.22,1.22,0,0,1,0-1.6l1.3-1.3a1.22,1.22,0,0,1,1.6,0l10.1,10.1A1.21,1.21,0,0,1,176.8,102.2Z"/><path class="cls-36" d="M191.9,87.1l-1.3,1.3a1.22,1.22,0,0,1-1.6,0L178.9,78.3a1.22,1.22,0,0,1,0-1.6l1.3-1.3a1.22,1.22,0,0,1,1.6,0l10.1,10.1A1,1,0,0,1,191.9,87.1Z"/><path class="cls-14" d="M191.9,85.5,181.8,75.4a1.22,1.22,0,0,0-1.6,0l-1.3,1.3h0a1.09,1.09,0,0,1,1.5,0l10.1,10.1a1.09,1.09,0,0,1,0,1.5h0l1.3-1.3A.89.89,0,0,0,191.9,85.5Z"/><path class="cls-36" d="M176.8,100.7,166.7,90.6a1.22,1.22,0,0,0-1.6,0l-1.3,1.3h0a1.09,1.09,0,0,1,1.5,0L175.4,102a1.09,1.09,0,0,1,0,1.5h0l1.3-1.3A1,1,0,0,0,176.8,100.7Z"/><path class="cls-37" d="M206.6,114.7l-3.6,3.6a1.09,1.09,0,0,1-1.5,0l-10-10a1.09,1.09,0,0,1,0-1.5l3.6-3.6a1.09,1.09,0,0,1,1.5,0l10,10A.94.94,0,0,1,206.6,114.7Z"/><path class="cls-33" d="M187.1,115.3H162.3a2.54,2.54,0,0,0-2.5,2.5v2.1a.47.47,0,0,0,.5.5H189a.47.47,0,0,0,.5-.5v-2.1A2.52,2.52,0,0,0,187.1,115.3Z"/><path class="cls-8" d="M668.54,96.59H654.31a.79.79,0,0,0-.8.8v25.1a.79.79,0,0,0,.8.8h14.23a.79.79,0,0,0,.8-.8V97.39A.79.79,0,0,0,668.54,96.59Z"/><path class="cls-38" d="M674.72,115.24H663.41a.57.57,0,0,0-.53.53v7a.57.57,0,0,0,.53.53h11.31a.57.57,0,0,0,.53-.53v-7A.47.47,0,0,0,674.72,115.24Z"/><path class="cls-34" d="M649.36,123.19h2.56c.88,0,1.5-.53,1.5-1.06V107.37c0-.62-.71-1.06-1.5-1.06H626.3c-.88,0-1.5.53-1.5,1.06v14.76c0,.62.71,1.06,1.5,1.06H646"/><path class="cls-10" d="M653.51,90.32a1.07,1.07,0,0,0-1.06-1.06h-18a1.07,1.07,0,0,0-1.06,1.06v14.76a1.07,1.07,0,0,0,1.06,1.06h18a1.07,1.07,0,0,0,1.06-1.06V90.32Z"/><path class="cls-39" d="M640.61,89.26v8.48a.49.49,0,0,0,.27.44.42.42,0,0,0,.53-.09l2.12-1.68,2.12,1.68a.32.32,0,0,0,.27.09c.09,0,.18,0,.18-.09a.49.49,0,0,0,.27-.44V89.17l-5.74.09Z"/><path class="cls-39" d="M636.19,106.23v8.48a.49.49,0,0,0,.27.44.42.42,0,0,0,.53-.09l2.12-1.68,2.12,1.68a.32.32,0,0,0,.27.09c.09,0,.18,0,.18-.09a.49.49,0,0,0,.27-.44v-8.48l-5.74.09Z"/><path class="cls-39" d="M663.5,105.34a.32.32,0,0,0,.27.09c.09,0,.18,0,.18-.09a.49.49,0,0,0,.27-.44V96.42h-5.66v8.48a.49.49,0,0,0,.27.44.42.42,0,0,0,.53-.09l2.12-1.68Z"/><path class="cls-40" d="M650.69,101.81h-4a.71.71,0,0,1,0-1.41h4a.7.7,0,0,1,.71.71C651.3,101.45,651,101.81,650.69,101.81Z"/><path class="cls-8" d="M671.28,121.16h-4a.71.71,0,0,1,0-1.41h4a.7.7,0,0,1,.71.71A.83.83,0,0,1,671.28,121.16Z"/><path class="cls-40" d="M650.69,104h-4a.71.71,0,0,1,0-1.41h4a.7.7,0,0,1,.71.71C651.3,103.66,651,104,650.69,104Z"/><path class="cls-13" d="M650.69,118.6h-4a.71.71,0,0,1,0-1.41h4a.7.7,0,0,1,.71.71C651.3,118.24,651,118.6,650.69,118.6Z"/><path class="cls-13" d="M650.69,120.81h-4a.71.71,0,0,1,0-1.41h4a.7.7,0,0,1,.71.71A.76.76,0,0,1,650.69,120.81Z"/><path class="cls-41" d="M636.19,106.23v8.48a.49.49,0,0,0,.27.44.42.42,0,0,0,.53-.09l2.12-1.68v-7.25l-2.92.09Z"/><path class="cls-41" d="M640.61,89.26v8.48a.49.49,0,0,0,.27.44.42.42,0,0,0,.53-.09l2.12-1.68V89.17l-2.92.09Z"/><path class="cls-41" d="M661.38,96.59h-2.83v8.48a.49.49,0,0,0,.27.44.42.42,0,0,0,.53-.09l2.12-1.68h0V96.59Z"/><path class="cls-12" d="M699.3,228.6a5.48,5.48,0,0,0-5.5,5.5c0,5.2,5.5,10.3,5.5,10.3s5.5-5.1,5.5-10.3A5.55,5.55,0,0,0,699.3,228.6Z"/><path class="cls-38" d="M676.7,208.9a4.91,4.91,0,0,0-4.9,4.9c0,4.6,4.9,9.2,4.9,9.2s4.9-4.5,4.9-9.2A4.91,4.91,0,0,0,676.7,208.9Z"/><circle class="cls-9" cx="699.3" cy="234.2" r="3.7"/><circle class="cls-9" cx="676.7" cy="213.9" r="3.3"/><path class="cls-33" d="M693.7,225.8a6.66,6.66,0,0,0-1.2-2l-.8.7a3.91,3.91,0,0,1,1,1.6Z"/><rect class="cls-33" x="679.6" y="221.9" width="2.1" height="1.1"/><path class="cls-33" d="M682.2,235.7a4.67,4.67,0,0,1,1.4-1.4l-.6-.9a5.17,5.17,0,0,0-1.6,1.7Z"/><path class="cls-33" d="M692.9,228.1a4.78,4.78,0,0,1-.6,1.8l1,.5a6.26,6.26,0,0,0,.7-2.2Z"/><path class="cls-33" d="M690.6,222.4a5.93,5.93,0,0,0-2.3-.5h0V223h0a5.85,5.85,0,0,1,1.9.4Z"/><rect class="cls-33" x="689.6" y="243.4" width="2.1" height="1.1"/><path class="cls-33" d="M689.4,232.2l.3,1.1a6.81,6.81,0,0,0,2.1-1l-.7-.9A3.37,3.37,0,0,1,689.4,232.2Z"/><rect class="cls-33" x="693.9" y="243.4" width="2.1" height="1.1"/><path class="cls-33" d="M681.4,238.4c0-.3.1-.6.1-.9l-1.1-.2a4.49,4.49,0,0,0-.1,1.1c0,.4.1.8.1,1.2l1.1-.2C681.5,239.1,681.4,238.7,681.4,238.4Z"/><path class="cls-33" d="M682.3,241.2l-.9.6a6.86,6.86,0,0,0,1.7,1.7l.6-.9A4.66,4.66,0,0,1,682.3,241.2Z"/><rect class="cls-33" x="684" y="221.9" width="2.1" height="1.1"/><path class="cls-33" d="M685.4,243.3l-.2,1.1a4.87,4.87,0,0,0,1.2.1h1.1v-1.1h-1.1C686,243.4,685.7,243.3,685.4,243.3Z"/><path class="cls-33" d="M686.4,233.4h1v-1.1h-1a5,5,0,0,0-1.2.2l.2,1.1A1.64,1.64,0,0,1,686.4,233.4Z"/><polygon class="cls-10" points="729.45 176.95 725.87 176.26 724.08 173.09 724.08 181.9 727.39 183.42 726.97 179.84 729.45 176.95"/><polygon class="cls-42" points="722.29 176.26 718.72 176.95 721.19 179.84 720.78 183.42 724.08 181.9 724.08 173.09 722.29 176.26"/><polygon class="cls-10" points="742.11 180.8 738.53 180.11 736.74 176.95 736.74 185.75 740.05 187.27 739.77 183.69 742.11 180.8"/><polygon class="cls-42" points="734.96 180.11 731.38 180.8 733.85 183.69 733.44 187.27 736.74 185.75 736.74 176.95 734.96 180.11"/><polygon class="cls-10" points="755.05 183.14 751.47 182.31 749.68 179.29 749.68 187.96 752.98 189.47 752.57 185.89 755.05 183.14"/><polygon class="cls-42" points="747.89 182.31 744.31 183.14 746.65 185.89 746.38 189.47 749.68 187.96 749.68 179.29 747.89 182.31"/><polygon class="cls-10" points="767.98 180.8 764.4 180.11 762.61 176.95 762.61 185.75 765.92 187.27 765.64 183.69 767.98 180.8"/><polygon class="cls-42" points="760.83 180.11 757.25 180.8 759.72 183.69 759.31 187.27 762.61 185.75 762.61 176.95 760.83 180.11"/><polygon class="cls-10" points="780.78 176.95 777.2 176.26 775.41 173.09 775.41 181.9 778.71 183.42 778.3 179.84 780.78 176.95"/><polygon class="cls-42" points="773.62 176.26 770.04 176.95 772.38 179.84 772.11 183.42 775.41 181.9 775.41 173.09 773.62 176.26"/><path class="cls-43" d="M750,169.24c3.16,0,5.92-3.85,5.92-8.53s-2.75-8.53-5.92-8.53S744,156,744,160.71,746.65,169.24,750,169.24Z"/><path class="cls-38" d="M754.5,168.28c.28-.14,5.37-4,5.37-4,2.34.83,3,7.43,3.3,10.6h-5.64Z"/><path class="cls-44" d="M749.68,159.33h-2.89v1.79c0,1-4.27,2.2-5.23,2.48-2.61,4.54,5.09,7.29,7.57,10.87h1.38c2.48-3.72,9.36-6.05,7.16-10.87-1-.28-5.37-1.51-5.37-2.48v-1.79Z"/><path class="cls-38" d="M744.31,168.83c-.28-.14-4.82-4.54-4.82-4.54-2.34.83-3,7.43-3.3,10.6h5.64Z"/><path class="cls-8" d="M743.07,163.19c-.69.14-3,1-3.58,1.1h-.41a32.13,32.13,0,0,1,1,4.54c-.41,2.2-1.65,3.85-.69,6.05h20.37c1-2.2-.41-3.72-.69-6.05a32.13,32.13,0,0,1,1-4.54h-.41c-.69-.14-2.34-1-3-1.1.14.28,0,.83,0,1.1a5.71,5.71,0,0,1-6.05,5.78C746.51,170.07,744,168.55,743.07,163.19Z"/><path class="cls-45" d="M742.25,148.19c.41,1.93-.41,3.44-1.79,3.72a2.67,2.67,0,0,1-3.16-2.48c-.41-1.93.41-3.58,1.79-4S742,146.26,742.25,148.19Z"/><path class="cls-45" d="M757.52,148.19c-.41,1.93.41,3.44,1.79,3.72a2.67,2.67,0,0,0,3.16-2.48c.41-1.93-.41-3.58-1.79-4S757.94,146.26,757.52,148.19Z"/><path class="cls-46" d="M750,132.5h0a8.63,8.63,0,0,1-1.51-.14v.14h-.14a10.08,10.08,0,0,0-7.57,4.13c-1.79,2.48-2.06,5.5-1.93,8.39.41,7.57,4.54,16.1,11.15,16.1s10.73-8.53,11.15-16.1c.14-2.89-.14-6.05-1.93-8.39a9.86,9.86,0,0,0-7.57-4.13h-.14v-.14a8.62,8.62,0,0,1-1.51.14Z"/><path class="cls-43" d="M754.5,135.39c-.14.41,0,2.61,2.48,6.05s2.75,3.72,2.75,3.72,0,5.92.41,5.23,1-5.23,1-5.5a18.55,18.55,0,0,0-.14-5.5c-.69-2.75-1.38-3.72-2.61-4.13S754.5,135.39,754.5,135.39Z"/><path class="cls-43" d="M740.18,142.55a13.84,13.84,0,0,1-1.93,1.65c.41,2.06.83,5.78,1.24,6.05C739.91,149.84,740,146.12,740.18,142.55Z"/><path class="cls-43" d="M759.86,145.16c.14-1.93,1.1-6.33.69-7.57-1.38-3.44-4-5-8.39-5.37a12.32,12.32,0,0,0-2.48,0C752.16,136.22,754.36,141.72,759.86,145.16Z"/><path class="cls-43" d="M755.6,136.49c-1,5.5-12.38,3.72-16.24,10.32-4.27-6.47,2.2-19.68,13.62-14.45Z"/><rect class="cls-9" x="286.1" y="130" width="59.9" height="121.7"/><path class="cls-8" d="M325.5,145.9H296a2.4,2.4,0,0,1-2.3-2.3h0a2.4,2.4,0,0,1,2.3-2.3h29.5a2.4,2.4,0,0,1,2.3,2.3h0A2.4,2.4,0,0,1,325.5,145.9Z"/><path class="cls-34" d="M338.6,138.8c-.1-.2-.2-.2-.4-.2h-9c-.2,0-.4.1-.4.2a.44.44,0,0,0,.1.5l3.5,3.5v3.5a.76.76,0,0,0,.1.4l1.8,1.8c.1.1.2.1.4.1h.1c.2-.1.2-.2.2-.4v-5.3l3.5-3.5A1.08,1.08,0,0,0,338.6,138.8Z"/><path class="cls-2" d="M337.1,158.3h-41a2.4,2.4,0,0,1-2.3-2.3h0a2.4,2.4,0,0,1,2.3-2.3h41a2.4,2.4,0,0,1,2.3,2.3h0A2.4,2.4,0,0,1,337.1,158.3Z"/><path class="cls-2" d="M330.1,170.6H296a2.4,2.4,0,0,1-2.3-2.3h0A2.4,2.4,0,0,1,296,166h34.1a2.4,2.4,0,0,1,2.3,2.3h0A2.33,2.33,0,0,1,330.1,170.6Z"/><path class="cls-2" d="M325.5,183H296a2.4,2.4,0,0,1-2.3-2.3h0a2.4,2.4,0,0,1,2.3-2.3h29.5a2.4,2.4,0,0,1,2.3,2.3h0A2.2,2.2,0,0,1,325.5,183Z"/><path class="cls-2" d="M330.1,195.4H296a2.4,2.4,0,0,1-2.3-2.3h0a2.4,2.4,0,0,1,2.3-2.3h34.1a2.4,2.4,0,0,1,2.3,2.3h0A2.33,2.33,0,0,1,330.1,195.4Z"/><path class="cls-2" d="M330.1,207.7H296a2.4,2.4,0,0,1-2.3-2.3h0a2.4,2.4,0,0,1,2.3-2.3h34.1a2.4,2.4,0,0,1,2.3,2.3h0A2.33,2.33,0,0,1,330.1,207.7Z"/><path class="cls-2" d="M337.1,220.1h-41a2.4,2.4,0,0,1-2.3-2.3h0a2.4,2.4,0,0,1,2.3-2.3h41a2.4,2.4,0,0,1,2.3,2.3h0A2.26,2.26,0,0,1,337.1,220.1Z"/><path class="cls-2" d="M337.1,232.4h-41a2.4,2.4,0,0,1-2.3-2.3h0a2.4,2.4,0,0,1,2.3-2.3h41a2.4,2.4,0,0,1,2.3,2.3h0A2.2,2.2,0,0,1,337.1,232.4Z"/><path class="cls-10" d="M337,247.7H309.9a3.54,3.54,0,0,1-3.5-3.5h0a3.54,3.54,0,0,1,3.5-3.5H337a3.54,3.54,0,0,1,3.5,3.5h0A3.68,3.68,0,0,1,337,247.7Z"/><rect class="cls-9" x="357.5" y="180.3" width="45.2" height="2.9"/><rect class="cls-9" x="357.5" y="187.1" width="45.2" height="2.9"/><rect class="cls-9" x="415.2" y="180.3" width="45.2" height="2.9"/><rect class="cls-9" x="415.2" y="187.1" width="45.2" height="2.9"/><rect class="cls-9" x="472.9" y="180.3" width="45.2" height="2.9"/><rect class="cls-9" x="472.9" y="187.1" width="45.2" height="2.9"/><polygon class="cls-17" points="485.2 50.8 488.1 73.2 472.5 50 485.2 50.8"/><polygon class="cls-18" points="518.1 75.7 509.4 91.3 532.2 75.7 518.1 75.7"/><path class="cls-34" d="M282.79,207.28H257.62v45.61h41.23V232.36L294,215.74a11.72,11.72,0,0,0-11.26-8.46"/><path class="cls-47" d="M292.83,232.15l-4.29-14.81a6,6,0,0,0-5.76-4.33H263.35v19.14Z"/><polygon class="cls-48" points="292.84 232.14 263.34 232.14 263.34 213 292.84 232.14"/><path class="cls-49" d="M292.83,232.15l-4.29-14.81a6,6,0,0,0-5.76-4.33H263.35Z"/><path class="cls-14" d="M186.52,184.38H250a7.62,7.62,0,0,1,7.62,7.62v60.89H178.9V192a7.62,7.62,0,0,1,7.62-7.62"/><polygon class="cls-36" points="230.5 184.39 230.5 204.52 227.55 201.57 224.46 204.66 221.38 201.57 218.29 204.66 215.2 201.57 212.08 204.66 209 201.57 206.01 204.55 206.01 184.39 230.5 184.39"/><path class="cls-50" d="M300.78,252.88v8.61H178.91v-8.61h12.72a17.45,17.45,0,0,1,30.47,0H263a17.43,17.43,0,0,1,30.44,0Z"/><path class="cls-33" d="M290.4,261.44a12.16,12.16,0,1,1-12.16-12.16,12.16,12.16,0,0,1,12.16,12.16"/><path class="cls-51" d="M283.13,261.44a4.89,4.89,0,1,1-4.89-4.89,4.89,4.89,0,0,1,4.89,4.89"/><path class="cls-33" d="M219,261.44a12.16,12.16,0,1,1-12.16-12.16A12.17,12.17,0,0,1,219,261.44"/><path class="cls-51" d="M211.74,261.44a4.89,4.89,0,1,1-4.89-4.89,4.88,4.88,0,0,1,4.89,4.89"/><path class="cls-33" d="M530.89,156.7a4.59,4.59,0,0,1,4.6-4.6h74.6a4.57,4.57,0,0,1,4.5,4.6V269.1a4.48,4.48,0,0,1-4.5,4.5h-74.6a4.57,4.57,0,0,1-4.6-4.5Z"/><path class="cls-35" d="M568.19,268.6a2,2,0,0,1-2-2v-.5a2,2,0,0,1,2-2h9.2a2,2,0,0,1,2,2v.5a2,2,0,0,1-2,2Z"/><path class="cls-35" d="M572.79,160.2a2.05,2.05,0,0,1-2.1-2.1,2.1,2.1,0,1,1,2.1,2.1Z"/><rect class="cls-9" x="535.69" y="164" width="74.2" height="94.9"/><rect class="cls-8" x="535.69" y="164" width="74.2" height="13.1"/><rect class="cls-13" x="575.87" y="183.2" width="31.5" height="29"/><polygon class="cls-2" points="575.87 218.09 607.37 218.09 607.49 221.56 575.76 221.56 575.87 218.09"/><polygon class="cls-2" points="575.87 224.68 607.37 224.68 607.49 228.14 575.87 228.14 575.87 224.68"/><polygon class="cls-2" points="575.87 231.03 607.37 231.03 607.49 234.5 575.87 234.5 575.87 231.03"/><rect class="cls-8" x="575.87" y="240.7" width="31.5" height="18.2"/><rect class="cls-2" x="535.69" y="177.1" width="36.52" height="81.8"/><path class="cls-8" d="M558.29,187.38H541.17a2.26,2.26,0,0,1-2.17-2.2h0a2.26,2.26,0,0,1,2.17-2.2h17.12a2.26,2.26,0,0,1,2.17,2.2h0A2.18,2.18,0,0,1,558.29,187.38Z"/><path class="cls-9" d="M570.28,182.41a.25.25,0,0,0-.23-.23h-5.82a.25.25,0,0,0-.23.23.43.43,0,0,0,.11.35l2.28,2.31v2.31c0,.12,0,.12.11.23l1.14,1.16c0,.12.11.12.23.12H568a.25.25,0,0,0,.23-.23v-3.47l2.28-2.31C570.28,182.76,570.28,182.64,570.28,182.41Z"/><path class="cls-9" d="M568,199.34H540.72a1.72,1.72,0,0,1-1.48-1.82h0a1.72,1.72,0,0,1,1.48-1.82H568a1.72,1.72,0,0,1,1.48,1.82h0A1.53,1.53,0,0,1,568,199.34Z"/><path class="cls-9" d="M563.43,207.77h-22.6a1.72,1.72,0,0,1-1.48-1.82h0a1.72,1.72,0,0,1,1.48-1.82h22.6a1.72,1.72,0,0,1,1.48,1.82h0A1.66,1.66,0,0,1,563.43,207.77Z"/><path class="cls-9" d="M560,216.2H541.06a1.68,1.68,0,0,1-1.83-1.53v-.57a1.68,1.68,0,0,1,1.83-1.53H560a1.68,1.68,0,0,1,1.83,1.53v.57A1.68,1.68,0,0,1,560,216.2Z"/><path class="cls-9" d="M563.43,224.63h-22.6a1.72,1.72,0,0,1-1.48-1.82h0a1.72,1.72,0,0,1,1.48-1.82h22.6a1.72,1.72,0,0,1,1.48,1.82h0A1.66,1.66,0,0,1,563.43,224.63Z"/><path class="cls-9" d="M560,241.5H541.06a1.68,1.68,0,0,1-1.83-1.53v-.57a1.68,1.68,0,0,1,1.83-1.53H560a1.68,1.68,0,0,1,1.83,1.53V240A1.68,1.68,0,0,1,560,241.5Z"/><path class="cls-9" d="M563.32,233.06h-22.6a1.72,1.72,0,0,1-1.48-1.82h0a1.72,1.72,0,0,1,1.48-1.82h22.6a1.72,1.72,0,0,1,1.48,1.82h0A1.57,1.57,0,0,1,563.32,233.06Z"/><path class="cls-10" d="M566.74,253.36H547.8a2.43,2.43,0,0,1-2.4-2.43h0a2.43,2.43,0,0,1,2.4-2.43h18.95a2.43,2.43,0,0,1,2.4,2.43h0A2.36,2.36,0,0,1,566.74,253.36Z"/></svg>