<svg width="367" height="296" viewBox="0 0 367 296" fill="none" xmlns="http://www.w3.org/2000/svg">
<g clip-path="url(#clip0)">
<path fill-rule="evenodd" clip-rule="evenodd" d="M105.272 17.9562C109.447 25.7391 108.951 45.4813 103.554 46.8723C101.402 47.427 96.8178 46.0682 92.1518 43.2559L95.0803 63.9761H77.7866L83.7397 36.2265C80.4196 32.3292 78.1726 27.5531 78.5481 22.2014C79.6301 6.78086 101.096 10.1732 105.272 17.9562Z" fill="#915B3C"/>
<path fill-rule="evenodd" clip-rule="evenodd" d="M71.0082 17.0686C70.4496 16.515 70.1449 15.725 69.8813 14.9748C69.6076 14.1954 69.3417 13.4081 69.16 12.5969C68.7968 10.9762 68.7934 9.11235 69.9496 7.85386C70.8768 6.84467 72.2682 6.39202 73.5522 6.29365C74.4077 6.22804 75.2864 6.34785 76.1065 6.61745C76.9201 6.88489 77.6215 7.41792 78.4102 7.74874C78.4404 6.00218 78.7395 4.17467 79.6256 2.68337C80.4783 1.24849 81.8377 0.443288 83.3858 0.230265C84.9749 0.0116491 86.544 0.38349 87.9666 1.15277C88.3227 1.34543 88.6755 1.54727 89.0132 1.77571C89.2959 1.967 89.5899 2.19738 89.9216 2.27517C90.2914 2.362 90.4748 2.14841 90.7151 1.8786C90.9969 1.56225 91.3144 1.28362 91.6504 1.03661C93.136 -0.0553914 95.0852 -0.504382 96.8064 0.150175C97.5994 0.451749 98.3705 0.963908 98.9086 1.66966C99.3881 2.29876 99.7302 3.29669 100.392 3.735C100.673 3.92107 100.871 3.67456 101.127 3.49237C101.511 3.21861 101.878 2.91654 102.266 2.65024C102.813 2.27611 103.404 1.99626 104.037 1.84977C104.964 1.63531 106.245 1.68558 106.51 2.89962C106.609 3.35563 106.533 3.84334 106.501 4.3028C106.457 4.9337 106.411 5.56438 106.356 6.19434C106.314 6.67266 106.262 7.13463 106.172 7.60434C106.123 7.85472 105.973 8.32149 106.08 8.57223C106.214 8.88563 106.834 8.70745 107.098 8.71835C107.621 8.73993 108.145 8.83157 108.629 9.05485C109.003 9.22793 109.397 9.48247 109.555 9.91167C109.652 10.1753 109.626 10.4461 109.58 10.7174C109.525 11.0429 109.588 11.2155 109.629 11.544C110.331 11.1984 112.763 10.4306 113.069 11.6883C113.171 12.1072 112.939 12.5804 112.762 12.9336C112.452 13.5531 112.045 14.1193 111.629 14.6593C110.761 15.7858 109.724 16.7574 108.61 17.5883C109.916 18.169 110.257 19.8819 109.126 20.9024C108.626 21.353 107.955 21.4533 107.325 21.4245C107.095 21.4139 106.762 21.3253 106.581 21.3654C106.483 21.387 106.379 21.4698 106.244 21.479C105.355 21.5399 104.351 21.3257 103.482 21.1285C101.934 20.777 100.468 20.0434 99.2709 18.9262C98.9638 18.6396 98.7101 18.4746 98.2968 18.4788C97.9346 18.4825 97.5792 18.5818 97.2174 18.591C96.26 18.6154 95.3967 18.1474 94.5076 17.8358C94.4532 19.0369 94.1112 20.3597 93.6198 21.4402C93.2192 22.3214 92.3825 22.4494 91.5604 22.5267C88.9314 22.7741 86.293 22.498 83.6607 22.5017C86.2089 23.0777 88.842 23.3151 91.3676 23.9929C92.5092 24.2992 91.6375 25.0686 91.1493 25.602C90.3456 26.4803 89.7479 27.5686 89.3334 28.7151C88.0869 27.0902 85.8836 26.0196 83.9315 26.5187C81.7747 27.0702 80.256 29.9869 81.6352 32.0838C82.4359 33.3011 83.8819 33.771 85.085 34.294C84.1464 35.2698 83.9194 36.7111 83.3545 37.9251C83.0759 38.5238 82.6847 39.2007 82.0616 39.4094C81.8311 39.4866 81.5608 39.4932 81.3789 39.6811C81.1536 39.9138 81.1 40.1739 80.8123 40.3739C79.6642 41.1721 77.8709 41.1106 76.8533 40.069C75.9331 39.127 76.1725 37.6363 76.9411 36.6812C75.7177 36.1713 73.4888 35.5155 73.975 33.6095C71.3241 33.4335 64.8878 29.1342 68.4457 25.9925C66.4931 24.889 64.6992 22.192 65.9534 19.8146C66.9192 17.984 69.1653 17.1656 71.0082 17.0686Z" fill="#191847"/>
<path fill-rule="evenodd" clip-rule="evenodd" d="M72.022 123.784L98.4171 214.739L110.832 283.03H123.293L110.854 123.784H72.022Z" fill="#915B3C"/>
<path fill-rule="evenodd" clip-rule="evenodd" d="M72.022 123.784L98.4171 214.739L110.832 283.03H123.293L110.854 123.784H72.022Z" fill="black" fill-opacity="0.1"/>
<path fill-rule="evenodd" clip-rule="evenodd" d="M60.1596 123.784C62.0014 171.035 61.275 196.806 60.8628 201.099C60.4506 205.392 58.1105 234.144 42.1641 284.471H55.1244C76.2428 236.19 83.6151 207.439 86.0372 201.099C88.4593 194.76 95.6129 168.988 106.057 123.784H60.1596Z" fill="#915B3C"/>
<path fill-rule="evenodd" clip-rule="evenodd" d="M71.4556 123.784C78.3213 155.082 90.1962 205.041 107.08 273.662H125.306C126.652 203.229 120.925 156.873 111.008 123.784H71.4556Z" fill="#191847"/>
<path fill-rule="evenodd" clip-rule="evenodd" d="M60.0677 123.784C61.8715 171.035 57.1969 217.586 42.7168 274.398H62.1623C83.3195 226.838 98.4836 180.517 108.847 123.784H60.0677Z" fill="#2F3676"/>
<path fill-rule="evenodd" clip-rule="evenodd" d="M40.3169 293.838L41.032 282.309C45.2189 283.534 50.463 283.053 56.7644 280.868C63.54 285.668 72.0695 288.945 82.353 290.7C83.1376 290.834 83.6651 291.578 83.5312 292.363C83.5225 292.414 83.5111 292.464 83.497 292.513L82.5084 296H56.7644H41.7471L40.3169 293.838Z" fill="#E4E4E4"/>
<path fill-rule="evenodd" clip-rule="evenodd" d="M108.05 293.838L108.765 282.309C112.952 283.534 118.196 283.053 124.498 280.868C131.273 285.668 139.803 288.945 150.086 290.7C150.871 290.834 151.398 291.578 151.265 292.363C151.256 292.414 151.244 292.464 151.23 292.513L150.242 296H124.498H109.481L108.05 293.838Z" fill="#E4E4E4"/>
<path fill-rule="evenodd" clip-rule="evenodd" d="M34.3124 103.994L47.075 105.847C33.3755 135.57 26.031 151.29 25.0416 153.005C22.8154 156.865 25.4336 163.588 26.4571 167.147C21.2845 168.641 22.9365 160.649 16.3961 162.642C10.4264 164.462 5.50009 168.586 -0.412374 163.682C-1.13928 163.079 -1.7516 161.107 0.558828 159.958C6.31496 157.096 14.7663 151.859 16.08 149.928C17.8715 147.296 23.949 131.985 34.3124 103.994ZM132.808 111.973L154.56 130.414C160.661 132.527 165.711 134.978 169.709 137.767C170.632 138.734 171.696 140.636 167.63 140.036C163.565 139.436 159.261 138.988 158.6 140.342C157.938 141.697 160.295 143.537 159.024 145.339C158.176 146.54 154.805 143.144 148.911 135.152L126.864 124.149L132.808 111.973Z" fill="#915B3C"/>
<path fill-rule="evenodd" clip-rule="evenodd" d="M87.6548 51.9656L95.563 49.3504C106.29 76.1485 122.289 102.077 149.02 123.978L142.41 135.382C118.917 121.544 96.6788 110.793 87.6548 90.028C84.626 83.0586 87.4076 60.2989 87.6548 51.9656Z" fill="#C5CFD6"/>
<path fill-rule="evenodd" clip-rule="evenodd" d="M60.4927 127.386C83.1462 129.788 100.977 129.788 113.985 127.386C115.597 127.089 115.851 124.391 115.104 122.559C103.465 94.0416 95.4838 69.1583 95.4838 49.3506C93.3482 50.4272 89.6108 50.5886 84.2715 49.8346C69.9222 70.2472 63.3263 93.6682 60.4927 127.386Z" fill="#323337"/>
<path fill-rule="evenodd" clip-rule="evenodd" d="M80.7255 47.75L80.7046 48.1233L86.6845 48.1237C88.063 56.231 92.381 164.999 105.622 202.373L106.026 203.483H32.6683C34.2587 170.251 46.804 130.332 59.5126 96.9273C48.2751 107.21 38.4807 124.635 30.1294 149.2L16.3887 145.673C26.6052 101.649 47.6101 69.2916 79.4034 48.5998L79.6108 48.1237L80.1426 48.1233L80.7255 47.75Z" fill="#DDE3E9"/>
</g>
<path fill-rule="evenodd" clip-rule="evenodd" d="M267.19 15.8812C271.396 23.7223 270.896 43.6118 265.46 45.0132C263.291 45.572 258.673 44.2031 253.972 41.3698L256.922 62.2447H239.5L245.497 34.2879C242.152 30.3616 239.888 25.5498 240.267 20.1582C241.357 4.62256 262.983 8.0402 267.19 15.8812Z" fill="#D4A181"/>
<path fill-rule="evenodd" clip-rule="evenodd" d="M262.004 1.26514C266.013 1.26514 269.263 4.51532 269.263 8.52461C269.263 12.4019 266.224 15.5693 262.397 15.7736C260.208 16.449 257.396 16.945 254.276 17.1541C254.58 18.292 254.744 19.586 254.744 21.0483C254.744 22.3392 254.602 23.7083 254.339 25.0983C253.663 24.2942 252.759 23.7695 251.841 23.7695C249.272 23.7695 247.485 25.8821 247.485 28.1252C247.485 30.972 249.128 33.0314 251.527 33.1962C249.367 37.3431 246.379 40.4663 243.394 40.4663C237.723 40.4663 233.692 32.8854 233.692 24.7347C233.692 24.4485 233.698 24.1641 233.709 23.8819C227.711 27.9972 223.088 36.1106 215.152 36.1106C204.354 36.1106 200.066 14.3322 215.152 14.3322C225.411 14.3322 230.458 15.8281 234.807 18.0403C235.664 15.6216 236.972 13.5884 238.572 12.1686C238.957 11.7347 239.549 11.3197 240.311 10.9351L240.471 10.8496C240.884 10.6356 241.308 10.4584 241.743 10.3209C244.366 9.35631 248.168 8.67557 252.414 8.52727C253.207 8.49959 253.986 8.49149 254.745 8.50171C254.757 4.50274 258.002 1.26514 262.004 1.26514Z" fill="#191847"/>
<path fill-rule="evenodd" clip-rule="evenodd" d="M235.144 122.499L289.086 212.681L329.528 288.922H338.238L270.478 122.499L235.144 122.499Z" fill="#BA8B72"/>
<path fill-rule="evenodd" clip-rule="evenodd" d="M324.202 285.403C323.389 287.571 322.983 289.193 322.983 290.269C322.983 291.578 323.201 293.488 323.638 296C325.156 296 338.805 296 364.582 296C365.646 292.482 365.032 290.583 362.74 290.303C360.447 290.022 358.543 289.769 357.027 289.543L337.996 281.059C337.63 280.896 337.201 281.06 337.037 281.427C337.035 281.433 337.032 281.439 337.029 281.446L335.806 284.413C333.684 285.403 331.959 285.898 330.632 285.898C329.554 285.898 328.066 285.463 326.166 284.592L326.166 284.592C325.437 284.258 324.576 284.578 324.241 285.307C324.227 285.338 324.214 285.37 324.202 285.403Z" fill="#E4E4E4"/>
<path fill-rule="evenodd" clip-rule="evenodd" d="M318.296 276.714L335.094 271.632C327.734 249.63 318.714 225.418 308.033 198.995C297.351 172.572 285.88 147.073 273.619 122.499H226.174C239.806 153.584 254.257 181.83 269.529 207.235C284.8 232.64 301.056 255.8 318.296 276.714Z" fill="#DB2721"/>
<path fill-rule="evenodd" clip-rule="evenodd" d="M231.599 122.499C226.508 154.189 216.688 194.678 215.761 195.927C215.144 196.76 192.903 204.213 149.039 218.285L150.921 225.966C203.228 218.419 230.79 212.564 233.605 208.4C237.829 202.155 258.918 152.816 267.086 122.499H231.599Z" fill="#D4A181"/>
<path fill-rule="evenodd" clip-rule="evenodd" d="M164.458 211.645L167.772 224.016C206.895 227.448 230.867 224.968 239.687 216.578C248.507 208.188 258.559 176.828 269.843 122.499H224.602C217.452 166.987 213.455 190.166 212.611 192.033C211.766 193.901 195.715 200.438 164.458 211.645Z" fill="#FF4133"/>
<path fill-rule="evenodd" clip-rule="evenodd" d="M151.187 215.085C148.911 214.662 147.243 214.543 146.183 214.73C144.894 214.958 143.05 215.504 140.653 216.37C140.916 217.865 143.286 231.306 147.763 256.693C151.411 257.13 153.175 256.195 153.053 253.889C152.931 251.582 152.85 249.663 152.809 248.13L157.86 227.916C157.957 227.527 157.72 227.133 157.331 227.035C157.325 227.034 157.318 227.032 157.311 227.031L154.177 226.341C152.833 224.423 152.046 222.811 151.816 221.504C151.628 220.443 151.799 218.901 152.326 216.879L152.326 216.879C152.529 216.103 152.064 215.31 151.288 215.108C151.255 215.099 151.221 215.091 151.187 215.085Z" fill="#E4E4E4"/>
<path fill-rule="evenodd" clip-rule="evenodd" d="M206.329 113.801L221.5 113.861C212.132 144.1 207.076 160.144 206.329 161.994C204.649 166.157 208.204 172.497 209.724 175.904C204.773 178.12 205.301 169.915 199.055 172.821C193.354 175.473 189.018 180.278 182.432 176.214C181.622 175.715 180.735 173.834 182.879 172.363C188.22 168.701 195.917 162.291 196.957 160.181C198.375 157.304 201.499 141.844 206.329 113.801ZM297.607 110.972L318.172 131.034C324.155 133.586 329.058 136.404 332.88 139.488C333.739 140.525 334.675 142.512 330.631 141.623C326.587 140.734 322.294 139.981 321.534 141.296C320.774 142.611 323.014 144.626 321.609 146.347C320.673 147.494 317.523 143.845 312.161 135.398L290.777 122.791L297.607 110.972Z" fill="#D4A181"/>
<path fill-rule="evenodd" clip-rule="evenodd" d="M249.441 50.1448L255.718 49.0681C266.526 76.0663 285.395 100.598 312.325 122.662L291.975 147.385C265.048 115.968 248.45 83.5549 249.441 50.1448Z" fill="#191847"/>
<path fill-rule="evenodd" clip-rule="evenodd" d="M222.076 129.032H277.974C265.024 97.5441 258.549 70.7955 258.549 48.7862L241.687 46.2739C228.435 67.5866 224.693 93.8268 222.076 129.032Z" fill="#DDE3E9"/>
<path fill-rule="evenodd" clip-rule="evenodd" d="M242.438 46.2739C243.755 46.3193 245.761 46.401 248.456 46.5191L252.53 58.1627C252.961 72.359 255.478 100.968 260.081 143.991L223.439 143.991C223.535 146.962 223.693 149.961 223.914 152.988H196.668C200.744 107.01 215.627 71.4382 241.317 46.2739L241.33 46.2863L241.337 46.2739H242.438Z" fill="#2F3676"/>
<path fill-rule="evenodd" clip-rule="evenodd" d="M233.691 144.277L223.448 144.276C222.999 130.951 223.803 118.183 225.858 105.972C226.902 124.494 229.512 137.262 233.691 144.277Z" fill="black" fill-opacity="0.1"/>
<path fill-rule="evenodd" clip-rule="evenodd" d="M231.594 121.772L249.662 113.373V121.772H231.594Z" fill="white" fill-opacity="0.2"/>
<defs>
<clipPath id="clip0">
<rect width="171.355" height="296" fill="white"/>
</clipPath>
</defs>
</svg>
