<?xml version="1.0" standalone="no"?>
<!DOCTYPE svg PUBLIC "-//W3C//DTD SVG 20010904//EN"
 "http://www.w3.org/TR/2001/REC-SVG-20010904/DTD/svg10.dtd">
<svg version="1.0" xmlns="http://www.w3.org/2000/svg"
 width="300.000000pt" height="300.000000pt" viewBox="0 0 300.000000 300.000000"
 preserveAspectRatio="xMidYMid meet">
<metadata>
Created by potrace 1.11, written by Peter Selinger 2001-2013
</metadata>
<g transform="translate(0.000000,300.000000) scale(0.100000,-0.100000)"
fill="#000000" stroke="none">
<path d="M1930 2092 c-119 -31 -205 -111 -236 -219 -20 -70 -15 -163 14 -219
35 -68 71 -97 193 -155 9 -4 65 -19 125 -34 130 -33 162 -47 170 -79 14 -57
-25 -86 -114 -86 -67 0 -127 33 -158 87 -20 33 -31 42 -43 37 -9 -4 -41 -11
-71 -15 -163 -26 -170 -28 -170 -52 0 -28 45 -114 79 -150 40 -44 100 -82 161
-103 43 -15 83 -19 185 -19 148 0 220 17 294 68 97 67 133 129 139 243 5 94
-12 145 -71 211 -45 50 -98 75 -222 108 -55 15 -124 33 -152 41 -86 23 -108
85 -43 119 61 31 144 12 193 -45 19 -22 38 -40 44 -40 18 0 208 62 217 71 28
26 -87 170 -167 207 -95 44 -250 54 -367 24z"/>
<path d="M510 1595 l0 -496 106 3 105 3 -1 326 c0 179 2 333 6 343 10 26 19
19 31 -26 21 -81 54 -204 111 -423 l57 -220 90 -3 90 -3 19 78 c10 43 22 94
26 113 5 19 27 107 50 195 23 88 44 171 47 185 10 52 35 120 44 120 5 0 9
-142 9 -345 l0 -345 130 0 130 0 0 495 0 495 -188 0 -188 0 -12 -47 c-7 -27
-18 -66 -23 -88 -6 -22 -14 -53 -19 -70 -4 -16 -23 -91 -41 -165 -18 -74 -36
-139 -40 -144 -11 -12 -29 28 -49 108 -10 39 -28 107 -40 151 -13 44 -26 96
-30 115 -5 19 -14 58 -22 85 l-13 50 -192 3 -193 2 0 -495z"/>
</g>
</svg>
