<svg xmlns="http://www.w3.org/2000/svg" width="20" height="20" viewBox="0 0 20 20"><path d="M2 6c-0.1 0-0.3 0-0.4-0.1l-1.5-1.5c-0.2-0.2-0.2-0.5 0-0.7s0.5-0.2 0.7 0l1.1 1.1 4.1-4.1c0.2-0.2 0.5-0.2 0.7 0s0.2 0.5 0 0.7l-4.5 4.5c-0.1 0.1-0.2 0.1-0.4 0.1z"></path><path d="M19.5 5h-12c-0.3 0-0.5-0.2-0.5-0.5s0.2-0.5 0.5-0.5h12c0.3 0 0.5 0.2 0.5 0.5s-0.2 0.5-0.5 0.5z"></path><path d="M2 13c-0.1 0-0.3 0-0.4-0.1l-1.5-1.5c-0.2-0.2-0.2-0.5 0-0.7s0.5-0.2 0.7 0l1.1 1.1 4.1-4.1c0.2-0.2 0.5-0.2 0.7 0s0.2 0.5 0 0.7l-4.5 4.5c-0.1 0.1-0.2 0.1-0.4 0.1z"></path><path d="M19.5 12h-12c-0.3 0-0.5-0.2-0.5-0.5s0.2-0.5 0.5-0.5h12c0.3 0 0.5 0.2 0.5 0.5s-0.2 0.5-0.5 0.5z"></path><path d="M2 20c-0.1 0-0.3 0-0.4-0.1l-1.5-1.5c-0.2-0.2-0.2-0.5 0-0.7s0.5-0.2 0.7 0l1.1 1.1 4.1-4.1c0.2-0.2 0.5-0.2 0.7 0s0.2 0.5 0 0.7l-4.5 4.5c-0.1 0.1-0.2 0.1-0.4 0.1z"></path><path d="M19.5 19h-12c-0.3 0-0.5-0.2-0.5-0.5s0.2-0.5 0.5-0.5h12c0.3 0 0.5 0.2 0.5 0.5s-0.2 0.5-0.5 0.5z"></path></svg>