<svg xmlns="http://www.w3.org/2000/svg" width="20" height="20" viewBox="0 0 20 20"><path d="M18.5 7h-12c-0.8 0-1.5-0.7-1.5-1.5s0.7-1.5 1.5-1.5h12c0.8 0 1.5 0.7 1.5 1.5s-0.7 1.5-1.5 1.5zM6.5 5c-0.3 0-0.5 0.2-0.5 0.5s0.2 0.5 0.5 0.5h12c0.3 0 0.5-0.2 0.5-0.5s-0.2-0.5-0.5-0.5h-12z"></path><path d="M18.5 12h-12c-0.8 0-1.5-0.7-1.5-1.5s0.7-1.5 1.5-1.5h12c0.8 0 1.5 0.7 1.5 1.5s-0.7 1.5-1.5 1.5zM6.5 10c-0.3 0-0.5 0.2-0.5 0.5s0.2 0.5 0.5 0.5h12c0.3 0 0.5-0.2 0.5-0.5s-0.2-0.5-0.5-0.5h-12z"></path><path d="M18.5 17h-12c-0.8 0-1.5-0.7-1.5-1.5s0.7-1.5 1.5-1.5h12c0.8 0 1.5 0.7 1.5 1.5s-0.7 1.5-1.5 1.5zM6.5 15c-0.3 0-0.5 0.2-0.5 0.5s0.2 0.5 0.5 0.5h12c0.3 0 0.5-0.2 0.5-0.5s-0.2-0.5-0.5-0.5h-12z"></path><path d="M1.5 7c-0.8 0-1.5-0.7-1.5-1.5s0.7-1.5 1.5-1.5 1.5 0.7 1.5 1.5-0.7 1.5-1.5 1.5zM1.5 5c-0.3 0-0.5 0.2-0.5 0.5s0.2 0.5 0.5 0.5 0.5-0.2 0.5-0.5-0.2-0.5-0.5-0.5z"></path><path d="M1.5 12c-0.8 0-1.5-0.7-1.5-1.5s0.7-1.5 1.5-1.5 1.5 0.7 1.5 1.5-0.7 1.5-1.5 1.5zM1.5 10c-0.3 0-0.5 0.2-0.5 0.5s0.2 0.5 0.5 0.5 0.5-0.2 0.5-0.5-0.2-0.5-0.5-0.5z"></path><path d="M1.5 17c-0.8 0-1.5-0.7-1.5-1.5s0.7-1.5 1.5-1.5 1.5 0.7 1.5 1.5-0.7 1.5-1.5 1.5zM1.5 15c-0.3 0-0.5 0.2-0.5 0.5s0.2 0.5 0.5 0.5 0.5-0.2 0.5-0.5-0.2-0.5-0.5-0.5z"></path></svg>