<svg xmlns="http://www.w3.org/2000/svg" width="20" height="20" viewBox="0 0 20 20"><path d="M14.5 5.5c-0.1 0-0.3 0-0.4-0.1l-2-2c-0.2-0.2-0.2-0.5 0-0.7s0.5-0.2 0.7 0l1.6 1.6 1.6-1.6c0.2-0.2 0.5-0.2 0.7 0s0.2 0.5 0 0.7l-2 2c-0.1 0.1-0.2 0.1-0.4 0.1z"></path><path d="M18.5 0h-17c-0.8 0-1.5 0.7-1.5 1.5v5c0 0.8 0.7 1.5 1.5 1.5h2.5v10.5c0 0.8 0.7 1.5 1.5 1.5h13c0.8 0 1.5-0.7 1.5-1.5v-17c0-0.8-0.7-1.5-1.5-1.5zM1 6.5v-5c0-0.3 0.2-0.5 0.5-0.5h17c0.3 0 0.5 0.2 0.5 0.5v5c0 0.3-0.2 0.5-0.5 0.5h-17c-0.3 0-0.5-0.2-0.5-0.5zM18.5 19h-13c-0.3 0-0.5-0.2-0.5-0.5v-10.5h13.5c0.2 0 0.3 0 0.5-0.1v10.6c0 0.3-0.2 0.5-0.5 0.5z"></path><path d="M16.5 11h-9c-0.3 0-0.5-0.2-0.5-0.5s0.2-0.5 0.5-0.5h9c0.3 0 0.5 0.2 0.5 0.5s-0.2 0.5-0.5 0.5z"></path><path d="M16.5 14h-9c-0.3 0-0.5-0.2-0.5-0.5s0.2-0.5 0.5-0.5h9c0.3 0 0.5 0.2 0.5 0.5s-0.2 0.5-0.5 0.5z"></path><path d="M16.5 17h-9c-0.3 0-0.5-0.2-0.5-0.5s0.2-0.5 0.5-0.5h9c0.3 0 0.5 0.2 0.5 0.5s-0.2 0.5-0.5 0.5z"></path></svg>