<svg xmlns="http://www.w3.org/2000/svg" width="20" height="20" viewBox="0 0 20 20"><path d="M17.1 2.9c-1.9-1.9-4.4-2.9-7.1-2.9s-5.2 1-7.1 2.9c-1.9 1.9-2.9 4.4-2.9 7.1s1 5.2 2.9 7.1c1.9 1.9 4.4 2.9 7.1 2.9 1.6 0 3.1-0.4 4.5-1 1.3-0.7 2.5-1.6 3.4-2.8 0.2-0.2 0.1-0.5-0.1-0.7s-0.5-0.1-0.7 0.1c-1.7 2.2-4.3 3.5-7.1 3.5-5 0-9-4-9-9s4-9 9-9 9 4 9 9c0 1.8-1 3-2.5 3-1.4 0-2.5-1.1-2.5-2.5v-4c0-0.3-0.2-0.5-0.5-0.5s-0.5 0.2-0.5 0.5v0.9c-0.7-0.8-1.8-1.4-3-1.4-2.2 0-4 1.8-4 4s1.8 4 4 4c1.4 0 2.7-0.8 3.4-1.9 0.6 1.1 1.8 1.9 3.1 1.9 1 0 1.9-0.4 2.5-1.1 0.7-0.7 1-1.7 1-2.9 0-2.7-1-5.2-2.9-7.1zM10 13c-1.7 0-3-1.3-3-3s1.3-3 3-3 3 1.3 3 3-1.3 3-3 3z"></path></svg>