<svg xmlns:dc="http://purl.org/dc/elements/1.1/" xmlns:cc="http://creativecommons.org/ns#" xmlns:rdf="http://www.w3.org/1999/02/22-rdf-syntax-ns#" xmlns:svg="http://www.w3.org/2000/svg" xmlns="http://www.w3.org/2000/svg" xmlns:sodipodi="http://sodipodi.sourceforge.net/DTD/sodipodi-0.dtd" xmlns:inkscape="http://www.inkscape.org/namespaces/inkscape" width="581" height="797" viewBox="0 0 581 797" version="1.1" id="svg59" sodipodi:docname="hero.svg" style="fill:none" inkscape:version="0.92.4 (5da689c313, 2019-01-14)">
  <metadata id="metadata65">
    <rdf:RDF>
      <cc:Work rdf:about="">
        <dc:format>image/svg+xml</dc:format>
        <dc:type rdf:resource="http://purl.org/dc/dcmitype/StillImage"/>
      </cc:Work>
    </rdf:RDF>
  </metadata>
  <defs id="defs63"/>
  <sodipodi:namedview pagecolor="#ffffff" bordercolor="#666666" borderopacity="1" objecttolerance="10" gridtolerance="10" guidetolerance="10" inkscape:pageopacity="0" inkscape:pageshadow="2" inkscape:window-width="3440" inkscape:window-height="1377" id="namedview61" showgrid="false" inkscape:zoom="1" inkscape:cx="290.5" inkscape:cy="432" inkscape:window-x="-8" inkscape:window-y="-8" inkscape:window-maximized="1" inkscape:current-layer="svg59"/>
  <path d="M 279,560 C 124.36,560 -1,434.64 -1,280 -1,125.36 124.36,0 279,0 433.64,0 559,125.36 559,280 559,434.64 433.64,560 279,560 Z" id="path2" inkscape:connector-curvature="0" style="opacity:0.16000001;fill:#8f68fb"/>
  <path d="m 495,692 -32,32 32,32 32,-32 z" id="path4" inkscape:connector-curvature="0" style="clip-rule:evenodd;opacity:0.16000001;fill:#fa3a69;fill-rule:evenodd"/>
  <path d="M 541.823,81.555 351.381,74.92 c -21.526,-0.749 -39.586,16.05 -40.337,37.524 l -16.546,472.652 c -0.752,21.474 16.089,39.489 37.615,40.239 l 190.443,6.634 c 21.525,0.75 39.585,-16.05 40.337,-37.523 L 579.438,121.793 C 580.19,100.32 563.349,82.304 541.823,81.555 Z" id="path6" inkscape:connector-curvature="0" style="clip-rule:evenodd;fill:#f2f2f2;fill-rule:evenodd"/>
  <path d="m 511.802,96.583 c -0.279,7.97 -6.869,14.236 -14.812,14.184 l -0.426,-0.008 -102.037,-3.555 c -7.99,-0.278 -14.27,-6.852 -14.219,-14.775 l 0.009,-0.426 0.151,-4.321 -29.952,-1.044 c -14.35,-0.5 -26.39,10.7 -26.891,25.016 l -16.606,474.379 c -0.501,14.315 10.726,26.326 25.076,26.826 l 192.126,6.692 c 14.351,0.5 26.391,-10.699 26.892,-25.015 L 567.719,120.157 C 568.22,105.841 556.993,93.831 542.642,93.331 l -30.689,-1.069 z" id="path8" inkscape:connector-curvature="0" style="clip-rule:evenodd;fill:#240e6a;fill-rule:evenodd"/>
  <path d="m 128.869,344.067 c 11.828,8.191 25.734,37.128 18.932,43.114 -2.713,2.387 -10.375,3.796 -19.231,3.16 l 19.602,27.833 -25.103,12.73 -11.918,-44.544 c -7.707,-3.196 -14.5069,-8.454 -17.9268,-16.476 -9.8544,-23.114 23.8178,-34.007 35.6448,-25.817 z" id="path10" inkscape:connector-curvature="0" style="clip-rule:evenodd;fill:#b28b67;fill-rule:evenodd"/>
  <path d="m 103.954,342.086 c 13.464,-6.827 21.403,-3.881 24.172,0.881 -4.96,4.507 -14.73,10.228 -29.2725,17.472 l 0.5345,1.043 13.088,-5.323 5.297,5.197 c -3.456,1.44 -4.67,4.923 -5.008,8.934 -1.108,-0.146 -2.264,0.009 -3.319,0.544 -2.889,1.465 -3.916,5.221 -2.561,7.868 1.41,2.753 3.804,4.221 6.128,4.18 -0.001,2.443 -0.281,4.358 -1.322,5.208 -4.755,1.837 -16.4319,-6.356 -21.142,-15.556 -5.1555,-10.07 -1.5749,-22.851 13.405,-30.448 z" id="path12" inkscape:connector-curvature="0" style="clip-rule:evenodd;fill:#191847;fill-rule:evenodd"/>
  <path d="m 138.429,517.244 42.594,148.852 31.078,109.712 h 22.666 L 201.743,517.244 Z" id="path14" inkscape:connector-curvature="0" style="clip-rule:evenodd;fill:#191847;fill-rule:evenodd"/>
  <path d="m 127.038,517.244 c -0.985,76.72 -4.345,118.565 -5.379,125.536 -1.035,6.97 -16.676,51.313 -46.9234,133.028 H 98.2167 C 136.724,697.416 158.22,653.073 162.705,642.78 c 4.484,-10.294 18.323,-52.139 39.166,-125.536 z" id="path16" inkscape:connector-curvature="0" style="clip-rule:evenodd;fill:#2f3676;fill-rule:evenodd"/>
  <path d="m 72.6368,796.867 1.1749,-24.569 h 24.672 c 11.6993,8.19 26.9723,14.819 45.8193,19.889 v 4.68 H 99.659 l -15.2736,-2.34 v 2.34 z" id="path18" inkscape:connector-curvature="0" style="clip-rule:evenodd;fill:#191847;fill-rule:evenodd"/>
  <path d="m 208.92,796.867 1.175,-24.569 h 24.672 c 11.699,8.19 26.972,14.819 45.82,19.889 v 4.68 h -44.645 l -15.273,-2.34 v 2.34 z" id="path20" inkscape:connector-curvature="0" style="clip-rule:evenodd;fill:#191847;fill-rule:evenodd"/>
  <path d="m 214.519,464.046 42.996,17.599 c 10.517,0.21 19.576,1.468 27.175,3.776 1.918,1.032 4.525,3.438 -2.075,4.546 -6.6,1.108 -13.491,2.57 -13.832,4.994 -0.341,2.424 4.238,4.087 3.177,7.507 -0.707,2.279 -7.642,-1.279 -20.804,-10.675 l -39.702,-5.961 z m 46.44,-115.422 c -3.076,5.923 -6.044,12.292 -4.307,14.025 1.738,1.733 5.82,-0.91 7.923,1.997 1.401,1.938 -5.614,5.313 -21.047,10.126 l -28.619,28.014 -15.613,-15.577 39.922,-23.62 c 6.484,-8.246 12.932,-14.699 19.345,-19.358 1.979,-0.904 5.472,-1.53 2.396,4.393 z" id="path22" inkscape:connector-curvature="0" style="clip-rule:evenodd;fill:#b28b67;fill-rule:evenodd"/>
  <path d="m 139.997,406.484 c 29.048,31.842 64.775,52.923 113.663,71.934 l -11.288,21.521 c -50.676,-5.678 -77.747,-9.97 -98.493,-41.709 -5.207,-7.966 -14.299,-35.215 -19.782,-49.379 z" id="path24" inkscape:connector-curvature="0" style="clip-rule:evenodd;fill:#2026a2;fill-rule:evenodd"/>
  <path d="m 115.452,542.722 87.699,-21.733 c -35.021,-55.493 -55.571,-94.444 -61.65,-116.853 -0.31,-1.142 -2.943,-2.638 -3.817,-2.14 -6.392,3.641 -13.934,4.741 -22.626,3.299 -12.426,38.496 -9.317,81.331 0.394,137.427 z" id="path26" inkscape:connector-curvature="0" style="clip-rule:evenodd;fill:#f2f2f2;fill-rule:evenodd"/>
  <path d="m 232.973,365.182 10.451,21.992 c -29.838,31.616 -61.413,58.204 -93.593,63.513 28.403,55.205 39.805,103.332 9.559,110.827 l -46.772,11.59 C 92.7014,525.165 94.9096,451.305 104.275,412.006 c 0.358,-1.501 1.201,-4.372 4.667,-5.23 l 13.591,-3.368 c 0.01,0.017 0.021,0.033 0.031,0.05 25.196,-6.026 67.139,-11.557 110.409,-38.276 z" id="path28" inkscape:connector-curvature="0" style="clip-rule:evenodd;fill:#1f28cf;fill-rule:evenodd"/>
  <mask id="mask0" mask-type="alpha" maskUnits="userSpaceOnUse" x="28" y="0" width="541" height="864">
    <path d="m 333.095,656.859 192.126,6.692 c 14.351,0.5 26.391,-10.699 26.892,-25.015 l 16.606,-474.379 c 0.501,-14.316 -10.726,-26.326 -25.077,-26.826 L 498.027,1.52588e-5 H 28.742 V 863.482 h 206.155 c 63.627,-137.813 96.36,-206.687 98.198,-206.623 z" id="path30" inkscape:connector-curvature="0" style="fill:#ffffff"/>
  </mask>
  <g mask="url(#mask0)" id="g57" transform="translate(-1,-44)">
    <path d="m 261.856,202.365 c 6.085,21.515 41.778,56.576 54.088,49.61 4.909,-2.778 10.89,-13.319 14.459,-26.65 l 31.16,42.868 31.594,-30.435 -59.771,-40.033 c -0.802,-12.937 -5.112,-25.585 -15.228,-34.665 -29.148,-26.164 -62.388,17.79 -56.302,39.305 z" id="path33" inkscape:connector-curvature="0" style="clip-rule:evenodd;fill:#b28b67;fill-rule:evenodd"/>
    <path d="m 322.889,140.448 c 0.046,-1.991 -0.79,-3.965 -1.63,-5.794 -0.874,-1.901 -1.775,-3.802 -2.872,-5.598 -2.193,-3.589 -5.471,-6.988 -9.801,-7.244 -3.472,-0.205 -6.811,1.42 -9.331,3.501 -1.678,1.386 -3.072,3.15 -4.096,5.084 -1.015,1.919 -1.357,4.124 -2.215,6.114 -3.133,-3.126 -6.899,-5.926 -11.146,-7.081 -4.086,-1.111 -7.988,-0.185 -11.192,2.152 -3.288,2.399 -5.5,5.838 -6.743,9.741 -0.312,0.978 -0.6,1.966 -0.815,2.976 -0.179,0.846 -0.31,1.783 -0.779,2.508 -0.523,0.809 -1.234,0.743 -2.149,0.675 -1.072,-0.08 -2.143,-0.028 -3.192,0.113 -4.638,0.627 -8.991,3.24 -10.982,7.461 -0.917,1.945 -1.423,4.234 -1.163,6.466 0.233,1.989 1.366,4.407 0.929,6.37 -0.185,0.833 -0.982,0.733 -1.77,0.852 -1.184,0.178 -2.386,0.273 -3.566,0.472 -1.656,0.28 -3.23,0.811 -4.645,1.659 -2.071,1.241 -4.323,3.587 -2.668,6.263 0.622,1.005 1.621,1.759 2.489,2.539 1.193,1.07 2.388,2.137 3.598,3.188 0.919,0.797 1.829,1.545 2.822,2.241 0.529,0.372 1.626,0.956 1.872,1.601 0.307,0.807 -1.138,1.572 -1.602,2.058 -0.917,0.959 -1.714,2.049 -2.203,3.306 -0.379,0.974 -0.65,2.13 -0.183,3.19 0.287,0.65 0.811,1.098 1.373,1.511 0.674,0.496 0.864,0.921 1.367,1.591 -1.891,0.606 -7.687,3.489 -6.03,6.317 0.552,0.942 1.81,1.395 2.755,1.726 1.659,0.581 3.401,0.896 5.112,1.146 3.571,0.523 7.176,0.468 10.677,0.018 -1.363,3.356 1.032,7.074 4.897,6.941 1.706,-0.058 3.109,-1.057 4.209,-2.218 0.403,-0.425 0.854,-1.172 1.256,-1.418 0.216,-0.132 0.553,-0.166 0.816,-0.387 1.732,-1.453 3.187,-3.609 4.427,-5.498 2.21,-3.364 3.595,-7.28 3.814,-11.42 0.056,-1.062 0.228,-1.809 0.991,-2.529 0.668,-0.63 1.492,-1.075 2.17,-1.695 1.792,-1.641 2.544,-4.012 3.619,-6.144 2.216,2.091 5.172,3.897 7.974,4.999 2.284,0.898 4.038,-0.341 5.677,-1.647 5.239,-4.177 9.572,-9.323 14.388,-13.949 -3.641,5.533 -8.033,10.6 -11.453,16.278 -1.546,2.567 1.403,2.433 3.234,2.545 3.017,0.184 6.026,1.113 8.803,2.471 -0.585,-5.152 1.553,-10.978 5.999,-13.505 4.912,-2.792 12.826,-0.156 14.002,6.088 0.682,3.625 -1.132,7.025 -2.409,10.095 3.435,0.124 6.389,2.348 9.56,3.564 1.564,0.599 3.472,1.143 4.978,0.426 0.557,-0.265 1.062,-0.729 1.726,-0.707 0.821,0.027 1.378,0.406 2.256,0.264 3.504,-0.568 6.672,-3.836 6.695,-7.523 0.022,-3.334 -3.043,-5.626 -6.13,-6.012 1.337,-3.081 4.253,-8.198 0.007,-10.811 4.532,-4.986 8.715,-24.139 -3.32,-23.596 1.622,-5.445 0.147,-13.512 -6.333,-15.632 -4.99,-1.632 -10.536,0.831 -14.074,3.898 z" id="path35" inkscape:connector-curvature="0" style="clip-rule:evenodd;fill:#191847;fill-rule:evenodd"/>
    <path d="m 514.017,357.677 -85.69,250.144 -59.717,208.778 -21.474,4.553 79.772,-445.005 z" id="path37" inkscape:connector-curvature="0" style="clip-rule:evenodd;fill:#997659;fill-rule:evenodd"/>
    <path d="m 379.883,805.161 c 3.141,4.916 4.995,8.7 5.56,11.351 0.688,3.224 1.154,8.043 1.399,14.457 -3.743,0.793 -37.384,7.917 -100.923,21.373 -4.471,-8.109 -3.955,-13.107 1.548,-14.994 5.503,-1.888 10.064,-3.506 13.683,-4.854 l 42.45,-30.831 c 0.816,-0.593 1.961,-0.412 2.556,0.404 0.01,0.014 0.02,0.029 0.029,0.043 l 4.575,6.67 c 5.751,1.332 10.262,1.651 13.532,0.958 2.658,-0.563 6.098,-2.412 10.323,-5.548 v 0 c 1.621,-1.204 3.913,-0.865 5.12,0.756 0.052,0.069 0.101,0.141 0.148,0.215 z" id="path39" inkscape:connector-curvature="0" style="clip-rule:evenodd;fill:#e4e4e4;fill-rule:evenodd"/>
    <path d="m 389.897,780.681 -44.078,-3.725 c 6.606,-57.997 16.147,-122.301 28.623,-192.913 12.476,-70.613 27.384,-139.364 44.724,-206.254 l 116.963,-24.801 c -17.304,83.631 -38.119,160.7 -62.444,231.207 -24.326,70.508 -52.255,136.003 -83.788,196.486 z" id="path41" inkscape:connector-curvature="0" style="clip-rule:evenodd;fill:#db2721;fill-rule:evenodd"/>
    <path d="m 522.756,355.824 c 29.17,75.332 74.609,169.846 77.549,172.436 1.96,1.727 60.697,8.443 176.212,20.148 l -0.611,19.888 c -132.908,8.768 -203.925,8.765 -213.05,-0.01 C 549.169,555.123 471.307,444.719 435.273,374.374 Z" id="path43" inkscape:connector-curvature="0" style="clip-rule:evenodd;fill:#b28b67;fill-rule:evenodd"/>
    <path d="m 735.024,540.126 -1.683,32.179 C 638.692,601.201 578.297,607.629 552.153,591.591 526.01,575.553 484.784,503.628 428.474,375.815 l 111.532,-23.649 c 40.955,105.754 62.964,160.709 66.025,164.864 3.062,4.155 46.059,11.853 128.993,23.096 z" id="path45" inkscape:connector-curvature="0" style="clip-rule:evenodd;fill:#ff4133;fill-rule:evenodd"/>
    <path d="m 538.919,314.852 -31.984,20.894 c 61.307,50.922 94.019,77.822 98.137,80.7 9.265,6.477 10.455,24.709 11.919,33.972 13.506,-2.107 1.128,-18.681 18.318,-21.106 15.69,-2.213 31.453,1.981 39.796,-15.603 1.025,-2.162 0.319,-7.342 -6.231,-7.506 -16.318,-0.409 -41.386,-3.384 -46.481,-6.408 -6.947,-4.124 -34.772,-32.438 -83.474,-84.943 z M 350.185,435.33 324.581,502.877 c -10.949,12.171 -19.146,23.799 -24.59,34.885 -0.859,3.275 -0.88,8.794 7.409,2.473 8.29,-6.32 17.295,-12.597 20.431,-10.408 3.137,2.188 0.168,9.158 5.21,11.586 3.361,1.62 6.667,-10.04 9.918,-34.977 l 35.416,-51.438 z" id="path47" inkscape:connector-curvature="0" style="clip-rule:evenodd;fill:#b28b67;fill-rule:evenodd"/>
    <path d="m 360.471,239.839 -14.743,6.321 c -21.607,74.271 11.224,168.815 -21.006,251.032 l 26.21,8.545 c 96.247,-80.698 57.484,-196.849 9.539,-265.898 z" id="path49" inkscape:connector-curvature="0" style="clip-rule:evenodd;fill:#e87613;fill-rule:evenodd"/>
    <path d="m 526.587,368.593 c -53.182,34.443 -92.302,59.779 -117.359,76.007 -5.363,3.473 -9.382,-4.904 -11.144,-9.303 -20.34,-50.769 -16.984,-121.869 -58.673,-185.89 l 30.404,-27.218 c 57.245,26.776 102.935,75.8 156.772,146.404 z" id="path51" inkscape:connector-curvature="0" style="clip-rule:evenodd;fill:#dde3e9;fill-rule:evenodd"/>
    <path d="m 372.387,220.504 c -1.143,0.74 -2.144,1.49 -3.003,2.249 l -10.21,7.471 c 36.514,122.453 72.774,196.446 108.782,221.977 l 92.368,-59.818 c 13.758,9.181 25.967,16.497 36.625,21.946 l 25.167,-16.3 C 574.748,320.115 514.325,267.079 440.848,238.923 c 3.999,-4.592 5.752,-10.401 5.259,-17.425 -2.126,-30.277 -14.576,-39.642 -30.422,-35.108 -15.845,4.534 -22.232,20.47 -43.298,34.114 z" id="path53" inkscape:connector-curvature="0" style="clip-rule:evenodd;fill:#ff9b21;fill-rule:evenodd"/>
    <path d="m 526.026,414.551 34.28,-22.199 C 544.255,381.64 526.094,368.39 505.824,352.6 c 12.878,26.119 19.613,46.771 20.202,61.951 z" id="path55" inkscape:connector-curvature="0" style="clip-rule:evenodd;fill:#000000;fill-opacity:0.1;fill-rule:evenodd"/>
  </g>
</svg>