<svg width="849" height="900" xmlns="http://www.w3.org/2000/svg" xmlns:xlink="http://www.w3.org/1999/xlink">
 <g>
  <title>background</title>
  <rect fill="none" id="canvas_background" height="902" width="851" y="-1" x="-1"/>
 </g>
 <g>
  <title>Layer 1</title>
  <g id="svg_1">
   <g id="svg_2">
    <path id="svg_3" d="m432.31675,116.64282l-411.913,239.479c-6.682,3.857 -12.075,13.198 -12.053,20.876l0.543,191.506c0.022,7.678 5.45,10.772 12.132,6.914l411.291,-239.12l0,-219.655z" fill="#E6E6E6" opacity="0.5"/>
    <g id="svg_4">
     <path id="svg_5" d="m330.83775,222.76082c-0.022,-7.677 -5.45,-10.771 -12.132,-6.913l-267.813,154.622c-6.682,3.857 -12.075,13.198 -12.053,20.876l0.543,191.507c0.022,7.677 5.45,10.771 12.132,6.913l267.813,-154.621c6.682,-3.857 12.074,-13.199 12.053,-20.876l-0.543,-191.508z" fill="url(#SVGID_1_)"/>
     <g id="svg_6">
      <g id="svg_7">
       <path id="svg_8" d="m223.15775,301.06082l3.109,-1.795l-3.633,23.388l-2.954,1.706l0.27,-1.737c-1.13,1.779 -2.571,3.264 -4.306,4.266c-3.298,1.904 -5.881,0.904 -5.893,-3.339c-0.015,-5.211 3.204,-10.805 7.464,-13.264c2.061,-1.19 3.661,-1.303 4.541,-0.23l1.402,-8.995zm-6.732,22.312c2.645,-1.527 4.562,-4.987 4.552,-8.362c-0.007,-2.388 -1.282,-3.115 -3.532,-1.816c-2.645,1.527 -4.562,4.987 -4.553,8.361c0.007,2.389 1.283,3.116 3.533,1.817" fill="#FFFFFF"/>
      </g>
      <g id="svg_9">
       <path id="svg_10" d="m206.25875,402.68482c5.015,-2.896 7.86,-0.644 7.88,6.205c0.021,7.342 -3.575,13.352 -8.814,16.376c-1.752,1.011 -3.453,1.599 -4.658,1.424l1.024,-2.983c0.981,0.165 2.236,-0.283 3.61,-1.076c3.796,-2.191 6.193,-6.303 6.178,-11.692l-0.002,-0.77c-1.094,2.51 -3.066,4.598 -5.402,5.946c-3.71,2.142 -6.397,1.144 -6.408,-2.824c-0.013,-4.143 2.882,-8.463 6.592,-10.606zm0.271,10.677c2.559,-1.478 4.323,-4.314 4.317,-6.663c-0.006,-2.211 -1.558,-3.272 -4.478,-1.586c-2.439,1.408 -4.118,4.018 -4.11,6.564c0.007,2.526 1.643,3.202 4.271,1.685" fill="#FFFFFF"/>
      </g>
      <g id="svg_11">
       <polygon id="svg_12" points="222.38775634765625,393.6298065185547 222.44876098632812,415.1238250732422 219.80374145507812,416.6508026123047 219.75076293945312,397.8218231201172 215.54275512695312,400.25181579589844 215.53475952148438,397.5868377685547 " fill="#FFFFFF"/>
      </g>
      <g id="svg_13">
       <polygon id="svg_14" points="292.3297424316406,353.2488250732422 292.3907470703125,374.7428436279297 289.728759765625,376.2798309326172 289.6757507324219,357.4508514404297 285.46673583984375,359.88084411621094 285.4597473144531,357.21580505371094 " fill="#FFFFFF"/>
      </g>
      <g id="svg_15">
       <path id="svg_16" d="m308.45875,343.93682l0.006,2.092l-4.859,9.744c3.728,-1.737 5.642,-0.411 5.651,2.905c0.01,3.612 -2.3,7.911 -7.058,10.658c-2.679,1.547 -5.31,2.078 -6.878,1.362l1.213,-3.132c1.258,0.618 3.356,0.356 5.657,-0.973c2.8,-1.616 4.393,-3.999 4.386,-6.348c-0.006,-2.27 -1.419,-2.937 -4.631,-1.082l-1.494,0.863l-0.006,-2.132l4.688,-9.368l-9.018,5.206l-0.008,-2.665l12.351,-7.13z" fill="#FFFFFF"/>
      </g>
      <g id="svg_17">
       <path id="svg_18" d="m284.89975,402.63282c4.61,1.288 7.596,5.871 7.576,12.961c0,0.113 -0.001,0.226 -0.003,0.34c-0.117,7.303 -3.328,15.444 -8.144,22c-4.537,-1.268 -7.501,-5.746 -7.56,-12.655c-0.002,-0.223 -0.001,-0.448 0.003,-0.676c0.118,-7.284 3.313,-15.414 8.128,-21.97z" fill="#F4A500"/>
      </g>
      <g id="svg_19">
       <path id="svg_20" d="m78.47075,374.59282l0.019,6.632l-23.378,13.497c0.32,-3.906 3.07,-8.415 6.372,-10.321l16.987,-9.808z" fill="#ECC26F"/>
      </g>
      <g id="svg_21">
       <path id="svg_22" d="m177.23175,328.50582c2.989,-1.725 5.414,-1.959 6.639,-0.492l-2.33,3.619c-0.966,-0.965 -2.463,-0.931 -4.524,0.259c-4.466,2.578 -7.237,8.053 -7.224,12.75c0.009,3.316 1.905,4.436 5.461,2.383c1.958,-1.13 3.639,-2.853 4.957,-5.175l1.896,1.238c-1.677,3.221 -4.199,5.686 -7.085,7.352c-5.307,3.064 -8.495,1.385 -8.509,-3.667c-0.019,-6.789 4.243,-14.528 10.719,-18.267z" fill="#FFFFFF"/>
      </g>
      <g id="svg_23">
       <path id="svg_24" d="m194.33575,323.49382l-0.557,3.742c-0.275,0.1 -0.481,0.199 -0.773,0.368c-2.439,1.408 -4.067,3.771 -4.607,7.266l-1.301,8.303l-3.109,1.795l2.602,-16.823l2.954,-1.706l-0.338,2.172c1.214,-2.303 2.879,-3.817 5.129,-5.117z" fill="#FFFFFF"/>
      </g>
      <g id="svg_25">
       <path id="svg_26" d="m208.11275,322.26182c0.002,0.769 -0.064,1.559 -0.2,2.29l-10.563,6.099c0.058,2.418 1.282,3.016 3.858,1.529c1.511,-0.873 2.901,-2.248 3.826,-3.79l1.313,1.752c-1.405,2.235 -3.412,4.086 -5.456,5.266c-4.019,2.321 -6.569,1.124 -6.581,-2.942c-0.015,-5.191 3.187,-10.795 7.653,-13.373c3.692,-2.134 6.138,-1.016 6.15,3.169zm-10.496,5.861l7.626,-4.403c0.028,-2.369 -1.35,-2.878 -3.429,-1.678c-2.111,1.22 -3.636,3.504 -4.197,6.081" fill="#FFFFFF"/>
      </g>
      <g id="svg_27">
       <path id="svg_28" d="m231.84675,295.19482c1.117,-0.645 1.875,-0.232 1.878,0.833c0.004,1.402 -0.852,2.864 -2.123,3.598c-1.117,0.645 -1.858,0.163 -1.861,-0.922c-0.004,-1.302 0.835,-2.775 2.106,-3.509z" fill="#FFFFFF"/>
      </g>
      <g id="svg_29">
       <polygon id="svg_30" points="226.73873901367188,320.2848358154297 229.34075927734375,303.46180725097656 232.46774291992188,301.6568145751953 229.86575317382812,318.4798126220703 " fill="#FFFFFF"/>
      </g>
      <g id="svg_31">
       <path id="svg_32" d="m240.65075,293.55182l-0.609,3.851l3.59,-2.073l-0.49,3.149l-3.59,2.073l-1.233,7.908c-0.017,0.247 -0.05,0.483 -0.05,0.701c0.003,1.046 0.486,1.44 1.585,0.805c0.601,-0.347 1.219,-0.921 1.733,-1.614l0.557,2.327c-0.943,1.236 -2.11,2.128 -3.21,2.763c-2.267,1.309 -3.817,0.682 -3.825,-1.884c-0.001,-0.375 0.015,-0.8 0.1,-1.264l1.251,-7.957l-2.182,1.259l0.507,-3.159l2.164,-1.249l0.591,-3.84l3.111,-1.796z" fill="#FFFFFF"/>
      </g>
      <g id="svg_33">
       <path id="svg_34" d="m262.75175,279.13082c2.989,-1.726 5.414,-1.96 6.639,-0.492l-2.347,3.629c-0.949,-0.974 -2.446,-0.94 -4.507,0.249c-4.466,2.578 -7.255,8.063 -7.241,12.761c0.009,3.315 1.922,4.426 5.478,2.373c1.958,-1.13 3.639,-2.852 4.957,-5.175l1.896,1.238c-1.677,3.222 -4.199,5.686 -7.085,7.352c-5.308,3.064 -8.495,1.386 -8.509,-3.667c-0.018,-6.79 4.226,-14.52 10.719,-18.268z" fill="#FFFFFF"/>
      </g>
      <g id="svg_35">
       <path id="svg_36" d="m281.50575,273.34482l3.109,-1.795l-2.602,16.823l-2.954,1.705l0.27,-1.737c-1.13,1.799 -2.589,3.274 -4.341,4.286c-3.263,1.884 -5.864,0.895 -5.876,-3.349c-0.015,-5.211 3.221,-10.815 7.481,-13.274c2.061,-1.19 3.644,-1.293 4.541,-0.171l0.372,-2.488zm-5.719,15.756c2.628,-1.517 4.579,-4.997 4.57,-8.372c-0.007,-2.388 -1.282,-3.114 -3.532,-1.815c-2.645,1.527 -4.579,4.997 -4.57,8.371c0.007,2.388 1.282,3.115 3.532,1.816" fill="#FFFFFF"/>
      </g>
      <g id="svg_37">
       <path id="svg_38" d="m309.84675,251.01182l3.109,-1.795l-3.632,23.388l-2.954,1.705l0.27,-1.737c-1.13,1.779 -2.571,3.264 -4.306,4.266c-3.298,1.904 -5.864,0.895 -5.876,-3.349c-0.015,-5.211 3.187,-10.795 7.446,-13.254c2.061,-1.19 3.661,-1.303 4.541,-0.23l1.402,-8.994zm-6.732,22.311c2.645,-1.527 4.562,-4.987 4.553,-8.362c-0.007,-2.388 -1.282,-3.114 -3.532,-1.815c-2.645,1.527 -4.562,4.987 -4.553,8.361c0.006,2.389 1.281,3.116 3.532,1.816" fill="#FFFFFF"/>
      </g>
      <g id="svg_39">
       <g id="svg_40">
        <path id="svg_41" d="m167.39675,433.84082c3.727,-2.152 6.431,-1.163 6.442,2.804c0.012,4.145 -2.901,8.475 -6.611,10.617c-5.033,2.906 -7.878,0.674 -7.897,-6.175c-0.021,-7.342 3.592,-13.382 8.831,-16.406c1.752,-1.011 3.437,-1.569 4.641,-1.414l-1.007,2.993c-0.964,-0.194 -2.236,0.263 -3.576,1.036c-3.796,2.192 -6.227,6.344 -6.212,11.712c0.001,0.257 0.001,0.493 0.037,0.75c1.06,-2.451 3.033,-4.578 5.352,-5.917zm-0.279,10.994c2.422,-1.398 4.135,-4.028 4.128,-6.574c-0.007,-2.526 -1.661,-3.192 -4.289,-1.675c-2.542,1.468 -4.306,4.305 -4.299,6.673c0.006,2.21 1.575,3.242 4.46,1.576" fill="#FFFFFF"/>
       </g>
       <g id="svg_42">
        <path id="svg_43" d="m79.97875,414.90182l-0.019,-6.632l23.275,-13.438c-0.32,3.906 -3.07,8.415 -6.372,10.321l-16.884,9.749z" fill="#ECC26F"/>
       </g>
       <g id="svg_44">
        <path id="svg_45" d="m85.64975,394.48782c0.838,-1.611 1.041,-2.934 1.091,-3.714l16.489,-9.52l0.034,12.079l-23.308,13.457l-0.019,-6.474c2.646,-1.665 4.567,-3.644 5.713,-5.828z" fill="#ECC26F"/>
       </g>
       <g id="svg_46">
        <path id="svg_47" d="m55.19075,422.57082l23.498,-13.567l0.019,6.631l-17.108,9.877c-3.302,1.907 -6.068,0.584 -6.409,-2.941z" fill="#ECC26F"/>
       </g>
       <g id="svg_48">
        <polygon id="svg_49" points="78.49374389648438,382.70481872558594 78.51174926757812,389.0408172607422 55.10075378417969,402.5568084716797 55.08274841308594,396.2218475341797 " fill="#ECC26F"/>
       </g>
       <g id="svg_50">
        <path id="svg_51" d="m79.75875,373.84982l0.019,6.632l23.378,-13.497l0.038,1.461l-23.411,13.517l0.018,6.316c2.37,-1.349 6.015,-2.405 6.816,1.106l16.61,-9.589l0.004,1.46l-16.489,9.52c-0.049,0.78 -0.252,2.103 -1.09,3.714c-1.147,2.184 -3.068,4.163 -5.713,5.829l0.018,6.474l23.308,-13.457l0.004,1.48l-23.309,13.454l0.019,6.632l-1.271,0.734l-0.019,-6.632l-23.498,13.567l-0.035,-0.731l-0.002,-0.73l23.532,-13.586l-0.018,-6.454l-23.532,13.586l-0.004,-1.481l24.167,-13.953c2.576,-1.507 4.378,-3.239 5.37,-5.137c0.924,-1.779 0.782,-3.101 0.782,-3.121c-0.423,-3.929 -4.511,-1.872 -5.84,-1.104c-0.226,0.13 -0.372,0.224 -0.407,0.244l-0.687,0.456l-23.412,13.458l-0.004,-1.46l23.411,-13.517l-0.018,-6.335l-23.411,13.517l-0.002,-0.73l-0.002,-0.75l23.411,-13.516l-0.019,-6.632l1.288,-0.745z" fill="#EBEDED"/>
       </g>
       <g id="svg_52">
        <path id="svg_53" d="m187.25675,424.15282c2.15,-0.292 3.323,0.83 3.33,3.277c0.011,3.908 -2.868,8.001 -7.436,10.639c-4.535,2.618 -7.41,1.847 -7.421,-2.061c-0.007,-2.447 1.173,-4.947 3.266,-7.085c-1.703,0.074 -2.618,-0.999 -2.624,-3.131c-0.01,-3.592 2.68,-7.399 6.717,-9.729c4.071,-2.35 6.808,-1.677 6.818,1.915c0.006,2.132 -0.934,4.276 -2.65,6.175zm-4.113,11.43c2.971,-1.715 4.788,-4.286 4.781,-6.694c-0.007,-2.368 -1.832,-2.797 -4.803,-1.082c-2.972,1.716 -4.72,4.208 -4.713,6.576c0.007,2.407 1.763,2.915 4.735,1.2m-0.049,-17.033c-2.508,1.448 -4.085,3.682 -4.078,5.834c0.006,2.131 1.539,2.571 4.098,1.093c2.594,-1.497 4.17,-3.732 4.164,-5.863c-0.006,-2.152 -1.659,-2.522 -4.184,-1.064" fill="#FFFFFF"/>
       </g>
       <g id="svg_54">
        <path id="svg_55" d="m79.78175,381.96182l23.411,-13.517l0.032,11.349l-16.61,9.589c-0.801,-3.511 -4.445,-2.454 -6.816,-1.106l-0.017,-6.315z" fill="#ECC26F"/>
       </g>
       <g id="svg_56">
        <path id="svg_57" d="m96.74675,364.04182c3.302,-1.907 6.069,-0.583 6.41,2.942l-23.378,13.497l-0.019,-6.632l16.987,-9.807z" fill="#ECC26F"/>
       </g>
       <g id="svg_58">
        <polygon id="svg_59" points="78.666748046875,401.06980895996094 78.68475341796875,407.5238494873047 55.15275573730469,421.10984802246094 55.13475036621094,414.6558074951172 " fill="#ECC26F"/>
       </g>
       <g id="svg_60">
        <path id="svg_61" d="m84.66875,394.08582c-0.993,1.897 -2.794,3.629 -5.371,5.137l-24.167,13.953l-0.026,-9.158l23.411,-13.516l0.687,-0.397c0.035,-0.02 0.181,-0.113 0.407,-0.244c1.33,-0.768 5.418,-2.825 5.841,1.104c0,0.02 0.141,1.342 -0.782,3.121z" fill="#ECC26F"/>
       </g>
      </g>
      <g id="svg_62">
       <polygon id="svg_63" points="66.32475280761719,483.7338104248047 66.38575744628906,505.22679138183594 63.740753173828125,506.7538299560547 63.68675231933594,487.9258270263672 59.46174621582031,490.3647918701172 59.45375061035156,487.69981384277344 " fill="#FFFFFF"/>
      </g>
      <g id="svg_64">
       <path id="svg_65" d="m76.33775,477.69582c3.916,-2.261 6.431,-1.4 6.441,2.291c0.006,2.092 -0.521,4.275 -3.055,8.525l-5.702,9.638l9.602,-5.544l0.008,2.665l-13.449,7.765l-0.006,-2.073l7.585,-12.84c1.986,-3.38 2.343,-4.931 2.339,-6.273c-0.006,-2.23 -1.367,-2.789 -3.995,-1.272c-1.992,1.151 -3.622,2.823 -4.768,5.086l-1.826,-0.765c1.436,-2.886 3.923,-5.527 6.826,-7.203z" fill="#FFFFFF"/>
      </g>
      <g id="svg_66">
       <path id="svg_67" d="m97.80875,465.55582l0.006,2.092l-4.876,9.754c3.746,-1.747 5.642,-0.411 5.651,2.905c0.01,3.612 -2.3,7.911 -7.058,10.658c-2.679,1.547 -5.293,2.068 -6.878,1.362l1.23,-3.142c1.258,0.618 3.339,0.365 5.64,-0.963c2.8,-1.616 4.41,-4.009 4.403,-6.358c-0.006,-2.27 -1.436,-2.927 -4.648,-1.073l-1.495,0.863l-0.006,-2.131l4.688,-9.368l-9.001,5.196l-0.007,-2.665l12.351,-7.13z" fill="#FFFFFF"/>
      </g>
      <g id="svg_68">
       <polygon id="svg_69" points="113.21574401855469,456.6608123779297 104.08175659179688,475.5348358154297 111.27874755859375,471.3798065185547 111.2657470703125,466.7028045654297 113.77374267578125,465.2548065185547 113.7867431640625,469.9318084716797 117.34175109863281,467.8788299560547 117.34974670410156,470.5238494873047 113.79374694824219,472.5768280029297 113.80874633789062,477.8468475341797 111.21574401855469,479.3437957763672 111.20074462890625,474.07481384277344 100.80874633789062,480.07383728027344 100.80274963378906,477.92283630371094 110.32974243164062,458.3268280029297 " fill="#FFFFFF"/>
      </g>
      <g id="svg_70">
       <path id="svg_71" d="m138.17275,442.25182l0.008,2.665l-8.313,4.8l-0.481,6.189l2.078,-1.2c5.582,-3.223 7.789,-1.808 7.799,2.001c0.01,3.711 -2.283,8.02 -7.075,10.786c-2.645,1.527 -5.259,2.048 -6.861,1.352l1.213,-3.132c1.258,0.618 3.356,0.356 5.623,-0.953c2.834,-1.636 4.427,-4.059 4.421,-6.388c-0.007,-2.427 -1.334,-3.164 -5.679,-0.655l-4.243,2.45l0.947,-11.815l10.563,-6.1z" fill="#FFFFFF"/>
      </g>
      <g id="svg_72">
       <polygon id="svg_73" points="153.61375427246094,433.3368377685547 144.4977569580078,452.2008514404297 151.67774963378906,448.0558319091797 151.6647491455078,443.3788299560547 154.18875122070312,441.9208221435547 154.20274353027344,446.5978240966797 157.75775146484375,444.5458221435547 157.7657470703125,447.18980407714844 154.20974731445312,449.2428436279297 154.22474670410156,454.51280212402344 151.63174438476562,456.0098114013672 151.6167449951172,450.7397918701172 141.20774841308594,456.7498016357422 141.20175170898438,454.5988006591797 150.72874450683594,435.00279235839844 " fill="#FFFFFF"/>
      </g>
      <g id="svg_74">
       <path id="svg_75" d="m234.13575,386.59082c4.346,-2.509 7.621,-0.387 7.64,6.62c0.02,6.987 -3.232,12.877 -7.578,15.386c-4.397,2.539 -7.672,0.416 -7.692,-6.57c-0.019,-7.007 3.233,-12.898 7.63,-15.436zm0.055,19.263c2.903,-1.676 4.922,-5.609 4.906,-11.096c-0.016,-5.507 -2.05,-7.099 -4.953,-5.423c-2.954,1.705 -4.973,5.639 -4.958,11.145c0.016,5.486 2.051,7.079 5.005,5.374" fill="#FFFFFF"/>
      </g>
      <g id="svg_76">
       <polygon id="svg_77" points="250.02474975585938,377.67381286621094 250.08575439453125,399.16783142089844 247.44073486328125,400.69480895996094 247.38775634765625,381.86582946777344 243.1617431640625,384.30479431152344 243.15475463867188,381.6407928466797 " fill="#FFFFFF"/>
      </g>
      <g id="svg_78">
       <polygon id="svg_79" points="267.0977478027344,367.8168182373047 267.15875244140625,389.30979919433594 264.5137634277344,390.8378143310547 264.46075439453125,372.0088348388672 260.2357482910156,374.4477996826172 260.2277526855469,371.78379821777344 " fill="#FFFFFF"/>
      </g>
      <g id="svg_80">
       <path id="svg_81" d="m273.72675,404.82682c0.147,-0.085 0.295,-0.168 0.443,-0.25c4.037,-2.232 7.734,-2.785 10.73,-1.944c-4.816,6.556 -8.01,14.687 -8.127,21.97c-0.004,0.228 -0.005,0.453 -0.003,0.676c0.059,6.909 3.022,11.387 7.56,12.655c-2.982,4.053 -6.575,7.498 -10.458,9.739c-0.134,0.078 -0.27,0.154 -0.405,0.229c-10.306,5.693 -18.493,0.594 -18.303,-11.376c0.187,-11.78 8.457,-25.864 18.563,-31.699z" fill="#FF006F"/>
      </g>
      <g id="svg_82">
       <path id="svg_83" d="m295.35875,392.87182c0.134,-0.077 0.269,-0.153 0.403,-0.228c10.306,-5.674 18.51,-0.605 18.303,11.376c-0.187,11.811 -8.473,25.892 -18.594,31.735c-0.137,0.079 -0.275,0.157 -0.413,0.234c-4.019,2.222 -7.717,2.775 -10.73,1.945c4.816,-6.557 8.027,-14.697 8.144,-22c0.002,-0.114 0.003,-0.227 0.003,-0.34c0.02,-7.09 -2.966,-11.673 -7.576,-12.961c3,-4.082 6.594,-7.528 10.46,-9.761z" fill="#E4DA00"/>
      </g>
      <g id="svg_84">
       <path id="svg_85" d="m277.11075,361.77882c3.916,-2.261 6.431,-1.4 6.441,2.291c0.006,2.092 -0.521,4.275 -3.055,8.525l-5.702,9.637l9.602,-5.543l0.008,2.665l-13.449,7.765l-0.006,-2.072l7.585,-12.841c1.986,-3.38 2.343,-4.931 2.339,-6.273c-0.006,-2.23 -1.367,-2.789 -3.995,-1.272c-1.992,1.15 -3.622,2.823 -4.768,5.086l-1.826,-0.765c1.436,-2.886 3.924,-5.527 6.826,-7.203z" fill="#FFFFFF"/>
      </g>
      <g id="svg_86">
       <path id="svg_87" d="m296.44875,264.53982l-0.557,3.741c-0.275,0.1 -0.481,0.199 -0.773,0.368c-2.439,1.408 -4.067,3.771 -4.607,7.266l-1.301,8.303l-3.109,1.795l2.602,-16.823l2.972,-1.716l-0.355,2.182c1.213,-2.303 2.895,-3.827 5.128,-5.116z" fill="#FFFFFF"/>
      </g>
     </g>
    </g>
    <g id="svg_88" opacity="0.5">
     <g id="svg_89">
      <polygon id="svg_90" points="64.03775024414062,229.1918182373047 95.09074401855469,246.88783264160156 64.23974609375,300.34483337402344 64.19474792480469,284.5258331298828 81.34175109863281,254.82481384277344 64.08274841308594,244.9888153076172 " fill="#CCCCCC"/>
     </g>
     <g id="svg_91">
      <polygon id="svg_92" points="35.12974548339844,245.88182067871094 66.20074462890625,263.5668182373047 35.33074951171875,317.0348358154297 35.28575134277344,301.21583557128906 52.433746337890625,271.5148162841797 35.17375183105469,261.67982482910156 " fill="#CCCCCC"/>
     </g>
     <g id="svg_93">
      <polygon id="svg_94" points="6.239753723144531,262.56080627441406 37.292755126953125,280.25682067871094 6.441749572753906,333.71482849121094 6.396751403808594,317.8958282470703 23.543746948242188,288.19480895996094 6.284751892089844,278.3588104248047 " fill="#CCCCCC"/>
     </g>
     <g id="svg_95">
      <polygon id="svg_96" points="92.92674255371094,212.51182556152344 123.99874877929688,230.1978302001953 93.12875366210938,283.6658172607422 93.08375549316406,267.84681701660156 110.23175048828125,238.1458282470703 92.97175598144531,228.30982971191406 " fill="#CCCCCC"/>
     </g>
     <g id="svg_97">
      <polygon id="svg_98" points="121.83474731445312,195.8218231201172 152.90675354003906,213.50682067871094 122.0367431640625,266.97581481933594 121.99174499511719,251.1568145751953 139.13975524902344,221.45582580566406 121.87974548339844,211.6198272705078 " fill="#CCCCCC"/>
     </g>
     <g id="svg_99">
      <polygon id="svg_100" points="150.74374389648438,179.13182067871094 181.7967529296875,196.8278350830078 150.9457550048828,250.2858123779297 150.9007568359375,234.46583557128906 168.02975463867188,204.7758331298828 150.78775024414062,194.92982482910156 " fill="#CCCCCC"/>
     </g>
     <g id="svg_101">
      <polygon id="svg_102" points="179.63275146484375,162.4528350830078 210.70474243164062,180.13783264160156 179.83474731445312,233.60581970214844 179.78976440429688,217.7868194580078 196.937744140625,188.08583068847656 179.67776489257812,178.2498321533203 " fill="#CCCCCC"/>
     </g>
     <g id="svg_103">
      <polygon id="svg_104" points="237.43075561523438,129.0828094482422 268.5017395019531,146.76780700683594 237.63275146484375,200.23683166503906 237.58773803710938,184.4168243408203 254.73574829101562,154.71583557128906 237.47573852539062,144.8808135986328 " fill="#CCCCCC"/>
     </g>
     <g id="svg_105">
      <polygon id="svg_106" points="208.54074096679688,145.76182556152344 239.59375,163.4588165283203 208.74273681640625,216.9158172607422 208.69876098632812,201.09681701660156 225.84576416015625,171.3958282470703 208.58575439453125,161.55982971191406 " fill="#CCCCCC"/>
     </g>
     <g id="svg_107">
      <polygon id="svg_108" points="266.3387451171875,112.39280700683594 297.3917541503906,130.0888214111328 266.5407409667969,183.5468292236328 266.4957580566406,167.72682189941406 283.64373779296875,138.0258331298828 266.3837585449219,128.19081115722656 " fill="#CCCCCC"/>
     </g>
    </g>
   </g>
   <g id="svg_109">
    <g id="svg_110">
     <path id="svg_111" d="m128.40575,769.18882l75.692,-43.701l-0.336,-118.56l-18.191,10.503l-0.019,-6.68c-0.037,-12.946 -9.229,-18.185 -20.496,-11.68c-11.261,6.502 -20.394,22.321 -20.357,35.267l0.019,6.68l-17.304,9.864l0,118.602c1.027,-0.401 1.005,-0.351 0.992,-0.295zm21.059,-137.603c-0.028,-9.918 6.975,-22.048 15.606,-27.032c8.632,-4.983 15.681,-0.966 15.709,8.952l0.019,6.68l-31.315,18.08l-0.019,-6.68z" fill="#00208E"/>
     <g id="svg_112">
      <g id="svg_113">
       <polygon id="svg_114" points="127.33975219726562,650.9408416748047 127.66075134277344,769.3878021240234 149.72674560546875,782.4938201904297 149.40574645996094,664.0458221435547 " fill="#4F72FB"/>
      </g>
     </g>
     <g id="svg_115">
      <g id="svg_116">
       <polygon id="svg_117" points="203.85675048828125,607.0408172607422 203.520751953125,725.6558074951172 225.96075439453125,738.1378021240234 226.2967529296875,619.5228118896484 " fill="#00114A"/>
      </g>
     </g>
     <path id="svg_118" d="m149.38475,663.94082l0.336,118.559l76.941,-44.422l-0.336,-118.56l-18.191,10.503l-0.019,-6.68c-0.037,-12.947 -9.229,-18.185 -20.496,-11.68c-11.261,6.502 -20.394,22.32 -20.357,35.267l0.019,6.68l-17.897,10.333zm22.644,-19.764c-0.028,-9.918 6.975,-22.049 15.607,-27.032c8.631,-4.983 15.68,-0.966 15.709,8.952l0.019,6.68l-31.315,18.08l-0.02,-6.68z" fill="#395DE4"/>
    </g>
    <g id="svg_119">
     <path id="svg_120" d="m192.28875,808.96482l75.692,-43.701l-0.336,-118.56l-18.191,10.503l-0.019,-6.68c-0.037,-12.947 -9.229,-18.185 -20.496,-11.68c-11.262,6.502 -20.394,22.32 -20.358,35.267l0.019,6.68l-17.304,9.864l0,118.603c1.028,-0.402 1.006,-0.352 0.993,-0.296zm21.059,-137.602c-0.028,-9.918 6.975,-22.049 15.607,-27.032s15.68,-0.966 15.709,8.952l0.019,6.68l-31.315,18.08l-0.02,-6.68z" fill="#7B0031"/>
     <g id="svg_121">
      <g id="svg_122">
       <polygon id="svg_123" points="191.22274780273438,690.7168426513672 191.54473876953125,809.1638031005859 213.6097412109375,822.2698211669922 213.28875732421875,703.8218231201172 " fill="#FF3698"/>
      </g>
     </g>
     <g id="svg_124">
      <g id="svg_125">
       <polygon id="svg_126" points="267.73974609375,646.8168182373047 267.40374755859375,765.4318084716797 289.84375,777.9138031005859 290.17974853515625,659.2988128662109 " fill="#56002A"/>
      </g>
     </g>
     <path id="svg_127" d="m213.26775,703.71682l0.336,118.559l76.941,-44.422l-0.336,-118.56l-18.191,10.503l-0.019,-6.68c-0.037,-12.946 -9.229,-18.185 -20.496,-11.68c-11.261,6.502 -20.394,22.32 -20.358,35.267l0.019,6.68l-17.896,10.333zm22.644,-19.764c-0.028,-9.918 6.975,-22.048 15.607,-27.032c8.631,-4.983 15.681,-0.966 15.709,8.952l0.019,6.68l-31.315,18.08l-0.02,-6.68z" fill="#FF006F"/>
    </g>
   </g>
   <g id="svg_128">
    <g id="svg_129" opacity="0.5">
     <path id="svg_130" d="m788.10275,94.12582c3.795,2.191 6.86,7.499 6.847,11.86c-0.013,4.358 -3.097,6.116 -6.892,3.925c-3.793,-2.19 -6.86,-7.499 -6.847,-11.857c0.013,-4.362 3.1,-6.118 6.892,-3.928z" fill="#CCCCCC"/>
    </g>
    <g id="svg_131" opacity="0.25">
     <path id="svg_132" d="m748.76075,159.95882c3.795,2.191 6.86,7.499 6.848,11.86c-0.013,4.358 -3.097,6.116 -6.892,3.925c-3.792,-2.19 -6.86,-7.499 -6.847,-11.857c0.011,-4.361 3.098,-6.117 6.891,-3.928z" fill="#CCCCCC"/>
    </g>
    <g id="svg_133" opacity="0.1">
     <path id="svg_134" d="m714.73175,67.14182c3.795,2.191 6.86,7.499 6.847,11.86c-0.012,4.358 -3.097,6.116 -6.892,3.925c-3.793,-2.19 -6.86,-7.499 -6.848,-11.857c0.014,-4.361 3.1,-6.118 6.893,-3.928z" fill="#CCCCCC"/>
    </g>
    <g id="svg_135" opacity="0.1">
     <path id="svg_136" d="m762.01775,0.94182c3.795,2.191 6.86,7.499 6.847,11.86c-0.012,4.358 -3.097,6.116 -6.892,3.925c-3.793,-2.19 -6.86,-7.499 -6.848,-11.857c0.013,-4.361 3.1,-6.117 6.893,-3.928z" fill="#CCCCCC"/>
    </g>
    <g id="svg_137" opacity="0.1">
     <path id="svg_138" d="m770.26175,294.83882c3.795,2.191 6.86,7.499 6.847,11.86c-0.012,4.358 -3.097,6.116 -6.892,3.925c-3.793,-2.19 -6.86,-7.499 -6.848,-11.857c0.013,-4.361 3.1,-6.118 6.893,-3.928z" fill="#CCCCCC"/>
    </g>
    <g id="svg_139" opacity="0.5">
     <path id="svg_140" d="m659.28775,92.72982c3.795,2.191 6.86,7.499 6.847,11.86c-0.012,4.358 -3.097,6.116 -6.892,3.925c-3.793,-2.19 -6.86,-7.499 -6.847,-11.857c0.012,-4.361 3.099,-6.117 6.892,-3.928z" fill="#CCCCCC"/>
    </g>
    <g id="svg_141" opacity="0.5">
     <path id="svg_142" d="m803.81075,222.70482c3.795,2.191 6.86,7.499 6.847,11.86c-0.012,4.358 -3.097,6.116 -6.892,3.925c-3.793,-2.19 -6.86,-7.499 -6.847,-11.857c0.013,-4.362 3.1,-6.118 6.892,-3.928z" fill="#CCCCCC"/>
    </g>
    <g id="svg_143" opacity="0.5">
     <path id="svg_144" d="m578.53875,36.71482c3.795,2.191 6.86,7.499 6.847,11.86c-0.012,4.358 -3.097,6.116 -6.892,3.925c-3.793,-2.19 -6.86,-7.499 -6.847,-11.857c0.012,-4.361 3.099,-6.117 6.892,-3.928z" fill="#CCCCCC"/>
    </g>
   </g>
   <g id="svg_145">
    <path id="svg_146" d="m733.21675,225.25482l-0.001,0.001c-0.002,-0.486 -0.007,-1.078 -0.019,-1.473c-0.015,-0.524 -0.04,-1.05 -0.074,-1.578c-0.033,-0.527 -0.075,-1.056 -0.126,-1.587c-0.051,-0.531 -0.11,-1.064 -0.178,-1.598c-0.069,-0.544 -0.147,-1.091 -0.233,-1.638c-0.087,-0.548 -0.182,-1.098 -0.285,-1.649c-0.107,-0.566 -0.222,-1.134 -0.346,-1.702c-0.124,-0.569 -0.257,-1.138 -0.398,-1.708c-0.143,-0.576 -0.295,-1.154 -0.455,-1.731c-0.159,-0.575 -0.327,-1.149 -0.503,-1.723c-0.172,-0.563 -0.353,-1.125 -0.541,-1.686c-0.186,-0.555 -0.379,-1.109 -0.579,-1.662c-0.193,-0.533 -0.393,-1.066 -0.6,-1.597c-0.206,-0.529 -0.418,-1.057 -0.637,-1.584c-0.216,-0.519 -0.438,-1.038 -0.666,-1.555c-0.232,-0.526 -0.472,-1.051 -0.717,-1.574c-0.27,-0.577 -0.548,-1.151 -0.833,-1.722c-0.328,-0.656 -0.665,-1.309 -1.011,-1.957c-0.516,-0.966 -1.053,-1.922 -1.608,-2.866c-0.77,-1.309 -1.577,-2.595 -2.418,-3.854c-0.668,-0.999 -1.357,-1.981 -2.066,-2.943c-0.475,-0.643 -0.958,-1.278 -1.45,-1.903c-0.413,-0.525 -0.832,-1.043 -1.258,-1.554c-0.415,-0.498 -0.835,-0.99 -1.261,-1.475c-0.418,-0.476 -0.841,-0.945 -1.269,-1.406c-0.44,-0.475 -0.885,-0.941 -1.334,-1.399c-0.454,-0.462 -0.912,-0.915 -1.376,-1.36c-0.473,-0.454 -0.951,-0.898 -1.433,-1.333c-0.479,-0.431 -0.962,-0.853 -1.45,-1.265c-0.48,-0.405 -0.964,-0.8 -1.451,-1.185c-0.474,-0.374 -0.951,-0.738 -1.432,-1.092c-0.47,-0.346 -0.943,-0.682 -1.419,-1.009c-0.459,-0.315 -0.921,-0.62 -1.386,-0.916c-0.458,-0.291 -0.918,-0.573 -1.381,-0.846c-0.107,-0.063 -0.214,-0.125 -0.32,-0.187l-182.801,-105.54c-0.347,-0.2 -0.693,-0.393 -1.038,-0.58c-0.448,-0.242 -0.893,-0.473 -1.336,-0.693c-0.29,-0.143 -0.576,-0.273 -0.863,-0.406c-0.068,-0.031 -0.135,-0.065 -0.202,-0.095c-0.085,-0.039 -0.171,-0.083 -0.256,-0.121c-0.438,-0.196 -0.873,-0.381 -1.306,-0.553c-0.442,-0.177 -0.881,-0.342 -1.317,-0.496c-0.075,-0.026 -0.148,-0.047 -0.223,-0.073c-0.066,-0.023 -0.132,-0.043 -0.198,-0.065c-0.296,-0.099 -0.592,-0.201 -0.885,-0.29c-0.453,-0.137 -0.903,-0.261 -1.348,-0.372c-0.215,-0.054 -0.427,-0.094 -0.64,-0.142c-0.093,-0.021 -0.187,-0.042 -0.28,-0.062c-0.138,-0.029 -0.279,-0.066 -0.416,-0.093c-0.481,-0.094 -0.957,-0.172 -1.428,-0.235l-0.06,0.035l0,0l0.06,-0.035c-0.29,-0.039 -0.574,-0.06 -0.86,-0.088c-0.1,-0.009 -0.201,-0.022 -0.301,-0.031c-0.096,-0.008 -0.195,-0.023 -0.291,-0.03c-0.518,-0.036 -1.029,-0.052 -1.533,-0.05c-0.223,0.001 -0.437,0.023 -0.658,0.031c-0.17,0.006 -0.339,0.013 -0.507,0.024c-0.174,0.011 -0.354,0.009 -0.527,0.025c-0.64,0.058 -1.268,0.15 -1.88,0.273c-0.012,0.002 -0.022,0.007 -0.034,0.009c-0.136,0.028 -0.261,0.078 -0.396,0.109c-0.629,0.143 -1.254,0.297 -1.85,0.509c-0.923,0.327 -1.804,0.735 -2.641,1.221l-10.65,6.189c0.018,-0.01 0.039,-0.016 0.057,-0.026c-5.887,3.39 -9.543,10.634 -9.572,20.95l-1.469,518.256c-0.059,20.703 14.498,45.917 32.515,56.318l182.801,105.54c9.635,5.563 18.282,5.718 24.274,1.533c-0.354,0.247 -0.69,0.524 -1.063,0.74l10.65,-6.189c0.661,-0.384 1.283,-0.832 1.885,-1.313c0.182,-0.145 0.354,-0.304 0.531,-0.458c0.424,-0.369 0.83,-0.762 1.221,-1.181c0.169,-0.182 0.34,-0.361 0.503,-0.553c0.445,-0.522 0.866,-1.077 1.261,-1.667c0.066,-0.098 0.141,-0.185 0.205,-0.285c0.014,-0.022 0.03,-0.04 0.044,-0.062c0.446,-0.699 0.857,-1.443 1.231,-2.231c0.013,-0.026 0.022,-0.056 0.035,-0.082c0.038,-0.082 0.07,-0.171 0.107,-0.253c0.224,-0.493 0.445,-0.993 0.641,-1.519c0.097,-0.262 0.179,-0.541 0.269,-0.81c0.053,-0.159 0.108,-0.316 0.159,-0.478c0.045,-0.146 0.099,-0.282 0.143,-0.43c0.159,-0.54 0.304,-1.096 0.434,-1.666c0.046,-0.2 0.081,-0.41 0.123,-0.614c0.027,-0.131 0.053,-0.261 0.079,-0.393c0.038,-0.198 0.083,-0.389 0.118,-0.589c0.088,-0.509 0.166,-1.029 0.233,-1.559c0.037,-0.291 0.062,-0.594 0.092,-0.892c0.01,-0.104 0.022,-0.206 0.032,-0.311c0.011,-0.123 0.028,-0.242 0.038,-0.367c0.041,-0.504 0.073,-1.017 0.095,-1.539c0.017,-0.395 0.027,-1.043 0.033,-1.572l0,-0.003l0.004,-0.003c0,-0.031 0,-0.063 0,-0.094l1.468,-517.888l0.001,0c0,-0.038 -0.001,-0.101 -0.001,-0.143l0.002,-0.226zm-36.904,539.442c0.037,0.008 0.072,0.009 0.109,0.017l0.002,0.001c-0.038,-0.009 -0.074,-0.01 -0.111,-0.018zm6.792,-8.587l0,0l0.002,-0.001l-0.002,0.001zm0.195,8.755c0,0 0.004,-0.001 0.006,-0.001l0.002,0c-0.003,0 -0.005,0.001 -0.008,0.001zm4.639,-14.765c-0.051,0.134 -0.107,0.264 -0.158,0.399c0.052,-0.138 0.109,-0.27 0.161,-0.408c-0.001,0.003 -0.002,0.006 -0.003,0.009z" fill="#E6E6E6" opacity="0.5"/>
    <g id="svg_147">
     <g id="svg_148">
      <g id="svg_149">
       <g id="svg_150">
        <defs transform="translate(-99.15625,-178.2301788330078) ">
         <path d="m780.65,961.579l-10.65,6.189c5.856,-3.403 9.487,-10.64 9.516,-20.925l10.65,-6.189c-0.029,10.286 -3.66,17.522 -9.516,20.925z" id="SVGID_97_"/>
         <linearGradient y2="0.36417" x2="1.00871" y1="0.75768" x1="-0.46507" id="SVGID_1_">
          <stop stop-color="#3EB2FA" offset="0"/>
          <stop stop-color="#3EAEF7" offset="0.1616"/>
          <stop stop-color="#3EA2F0" offset="0.3142"/>
          <stop stop-color="#3D8FE5" offset="0.4634"/>
          <stop stop-color="#3C74D4" offset="0.6104"/>
          <stop stop-color="#3B52BF" offset="0.7558"/>
          <stop stop-color="#3928A5" offset="0.8981"/>
          <stop stop-color="#380590" offset="1"/>
         </linearGradient>
         <linearGradient y2="1.02478" x2="0.5" y1="0.17953" x1="0.5" id="SVGID_3_">
          <stop stop-color="#3EB2FA" offset="0"/>
          <stop stop-color="#3FAEFA" offset="0.1616"/>
          <stop stop-color="#42A2FA" offset="0.3142"/>
          <stop stop-color="#478FFA" offset="0.4633"/>
          <stop stop-color="#4F74FB" offset="0.6103"/>
          <stop stop-color="#5852FB" offset="0.7557"/>
          <stop stop-color="#6428FC" offset="0.898"/>
          <stop stop-color="#6914FC" offset="0.9572"/>
         </linearGradient>
         <linearGradient y2="0.7559" x2="0.2098" y1="0.21741" x1="0.82048" id="SVGID_5_">
          <stop stop-color="#3EB2FA" offset="0.3069"/>
          <stop stop-color="#3EB2FA" stop-opacity="0" offset="1"/>
         </linearGradient>
         <linearGradient y2="1" x2="0.49999" y1="0.00001" x1="0.49999" id="SVGID_6_">
          <stop stop-color="#3EB2FA" offset="0"/>
          <stop stop-color="#3FAEFA" offset="0.1616"/>
          <stop stop-color="#42A2FA" offset="0.3142"/>
          <stop stop-color="#478FFA" offset="0.4633"/>
          <stop stop-color="#4F74FB" offset="0.6103"/>
          <stop stop-color="#5852FB" offset="0.7557"/>
          <stop stop-color="#6428FC" offset="0.898"/>
          <stop stop-color="#6914FC" offset="0.9572"/>
         </linearGradient>
         <linearGradient y2="0.92164" x2="1.47248" y1="0.3087" x1="0.09954" id="SVGID_7_">
          <stop stop-color="#FFFFFF" offset="0.0245"/>
          <stop stop-color="#FFFFFF" stop-opacity="0" offset="0.9807"/>
         </linearGradient>
         <linearGradient y2="0.5" x2="1" y1="0.5" x1="0" id="SVGID_8_">
          <stop stop-color="#E6E6E6" offset="0"/>
          <stop stop-color="#FFFFFF" offset="1"/>
         </linearGradient>
        </defs>
        <clipPath transform="translate(-99.15625,-178.2301788330078) " id="SVGID_2_">
         <use x="-99.15625" y="-178.23018" id="svg_151" xlink:href="#SVGID_97_"/>
        </clipPath>
        <path id="svg_152" d="m680.35975,768.61382l10.65,-6.189c0,0.031 0,0.063 -0.001,0.094l-10.65,6.189c0.001,-0.032 0.001,-0.063 0.001,-0.094" fill="#292929" clip-path="url(#SVGID_2_)"/>
       </g>
       <path id="svg_153" d="m443.30175,86.22682l10.65,-6.189c0.836,-0.486 1.718,-0.894 2.641,-1.221l-10.65,6.189c-0.924,0.327 -1.805,0.735 -2.641,1.221" fill="#1B1B1B"/>
       <g id="svg_154">
        <path id="svg_155" d="m649.27475,207.73082c11.433,6.601 20.677,22.612 20.639,35.748l-1.469,518.256c-0.037,13.136 -9.341,18.425 -20.774,11.824l-182.8,-105.539c-11.433,-6.6 -20.664,-22.591 -20.627,-35.727l1.469,-518.256c0.037,-13.136 9.329,-18.446 20.762,-11.845l22.756,13.139c3.003,1.734 5.443,5.96 5.433,9.41l-0.016,5.599c-0.022,7.829 5.483,17.365 12.297,21.3l101.723,58.729c6.814,3.934 12.355,0.776 12.377,-7.054l0.016,-5.599c0.01,-3.45 2.454,-4.856 5.469,-3.116l22.745,13.131z" fill="url(#SVGID_3_)"/>
       </g>
       <g id="svg_156">
        <path id="svg_157" d="m649.29475,200.88582c14.701,8.487 26.625,29.141 26.577,46.034l-1.469,518.255c-0.048,16.892 -12.05,23.732 -26.751,15.244l-182.8,-105.54c-14.701,-8.487 -26.625,-29.141 -26.577,-46.033l1.469,-518.256c0.048,-16.892 12.051,-23.732 26.751,-15.245l182.8,105.541zm19.15,560.849l1.469,-518.255c0.037,-13.137 -9.206,-29.148 -20.639,-35.748l-22.745,-13.132c-3.015,-1.74 -5.459,-0.334 -5.469,3.116l-0.016,5.599c-0.022,7.829 -5.563,10.987 -12.377,7.053l-101.723,-58.73c-6.814,-3.934 -12.319,-13.47 -12.297,-21.299l0.016,-5.598c0.01,-3.45 -2.431,-7.677 -5.433,-9.411l-22.756,-13.138c-11.433,-6.601 -20.725,-1.292 -20.762,11.845l-1.469,518.255c-0.037,13.137 9.194,29.127 20.627,35.727l182.8,105.54c11.433,6.601 20.737,1.312 20.774,-11.824"/>
       </g>
       <g id="svg_158">
        <path id="svg_159" d="m649.31375,194.03982c18.017,10.402 32.573,35.615 32.515,56.318l-1.469,518.256c-0.059,20.703 -14.71,29.053 -32.727,18.651l-182.8,-105.54c-18.017,-10.402 -32.574,-35.616 -32.515,-56.318l1.469,-518.256c0.059,-20.703 14.711,-29.052 32.728,-18.65l182.799,105.539zm25.088,571.134l1.469,-518.256c0.048,-16.892 -11.876,-37.545 -26.577,-46.033l-182.8,-105.54c-14.701,-8.487 -26.703,-1.648 -26.751,15.244l-1.469,518.256c-0.048,16.892 11.876,37.546 26.576,46.034l182.801,105.54c14.702,8.488 26.704,1.647 26.751,-15.245" fill="#1C1C1C"/>
       </g>
       <path id="svg_160" d="m692.47875,244.16882l-0.001,0.001c-0.002,-0.486 -0.007,-1.078 -0.019,-1.473c-0.016,-0.524 -0.04,-1.05 -0.074,-1.578c-0.033,-0.527 -0.075,-1.056 -0.126,-1.587c-0.051,-0.531 -0.11,-1.064 -0.178,-1.598c-0.069,-0.544 -0.147,-1.091 -0.233,-1.638c-0.087,-0.548 -0.182,-1.098 -0.285,-1.649c-0.107,-0.566 -0.222,-1.134 -0.346,-1.702c-0.124,-0.569 -0.257,-1.138 -0.398,-1.708c-0.143,-0.576 -0.295,-1.154 -0.455,-1.731c-0.159,-0.575 -0.327,-1.149 -0.503,-1.723c-0.172,-0.562 -0.353,-1.125 -0.541,-1.686c-0.186,-0.555 -0.379,-1.109 -0.579,-1.662c-0.193,-0.533 -0.393,-1.066 -0.6,-1.597c-0.206,-0.529 -0.418,-1.057 -0.637,-1.584c-0.216,-0.519 -0.438,-1.038 -0.666,-1.555c-0.232,-0.526 -0.472,-1.051 -0.717,-1.574c-0.27,-0.577 -0.548,-1.151 -0.833,-1.722c-0.328,-0.656 -0.665,-1.309 -1.011,-1.957c-0.516,-0.966 -1.053,-1.922 -1.608,-2.866c-0.77,-1.309 -1.577,-2.595 -2.418,-3.854c-0.668,-0.999 -1.357,-1.981 -2.066,-2.943c-0.475,-0.643 -0.958,-1.278 -1.45,-1.903c-0.413,-0.525 -0.833,-1.043 -1.258,-1.554c-0.415,-0.498 -0.835,-0.99 -1.261,-1.475c-0.418,-0.476 -0.841,-0.945 -1.269,-1.406c-0.44,-0.475 -0.885,-0.941 -1.334,-1.399c-0.454,-0.462 -0.912,-0.915 -1.376,-1.36c-0.473,-0.454 -0.951,-0.898 -1.433,-1.333c-0.479,-0.431 -0.962,-0.853 -1.45,-1.265c-0.48,-0.405 -0.964,-0.8 -1.451,-1.185c-0.474,-0.374 -0.952,-0.738 -1.432,-1.092c-0.47,-0.346 -0.943,-0.682 -1.419,-1.009c-0.459,-0.315 -0.921,-0.62 -1.386,-0.916c-0.458,-0.291 -0.918,-0.573 -1.381,-0.846c-0.107,-0.063 -0.214,-0.125 -0.32,-0.187l-182.801,-105.542c-0.347,-0.2 -0.693,-0.393 -1.038,-0.58c-0.448,-0.242 -0.893,-0.473 -1.336,-0.693c-0.29,-0.143 -0.576,-0.273 -0.863,-0.406c-0.068,-0.031 -0.135,-0.065 -0.202,-0.095c-0.085,-0.039 -0.171,-0.083 -0.256,-0.121c-0.438,-0.196 -0.873,-0.381 -1.306,-0.553c-0.442,-0.177 -0.881,-0.342 -1.317,-0.496c-0.075,-0.026 -0.148,-0.047 -0.223,-0.073c-0.066,-0.023 -0.132,-0.043 -0.198,-0.065c-0.296,-0.099 -0.592,-0.201 -0.885,-0.29c-0.453,-0.137 -0.903,-0.261 -1.348,-0.372c-0.215,-0.054 -0.427,-0.094 -0.64,-0.142c-0.093,-0.021 -0.187,-0.042 -0.281,-0.062c-0.138,-0.029 -0.279,-0.066 -0.416,-0.093c-0.481,-0.094 -0.957,-0.172 -1.428,-0.235l-0.06,0.035l0,0l0.061,-0.035c-0.29,-0.039 -0.574,-0.06 -0.86,-0.088c-0.1,-0.009 -0.201,-0.022 -0.301,-0.031c-0.096,-0.008 -0.195,-0.023 -0.291,-0.03c-0.518,-0.035 -1.029,-0.052 -1.533,-0.05c-0.223,0.001 -0.437,0.023 -0.658,0.031c-0.17,0.006 -0.339,0.013 -0.507,0.024c-0.174,0.011 -0.354,0.009 -0.527,0.025c-0.64,0.059 -1.268,0.15 -1.88,0.273c-0.012,0.002 -0.022,0.007 -0.034,0.009c-0.136,0.028 -0.261,0.078 -0.396,0.109c-0.629,0.143 -1.254,0.297 -1.85,0.509l-0.083,0.048c-0.89,0.322 -1.749,0.703 -2.557,1.173l-10.65,6.189c1.375,-0.799 2.883,-1.362 4.485,-1.729c0.137,-0.031 0.264,-0.082 0.402,-0.11c0.788,-0.16 1.606,-0.254 2.441,-0.307c0.168,-0.011 0.337,-0.017 0.506,-0.024c0.809,-0.031 1.635,-0.021 2.482,0.049c0.098,0.008 0.197,0.021 0.295,0.03c0.884,0.085 1.787,0.221 2.709,0.417c0.092,0.019 0.184,0.04 0.276,0.061c0.943,0.211 1.904,0.478 2.881,0.806c0.063,0.021 0.126,0.04 0.19,0.062c1.018,0.349 2.054,0.764 3.104,1.244c0.068,0.031 0.136,0.065 0.204,0.096c1.065,0.494 2.144,1.048 3.236,1.679l182.802,105.54c0.107,0.062 0.214,0.124 0.321,0.187c0.463,0.273 0.923,0.555 1.381,0.846c0.465,0.296 0.927,0.601 1.386,0.916c0.476,0.326 0.949,0.662 1.419,1.008c0.481,0.354 0.958,0.718 1.432,1.092c0.488,0.385 0.972,0.78 1.451,1.185c0.488,0.411 0.971,0.833 1.45,1.265c0.482,0.435 0.96,0.879 1.433,1.333c0.463,0.445 0.922,0.898 1.375,1.36c0.45,0.458 0.895,0.924 1.335,1.398c0.428,0.461 0.851,0.93 1.269,1.406l0,0c0.426,0.484 0.846,0.976 1.26,1.475c0.425,0.511 0.844,1.03 1.258,1.555c0.492,0.625 0.975,1.259 1.45,1.903c0.709,0.962 1.398,1.944 2.066,2.943c0.841,1.259 1.649,2.545 2.419,3.854c0.555,0.945 1.092,1.901 1.608,2.867c0.347,0.648 0.683,1.301 1.011,1.957c0.285,0.571 0.563,1.145 0.833,1.722c0.245,0.523 0.484,1.048 0.717,1.575c0.228,0.517 0.451,1.035 0.666,1.554c0.219,0.527 0.431,1.055 0.637,1.584c0.207,0.531 0.407,1.064 0.6,1.597c0.2,0.553 0.394,1.108 0.58,1.662c0.188,0.562 0.368,1.124 0.54,1.687c0.176,0.574 0.344,1.149 0.503,1.723c0.16,0.577 0.312,1.154 0.454,1.73c0.141,0.57 0.274,1.14 0.398,1.709c0.124,0.568 0.239,1.135 0.345,1.702c0.104,0.551 0.198,1.101 0.285,1.649c0.086,0.548 0.164,1.094 0.233,1.639c0.068,0.534 0.127,1.067 0.178,1.598c0.051,0.531 0.093,1.06 0.126,1.587c0.033,0.528 0.058,1.054 0.074,1.578c0.012,0.399 0.018,1.099 0.02,1.614l-1.467,517.381l-0.002,0.001c-0.003,0.534 -0.015,1.884 -0.037,2.401c-0.022,0.521 -0.054,1.035 -0.095,1.54c-0.044,0.533 -0.098,1.056 -0.163,1.571c-0.067,0.53 -0.144,1.05 -0.233,1.559c-0.095,0.544 -0.201,1.076 -0.32,1.596c-0.13,0.57 -0.275,1.125 -0.434,1.666c-0.173,0.59 -0.364,1.163 -0.57,1.718c-0.24,0.642 -0.5,1.261 -0.782,1.854c-0.374,0.789 -0.785,1.533 -1.231,2.232c-1.509,2.368 -3.418,4.222 -5.65,5.519l10.65,-6.189c2.232,-1.297 4.141,-3.151 5.65,-5.519c0.446,-0.699 0.857,-1.443 1.231,-2.231c0.282,-0.594 0.543,-1.213 0.782,-1.855c0.206,-0.555 0.396,-1.128 0.57,-1.718c0.159,-0.54 0.304,-1.096 0.434,-1.666c0.119,-0.519 0.226,-1.052 0.32,-1.596c0.088,-0.509 0.166,-1.029 0.233,-1.559c0.065,-0.514 0.119,-1.037 0.162,-1.571c0.041,-0.504 0.073,-1.017 0.095,-1.539c0.018,-0.418 0.029,-1.126 0.034,-1.669l0.004,-0.002l1.468,-517.888l0.001,0c0,-0.038 -0.001,-0.101 -0.001,-0.143l0.003,-0.224z" fill="#292929"/>
      </g>
      <g id="svg_161">
       <path id="svg_162" d="m623.63075,551.76782c-6.404,10.945 -15.638,16.659 -27.703,17.141c-12.064,0.483 -25.549,-4.618 -40.455,-15.302c-14.906,-10.685 -29.007,-25.358 -42.304,-44.02c-13.298,-18.663 -24.197,-38.809 -32.699,-60.438c-8.501,-21.63 -13.369,-42.017 -14.602,-61.162c-1.233,-19.145 1.353,-34.19 7.756,-45.135c6.404,-10.945 15.638,-16.659 27.703,-17.142c12.064,-0.483 25.549,4.618 40.455,15.303c14.906,10.685 29.008,25.358 42.304,44.02c13.297,18.662 24.197,38.808 32.699,60.438c8.502,21.629 13.368,42.016 14.601,61.161s-1.351,34.191 -7.755,45.136zm-9.863,-106.212c-8.123,-20.677 -18.54,-39.932 -31.253,-57.767c-12.714,-17.835 -26.189,-31.855 -40.428,-42.062c-14.238,-10.207 -27.125,-15.083 -38.661,-14.63c-11.536,0.453 -20.361,5.914 -26.478,16.384c-6.116,10.471 -8.585,24.849 -7.408,43.137s5.828,37.77 13.949,58.445c8.123,20.677 18.54,39.932 31.253,57.767c12.713,17.835 26.189,31.855 40.427,42.062c14.238,10.206 27.125,15.083 38.662,14.63c11.536,-0.453 20.361,-5.915 26.478,-16.384c6.116,-10.47 8.585,-24.849 7.407,-43.137s-5.827,-37.769 -13.948,-58.445zm-90.903,61.374c-12.492,-16.041 -22.882,-34.05 -31.172,-54.029c-8.289,-19.978 -13.003,-38.825 -14.145,-56.542c-0.828,-12.858 0.485,-23.773 3.939,-32.745l41.378,143.316zm70.573,-45.898c-1.074,-3.495 -2.63,-7.881 -4.667,-13.157l-0.778,-2.192c-2.519,-6.167 -4.177,-10.49 -4.972,-12.968c-1.557,-4.386 -2.436,-8.151 -2.638,-11.294c-0.276,-4.286 0.648,-7.235 2.773,-8.846c2.125,-1.612 4.854,-1.222 8.192,1.17l1.001,0.718c-6.929,-12.054 -14.648,-23.175 -23.156,-33.361s-17.321,-18.549 -26.443,-25.087c-12.236,-8.771 -23.343,-13.189 -33.321,-13.255c-9.977,-0.065 -17.787,3.875 -23.43,11.824l4.672,3.349c3.115,2.232 7.222,5.04 12.32,8.421l6.646,4.356c1.095,0.511 1.961,1.61 2.599,3.294c0.64,1.685 0.777,3.01 0.416,3.978c-0.362,0.967 -1.1,1.051 -2.212,0.254l-7.954,-4.884l32.072,117.43l11.82,-48.764l-13.524,-46.898c-2.67,-1.914 -5.246,-4.033 -7.73,-6.359c-1.113,-0.797 -1.933,-1.998 -2.46,-3.603c-0.528,-1.605 -0.555,-2.852 -0.082,-3.738c0.474,-0.887 1.387,-0.71 2.74,0.533l6.701,5.212c5.136,3.954 9.206,7.008 12.208,9.16c3.004,2.153 6.944,4.841 11.82,8.063l6.646,4.355c1.316,0.671 2.294,1.849 2.933,3.533c0.639,1.685 0.777,3.01 0.416,3.978c-0.362,0.967 -1.1,1.052 -2.212,0.254l-7.954,-4.884l31.682,116.333l5.856,-27.69c1.116,-5.742 1.915,-9.803 2.398,-12.182c0.595,-3.935 0.783,-7.615 0.562,-11.044c-0.312,-4.858 -1.293,-10.194 -2.94,-16.009zm-59.201,59.363c6.839,7.355 13.596,13.425 20.271,18.21c8.009,5.74 15.796,9.688 23.362,11.84l-0.75,-1.764l-26.631,-92.271l-16.252,63.985zm74.92,-62.404c0.663,10.287 -0.418,19.87 -3.242,28.748l-16.502,65.031c10.164,-0.346 18.02,-5.208 23.57,-14.585c5.55,-9.377 7.792,-22.352 6.724,-38.925c-1.012,-15.716 -4.842,-32.362 -11.491,-49.938c0.406,3.017 0.72,6.24 0.941,9.669z" fill="#FFFFFF"/>
      </g>
     </g>
     <g id="svg_163">
      <polygon id="svg_164" points="468.90972900390625,188.02183532714844 468.498779296875,473.96983337402344 649.5997314453125,580.2778167724609 650.009765625,294.33082580566406 " fill="url(#SVGID_5_)"/>
      <g id="svg_165">
       <g id="svg_166">
        <g id="svg_167">
         <polygon id="svg_168" points="469.00177001953125,181.82981872558594 362.5747375488281,274.81382751464844 385.77374267578125,288.39781188964844 492.15472412109375,195.64683532714844 " fill="#FFFFFF"/>
         <path id="svg_169" d="m362.57475,274.81382l0,11.063c0,0 -0.811,12.031 11.156,16.524c13.303,4.995 12.043,-14.004 12.043,-14.004l-23.199,-13.583z" fill="#D7D7D7"/>
         <path id="svg_170" d="m492.15475,195.57682l-23.152,-13.817c0,0 0,-7.002 0,-7.072l23.152,13.817c0,0 -0.035,7.107 0,7.072z" fill="#D7D7D7"/>
        </g>
        <g id="svg_171">
         <polygon id="svg_172" points="492.2027587890625,195.6398162841797 385.7747497558594,288.6238250732422 408.9747619628906,302.2068328857422 515.354736328125,209.4568328857422 " fill="#FF006F"/>
         <path id="svg_173" d="m385.77475,288.62382l0,11.063c0,0 -0.811,12.031 11.156,16.524c13.303,4.995 12.043,-14.003 12.043,-14.003l-23.199,-13.584z" fill="#AA0046"/>
         <path id="svg_174" d="m515.35475,209.38682l-23.152,-13.817c0,0 0,-7.002 0,-7.072l23.153,13.817c-0.001,0 -0.036,7.107 -0.001,7.072z" fill="#AA0046"/>
        </g>
       </g>
       <g id="svg_175">
        <g id="svg_176">
         <polygon id="svg_177" points="515.3067626953125,209.38880920410156 408.8797607421875,302.37281799316406 432.0787353515625,315.95582580566406 538.4597778320312,223.20582580566406 " fill="#FFFFFF"/>
         <path id="svg_178" d="m408.87975,302.37282l0,11.063c0,0 -0.811,12.031 11.156,16.524c13.304,4.994 12.043,-14.004 12.043,-14.004l-23.199,-13.583z" fill="#D7D7D7"/>
         <path id="svg_179" d="m538.45975,223.13582l-23.153,-13.817c0,0 0,-7.002 0,-7.072l23.153,13.817c0,0 -0.035,7.107 0,7.072z" fill="#D7D7D7"/>
        </g>
        <g id="svg_180">
         <polygon id="svg_181" points="538.4317626953125,223.16783142089844 432.0047607421875,316.1518096923828 455.2037353515625,329.7348175048828 561.5847778320312,236.9848175048828 " fill="#FF006F"/>
         <path id="svg_182" d="m432.00475,316.15182l0,11.063c0,0 -0.811,12.031 11.156,16.524c13.304,4.995 12.043,-14.004 12.043,-14.004l-23.199,-13.583z" fill="#AA0046"/>
         <path id="svg_183" d="m561.58475,236.91482l-23.153,-13.817c0,0 0,-7.002 0,-7.072l23.153,13.817c0,0 -0.035,7.107 0,7.072z" fill="#AA0046"/>
        </g>
       </g>
       <g id="svg_184">
        <g id="svg_185">
         <polygon id="svg_186" points="561.5467529296875,237.00282287597656 455.1197509765625,329.98683166503906 478.3187255859375,343.56980895996094 584.6997680664062,250.81980895996094 " fill="#FFFFFF"/>
         <path id="svg_187" d="m455.11975,329.98682l0,11.063c0,0 -0.812,12.031 11.156,16.524c13.303,4.995 12.043,-14.004 12.043,-14.004l-23.199,-13.583z" fill="#D7D7D7"/>
         <path id="svg_188" d="m584.69975,250.74982l-23.153,-13.817c0,0 0,-7.002 0,-7.072l23.153,13.817c0,0 -0.035,7.107 0,7.072z" fill="#D7D7D7"/>
        </g>
        <g id="svg_189">
         <polygon id="svg_190" points="584.7317504882812,250.8428192138672 478.30474853515625,343.8268280029297 501.50372314453125,357.4098358154297 607.884765625,264.6598358154297 " fill="#FF006F"/>
         <path id="svg_191" d="m478.30475,343.82682l0,11.063c0,0 -0.811,12.031 11.156,16.524c13.303,4.995 12.043,-14.004 12.043,-14.004l-23.199,-13.583z" fill="#AA0046"/>
         <path id="svg_192" d="m607.88475,264.58982l-23.153,-13.817c0,0 0,-7.002 0,-7.072l23.153,13.817c0,0 -0.035,7.107 0,7.072z" fill="#AA0046"/>
        </g>
       </g>
       <g id="svg_193">
        <g id="svg_194">
         <polygon id="svg_195" points="607.9077758789062,264.5518341064453 501.48077392578125,357.5358123779297 524.6797485351562,371.1197967529297 631.0607299804688,278.3688201904297 " fill="#FFFFFF"/>
         <path id="svg_196" d="m501.48075,357.53582l0,11.063c0,0 -0.811,12.031 11.156,16.524c13.303,4.995 12.043,-14.003 12.043,-14.003l-23.199,-13.584z" fill="#D7D7D7"/>
         <path id="svg_197" d="m631.06075,278.29882l-23.153,-13.817c0,0 0,-7.002 0,-7.072l23.153,13.817c0,0 -0.035,7.107 0,7.072z" fill="#D7D7D7"/>
        </g>
        <g id="svg_198">
         <polygon id="svg_199" points="630.9717407226562,278.2708282470703 524.5447387695312,371.2548065185547 547.7437744140625,384.8378143310547 654.124755859375,292.0878143310547 " fill="#FF006F"/>
         <path id="svg_200" d="m524.54475,371.25482l0,11.063c0,0 -0.812,12.031 11.156,16.524c13.303,4.995 12.043,-14.003 12.043,-14.003l-23.199,-13.584z" fill="#AA0046"/>
         <path id="svg_201" d="m654.12475,292.01782l-23.153,-13.817c0,0 0,-7.002 0,-7.072l23.153,13.817c0,0 -0.035,7.107 0,7.072z" fill="#AA0046"/>
        </g>
       </g>
      </g>
     </g>
    </g>
   </g>
   <g id="svg_202">
    <g id="svg_203" opacity="0.43">
     <path id="svg_204" d="m762.24975,509.86082c6.558,3.786 11.854,12.96 11.833,20.495l-0.101,35.566c-0.021,7.536 -5.352,10.574 -11.91,6.787l-202.302,-116.798c-6.558,-3.786 -11.854,-12.959 -11.833,-20.495l0.101,-35.566c0.021,-7.536 5.352,-10.574 11.91,-6.787l202.302,116.798z" fill="#FFFFFF"/>
    </g>
    <g id="svg_205">
     <g id="svg_206">
      <path id="svg_207" d="m751.82275,527.32082c6.558,3.786 11.854,12.96 11.833,20.495l-0.101,35.566c-0.021,7.536 -5.352,10.574 -11.91,6.787l-202.301,-116.799c-6.558,-3.786 -11.855,-12.959 -11.833,-20.495l0.101,-35.566c0.021,-7.536 5.352,-10.574 11.91,-6.787l202.301,116.799z" fill="#FFFFFF"/>
     </g>
     <g id="svg_208">
      <g id="svg_209">
       <polygon id="svg_210" points="683.40673828125,523.5298309326172 683.36376953125,538.3668060302734 552.2737426757812,462.6818084716797 552.3157348632812,447.84483337402344 " fill="#C4A2FA"/>
      </g>
      <g id="svg_211">
       <polygon id="svg_212" points="603.290771484375,454.71580505371094 552.3797607421875,425.3227996826172 552.3377685546875,440.1388397216797 603.290771484375,469.5558319091797 " fill="#6914FC"/>
      </g>
      <g id="svg_213">
       <path id="svg_214" d="m702.39575,533.00482l0.08,-3.608l5.239,3.086l-0.36,16.371l-3.382,-1.991l0.281,-12.765l-1.858,-1.093z" fill="#FF3698"/>
       <path id="svg_215" d="m722.17575,553.92582l-0.08,3.608l-10.46,-6.159l3.4,-2.398c0.966,-0.699 2.159,-1.787 2.809,-2.572c0.529,-0.659 0.826,-1.504 0.845,-2.363c0.026,-1.178 -0.618,-2.502 -1.459,-2.996c-0.821,-0.484 -1.407,0.017 -1.433,1.195c-0.004,0.172 0.012,0.354 0.024,0.709l-3.715,-2.187c0.025,-1.153 0.263,-2.058 0.737,-2.873c0.864,-1.48 2.452,-1.64 4.446,-0.465c2.953,1.738 4.991,5.425 4.915,8.86c-0.042,1.915 -0.662,3.066 -2.045,3.868l-2.247,1.263l4.263,2.51z" fill="#FF3698"/>
       <path id="svg_216" d="m733.07175,549.35182c0.981,2.194 1.406,4.458 1.348,7.134c-0.06,2.7 -0.572,4.388 -1.624,5.409c-1.073,1.034 -2.48,1.101 -4.084,0.156c-1.623,-0.955 -2.992,-2.632 -3.992,-4.911s-1.407,-4.434 -1.345,-7.281c0.056,-2.528 0.61,-4.315 1.621,-5.261c1.112,-1.036 2.5,-1.09 4.103,-0.146s2.954,2.609 3.973,4.9zm-6.336,2.609c-0.067,3.02 0.768,5.6 2.058,6.359c1.271,0.748 2.196,-0.796 2.262,-3.766c0.065,-2.971 -0.769,-5.55 -2.04,-6.299c-1.271,-0.747 -2.216,0.786 -2.28,3.706z" fill="#FF3698"/>
       <path id="svg_217" d="m745.59875,571.42182c-1.026,-0.182 -1.635,-0.391 -2.437,-0.863c-2.894,-1.704 -5.521,-5.613 -6.405,-9.539l-2.308,-1.359l1.265,-1.691l0.704,0.414l0.014,-0.638l0.007,-0.319l-1.916,-1.128l1.265,-1.692l1.018,0.6c1.019,-3.129 3.692,-4.017 6.724,-2.232c0.782,0.461 1.638,1.163 2.432,1.979l-0.087,3.951c-0.694,-0.856 -1.51,-1.585 -2.272,-2.033c-1.408,-0.829 -2.64,-0.685 -3.258,0.418l4.771,2.81l-1.265,1.691l-4.067,-2.395c0.018,0.061 0.017,0.109 0.016,0.135l-0.001,0.049l-0.018,0.785l3.637,2.142l-1.265,1.691l-1.779,-1.048c0.657,1.631 1.776,3.01 2.988,3.724c0.763,0.449 1.55,0.688 2.322,0.696l-0.085,3.852z" fill="#FF3698"/>
      </g>
     </g>
    </g>
   </g>
   <g id="svg_218">
    <g id="svg_219">
     <g id="svg_220">
      <path id="svg_221" d="m747.04975,481.66382c-4.594,0 -9.477,-1.475 -14.513,-4.382c-16.85,-9.729 -30.514,-33.398 -30.458,-52.765c0.04,-14.294 7.516,-23.53 19.046,-23.53c4.594,0 9.477,1.474 14.512,4.381c16.85,9.729 30.514,33.398 30.458,52.765c-0.04,14.295 -7.516,23.531 -19.045,23.531zm-25.926,-74.857c-8.25,0 -13.195,6.627 -13.227,17.727c-0.049,17.507 12.309,38.909 27.549,47.708c4.081,2.356 8.093,3.602 11.603,3.602c8.25,0 13.194,-6.627 13.226,-17.727c0.049,-17.508 -12.309,-38.91 -27.549,-47.708c-4.081,-2.356 -8.093,-3.602 -11.602,-3.602z" fill="url(#SVGID_6_)"/>
     </g>
    </g>
    <g id="svg_222">
     <path id="svg_223" d="m781.71575,405.97482c1.452,0.838 2.748,3.514 1.7,4.676l-47.035,52.067c-0.412,0.457 -1.052,0.425 -1.688,0.058c-0.733,-0.423 -1.46,-1.293 -1.825,-2.372l-16.699,-49.229c-0.74,-2.185 0.509,-3.103 1.867,-2.319c0.487,0.281 0.987,0.78 1.415,1.519l11.662,20.211c0.401,0.694 0.923,1.227 1.446,1.529c0.522,0.301 1.044,0.372 1.442,0.139l46.296,-26.383c0.438,-0.25 0.937,-0.175 1.419,0.104z" fill="#FF006F"/>
    </g>
   </g>
   <g id="svg_224">
    <g id="svg_225">
     <g id="svg_226" opacity="0.43">
      <path id="svg_227" d="m762.24975,611.70682c6.558,3.786 11.854,12.96 11.833,20.495l-0.101,35.566c-0.021,7.536 -5.352,10.574 -11.91,6.787l-202.302,-116.798c-6.558,-3.786 -11.854,-12.959 -11.833,-20.495l0.101,-35.566c0.021,-7.536 5.352,-10.574 11.91,-6.787l202.302,116.798z" fill="#FFFFFF"/>
     </g>
     <g id="svg_228">
      <g id="svg_229">
       <path id="svg_230" d="m751.82275,629.16582c6.558,3.786 11.854,12.96 11.833,20.495l-0.101,35.566c-0.021,7.536 -5.352,10.574 -11.91,6.787l-202.301,-116.798c-6.558,-3.786 -11.855,-12.959 -11.833,-20.495l0.101,-35.566c0.021,-7.536 5.352,-10.574 11.91,-6.787l202.301,116.798z" fill="#FFFFFF"/>
      </g>
      <g id="svg_231">
       <g id="svg_232">
        <polygon id="svg_233" points="683.40673828125,625.3748016357422 683.36376953125,640.2118377685547 552.2737426757812,564.5268402099609 552.3157348632812,549.6898040771484 " fill="#C4A2FA"/>
       </g>
       <g id="svg_234">
        <polygon id="svg_235" points="603.290771484375,556.5608367919922 552.3797607421875,527.1678314208984 552.3377685546875,541.9838104248047 603.290771484375,571.4018402099609 " fill="#6914FC"/>
       </g>
       <g id="svg_236">
        <path id="svg_237" d="m710.44475,646.65382l-0.08,3.608l-10.46,-6.159l3.4,-2.399c0.966,-0.699 2.158,-1.787 2.809,-2.572c0.529,-0.658 0.826,-1.503 0.845,-2.361c0.026,-1.179 -0.619,-2.503 -1.459,-2.998c-0.822,-0.483 -1.407,0.018 -1.433,1.195c-0.004,0.172 0.011,0.355 0.023,0.71l-3.714,-2.188c0.025,-1.153 0.262,-2.058 0.736,-2.872c0.864,-1.48 2.452,-1.64 4.446,-0.466c2.953,1.739 4.991,5.425 4.915,8.861c-0.042,1.915 -0.661,3.066 -2.045,3.868l-2.247,1.263l4.264,2.51z" fill="#FF3698"/>
        <path id="svg_238" d="m716.57075,640.98682l-0.275,1.678c0.491,0.215 0.706,0.316 1.059,0.524c2.679,1.577 4.599,5.169 4.526,8.483c-0.041,1.841 -0.741,3.119 -1.879,3.518c-0.878,0.304 -2.218,-0.014 -3.723,-0.899c-1.623,-0.956 -2.942,-2.205 -4.229,-4.007l0.596,-3.677c1.203,2.05 2.304,3.296 3.517,4.01c1.231,0.725 2.194,0.222 2.225,-1.177c0.036,-1.62 -1.133,-3.452 -2.853,-4.465c-0.861,-0.507 -1.588,-0.736 -2.479,-0.788l1.328,-8.144l6.785,3.994l-0.08,3.608l-4.518,-2.658z" fill="#FF3698"/>
        <path id="svg_239" d="m733.07175,648.98682c0.981,2.194 1.406,4.458 1.348,7.134c-0.06,2.7 -0.572,4.388 -1.624,5.409c-1.073,1.034 -2.48,1.101 -4.084,0.156c-1.623,-0.955 -2.992,-2.632 -3.992,-4.911s-1.407,-4.434 -1.345,-7.281c0.056,-2.528 0.61,-4.315 1.621,-5.261c1.112,-1.036 2.5,-1.09 4.103,-0.146s2.954,2.609 3.973,4.9zm-6.336,2.609c-0.067,3.02 0.768,5.6 2.058,6.359c1.271,0.748 2.196,-0.796 2.262,-3.766c0.065,-2.971 -0.769,-5.55 -2.04,-6.299c-1.271,-0.747 -2.216,0.785 -2.28,3.706z" fill="#FF3698"/>
        <path id="svg_240" d="m745.59875,671.05682c-1.026,-0.182 -1.635,-0.391 -2.437,-0.863c-2.894,-1.704 -5.521,-5.613 -6.405,-9.539l-2.308,-1.359l1.265,-1.691l0.704,0.414l0.014,-0.638l0.007,-0.319l-1.916,-1.128l1.265,-1.692l1.018,0.6c1.019,-3.129 3.692,-4.017 6.724,-2.232c0.782,0.461 1.638,1.163 2.432,1.979l-0.087,3.951c-0.694,-0.856 -1.51,-1.585 -2.272,-2.033c-1.408,-0.829 -2.64,-0.685 -3.258,0.418l4.771,2.81l-1.265,1.691l-4.067,-2.395c0.018,0.061 0.017,0.109 0.016,0.135l-0.001,0.049l-0.018,0.785l3.637,2.142l-1.265,1.691l-1.779,-1.048c0.657,1.631 1.776,3.01 2.988,3.724c0.763,0.449 1.55,0.688 2.322,0.696l-0.085,3.852z" fill="#FF3698"/>
       </g>
      </g>
     </g>
    </g>
    <g id="svg_241">
     <g id="svg_242" opacity="0.5">
      <path id="svg_243" d="m779.15575,755.05482c2.263,2.823 3.65,6.389 3.642,9.396l-0.216,76.178c-0.013,4.632 -3.299,6.504 -7.349,4.166l-38.118,-22.008c-4.031,-2.327 -7.295,-7.982 -7.282,-12.613l0.216,-76.178c0.009,-3.006 1.412,-4.962 3.683,-5.167l19.085,-1.65c1.136,-0.092 2.402,0.265 3.664,0.994c1.262,0.729 2.521,1.829 3.642,3.224l19.033,23.658z" fill="url(#SVGID_7_)"/>
     </g>
     <g id="svg_244">
      <g id="svg_245">
       <g id="svg_246">
        <path id="svg_247" d="m755.87675,754.32682c2.263,2.823 3.65,6.389 3.642,9.396l-0.216,76.178c-0.013,4.632 -3.299,6.504 -7.349,4.166l-38.118,-22.008c-4.031,-2.327 -7.295,-7.982 -7.282,-12.613l0.216,-76.178c0.009,-3.006 1.412,-4.962 3.683,-5.167l19.085,-1.65c1.136,-0.092 2.401,0.265 3.664,0.994s2.521,1.829 3.642,3.224l19.033,23.658zm-22.72,-10.507c1.977,1.141 3.59,0.221 3.597,-2.05c0.006,-2.271 -1.597,-5.048 -3.573,-6.19c-1.996,-1.152 -3.59,-0.221 -3.597,2.05c-0.007,2.272 1.577,5.037 3.573,6.19" fill="#E4DA00"/>
       </g>
       <g id="svg_248">
        <path id="svg_249" d="m735.73975,681.40182c0.732,2.028 2.124,4.103 3.593,6.289c2.629,3.904 5.606,8.344 4.428,12.795c-0.668,2.603 -2.785,3.165 -4.65,3.694c-2.622,0.716 -4.216,1.335 -3.663,4.911c0.4,2.506 2.063,4.894 3.822,7.426c2.301,3.291 4.91,7.028 4.627,11.259c-0.243,3.629 -2.633,4.323 -4.75,4.93c-2.059,0.596 -3.846,1.125 -3.874,3.942l-2.151,-1.264c0.05,-4.03 2.537,-4.758 4.732,-5.387c2.001,-0.585 3.73,-1.08 3.892,-3.619c0.203,-2.939 -1.634,-5.56 -3.761,-8.617c-1.914,-2.755 -4.098,-5.89 -4.651,-9.399c-0.839,-5.458 1.997,-6.229 4.503,-6.924c1.729,-0.474 3.361,-0.915 3.851,-2.75c0.765,-2.971 -0.896,-5.67 -3.699,-9.831c-1.585,-2.343 -3.228,-4.786 -4.152,-7.416l1.903,-0.039z" fill="#CCCCCC"/>
       </g>
      </g>
      <g id="svg_250">
       <g id="svg_251">
        <polygon id="svg_252" points="739.5327758789062,775.6067962646484 742.0237426757812,777.0458221435547 726.542724609375,794.0807952880859 724.0517578125,792.6428070068359 " fill="#FFFFFF"/>
       </g>
       <g id="svg_253">
        <path id="svg_254" d="m740.17575,788.00582c3.12,1.802 5.24,5.893 5.228,10.117c-0.012,4.197 -2.148,5.831 -5.269,4.029c-3.12,-1.801 -5.217,-5.879 -5.205,-10.076c0.013,-4.224 2.126,-5.872 5.246,-4.07zm-0.034,12.034c1.935,1.117 3.174,-0.061 3.183,-3.118c0.009,-3.085 -1.219,-5.687 -3.155,-6.804c-1.959,-1.131 -3.174,0.033 -3.183,3.146c-0.008,3.112 1.196,5.645 3.155,6.776" fill="#FFFFFF"/>
       </g>
       <g id="svg_255">
        <path id="svg_256" d="m731.14375,777.64082c-0.012,4.252 -2.124,5.845 -5.244,4.043c-3.144,-1.815 -5.265,-5.879 -5.253,-10.104c0.012,-4.225 2.149,-5.858 5.293,-4.043c3.12,1.801 5.217,5.851 5.204,10.104zm-8.393,-4.846c-0.009,3.057 1.22,5.66 3.155,6.777c1.959,1.131 3.15,-0.019 3.158,-3.132s-1.171,-5.659 -3.13,-6.79c-1.935,-1.118 -3.174,0.06 -3.183,3.145" fill="#FFFFFF"/>
       </g>
      </g>
     </g>
    </g>
   </g>
   <g id="svg_257">
    <g id="svg_258" opacity="0.53">
     <path id="svg_259" d="m618.28075,643.38782c11.361,6.559 20.544,22.452 20.508,35.507c-0.037,13.068 -9.281,18.322 -20.642,11.763l-132.512,-76.506c-11.361,-6.559 -20.545,-22.452 -20.508,-35.521c0.037,-13.054 9.281,-18.308 20.641,-11.749l132.513,76.506z" fill="#3EB2FA"/>
    </g>
    <g id="svg_260">
     <g id="svg_261">
      <path id="svg_262" d="m612.94575,658.42182c11.36,6.559 20.545,22.452 20.508,35.506c-0.037,13.069 -9.281,18.322 -20.642,11.763l-132.512,-76.506c-11.361,-6.559 -20.545,-22.452 -20.508,-35.521c0.037,-13.054 9.281,-18.308 20.642,-11.749l132.512,76.507z" fill="#FF006F"/>
     </g>
     <g id="svg_263">
      <path id="svg_264" d="m501.12975,616.98582c-0.776,-1.675 -1.72,-2.828 -2.893,-3.519c-2.034,-1.197 -3.542,-0.171 -3.6,2.455c-0.031,1.399 0.316,2.723 1.081,3.993c0.649,1.079 1.461,1.954 2.322,2.462c1.114,0.656 2.064,0.668 2.97,0.008l-0.11,5.032c-1.618,-0.257 -2.11,-0.422 -3.048,-0.974c-1.937,-1.141 -3.867,-3.372 -5.158,-5.922c-1.102,-2.165 -1.645,-4.474 -1.597,-6.658c0.106,-4.836 3.241,-6.869 7.093,-4.602c1.017,0.6 1.833,1.304 3.052,2.643l-0.112,5.082z" fill="#FFFFFF"/>
      <path id="svg_265" d="m515.47675,622.07682c1.177,2.309 1.795,4.811 1.745,7.069c-0.057,2.602 -0.99,4.515 -2.591,5.237c-1.34,0.604 -2.958,0.347 -4.875,-0.781c-4.106,-2.418 -7.073,-7.994 -6.961,-13.1c0.054,-2.454 1.007,-4.33 2.588,-5.064c1.26,-0.601 2.998,-0.324 4.816,0.747c2.171,1.278 3.93,3.233 5.278,5.892zm-9.144,0.608c-0.058,2.602 1.52,5.619 3.573,6.828c2.033,1.196 3.721,0.103 3.777,-2.45c0.056,-2.529 -1.542,-5.558 -3.575,-6.755c-2.013,-1.185 -3.721,-0.102 -3.775,2.377z" fill="#FFFFFF"/>
      <path id="svg_266" d="m521.17675,623.14482l3.343,1.969l2.448,10.293l2.988,-7.092l3.383,1.992l1.595,17.522l-3.382,-1.991l-0.751,-9.99l-3.355,7.572l-1.349,-0.795l-2.803,-11.198l-1.322,8.77l-3.364,-1.98l2.569,-15.072z" fill="#FFFFFF"/>
      <path id="svg_267" d="m540.46775,651.08782l-3.383,-1.992l0.36,-16.371l5.377,3.166c1.525,0.897 2.417,1.795 3.235,3.297c0.819,1.501 1.22,3.08 1.182,4.798c-0.036,1.62 -0.438,2.801 -1.143,3.354c-0.746,0.605 -1.832,0.463 -3.396,-0.458l-2.111,-1.243l-0.121,5.449zm1.31,-8.205c1.291,0.76 1.892,0.467 1.922,-0.932c0.03,-1.375 -0.561,-2.419 -1.812,-3.155l-1.134,-0.668l-0.09,4.099l1.114,0.656z" fill="#FFFFFF"/>
      <path id="svg_268" d="m559.76575,662.45082l-4.223,-2.486l-3.088,-8.184l-0.138,6.284l-3.383,-1.992l0.36,-16.371l5.259,3.096c1.467,0.864 2.435,1.882 3.175,3.337c0.683,1.347 1.064,2.914 1.035,4.265c-0.032,1.448 -0.511,2.558 -1.272,2.93c-0.46,0.227 -0.896,0.219 -1.684,0.004l3.959,9.117zm-6.625,-13.051c0.646,0.38 1.138,0.521 1.458,0.41c0.378,-0.101 0.667,-0.626 0.681,-1.215s-0.247,-1.413 -0.61,-1.976c-0.307,-0.454 -0.792,-0.914 -1.438,-1.294l-0.625,-0.368l-0.09,4.074l0.624,0.369z" fill="#FFFFFF"/>
      <path id="svg_269" d="m565.12775,662.72382l-0.961,2.317l-3.578,-2.106l5.366,-13.425l3.695,2.176l4.547,19.262l-3.618,-2.131l-0.778,-3.342l-4.673,-2.751zm2.553,-7.075l-1.542,4.388l2.815,1.657l-1.273,-6.045z" fill="#FFFFFF"/>
      <path id="svg_270" d="m586.53375,678.21082l-4.223,-2.486l-3.088,-8.184l-0.138,6.284l-3.383,-1.992l0.36,-16.372l5.259,3.098c1.467,0.863 2.435,1.881 3.175,3.336c0.683,1.348 1.064,2.914 1.035,4.265c-0.032,1.448 -0.511,2.558 -1.272,2.931c-0.46,0.226 -0.896,0.218 -1.684,0.003l3.959,9.117zm-6.625,-13.05c0.646,0.381 1.138,0.521 1.458,0.411c0.378,-0.101 0.667,-0.627 0.681,-1.216s-0.247,-1.413 -0.61,-1.976c-0.307,-0.454 -0.792,-0.913 -1.438,-1.294l-0.625,-0.368l-0.09,4.074l0.624,0.369z" fill="#FFFFFF"/>
     </g>
    </g>
   </g>
   <g id="svg_271">
    <g id="svg_272">
     <g id="svg_273">
      <g id="svg_274">
       <g id="svg_275">
        <defs transform="translate(-99.15625,-178.2301788330078) ">
         <polygon points="316.425,1002.505 394.139,956.856 638.338,1099.106          560.624,1144.755        " id="SVGID_103_"/>
        </defs>
        <use x="-99.15625" y="-178.23018" id="svg_276" fill="url(#SVGID_8_)" xlink:href="#SVGID_103_"/>
        <clipPath transform="translate(-99.15625,-178.2301788330078) " id="SVGID_9_">
         <use id="svg_277" xlink:href="#SVGID_103_"/>
        </clipPath>
       </g>
      </g>
     </g>
     <g id="svg_278">
      <g id="svg_279">
       <path id="svg_280" d="m325.74875,838.84582l2.901,1.719c3.918,2.322 8.83,2.148 12.575,-0.444l1.292,-0.895c2.836,-1.963 4.468,-5.242 4.324,-8.688l0,0l21.678,-5.766c0,0 11.069,-3.229 14.529,1.384c3.459,4.612 -5.765,22.37 -30.211,25.829c0,0 -4.137,0.577 -11.3,8.763c-4.843,5.535 -18.219,3.459 -18.911,-4.382c-0.448,-5.076 -0.316,-11.699 -0.167,-15.738c0.062,-1.651 1.868,-2.625 3.29,-1.782z" fill="#010414"/>
       <path id="svg_281" d="m323.18875,819.85082l0.743,13.628c0.216,3.957 2.49,7.512 5.993,9.366l0.773,0.409c3.665,1.94 8.099,1.716 11.549,-0.584l0,0c3.296,-2.197 5.2,-5.961 5.017,-9.918l-0.797,-17.266l-23.278,4.365z" fill="#FFB587"/>
      </g>
      <g id="svg_282">
       <path id="svg_283" d="m357.13675,847.49482l0.743,13.627c0.216,3.958 2.49,7.512 5.993,9.366l0.773,0.409c3.665,1.94 8.099,1.716 11.549,-0.584l0,0c3.296,-2.197 5.2,-5.961 5.017,-9.918l-0.797,-17.266l-23.278,4.366z" fill="#FFB587"/>
       <path id="svg_284" d="m359.38975,864.47482l3.051,1.808c4.12,2.441 9.285,2.259 13.222,-0.467l1.359,-0.941c2.982,-2.064 4.697,-5.512 4.546,-9.135l0,0l22.794,-6.062c0,0 11.639,-3.395 15.277,1.455s-6.062,23.521 -31.766,27.159c0,0 -4.35,0.607 -11.882,9.215c-5.092,5.82 -19.157,3.637 -19.884,-4.607c-0.471,-5.338 -0.332,-12.301 -0.175,-16.548c0.063,-1.739 1.962,-2.764 3.458,-1.877z" fill="#010414"/>
      </g>
      <path id="svg_285" d="m314.33775,621.00982l10.724,82.664c0.583,4.492 0.196,9.053 -1.18,13.369c-2.416,7.58 -4.701,16.231 -4.518,23.337l2.125,82.263c0.04,1.552 1.018,2.908 2.473,3.449c5.086,1.891 17.033,7.088 25.492,-2.706c0.73,-0.845 1.096,-1.947 1.142,-3.063c0.492,-12.128 3.791,-85.866 12.785,-125.84c9.821,-43.648 14.549,-74.565 5.456,-95.298l-54.499,21.825z" fill="#001747"/>
      <path id="svg_286" d="m348.77175,633.61982c-0.488,15.351 -0.31,32.25 0.97,50.438c1.451,20.621 4.074,39.444 7.207,56.201c-1.244,3.652 -2.468,8.137 -3.26,13.337c-0.689,4.524 -0.979,9.11 -0.86,13.703l2.125,82.263c0.04,1.552 1.018,2.908 2.473,3.449c5.086,1.891 17.031,7.087 25.489,-2.702c0.732,-0.847 1.099,-1.951 1.144,-3.07c0.492,-12.14 3.792,-85.866 12.785,-125.836c9.821,-43.648 14.549,-74.565 5.456,-95.298l-53.529,7.515z" fill="#003B9A"/>
      <g id="svg_287">
       <path id="svg_288" d="m406.31875,617.17982c0,0 -4.138,-50.34 -1.311,-60.412c2.286,-8.144 2.64,-16.708 1.035,-25.013l-4.349,-24.472c-5.82,-21.097 -22.877,-29.674 -22.877,-29.674c-13.864,-6.854 -29.722,-21.127 -46.057,-14.487c-27.462,11.163 -17.818,53.092 -7.736,72.959c5.162,10.172 8.043,23.416 4.469,34.249c-3.439,10.421 -11.661,18.334 -15.218,28.783c-3.142,9.231 -3.904,19.279 -2.081,28.864c1.594,8.383 8.978,12.276 16.203,15.52l45.815,18.842c2.609,1.073 5.537,1.54 8.545,1.486c5.201,-0.095 9.794,-3.324 11.649,-8.184c1.691,-4.43 3.235,-9.909 4.019,-16.332c2.361,-0.533 0.509,-0.115 2.87,-0.648c1.385,2.303 3.057,5.922 4.246,11.069c0.982,-2.419 1.557,-5.023 1.62,-7.704l0.127,-5.477c0.151,-6.47 -0.173,-12.945 -0.969,-19.369z" fill="#E3E5E9"/>
      </g>
      <path id="svg_289" d="m375.26275,479.31682c-6.068,0.528 -17.874,0.154 -23.158,-9.619c0,0 -0.697,-36.264 -0.697,-36.281c-0.142,-7.364 3.554,-14.624 9.614,-18.821c4.452,-3.084 10.247,-3.873 15.532,-4.076c4.197,-0.161 11.752,-1.067 14.834,2.435c1.549,1.76 3.274,8.568 3.274,10.912c0,5.733 2.001,11.968 2.001,17.701c0,2.804 -1.652,12.624 -1.635,15.066c0.013,1.889 -0.348,3.822 -1.341,5.428c-0.809,1.308 -2.049,2.323 -3.456,2.931c-1.593,0.688 -3.103,0.282 -4.685,0.686c-7.19,1.835 -6.524,9.517 -6.524,9.517c0,2.146 -1.622,3.934 -3.759,4.121z" fill="#FFB587"/>
      <g id="svg_290">
       <path id="svg_291" d="m405.00775,556.76782l0,0c2.286,-8.144 2.64,-16.708 1.035,-25.013l-4.349,-24.472c-1.522,-5.515 -3.817,-10.155 -6.369,-14.029c-4.271,2.895 -8.355,6.053 -12.099,9.586c4.352,5.541 7.172,13.022 7.434,23.964c1.038,43.312 5.336,117.501 -14.871,136.079c2.109,0.649 4.372,0.963 6.696,0.946c5.361,-0.038 10.112,-3.397 12.006,-8.413c1.658,-4.392 3.164,-9.798 3.934,-16.116c2.356,-0.533 0.507,-0.115 2.863,-0.648c1.386,2.303 3.061,5.925 4.252,11.079c0.982,-2.419 1.557,-5.023 1.62,-7.704l0.127,-5.477c0.15,-6.472 -0.173,-12.946 -0.97,-19.37c0.002,0 -4.136,-50.34 -1.309,-60.412z" fill="#B3B3B7"/>
      </g>
      <path id="svg_292" d="m435.94575,544.44482l68.74,-39.888c0.367,-0.203 0.748,-0.382 1.139,-0.536l18.892,-7.433c1.452,-0.571 3.08,0.233 3.508,1.733l0,0c0.372,1.303 -0.301,2.676 -1.559,3.179l-10.382,4.153c-1.077,0.431 -1.634,1.61 -1.31,2.725c1.04,3.581 2.541,11.151 -2.097,14.424c-3.176,2.242 -6.352,4.196 -8.69,5.566c-2.328,1.364 -4.911,2.212 -7.592,2.517l-6.249,0.71c-3.794,0.431 -7.351,2.063 -10.152,4.658l-29.879,28.56l-14.369,-20.368z" fill="#FFB587"/>
      <path id="svg_293" d="m382.29575,479.88182c0,0 19.642,2.91 28.007,16.004c7.403,11.587 27.644,46.922 27.644,46.922l3.455,-1.455c0,0 11.094,12.913 10.912,22.915l-18.005,9.457c0,0 -7.275,6.183 -20.369,-14.549c-13.094,-20.733 -30.554,-51.286 -30.554,-51.286s-14.912,-20.006 -1.09,-28.008z" fill="#E3E5E9"/>
      <path id="svg_294" d="m438.79575,539.77682c0,0 11.882,12.852 13.822,26.189l12.367,-8.73c0,0 -0.97,-18.914 -14.549,-24.492l-11.64,7.033z" fill="#FAFBFF"/>
      <path id="svg_295" d="m393.87475,418.77482c0,0 -0.485,11.154 -15.519,24.734c-7.297,6.591 -10.691,19.769 -3.745,40.923c1.854,5.648 3.371,11.187 4.443,16.616c5.335,27.033 -15.012,53.06 -42.557,52.351c-1.604,-0.041 -3.177,-0.174 -4.699,-0.415c-2.38,-0.377 -5.102,-1.341 -8.006,-2.711c-21.083,-9.944 -29.271,-35.447 -19.289,-56.512c4.587,-9.679 18.709,-21.293 16.627,-31.459c-6.183,-30.19 6.6,-73.221 40.011,-70.928c37.098,2.545 32.734,27.401 32.734,27.401z" fill="#FF006F"/>
     </g>
    </g>
    <g id="svg_296">
     <path id="svg_297" d="m381.39375,403.58182c-2.332,-3.48 -7.273,-3.946 -10.332,-1.083c-2.248,2.104 -5.141,4.777 -8.832,8.153c-25.461,23.279 0.727,48.377 0.727,48.377c-2.546,-12.003 9.821,-24.734 9.821,-24.734c14.946,-14.068 12.719,-24.588 8.616,-30.713z" fill="#FF3D99"/>
    </g>
   </g>
  </g>
  <text font-style="normal" font-weight="normal" xml:space="preserve" text-anchor="start" font-family="'Montserrat ExtraBold'" font-size="24" id="svg_467" y="820.76982" x="516.00874" stroke-width="0" stroke="#000" fill="#000000">HelpDesk</text>
  <text font-style="normal" font-weight="normal" xml:space="preserve" text-anchor="start" font-family="'Montserrat ExtraBold'" font-size="24" id="svg_468" y="176.76982" x="0.00874" stroke-width="0" stroke="#000" fill="#000000">Multi-Vendor</text>
  <text font-style="normal" font-weight="normal" xml:space="preserve" text-anchor="start" font-family="'Montserrat ExtraBold'" font-size="24" id="svg_469" y="885.76982" x="61.00874" stroke-width="0" stroke="#000" fill="#000000">CRM + Newsletters</text>
  <text font-style="normal" font-weight="normal" xml:space="preserve" text-anchor="start" font-family="'Montserrat ExtraBold'" font-size="24" id="svg_470" y="116.76982" x="628.00874" stroke-width="0" stroke="#000" fill="#000000">Multi-Warehouse</text>
 </g>
</svg>