<svg width="320" height="224" viewBox="0 0 320 224" fill="none" xmlns="http://www.w3.org/2000/svg">
<path fill-rule="evenodd" clip-rule="evenodd" d="M220.15 38.0722C223.498 44.3703 223.1 60.3457 218.774 61.4714C217.049 61.9203 213.374 60.8207 209.633 58.5449L211.981 75.3119H198.117L202.889 52.8567C200.228 49.703 198.427 45.8382 198.728 41.5075C199.595 29.0291 216.803 31.7742 220.15 38.0722Z" fill="#EAC7A8"/>
<path fill-rule="evenodd" clip-rule="evenodd" d="M196.962 24C201.748 24 205.627 27.9159 205.627 32.7464L205.626 32.6221C212.59 30.1863 221.628 33.0323 220.419 38.7409C219.642 42.4066 215.436 44.2375 211.299 46.197C210.69 45.1294 209.529 44.4082 208.196 44.4082C206.232 44.4082 204.639 45.9745 204.639 47.9067C204.639 48.6027 204.846 49.2511 205.202 49.7961C203.81 51.0183 202.828 52.4895 202.591 54.3975C200.347 54.3975 196.721 47.7483 197.918 41.4398C197.604 41.4749 197.286 41.4927 196.962 41.4927C192.177 41.4927 188.298 37.5768 188.298 32.7464C188.298 27.9159 192.177 24 196.962 24Z" fill="#191847"/>
<path fill-rule="evenodd" clip-rule="evenodd" d="M173.061 151.332H217.687L223.534 223.635H157.105L173.061 151.332Z" fill="#C5CFD6"/>
<path fill-rule="evenodd" clip-rule="evenodd" d="M173.061 151.332H186.786L195.001 223.635H157.105L173.061 151.332Z" fill="black" fill-opacity="0.1"/>
<path fill-rule="evenodd" clip-rule="evenodd" d="M292.366 217.586C280.977 203.548 273.271 193.14 269.248 186.364C262.36 174.761 256.722 164.436 254.943 160.492C250.7 151.088 264.71 146.684 267.881 151.071C272.68 157.71 282.929 178.602 298.628 213.748L292.366 217.586Z" fill="#EAC7A8"/>
<path fill-rule="evenodd" clip-rule="evenodd" d="M269.028 213.504L247.833 159.648C243.3 149.831 265.192 143.377 268.523 147.946C276.087 158.319 294.064 199.238 296.317 202.329L269.028 213.504Z" fill="#2F3676"/>
<path fill-rule="evenodd" clip-rule="evenodd" d="M212.578 202.704C216.706 196.625 231.724 176.172 239.904 167.709C242.254 165.277 244.548 162.943 246.717 160.768C253.165 154.303 266.004 165.17 259.568 171.058C243.541 185.723 220.155 205.52 218.201 207.285C215.463 209.759 209.983 206.524 212.578 202.704Z" fill="#EAC7A8"/>
<path fill-rule="evenodd" clip-rule="evenodd" d="M213.542 199.958C212.12 201.14 211.195 202.105 210.767 202.854C210.246 203.764 209.636 205.181 208.938 207.103C209.984 207.713 219.389 213.194 237.153 223.547C239.285 221.527 239.618 219.959 238.15 218.844C236.681 217.728 235.47 216.787 234.515 216.021L224.776 202.476C224.589 202.216 224.228 202.158 223.969 202.347C223.965 202.35 223.961 202.354 223.956 202.357L221.933 203.93C220.076 203.766 218.691 203.418 217.777 202.885C217.034 202.452 216.181 201.551 215.219 200.183L215.219 200.183C214.849 199.658 214.128 199.534 213.608 199.907C213.585 199.923 213.564 199.94 213.542 199.958Z" fill="#E4E4E4"/>
<path fill-rule="evenodd" clip-rule="evenodd" d="M287.466 215.488C286.82 217.229 286.497 218.532 286.497 219.397C286.497 220.448 286.671 221.983 287.018 224C288.226 224 299.086 224 319.598 224C320.444 221.175 319.956 219.649 318.132 219.424C316.307 219.199 314.792 218.995 313.586 218.814L298.443 211.999C298.151 211.868 297.81 212 297.68 212.295C297.678 212.3 297.676 212.305 297.673 212.31L296.7 214.693C295.011 215.488 293.639 215.886 292.584 215.886C291.726 215.886 290.541 215.536 289.03 214.837L289.03 214.837C288.45 214.569 287.764 214.826 287.498 215.411C287.487 215.436 287.476 215.462 287.466 215.488Z" fill="#E4E4E4"/>
<path fill-rule="evenodd" clip-rule="evenodd" d="M240.206 162.338C222.589 159.441 210.79 157.46 204.807 156.395C187.753 153.36 182.78 144.096 185.72 123.885H217.142C221.3 125.097 238.674 132.593 269.264 146.374C274.768 149.132 273.743 157.264 272.737 159.943C272.696 160.052 263.418 176.101 244.902 208.089L219.198 191.56L240.254 164.286C240.81 163.155 240.794 162.506 240.206 162.338Z" fill="#5C63AB"/>
<path fill-rule="evenodd" clip-rule="evenodd" d="M171.724 116.723L183.795 116.771C176.342 141.059 172.318 153.946 171.724 155.432C170.387 158.775 173.216 163.868 174.425 166.605C170.486 168.384 170.905 161.794 165.936 164.128C161.4 166.258 157.949 170.118 152.708 166.854C152.064 166.452 151.358 164.941 153.064 163.761C157.314 160.819 163.439 155.67 164.266 153.975C165.395 151.664 167.881 139.247 171.724 116.723ZM242.47 116.251L260.895 129.91C265.893 131.271 270.068 132.964 273.421 134.99C274.213 135.719 275.17 137.194 271.886 136.939C268.601 136.684 265.134 136.565 264.681 137.696C264.228 138.827 266.216 140.179 265.299 141.705C264.689 142.723 261.803 140.172 256.643 134.053L238.396 126.415L242.47 116.251Z" fill="#EAC7A8"/>
<path fill-rule="evenodd" clip-rule="evenodd" d="M206.028 65.5931L211.023 64.7283C229.556 80.8889 237.168 111.935 259.885 128.382L254.417 135.223C215.008 130.298 205.24 92.4286 206.028 65.5931Z" fill="#E87613"/>
<path fill-rule="evenodd" clip-rule="evenodd" d="M184.255 128.957C204.283 128.957 219.015 128.957 228.451 128.957C230.471 128.957 230.09 126.013 229.798 124.528C226.429 107.385 213.276 88.9051 213.276 64.5023L200.528 62.4844C189.984 79.603 186.337 100.679 184.255 128.957Z" fill="#DDE3E9"/>
<path fill-rule="evenodd" clip-rule="evenodd" d="M199.567 62.4841C199.997 62.4841 200.392 62.5113 200.75 62.5657L204.743 62.7959C216.194 101.968 219.352 128.103 214.217 141.201L179.431 141.202C177.37 146.053 175.398 150.134 173.515 153.446H164.036C163.144 124.331 170.002 99.6188 184.609 79.3106C182.757 78.7739 181.291 77.5208 180.21 75.5518C175.55 67.0649 177.233 62.3922 182.213 60.8563C187.192 59.3203 191.633 62.4841 199.567 62.4841Z" fill="#FF9B21"/>
<path fill-rule="evenodd" clip-rule="evenodd" d="M192.341 141.201L179.432 141.202C181.836 135.543 184.361 128.837 187.007 121.084C188.101 130.323 189.879 137.029 192.341 141.201Z" fill="black" fill-opacity="0.1"/>
<path fill-rule="evenodd" clip-rule="evenodd" d="M94.7548 13.6983C97.9021 19.5851 97.5281 34.5173 93.4605 35.5694C91.8384 35.989 88.3828 34.9612 84.8658 32.8341L87.0731 48.5061H74.0381L78.5252 27.5173C76.0227 24.5696 74.329 20.9571 74.6121 16.9093C75.4276 5.24575 91.6075 7.81158 94.7548 13.6983Z" fill="#915B3C"/>
<path fill-rule="evenodd" clip-rule="evenodd" d="M68.9292 13.0267C68.5081 12.6081 68.2785 12.0105 68.0798 11.443C67.8735 10.8536 67.673 10.2581 67.5361 9.64455C67.2624 8.4187 67.2598 7.00894 68.1313 6.05707C68.8302 5.29375 69.8789 4.95139 70.8467 4.87698C71.4916 4.82736 72.1538 4.91798 72.772 5.12189C73.3853 5.32418 73.9139 5.72734 74.5084 5.97756C74.5311 4.65653 74.7567 3.27427 75.4245 2.1463C76.0672 1.06101 77.0919 0.451991 78.2588 0.290868C79.4565 0.125515 80.6392 0.406762 81.7115 0.988615C81.9799 1.13434 82.2459 1.287 82.5004 1.45978C82.7135 1.60447 82.935 1.77872 83.1851 1.83756C83.4638 1.90323 83.602 1.74168 83.7832 1.5376C83.9956 1.29833 84.2349 1.08759 84.4882 0.900759C85.6079 0.0748084 87.0772 -0.264791 88.3745 0.230291C88.9722 0.45839 89.5534 0.845768 89.959 1.37957C90.3204 1.8554 90.5783 2.6102 91.0772 2.94172C91.2889 3.08245 91.4384 2.896 91.6312 2.7582C91.9207 2.55114 92.1969 2.32266 92.4899 2.12125C92.9016 1.83826 93.3472 1.6266 93.8245 1.5158C94.5231 1.35359 95.4887 1.39161 95.6884 2.30986C95.7634 2.65478 95.7059 3.02366 95.6817 3.37118C95.6484 3.84837 95.6137 4.32539 95.5724 4.80187C95.5411 5.16365 95.5015 5.51307 95.4334 5.86834C95.3971 6.05772 95.2836 6.41077 95.3645 6.60041C95.4656 6.83746 95.9324 6.70269 96.1318 6.71094C96.5257 6.72726 96.9212 6.79657 97.2854 6.96545C97.5676 7.09636 97.8644 7.28889 97.9835 7.61352C98.0567 7.81293 98.0374 8.01776 98.0028 8.22292C97.9613 8.46913 98.0088 8.59972 98.0398 8.84816C98.5688 8.58676 100.402 8.00599 100.633 8.95733C100.709 9.2741 100.535 9.63203 100.401 9.89917C100.167 10.3677 99.8603 10.796 99.5466 11.2044C98.8924 12.0565 98.1114 12.7914 97.271 13.4198C98.2556 13.8591 98.5126 15.1546 97.6602 15.9265C97.2838 16.2673 96.7777 16.3432 96.303 16.3214C96.1292 16.3134 95.8787 16.2464 95.742 16.2767C95.6684 16.293 95.5896 16.3556 95.4877 16.3626C94.8176 16.4087 94.0613 16.2467 93.4063 16.0975C92.2392 15.8316 91.1343 15.2768 90.2321 14.4318C90.0006 14.215 89.8094 14.0902 89.4979 14.0934C89.2249 14.0962 88.957 14.1713 88.6843 14.1782C87.9626 14.1967 87.3119 13.8427 86.6418 13.6071C86.6008 14.5155 86.3429 15.516 85.9726 16.3333C85.6706 16.9997 85.04 17.0966 84.4203 17.1551C82.4387 17.3422 80.4501 17.1334 78.4659 17.1361C80.3866 17.5718 82.3714 17.7513 84.275 18.264C85.1355 18.4957 84.4784 19.0776 84.1105 19.4811C83.5046 20.1454 83.0542 20.9685 82.7417 21.8357C81.8022 20.6067 80.1414 19.7969 78.6701 20.1745C77.0444 20.5916 75.8997 22.7977 76.9392 24.3837C77.5428 25.3044 78.6327 25.6598 79.5395 26.0554C78.8321 26.7935 78.661 27.8836 78.2351 28.8018C78.0251 29.2547 77.7303 29.7667 77.2607 29.9245C77.0869 29.9829 76.8831 29.9879 76.7461 30.13C76.5763 30.306 76.5358 30.5028 76.319 30.654C75.4536 31.2577 74.1019 31.2112 73.3349 30.4234C72.6413 29.7109 72.8218 28.5834 73.4011 27.861C72.4789 27.4753 70.799 26.9793 71.1654 25.5377C69.1673 25.4045 64.3159 22.1527 66.9977 19.7765C65.526 18.9418 64.1738 16.9019 65.1192 15.1037C65.8471 13.7191 67.5401 13.1002 68.9292 13.0267Z" fill="#191847"/>
<path fill-rule="evenodd" clip-rule="evenodd" d="M70.7793 93.7422L111.137 161.447L141.394 218.686H147.911L97.2153 93.7422L70.7793 93.7422Z" fill="#784931"/>
<path fill-rule="evenodd" clip-rule="evenodd" d="M137.41 216.044C136.803 217.672 136.499 218.89 136.499 219.698C136.499 220.68 136.662 222.115 136.989 224C138.125 224 148.336 224 167.622 224C168.418 221.359 167.958 219.934 166.243 219.723C164.528 219.512 163.103 219.322 161.969 219.153L147.731 212.783C147.457 212.661 147.136 212.784 147.014 213.059C147.012 213.064 147.01 213.069 147.008 213.073L146.092 215.301C144.505 216.044 143.214 216.416 142.222 216.416C141.415 216.416 140.301 216.089 138.88 215.436L138.88 215.436C138.335 215.185 137.69 215.425 137.44 215.972C137.429 215.996 137.42 216.02 137.41 216.044Z" fill="#E4E4E4"/>
<path fill-rule="evenodd" clip-rule="evenodd" d="M132.992 209.521L145.56 205.706C140.053 189.187 133.304 171.01 125.313 151.172C117.322 131.335 108.739 112.192 99.5659 93.7422H64.0693C74.2682 117.08 85.0804 138.286 96.5059 157.359C107.931 176.432 120.093 193.819 132.992 209.521Z" fill="#DB2721"/>
<path fill-rule="evenodd" clip-rule="evenodd" d="M68.1275 93.7422C64.3185 117.534 56.9719 147.931 56.2786 148.869C55.8164 149.495 39.1766 155.09 6.35938 165.655L7.76714 171.422C46.9017 165.756 67.5222 161.36 69.6288 158.234C72.7887 153.545 88.5664 116.504 94.6774 93.7422H68.1275Z" fill="#915B3C"/>
<path fill-rule="evenodd" clip-rule="evenodd" d="M17.8955 160.67L20.3751 169.958C49.6454 172.534 67.58 170.672 74.1788 164.374C80.7777 158.075 88.2984 134.531 96.741 93.7422H62.8929C57.5438 127.143 54.5534 144.544 53.9215 145.946C53.2896 147.348 41.2809 152.256 17.8955 160.67Z" fill="#FF4133"/>
<path fill-rule="evenodd" clip-rule="evenodd" d="M7.96629 163.252C6.26337 162.934 5.01539 162.846 4.22234 162.986C3.25781 163.157 1.87864 163.567 0.0848484 164.217C0.282146 165.34 2.05529 175.431 5.40428 194.49C8.13426 194.818 9.45366 194.116 9.36249 192.384C9.27132 190.653 9.2105 189.212 9.18004 188.061L12.9586 172.885C13.0313 172.593 12.8543 172.297 12.5633 172.224C12.5583 172.223 12.5533 172.222 12.5483 172.221L10.2031 171.703C9.1978 170.263 8.60898 169.053 8.4366 168.072C8.29655 167.275 8.42392 166.117 8.81871 164.599L8.81871 164.599C8.97021 164.017 8.62246 163.421 8.04197 163.269C8.01696 163.263 7.99171 163.257 7.96629 163.252Z" fill="#E4E4E4"/>
<path fill-rule="evenodd" clip-rule="evenodd" d="M49.221 87.213L60.5709 87.2578C53.5628 109.96 49.7795 122.005 49.221 123.394C47.9642 126.519 50.6237 131.279 51.761 133.837C48.0568 135.5 48.4515 129.341 43.7788 131.522C39.5138 133.513 36.2694 137.121 31.3418 134.07C30.736 133.695 30.0721 132.283 31.6761 131.179C35.6723 128.429 41.4311 123.617 42.2092 122.033C43.2703 119.873 45.6075 108.266 49.221 87.213ZM117.512 85.0889L132.898 100.15C137.374 102.066 141.042 104.182 143.902 106.498C144.545 107.276 145.245 108.767 142.219 108.1C139.194 107.433 135.982 106.867 135.413 107.855C134.844 108.842 136.52 110.355 135.469 111.647C134.769 112.508 132.412 109.768 128.401 103.427L112.402 93.9616L117.512 85.0889Z" fill="#915B3C"/>
<path fill-rule="evenodd" clip-rule="evenodd" d="M81.4754 39.4218L86.1719 38.6135C94.2578 58.8826 108.375 77.2997 128.523 93.8647L113.298 112.426C93.1521 88.8395 80.7342 64.5048 81.4754 39.4218Z" fill="#191847"/>
<path fill-rule="evenodd" clip-rule="evenodd" d="M61.0029 98.6473H102.824C93.1348 75.0074 88.2904 54.9257 88.2904 38.402L75.6751 36.5159C65.7607 52.5166 62.9608 72.2167 61.0029 98.6473Z" fill="#DDE3E9"/>
<path fill-rule="evenodd" clip-rule="evenodd" d="M76.2361 36.5159C77.2215 36.5499 78.7223 36.6113 80.7386 36.6999L83.7869 45.4415C84.1094 56.0995 85.9924 77.5783 89.436 109.878L62.0216 109.878C62.0934 112.108 62.2119 114.36 62.3771 116.633H41.9932C45.0422 82.1138 56.1771 55.4082 75.3977 36.5159L75.4075 36.5251L75.4127 36.5159H76.2361Z" fill="#2F3676"/>
<path fill-rule="evenodd" clip-rule="evenodd" d="M69.6926 110.093L62.0286 110.092C61.6931 100.088 62.2943 90.5021 63.8323 81.335C64.6127 95.2404 66.5661 104.826 69.6926 110.093Z" fill="black" fill-opacity="0.1"/>
<path fill-rule="evenodd" clip-rule="evenodd" d="M68.123 93.1971L81.641 86.8909V93.1971H68.123Z" fill="white" fill-opacity="0.2"/>
</svg>
