<svg xmlns="http://www.w3.org/2000/svg" width="20" height="20" viewBox="0 0 5800 5800"><path d="m700 1500h4400c220 0 400 180 400 400v2000c0 220-180 400-400 400h-4400c-220 0-400-180-400-400v-2000c0-220 180-400 400-400zm3100 200v2400h1300c110 0 200-90 200-200v-2000c0-110-90-200-200-200zm-200 2400v-2400h-2900c-110 0-200 90-200 200v2000c0 110 90 200 200 200zm1300-1400c0-121-79-200-200-200h-200c-121 0-200 79-200 200v400c0 121 79 200 200 200h200c121 0 200-79 200-200zm200 0v400c0 231-169 400-400 400h-200c-231 0-400-169-400-400v-400c0-231 169-400 400-400h200c231 0 400 169 400 400zm-2000 0c0-121-79-200-200-200h-200c-121 0-200 79-200 200v400c0 121 79 200 200 200h200c121 0 200-79 200-200zm200 0v400c0 231-169 400-400 400h-200c-231 0-400-169-400-400v-400c0-231 169-400 400-400h200c231 0 400 169 400 400zm-1600 0c0-121-79-200-200-200h-200c-121 0-200 79-200 200v400c0 121 79 200 200 200h200c121 0 200-79 200-200zm200 0v400c0 231-169 400-400 400h-200c-231 0-400-169-400-400v-400c0-231 169-400 400-400h200c231 0 400 169 400 400z"></path></svg>