<svg xmlns="http://www.w3.org/2000/svg" width="20" height="20" viewBox="0 0 5800 5800"><path d="m3300 2500v227l197-113 99 172-197 114 197 114-99 172-197-113v227h-200v-227l-197 113-99-172 197-114-197-114 99-172 197 113v-227zm-1000 0v227l197-113 99 172-197 114 197 114-99 172-197-113v227h-200v-227l-197 113-99-172 197-114-197-114 99-172 197 113v-227zm-1000 0v227l197-113 99 172-197 114 197 114-99 172-197-113v227h-200v-227l-197 113-99-172 197-114-197-114 99-172 197 113v-227zm4200-600v2000h-5200v-2000zm-200 200h-4800v1600h4800z"></path></svg>