<svg xmlns="http://www.w3.org/2000/svg" width="20" height="20" viewBox="0 0 20 20"><path d="M17.9 8.9c-1 0-2.9-0.4-3.5-1-0.4-0.4-0.4-0.8-0.5-1.2-0.1-0.4-0.1-0.6-0.3-0.7-0.9-0.4-2.2-0.6-3.6-0.6-1.3 0-2.6 0.2-3.5 0.6-0.2 0.1-0.2 0.2-0.3 0.7-0.1 0.4-0.2 0.8-0.5 1.2-0.3 0.3-1 0.6-1.5 0.7-0.7 0.2-1.4 0.3-2 0.3-0.7 0-1.1-0.1-1.4-0.4-0.4-0.4-0.6-0.9-0.7-1.5 0-0.5 0.1-1.1 0.7-1.8 1-1 2.4-1.8 4.1-2.4 1.6-0.5 3.3-0.8 5.1-0.8 1.8 0 3.6 0.3 5.2 0.8 1.7 0.6 3.1 1.4 4.1 2.4 1.1 1.1 0.8 2.4 0 3.2-0.3 0.3-0.7 0.4-1.4 0.4zM10 4.5c1.5 0 2.9 0.2 3.9 0.7 0.7 0.3 0.8 0.9 0.9 1.4 0.1 0.3 0.1 0.5 0.2 0.7 0.3 0.3 1.7 0.7 2.8 0.7 0.5 0 0.6-0.1 0.7-0.1 0.3-0.3 0.7-1.1 0-1.8-1.8-1.8-5-2.9-8.6-2.9-3.5 0-6.7 1.1-8.5 2.8-0.3 0.3-0.4 0.6-0.4 1 0 0.3 0.2 0.6 0.4 0.8 0 0 0.2 0.1 0.7 0.1 1.1 0 2.5-0.4 2.8-0.7 0.1-0.1 0.2-0.4 0.2-0.7 0.1-0.5 0.2-1.1 0.9-1.4 1-0.4 2.4-0.7 3.9-0.7z"></path><path d="M16.5 18h-13c-0.7 0-1.3-0.3-1.7-0.7s-0.7-1.1-0.6-1.8c0-0.1 0.1-1.9 1.3-3.7 0.7-1.1 1.6-2 2.7-2.6 1.4-0.8 3-1.2 4.9-1.2s3.6 0.4 4.9 1.2c1.1 0.6 2 1.5 2.7 2.6 1.2 1.8 1.3 3.7 1.3 3.7 0 0.7-0.2 1.3-0.6 1.8s-1.1 0.7-1.7 0.7zM10 9c-3.1 0-5.4 1.1-6.7 3.2-1 1.6-1.1 3.3-1.1 3.3 0 0.4 0.1 0.8 0.4 1s0.6 0.4 1 0.4h13c0.4 0 0.8-0.2 1-0.4s0.4-0.6 0.4-1c0 0-0.1-1.7-1.1-3.3-1.4-2.1-3.6-3.2-6.7-3.2z"></path><path d="M10 16c-1.7 0-3-1.3-3-3s1.3-3 3-3 3 1.3 3 3-1.3 3-3 3zM10 11c-1.1 0-2 0.9-2 2s0.9 2 2 2c1.1 0 2-0.9 2-2s-0.9-2-2-2z"></path></svg>