<svg xmlns="http://www.w3.org/2000/svg" width="20" height="20" viewBox="0 0 20 20"><path d="M18.5 20h-17c-0.8 0-1.5-0.7-1.5-1.5v-17c0-0.8 0.7-1.5 1.5-1.5h17c0.8 0 1.5 0.7 1.5 1.5v17c0 0.8-0.7 1.5-1.5 1.5zM1.5 1c-0.3 0-0.5 0.2-0.5 0.5v17c0 0.3 0.2 0.5 0.5 0.5h17c0.3 0 0.5-0.2 0.5-0.5v-17c0-0.3-0.2-0.5-0.5-0.5h-17z"></path><path d="M13 9c-1.1 0-2-0.9-2-2s0.9-2 2-2 2 0.9 2 2-0.9 2-2 2zM13 6c-0.6 0-1 0.4-1 1s0.4 1 1 1 1-0.4 1-1-0.4-1-1-1z"></path><path d="M17.5 2h-15c-0.3 0-0.5 0.2-0.5 0.5v12c0 0.3 0.2 0.5 0.5 0.5h15c0.3 0 0.5-0.2 0.5-0.5v-12c0-0.3-0.2-0.5-0.5-0.5zM3 11.7l3.2-3.6c0.1-0.1 0.2-0.1 0.3-0.1s0.2 0 0.3 0.1l5.5 5.9h-9.3v-2.3zM17 14h-3.3l-6.2-6.6c-0.3-0.3-0.7-0.5-1-0.5s-0.8 0.2-1 0.5l-2.5 2.8v-7.2h14v11z"></path></svg>