<svg xmlns="http://www.w3.org/2000/svg" width="20" height="20" viewBox="0 0 20 20"><path d="M15.5 19c-0.1 0-0.2 0-0.2-0.1l-5.3-2.9-5.3 2.9c-0.2 0.1-0.4 0.1-0.5 0s-0.2-0.3-0.2-0.5l1-5.7-3.8-3.8c-0.1-0.1-0.2-0.3-0.1-0.5s0.2-0.3 0.4-0.3l5.7-1 2.4-4.8c0.1-0.2 0.3-0.3 0.4-0.3s0.4 0.1 0.4 0.3l2.4 4.8 5.7 1c0.2 0 0.3 0.2 0.4 0.3s0 0.4-0.1 0.5l-3.8 3.8 1 5.7c0 0.2 0 0.4-0.2 0.5-0.1 0.1-0.2 0.1-0.3 0.1zM10 15c0.1 0 0.2 0 0.2 0.1l4.6 2.5-0.8-5c0-0.2 0-0.3 0.1-0.4l3.3-3.3-5-0.8c-0.2 0-0.3-0.1-0.4-0.3l-2.1-4.1-2.1 4.1c-0.1 0.1-0.2 0.2-0.4 0.3l-5 0.8 3.3 3.3c0.1 0.1 0.2 0.3 0.1 0.4l-0.8 5 4.6-2.5c0.1 0 0.2-0.1 0.2-0.1z"></path></svg>