<svg xmlns="http://www.w3.org/2000/svg" width="20" height="20" viewBox="0 0 20 20"><path d="M17.5 7h-16c-0.8 0-1.5 0.7-1.5 1.5v3c0 0.8 0.7 1.5 1.5 1.5h16c0.8 0 1.5-0.7 1.5-1.5v-3c0-0.8-0.7-1.5-1.5-1.5zM18 11.5c0 0.3-0.2 0.5-0.5 0.5h-1.5v-1.5c0-0.3-0.2-0.5-0.5-0.5s-0.5 0.2-0.5 0.5v1.5h-2v-2.5c0-0.3-0.2-0.5-0.5-0.5s-0.5 0.2-0.5 0.5v2.5h-2v-1.5c0-0.3-0.2-0.5-0.5-0.5s-0.5 0.2-0.5 0.5v1.5h-2v-2.5c0-0.3-0.2-0.5-0.5-0.5s-0.5 0.2-0.5 0.5v2.5h-2v-1.5c0-0.3-0.2-0.5-0.5-0.5s-0.5 0.2-0.5 0.5v1.5h-1.5c-0.3 0-0.5-0.2-0.5-0.5v-3c0-0.3 0.2-0.5 0.5-0.5h16c0.3 0 0.5 0.2 0.5 0.5v3z"></path></svg>