<svg xmlns="http://www.w3.org/2000/svg" width="20" height="20" viewBox="0 0 20 20"><path d="M0.5 19c-0.2 0-0.4-0.1-0.5-0.4s0-0.4 0.2-0.6c1.7-1 2.4-2.5 2.6-3.2-1.8-1.4-2.9-3.4-2.9-5.4 0-1 0.3-2 0.8-3 0.5-0.9 1.2-1.7 2.1-2.4 1.8-1.4 4.2-2.2 6.7-2.2s4.9 0.8 6.7 2.2c0.9 0.7 1.6 1.5 2.1 2.4 0.5 0.9 0.8 1.9 0.8 3s-0.3 2-0.8 3c-0.5 0.9-1.2 1.7-2.1 2.4-1.8 1.4-4.2 2.2-6.7 2.2-1 0-2-0.1-3-0.4-0.4 0.3-1.2 0.8-2.2 1.3-1.5 0.7-2.8 1.1-3.8 1.1zM9.5 3c-4.7 0-8.5 2.9-8.5 6.5 0 1.8 1 3.6 2.8 4.8 0.2 0.1 0.3 0.3 0.2 0.5-0.1 0.4-0.5 1.6-1.6 2.8 1.3-0.5 2.7-1.2 3.7-2 0.1-0.1 0.3-0.1 0.4-0.1 0.9 0.3 1.9 0.4 3 0.4 4.7 0 8.5-2.9 8.5-6.5s-3.8-6.5-8.5-6.5z"></path><path d="M6.5 8c-0.2 0-0.3 0-0.5 0.1 0.6-0.6 1.5-1 2.5-1 0.3 0 0.5-0.2 0.5-0.5s-0.2-0.5-0.5-0.5c-2.5 0-4.5 2-4.5 4.5 0 1.4 1.1 2.5 2.5 2.5s2.5-1.1 2.5-2.5-1.1-2.5-2.5-2.5zM6.5 12c-0.8 0-1.5-0.7-1.5-1.5s0.7-1.5 1.5-1.5 1.5 0.7 1.5 1.5c0 0.8-0.7 1.5-1.5 1.5z"></path><path d="M12.5 8c-0.2 0-0.3 0-0.5 0.1 0.6-0.6 1.5-1 2.5-1 0.3 0 0.5-0.2 0.5-0.5s-0.2-0.5-0.5-0.5c-2.5 0-4.5 2-4.5 4.5 0 1.4 1.1 2.5 2.5 2.5s2.5-1.1 2.5-2.5-1.1-2.5-2.5-2.5zM12.5 12c-0.8 0-1.5-0.7-1.5-1.5s0.7-1.5 1.5-1.5 1.5 0.7 1.5 1.5c0 0.8-0.7 1.5-1.5 1.5z"></path></svg>