<svg xmlns="http://www.w3.org/2000/svg" width="20" height="20" viewBox="0 0 20 20"><path d="M17.5 20h-16c-0.8 0-1.5-0.7-1.5-1.5v-3c0-0.6 0.2-1.6 0.5-2.1l2.1-4.2c0.3-0.7 1.2-1.2 1.9-1.2h3c0.3 0 0.5 0.2 0.5 0.5s-0.2 0.5-0.5 0.5h-3c-0.4 0-0.8 0.3-1 0.6l-2.1 4.2c-0.2 0.4-0.4 1.2-0.4 1.7v3c0 0.3 0.2 0.5 0.5 0.5h16c0.3 0 0.5-0.2 0.5-0.5v-3c0-0.5-0.2-1.3-0.4-1.7l-2.1-4.2c-0.2-0.3-0.6-0.6-1-0.6h-3c-0.3 0-0.5-0.2-0.5-0.5s0.2-0.5 0.5-0.5h3c0.7 0 1.6 0.5 1.9 1.2l2.1 4.2c0.3 0.6 0.5 1.5 0.5 2.1v3c0 0.8-0.7 1.5-1.5 1.5z"></path><path d="M16.5 18h-1c-0.3 0-0.5-0.2-0.5-0.5s0.2-0.5 0.5-0.5h1c0.3 0 0.5 0.2 0.5 0.5s-0.2 0.5-0.5 0.5z"></path><path d="M16.5 16h-14c-0.3 0-0.5-0.2-0.5-0.5s0.2-0.5 0.5-0.5h14c0.3 0 0.5 0.2 0.5 0.5s-0.2 0.5-0.5 0.5z"></path><path d="M12.9 4.6l-3-3c-0.2-0.2-0.5-0.2-0.7 0l-3 3c-0.2 0.2-0.2 0.5 0 0.7s0.5 0.2 0.7 0l2.1-2.1v8.3c0 0.3 0.2 0.5 0.5 0.5s0.5-0.2 0.5-0.5v-8.3l2.1 2.1c0.1 0.1 0.2 0.1 0.4 0.1s0.3 0 0.4-0.1c0.2-0.2 0.2-0.5 0-0.7z"></path></svg>