<svg xmlns="http://www.w3.org/2000/svg" width="284" height="211" viewBox="0 0 284 211" fill="none">
<g opacity="0.5">
<path opacity="0.5" fill-rule="evenodd" clip-rule="evenodd" d="M33.8481 26.0015C33.2244 26.6242 33.4667 28.8373 33.4536 29.6563C33.4335 30.9313 33.5129 32.1949 33.6195 33.4653C33.6909 34.3159 34.0935 42.4333 35.2139 41.8099C35.8455 41.4586 35.4495 39.1104 35.4484 38.3677C35.4458 36.7165 35.3772 35.0693 35.2671 33.4217C35.1647 31.8922 35.1005 30.3805 35.1594 28.848C35.1737 28.4739 35.5237 24.3229 33.8481 26.0015Z" fill="#89C5CC"/>
<path opacity="0.5" fill-rule="evenodd" clip-rule="evenodd" d="M61.008 25.0013C55.6498 25.044 50.2938 25.3083 44.9382 25.4702C42.3611 25.5481 39.7857 25.6472 37.2113 25.79C36.3341 25.8387 34.4527 25.5579 33.7219 26.0252C32.0995 27.063 34.716 27.3056 35.4135 27.2802C46.0122 26.8959 56.6146 26.3897 67.2224 26.3658C72.4259 26.3542 77.6269 26.5024 82.831 26.4691C84.8203 26.4564 87.0231 25.5994 87.5255 27.9149C88.0925 30.5277 87.441 33.4369 87.2638 36.0624C87.1454 37.8151 87.1875 39.5314 87.2665 41.2826C87.3171 42.4045 87.1853 43.6687 87.3836 44.7696C87.5745 45.8297 88.3366 46.4655 89.0353 45.278C89.4526 44.5683 89.245 42.8162 89.2728 41.9941C89.3101 40.8869 89.275 39.7801 89.275 38.6727C89.2746 35.9698 89.6562 33.2775 89.6058 30.5751C89.5734 28.8326 89.4808 25.6735 87.2829 25.2548C84.8626 24.7936 81.8877 25.2573 79.4109 25.229C73.2739 25.159 67.1471 24.9533 61.008 25.0013Z" fill="#89C5CC"/>
<path opacity="0.5" fill-rule="evenodd" clip-rule="evenodd" d="M46.2448 41.9078C44.2244 41.9078 42.2038 41.9199 40.1835 41.9533C38.4509 41.982 35.7267 41.6208 34.114 42.2408C33.01 42.6652 32.7168 43.8977 34.114 44.226C35.6379 44.5842 37.9347 43.9986 39.5291 43.9705C47.5242 43.8293 55.5963 43.6454 63.5802 44.151C71.0613 44.6246 78.6866 45.0839 86.1788 44.584C86.8091 44.5419 90.0241 44.414 88.5571 43.2088C87.7012 42.5055 84.2324 42.9681 83.1201 42.9344C79.1969 42.8161 75.2698 42.7898 71.3479 42.6411C67.4772 42.4942 63.6236 42.059 59.7516 41.9513C55.2531 41.8261 50.7447 41.9078 46.2448 41.9078Z" fill="#89C5CC"/>
<path opacity="0.5" fill-rule="evenodd" clip-rule="evenodd" d="M44.2228 30.4159C47.3719 30.5534 50.4875 35.1204 47.3012 37.3276C44.3121 39.3986 38.71 37.1289 40.3722 33.113C40.1332 33.6936 40.6743 32.4822 40.6811 32.4741C40.9972 32.1017 41.5647 31.6895 41.9543 31.3959C42.4001 31.06 42.8644 30.6902 43.402 30.5218C43.7549 30.4113 43.6995 30.8271 44.2228 30.4159ZM42.6892 28.7687C41.2153 29.3442 40.5427 29.9934 39.5298 31.168C38.8289 31.981 37.9355 32.4087 37.9434 33.5072C37.9451 33.7504 38.2575 34.0176 38.3115 34.2518C38.386 34.5754 38.2997 34.9901 38.3588 35.334C38.9685 38.8824 43.2022 40.0787 46.3012 39.4087C49.0008 38.8252 51.0197 36.2338 50.3943 33.416C49.7648 30.5795 45.5584 27.6465 42.6892 28.7687Z" fill="#89C5CC"/>
<path opacity="0.5" fill-rule="evenodd" clip-rule="evenodd" d="M41.377 33.7223C41.377 34.9987 43.3933 34.9987 43.3933 33.7223C43.3933 32.4603 41.377 32.4061 41.377 33.7223Z" fill="#89C5CC"/>
<path opacity="0.5" fill-rule="evenodd" clip-rule="evenodd" d="M43.8994 33.4636C43.8994 34.4779 45.5016 34.4779 45.5016 33.4636C45.5016 32.4608 43.8994 32.4179 43.8994 33.4636Z" fill="#89C5CC"/>
<path opacity="0.5" fill-rule="evenodd" clip-rule="evenodd" d="M44.3952 35.5555C43.8821 35.7528 43.2313 35.3438 42.8101 35.6133C42.0642 36.0908 42.812 36.5229 43.2118 36.7148C45.0121 37.5786 45.3324 35.1966 44.3952 35.5555Z" fill="#89C5CC"/>
<path opacity="0.5" fill-rule="evenodd" clip-rule="evenodd" d="M71.889 32.7264C71.8354 32.7492 71.6443 32.8301 71.889 32.7264V32.7264ZM64.0493 31.5806C62.7019 31.8848 61.5642 33.1431 60.1003 32.9747C58.9784 32.8457 58.2189 31.7631 57.1114 31.6058C55.6946 31.4044 51.8388 34.6362 53.866 35.1908C55.0488 35.5144 55.7049 33.353 56.7498 33.2381C57.5764 33.1473 58.7005 34.1609 59.557 34.3052C61.155 34.5745 62.2523 33.6943 63.6551 33.1267C65.1794 32.5099 66.0467 33.0653 67.3723 33.7509C68.4187 34.292 69.4041 34.6443 70.6015 34.421C71.7252 34.2117 73.1368 33.0561 74.2678 33.1747C75.3757 33.2909 76.1664 34.4469 77.3059 34.5543C77.7757 34.5984 78.4751 34.7585 78.3961 34.0336C78.333 33.4531 77.6853 33.5515 77.2801 33.3405C76.2382 32.7979 75.2636 31.8368 74.0061 31.9188C73.0602 31.9806 72.199 32.6452 71.3273 32.9631C68.4724 34.0044 66.8675 30.9485 64.0493 31.5806Z" fill="#89C5CC"/>
<path opacity="0.5" fill-rule="evenodd" clip-rule="evenodd" d="M66.4342 49.967C60.9272 50.0176 55.4017 50.0994 49.9102 50.5408C48.6083 50.6454 35.3147 51.9006 35.3399 51.991C35.3865 52.1583 37.0963 52.4137 37.0857 52.4533C36.9704 52.1674 36.707 52.0491 36.2955 52.0985C48.9034 52.0985 61.4714 50.9696 74.0959 51.1727C77.268 51.2236 80.452 51.2023 83.6219 51.3023C84.4133 51.3273 86.3741 51.8945 86.9956 51.5372C88.6266 50.5993 85.6635 50.491 85.1727 50.4517C78.96 49.9547 72.6644 49.9049 66.4342 49.967Z" fill="#69A1AC"/>
<path opacity="0.5" fill-rule="evenodd" clip-rule="evenodd" d="M33.7084 52.6421C32.8851 53.4675 33.6432 56.4369 33.6756 57.5529C33.7225 59.1665 33.6839 60.7914 33.8254 62.4008C33.9871 64.2391 34.2378 66.1976 34.7201 67.9812C34.9858 68.9638 35.9182 70.5253 36.2877 68.7399C36.5515 67.4647 36.1509 65.7731 36.0115 64.474C35.8251 62.7362 35.78 61.0212 35.773 59.2749C35.7667 57.7533 35.7374 56.2254 35.6126 54.7085C35.5478 53.9209 35.1516 51.2064 33.7084 52.6421Z" fill="#69A1AC"/>
<path opacity="0.5" fill-rule="evenodd" clip-rule="evenodd" d="M54.4213 67.7645C50.5134 67.8316 46.5971 67.9237 42.6958 68.1677C41.0968 68.2679 39.499 68.417 37.9059 68.5861C37.5808 68.6204 33.9825 68.7665 35.5904 70.0945C36.3161 70.694 39.3013 69.8651 40.2873 69.7787C41.9456 69.6333 43.6035 69.5389 45.2666 69.4685C49.12 69.3049 52.9852 69.1604 56.8425 69.2273C63.887 69.3496 70.8862 69.4041 77.9327 69.247C78.9338 69.2248 86.777 69.4343 87.0434 68.3927C87.258 67.5533 84.4532 67.9384 83.9418 67.9536C82.0657 68.0097 80.1894 67.9966 78.3126 67.9871C70.3622 67.9463 62.3657 67.6301 54.4213 67.7645Z" fill="#69A1AC"/>
<path opacity="0.5" fill-rule="evenodd" clip-rule="evenodd" d="M85.7155 51.2492C85.8395 54.7287 86.4321 58.2041 86.6215 61.694C86.7081 63.2894 86.8101 64.8833 86.8881 66.4792C86.9133 66.994 86.7059 68.2344 87.3147 68.5305C88.1497 68.9367 88.2622 68.1183 88.4185 67.5647C88.87 65.9656 88.5646 63.8886 88.5236 62.2461C88.484 60.6556 88.4812 59.0622 88.364 57.4746C88.2438 55.8526 87.9172 54.2613 87.7657 52.645C87.7016 51.9614 87.9257 50.8239 87.2 50.3997C86.5728 50.033 85.6884 50.4951 85.7155 51.2492Z" fill="#69A1AC"/>
<path opacity="0.5" fill-rule="evenodd" clip-rule="evenodd" d="M47.3037 57.037C47.3187 57.0484 47.3334 57.06 47.3481 57.0716C47.3334 57.06 47.3185 57.0486 47.3037 57.037ZM43.9827 56.0061C45.2211 56.3599 46.2382 56.228 47.4212 57.1295C48.4019 57.877 49.4077 58.9706 49.733 60.1792C50.4845 62.9717 47.9368 64.502 45.5484 64.5321C43.102 64.5628 39.4809 63.9954 39.6063 60.8596C39.7024 58.4504 41.4616 56.0997 43.9827 56.0061ZM44.07 54.428C40.8587 54.5879 38.2683 58.1942 38.2961 61.2298C38.3296 64.9089 42.4984 65.8567 45.4597 65.8823C48.8019 65.9109 52.1347 63.6032 51.2391 59.8447C50.5215 56.8334 47.1581 54.2676 44.07 54.428Z" fill="#69A1AC"/>
<path opacity="0.5" fill-rule="evenodd" clip-rule="evenodd" d="M40.8398 59.3679C40.8398 60.3938 42.4608 60.3938 42.4608 59.3679C42.4608 58.3537 40.8398 58.3101 40.8398 59.3679Z" fill="#69A1AC"/>
<path opacity="0.5" fill-rule="evenodd" clip-rule="evenodd" d="M44.2402 58.9171C44.2402 59.9511 45.8741 59.9511 45.8741 58.9171C45.8741 57.8948 44.2402 57.8509 44.2402 58.9171Z" fill="#69A1AC"/>
<path opacity="0.5" fill-rule="evenodd" clip-rule="evenodd" d="M42.3651 61.2574C41.31 62.3107 45.0164 64.1573 45.8904 62.6919C46.6084 61.4884 45.0453 61.8874 44.4911 61.8224C43.889 61.7514 42.8566 60.7672 42.3651 61.2574Z" fill="#69A1AC"/>
<path opacity="0.5" fill-rule="evenodd" clip-rule="evenodd" d="M71.9984 58.9387C71.8967 58.9814 71.8967 58.9814 71.9984 58.9387V58.9387ZM58.0801 57.2239C57.0118 57.4242 53.5059 58.607 53.4586 59.8744C53.3721 62.1781 56.8056 59.8186 57.5512 59.5155C59.5766 58.6924 60.6408 60.3714 62.6754 60.46C64.4425 60.537 66.0673 59.0247 67.7318 59.2036C69.4759 59.3909 70.3148 61.2463 72.3282 60.2611C73.3934 59.7401 73.3665 58.9367 72.1708 58.861C71.4481 58.8152 70.9516 59.1139 70.1981 58.8029C69.0197 58.3169 68.5452 57.5255 67.135 57.6512C66.071 57.7461 65.1093 58.3458 64.0706 58.5779C61.6923 59.1093 60.3731 56.7944 58.0801 57.2239Z" fill="#69A1AC"/>
<path opacity="0.5" fill-rule="evenodd" clip-rule="evenodd" d="M80.2032 59.9391C80.1297 59.97 80.1297 59.97 80.2032 59.9391V59.9391ZM80.4727 58.9799C80.4845 58.9851 80.5651 59.0968 80.4727 58.9799V58.9799ZM79.2481 58.2477C79.2021 58.2831 79.2021 58.2831 79.2481 58.2477V58.2477ZM79.2748 58.2387C79.5123 58.3807 81.4215 59.6862 80.0348 59.9937C79.3308 60.1498 78.7483 58.7333 79.2748 58.2387ZM78.6427 56.7924C75.5843 58.1868 78.8753 63.1769 81.2755 61.1494C82.2855 60.2963 82.4184 58.5719 81.4359 57.683C80.8472 57.1504 79.4418 56.4273 78.6427 56.7924Z" fill="#69A1AC"/>
<path opacity="0.5" fill-rule="evenodd" clip-rule="evenodd" d="M49.9338 76.4563C46.1175 76.4574 42.2678 76.3772 38.4567 76.6035C37.8154 76.6415 35.3721 76.5195 35.0416 77.19C34.4371 78.4163 36.9511 77.8075 37.3163 77.7708C44.9046 77.0111 52.8312 77.4482 60.4445 77.6647C66.671 77.8417 72.8643 77.9516 79.0834 78.2725C80.7182 78.3569 82.3515 78.4501 83.9851 78.5486C84.5175 78.5808 85.8575 78.9337 85.9698 78.0832C86.0736 77.2962 84.4021 77.4739 83.9845 77.4519C80.6639 77.2771 77.3454 77.094 74.0257 76.9071C66.0352 76.4566 57.937 76.4548 49.9338 76.4563Z" fill="#89C5CC"/>
<path opacity="0.5" fill-rule="evenodd" clip-rule="evenodd" d="M34.9186 77.8209C34.2058 78.5294 34.5399 81.2351 34.5201 82.1295C34.4853 83.6936 34.4115 85.2564 34.3783 86.8201C34.3439 88.4545 34.3918 90.0963 34.4884 91.7283C34.5289 92.4135 35.0913 95.7251 35.9768 93.83C36.3724 92.9831 35.9672 90.6242 35.9733 89.6646C35.9841 87.9182 36.0782 86.1791 36.1651 84.435C36.2399 82.9358 36.2426 81.4351 36.3081 79.9355C36.329 79.4574 36.3855 76.3496 34.9186 77.8209Z" fill="#89C5CC"/>
<path opacity="0.5" fill-rule="evenodd" clip-rule="evenodd" d="M86.6119 91.7918C82.898 92.1724 79.1245 91.9925 75.3964 92.2737C72.1835 92.5159 68.9735 92.615 65.7522 92.6832C58.4579 92.8372 51.1513 92.9874 43.8782 93.5952C42.2207 93.7336 40.5651 93.8806 38.9031 93.9549C38.072 93.992 34.5842 93.6138 34.3244 94.4899C33.882 95.9822 37.6119 95.3916 38.4164 95.3683C40.1855 95.3172 41.9464 95.1893 43.7105 95.0549C51.1265 94.4899 58.5708 94.321 66.0026 94.0861C70.0445 93.9586 74.0583 93.6628 78.0912 93.3938C80.1013 93.2598 82.1169 93.2554 84.1268 93.1254C84.6528 93.0914 86.5143 93.1585 86.8926 92.7352C87.1525 92.4446 87.2183 91.7352 86.6119 91.7918Z" fill="#89C5CC"/>
<path opacity="0.5" fill-rule="evenodd" clip-rule="evenodd" d="M85.3525 78.0738C85.4799 81.6354 85.6811 85.1939 85.8013 88.7555C85.8376 89.8265 85.514 91.7461 86.1104 92.6906C87.0694 94.2093 87.8179 92.602 87.9935 91.6556C88.5478 88.6688 87.9519 85.3692 87.7971 82.364C87.7382 81.2174 88.0942 78.6656 87.5401 77.6394C87.0123 76.662 85.3052 76.7602 85.3525 78.0738Z" fill="#89C5CC"/>
<path opacity="0.5" fill-rule="evenodd" clip-rule="evenodd" d="M79.1174 83.1458C80.5403 83.5312 80.7481 86.6247 79.1426 86.8535C76.7529 87.1941 77.798 83.7835 79.1174 83.1458ZM78.7189 81.9156C78.2848 81.902 77.2829 81.7824 77.0154 82.1356C76.7916 82.4313 77.0178 83.055 76.9917 83.3365C76.8976 84.343 76.0793 84.9242 76.4451 86.1124C76.6935 86.9189 77.3584 87.6767 78.1688 87.9568C82.4453 89.4349 82.3932 81.1721 78.7189 81.9156Z" fill="#89C5CC"/>
<path opacity="0.5" fill-rule="evenodd" clip-rule="evenodd" d="M40.1101 82.4714C40.0994 82.485 40.0887 82.4986 40.0782 82.5122C40.0887 82.4986 40.0994 82.485 40.1101 82.4714ZM43.4688 80.6844C43.4521 80.5414 43.4353 80.3982 43.4186 80.255C45.7372 81.3495 47.5822 83.3854 46.8123 86.1181C46.2249 88.2029 44.1025 88.9424 42.1251 88.4277C39.9363 87.8578 38.8903 86.0536 39.4805 83.8381C39.7527 82.816 40.5889 81.4425 41.6697 81.1139C42.1728 80.961 43.2855 81.3508 43.4688 80.6844ZM42.113 79.8189C41.5265 79.8584 40.9556 80.1028 40.477 80.437C40.925 80.058 41.5222 79.8323 42.113 79.8189ZM42.1297 78.4723C40.6809 78.5166 39.7316 79.3937 38.8722 80.4471C38.6025 80.7777 37.6907 81.6542 37.8036 82.0998C37.8929 82.4519 38.1265 82.9669 38.6184 82.5743C36.042 87.7091 42.6977 92.0886 46.7608 88.518C50.5527 85.1857 46.7906 78.3161 42.1297 78.4723Z" fill="#89C5CC"/>
<path opacity="0.5" fill-rule="evenodd" clip-rule="evenodd" d="M40.8135 83.2433C40.8135 83.927 41.875 83.927 41.875 83.2433C41.875 82.5595 40.8135 82.5595 40.8135 83.2433Z" fill="#89C5CC"/>
<path opacity="0.5" fill-rule="evenodd" clip-rule="evenodd" d="M42.625 83.3596C42.625 84.0545 43.7036 84.0545 43.7036 83.3596C43.7036 82.6646 42.625 82.6646 42.625 83.3596Z" fill="#89C5CC"/>
<path opacity="0.5" fill-rule="evenodd" clip-rule="evenodd" d="M43.4466 85.7991C42.942 85.8401 41.095 85.6686 40.7708 86.1107C40.229 86.8492 41.0937 86.8749 41.5184 86.9547C41.9009 87.0265 43.5638 86.9859 43.7982 86.6463C44.0053 86.3461 43.9569 85.7558 43.4466 85.7991Z" fill="#89C5CC"/>
<path opacity="0.5" fill-rule="evenodd" clip-rule="evenodd" d="M65.7008 83.8837C65.6141 83.9195 65.6141 83.9195 65.7008 83.8837V83.8837ZM58.7219 83.3733C57.585 83.4569 56.622 84.1109 55.5349 84.3719C54.3746 84.6505 53.8724 84.1381 52.8173 83.8026C51.7198 83.4538 50.9391 83.5916 50.0569 84.3412C49.5571 84.7659 48.4604 85.7435 48.7728 86.498C49.4882 88.225 51.1075 85.4153 51.8691 85.2846C53.0572 85.0808 54.1143 86.1196 55.4843 85.8224C56.7258 85.5533 57.8274 84.7009 59.1241 84.6917C60.2084 84.6839 61.2303 85.2772 62.3008 85.4208C63.935 85.6401 65.0081 85.0598 66.5188 84.629C67.8288 84.2555 68.7474 84.7481 69.9795 85.1624C70.5426 85.3517 72.4217 86.04 72.0758 84.7918C71.978 84.4393 69.5018 83.8089 69.1179 83.6876C67.7641 83.2599 66.9068 83.4266 65.6173 83.9182C64.5418 84.3285 63.6372 84.5283 62.484 84.3026C61.2136 84.0539 60.0582 83.2718 58.7219 83.3733Z" fill="#89C5CC"/>
</g>
<g opacity="0.5">
<path opacity="0.5" fill-rule="evenodd" clip-rule="evenodd" d="M108.749 26.1365C108.933 22.1887 109.185 18.2464 109.318 14.2963C109.384 12.3388 109.436 10.3812 109.485 8.42337C109.496 7.98743 109.508 7.55166 109.518 7.11572C109.55 5.63467 109.374 5.5135 110.865 5.38204C117.514 4.79514 124.189 4.60061 130.846 4.0696C138.875 3.42919 146.945 2.98699 154.997 2.78879C158.575 2.70053 162.168 2.51777 165.746 2.62901C166.539 2.65364 168.095 2.44735 168.407 3.06367C168.542 3.3299 168.259 4.24611 168.223 4.55335C168.111 5.51313 168.007 6.47623 167.942 7.44079C167.561 13.1296 167.788 18.9619 168.89 24.5645C166.306 23.1073 163.041 21.8539 160.029 22.1027C156.958 22.3562 154.661 24.1303 152.204 25.7633C150.813 26.6868 150.345 26.9297 148.958 26.035C147.763 25.2639 146.632 24.3822 145.504 23.517C143.764 22.1815 142.122 20.7336 140.434 19.3336C137.331 16.7595 133.056 13.0956 128.771 14.1743C125.709 14.9451 122.882 16.6279 120.224 18.2748C116.276 20.7215 112.702 23.7178 108.749 26.1365ZM161.962 0.875839C146.707 0.875839 131.566 2.35468 116.355 3.15468C114.766 3.23816 113.183 3.36116 111.6 3.51395C110.544 3.61582 107.964 3.18814 107.273 4.08964C106.812 4.69107 107.208 4.78135 107.273 5.3528C107.355 6.07301 107.306 6.92633 107.285 7.68864C107.234 9.52547 107.181 11.3621 107.139 13.1991C106.982 20.1419 106.883 27.0834 107.164 34.0244C107.226 35.5382 107.777 37.634 107.476 39.105C107.257 40.1699 106.527 40.8181 108.211 41.0148C109.869 41.2086 111.895 40.7158 113.554 40.5581C115.222 40.3992 116.891 40.2269 118.561 40.0892C125.824 39.4907 133.157 39.5812 140.439 39.3822C147.787 39.1817 155.137 39.1688 162.487 39.1647C165.563 39.1631 169.077 39.3359 172.077 38.4896C173.133 38.1917 173.304 38.045 173.044 36.9975C172.994 36.7987 172.675 36.7254 172.582 36.3661C172.455 35.8772 172.52 35.2829 172.49 34.774C172.393 33.1119 172.359 31.4468 172.281 29.7835C172.15 27.0045 171.671 24.3076 171.317 21.5566C170.908 18.3796 170.929 15.1538 170.921 11.956C170.916 10.1822 170.962 8.41436 171.104 6.64557C171.195 5.51111 171.754 3.81733 171.471 2.75937C171.33 2.23259 171.099 1.81485 170.55 1.58814C170.203 1.44435 169.911 1.55688 169.567 1.52048C169.16 1.47727 168.906 1.42008 168.418 1.30958C166.328 0.835756 164.092 0.875839 161.962 0.875839Z" fill="#69A1AC"/>
<path opacity="0.5" fill-rule="evenodd" clip-rule="evenodd" d="M153.519 8.4283C153.518 9.53389 153.346 11.1653 153.855 12.2064C154.502 13.5269 155.311 13.1141 155.525 11.8732C155.648 11.1622 155.645 9.05804 155.416 8.4283C155.093 7.53692 153.519 6.92979 153.519 8.4283Z" fill="#89C5CC"/>
<path opacity="0.5" fill-rule="evenodd" clip-rule="evenodd" d="M155.375 8.8556C154.337 8.89219 151.314 8.64305 150.612 9.47762C149.407 10.909 151.504 11.1626 152.405 11.0824C153.447 10.9897 156.666 11.2159 157.364 10.3804C158.531 8.98265 156.191 8.82582 155.375 8.8556Z" fill="#89C5CC"/>
<path opacity="0.5" fill-rule="evenodd" clip-rule="evenodd" d="M115.097 45.7906C119.66 46.5832 118.24 53.5404 113.922 51.9289C112.418 51.3674 110.201 49.745 111.033 47.8333C111.654 46.405 113.678 45.6545 115.097 45.7906ZM113.207 43.6274C110.24 44.1269 108.211 47.3384 109.229 50.1396C110.21 52.842 113.933 54.821 116.679 53.8498C119.3 52.9226 120.607 49.4352 119.724 46.884C118.8 44.2185 115.792 43.1922 113.207 43.6274Z" fill="#89C5CC"/>
<path opacity="0.5" fill-rule="evenodd" clip-rule="evenodd" d="M140.962 46.6036C139.826 46.6979 138.844 47.4933 137.701 47.6341C136.632 47.7658 135.746 47.4001 134.746 47.1077C133.536 46.7545 132.426 46.5991 131.19 46.913C130.245 47.153 129.314 47.7958 128.332 47.8733C126.401 48.0258 124.157 45.8227 122.65 48.3144C121.927 49.509 122.976 50.2785 124.057 49.7214C125.184 49.1407 124.631 48.9328 126.029 49.2759C127.195 49.5618 128.138 49.7172 129.306 49.3163C130.365 48.9534 131.294 48.2891 132.444 48.2144C133.57 48.1414 134.55 48.6544 135.627 48.8758C136.95 49.1479 138.122 48.942 139.376 48.527C140.57 48.1322 141.046 47.9164 142.25 48.2685C143.012 48.4915 144.678 49.1999 145.42 48.629C146.703 47.642 144.985 47.4977 144.308 47.3574C143.219 47.1318 142.092 46.5111 140.962 46.6036Z" fill="#89C5CC"/>
<path opacity="0.5" fill-rule="evenodd" clip-rule="evenodd" d="M166.96 45.9415C166.969 45.9484 166.978 45.9554 166.987 45.9624C166.978 45.9554 166.969 45.9484 166.96 45.9415ZM165.844 45.7081C167.503 45.815 169.297 48.8362 167.099 48.9434C165.552 49.019 163.822 46.3734 165.844 45.7081ZM165.612 43.2359C160.367 44.7004 162.765 52.0942 167.823 51.2401C170.121 50.8522 170.9 48.1901 170.14 46.2196C169.814 45.3733 169.178 44.6597 168.418 44.1727C167.857 43.8134 166.253 43.0573 165.612 43.2359Z" fill="#89C5CC"/>
<path opacity="0.5" fill-rule="evenodd" clip-rule="evenodd" d="M108.981 61.7884C111.637 60.2386 110.587 65.7066 110.543 66.653C110.412 69.5022 110.59 72.2258 110.877 75.057C111.139 77.6519 110.837 80.235 110.737 82.8301C110.683 84.2078 110.654 85.5835 110.55 86.9588C110.518 87.3878 110.567 89.3213 110.342 90.3505C110.921 90.3249 111.472 90.3508 111.78 90.3415C113.931 90.2764 116.083 90.2194 118.234 90.1385C126.509 89.8274 134.789 89.9681 143.063 89.5751C150.888 89.2032 158.742 89.1243 166.574 89.0281C167.259 89.0879 167.565 89.807 167.125 90.3597C166.695 90.9004 164.701 90.7818 164.079 90.832C161.873 91.0093 159.672 91.0891 157.459 91.1102C152.8 91.1546 148.159 91.3542 143.507 91.6195C135.243 92.0906 126.967 92.0516 118.698 92.3879C116.691 92.4696 114.683 92.5306 112.675 92.5832C111.617 92.611 108.844 93.2488 108.319 91.9836C107.948 91.0895 108.464 90.6781 109.217 90.4908C109.062 89.8031 109.146 88.7511 109.137 88.5079C109.097 87.3681 109.083 86.2278 109.039 85.0883C108.934 82.373 108.865 79.642 108.655 76.9328C108.456 74.343 107.95 71.8318 107.936 69.2227C107.926 67.4581 107.436 62.987 108.981 61.7884ZM166.616 61.1905C166.618 60.032 168.007 59.799 168.623 60.5869C169.213 61.3405 168.833 63.6223 168.848 64.524C168.895 67.4953 169.176 70.4495 169.443 73.4071C169.708 76.3405 169.895 79.2752 170.1 82.2132C170.194 83.5711 171.238 88.9906 169.721 89.7817C167.785 90.7913 168.151 85.6545 168.096 84.718C167.922 81.7037 167.704 78.6854 167.431 75.6786C166.99 70.8177 166.613 66.0711 166.616 61.1905ZM154.994 58.311C157.497 58.2879 159.987 58.3316 162.487 58.475C163.596 58.5387 164.704 58.6001 165.814 58.647C166.455 58.6742 167.919 58.464 168.481 58.7613C170.688 59.9289 166.192 60.0568 165.645 60.0476C163.352 60.009 161.062 59.8305 158.769 59.7742C150.333 59.567 141.835 60.0804 133.407 60.426C129.352 60.5924 125.3 60.6162 121.248 60.8438C119.032 60.9683 116.818 61.1106 114.603 61.2273C113.582 61.2812 112.56 61.3334 111.537 61.3592C110.907 61.3752 109.624 61.6361 109.042 61.398C108.546 61.1952 108.145 60.9116 108.417 60.3108C108.711 59.6641 109.989 59.9394 110.529 59.9289C112.482 59.891 114.43 59.7814 116.378 59.6621C120.803 59.3912 125.219 59.0744 129.653 58.9989C138.102 58.8547 146.54 58.3894 154.994 58.311Z" fill="#69A1AC"/>
<path opacity="0.5" fill-rule="evenodd" clip-rule="evenodd" d="M159.343 65.8691C159.786 65.7305 160.066 66.1874 159.965 66.5708C159.831 67.0839 158.252 67.4993 157.815 67.6949C156.082 68.4688 154.34 69.2236 152.607 69.998C148.831 71.685 145.049 73.3562 141.274 75.0443C141.2 75.0774 141.126 75.1105 141.052 75.1436C143.706 76.0868 146.345 77.0722 148.973 78.0874C150.379 78.6305 151.777 79.1913 153.18 79.7422C153.883 80.018 156.804 80.7106 156.973 81.4123C157.21 82.4029 154.095 81.1861 153.6 81.0276C152.2 80.5803 150.818 80.0794 149.435 79.5813C146.342 78.4671 143.263 77.3175 140.158 76.2372C139.867 76.136 139.577 76.0353 139.286 75.9349C135.99 77.4155 132.701 78.91 129.423 80.4282C127.665 81.2424 125.916 82.0755 124.173 82.9198C122.88 83.5459 120.54 85.3319 119.116 85.3009C118.577 85.2889 118.214 85.1735 118.158 84.5204C118.086 83.6852 119.432 83.3421 119.975 83.0704C121.839 82.1384 123.714 81.2299 125.595 80.3328C129.329 78.5513 133.099 76.841 136.883 75.1647C136.904 75.1551 136.926 75.1455 136.948 75.1359C134.85 74.4256 132.746 73.7324 130.637 73.0539C129.432 72.6661 120.982 70.5809 121.29 69.4615C121.636 68.2068 129.12 71.1652 130.271 71.532C133.455 72.5466 136.628 73.5933 139.782 74.696L138.741 74.3352C145.487 71.3042 152.306 68.0746 159.343 65.8691Z" fill="#89C5CC"/>
<path opacity="0.5" fill-rule="evenodd" clip-rule="evenodd" d="M116.098 96.3659C117.823 96.6683 119.04 98.3235 118.851 100.057C118.595 102.399 116.261 103.472 114.104 103.167C111.657 102.82 111.143 100.752 112.328 98.7616C112.591 98.3211 112.892 97.7939 113.37 97.5619C113.698 97.4025 114.115 97.5435 114.38 97.415C115.306 96.9643 114.749 96.2462 116.098 96.3659ZM115.312 94.8359C113.206 95.1049 109.316 97.5413 109.513 99.979C109.684 100.262 109.941 100.377 110.284 100.326C110.201 100.854 110.228 101.376 110.365 101.893C110.565 102.564 110.964 103.114 111.498 103.551C112.599 104.451 114.104 104.672 115.475 104.514C118.036 104.22 120.053 102.47 120.197 99.8071C120.338 97.208 118.069 94.4877 115.312 94.8359Z" fill="#89C5CC"/>
<path opacity="0.5" fill-rule="evenodd" clip-rule="evenodd" d="M125.51 98.009C124.565 98.5097 123.071 99.2788 122.517 100.23C121.932 101.234 122.538 102.333 123.771 101.858C124.75 101.481 125.372 100.282 126.416 99.8981C127.338 99.5592 127.709 99.7319 128.683 100.069C129.687 100.417 130.564 100.753 131.649 100.668C133.012 100.561 134.193 99.7701 135.528 99.5903C136.651 99.4388 137.578 99.876 138.654 100.05C139.903 100.252 140.719 99.7791 141.887 99.5331C142.682 99.3656 144.082 100.047 144.662 99.792C145.965 99.2191 144.587 98.5185 143.865 98.2871C142.65 97.8973 141.902 98.2413 140.746 98.5645C139.491 98.9155 138.949 98.6517 137.75 98.3293C135.323 97.6772 133.448 99.254 131.147 98.9674C129.017 98.7019 127.743 96.827 125.51 98.009Z" fill="#89C5CC"/>
<path opacity="0.5" fill-rule="evenodd" clip-rule="evenodd" d="M165.196 96.8419C167.532 99.0322 164.908 102.148 162.332 100.398C161.425 99.7818 161.411 98.7922 162.117 97.9069C162.762 97.0971 164.18 96.7814 165.196 96.8419ZM164.33 95.072C162.148 95.4966 160.089 96.4981 159.891 99.0171C159.698 101.475 162.219 102.616 164.337 102.455C169.092 102.093 168.748 94.218 164.33 95.072Z" fill="#89C5CC"/>
</g>
<path opacity="0.5" fill-rule="evenodd" clip-rule="evenodd" d="M248.211 13.4461C245.736 13.4798 239.623 14.1148 238.714 16.18C238.024 17.7477 240.073 17.4035 241.172 16.8331C242.657 16.0617 243.96 15.6001 245.801 15.3654C252.814 14.4708 259.552 17.6788 266.497 18.0845C269.128 18.2382 272.303 18.3383 274.815 17.7374C276.604 17.3095 276.838 16.3765 274.796 16.2343C273.062 16.1137 271.142 16.4941 269.364 16.4833C262.005 16.4389 255.464 13.3485 248.211 13.4461Z" fill="#C1DEE2"/>
<g opacity="0.5">
<path opacity="0.5" fill-rule="evenodd" clip-rule="evenodd" d="M28.9315 111.525C25.5912 111.562 22.2526 111.686 18.919 111.897C15.7488 112.097 12.3091 111.945 9.19051 112.559C8.30498 112.734 7.10878 113.541 8.28623 114.429C9.11385 115.053 12.1418 114.335 13.1301 114.274C16.7696 114.05 20.411 113.782 24.0557 113.654C27.5061 113.532 30.9562 113.489 34.4083 113.454C34.9353 113.449 35.8102 113.28 36.335 113.433C37.0891 113.653 36.9102 113.713 36.9667 114.67C37.0691 116.404 37.0408 118.145 37.0064 119.881C36.9731 121.561 36.911 123.241 36.917 124.921C36.9213 126.12 36.538 128.503 37.1397 129.544C38.0057 131.043 38.9041 129.415 38.9688 128.419C39.0927 126.514 39.0372 124.586 39.0378 122.678C39.0381 120.888 39.051 119.097 38.9879 117.308C38.9422 116.015 39.1269 113.759 38.4306 112.584C37.7213 111.387 36.0137 111.645 34.7677 111.588C32.824 111.498 30.8768 111.505 28.9315 111.525Z" fill="#89C5CC"/>
<path opacity="0.5" fill-rule="evenodd" clip-rule="evenodd" d="M7.67926 113.686C7.68293 117.05 7.29376 120.391 7.18475 123.751C7.13476 125.296 7.03327 126.993 7.4241 128.509C7.8186 130.041 9.07161 130.372 9.21592 128.663C9.50822 125.201 9.43652 121.612 9.66411 118.122C9.74445 116.89 10.2673 114.632 9.77919 113.479C9.34939 112.463 7.67742 112.268 7.67926 113.686Z" fill="#89C5CC"/>
<path opacity="0.5" fill-rule="evenodd" clip-rule="evenodd" d="M39.0013 128.514C33.2004 129.282 27.1361 129.002 21.2939 129.122C18.491 129.18 15.6886 129.184 12.8853 129.213C11.907 129.223 9.42247 128.851 8.5761 129.401C7.22878 130.277 8.69063 130.952 9.58259 130.972C15.1147 131.093 20.7084 130.839 26.2394 130.657C28.7245 130.576 31.2176 130.536 33.6961 130.324C35.2219 130.194 36.8892 130.068 38.3709 129.658C38.6866 129.571 39.3739 129.589 39.4447 129.158C39.4883 128.892 39.4092 128.457 39.0013 128.514Z" fill="#89C5CC"/>
<path opacity="0.5" fill-rule="evenodd" clip-rule="evenodd" d="M14.8796 133.403C13.2673 133.412 8.40897 132.664 7.74128 134.236C6.85116 136.332 10.3236 135.843 11.2575 135.819C13.3785 135.765 15.4982 135.759 17.6198 135.76C19.7015 135.761 21.7831 135.747 23.8644 135.698C24.4674 135.683 25.871 135.933 26.2179 135.207C26.4815 134.655 26.2732 134.22 25.787 133.928C24.617 133.225 21.5777 133.633 20.208 133.569C18.4345 133.488 16.6552 133.403 14.8796 133.403Z" fill="#89C5CC"/>
<path opacity="0.5" fill-rule="evenodd" clip-rule="evenodd" d="M34.4942 133.792C33.5728 133.847 31.7091 133.467 30.8837 133.889C29.9456 134.368 30.2761 135.119 31.0861 135.449C31.647 135.677 33.9478 135.557 34.4942 135.293C35.0637 135.017 35.7077 133.718 34.4942 133.792Z" fill="#89C5CC"/>
<path opacity="0.5" fill-rule="evenodd" clip-rule="evenodd" d="M44.5947 114.016C43.6106 114.286 43.9091 119.872 43.8838 120.758C43.8143 123.184 43.5415 126.236 44.3478 128.573C44.862 130.063 45.8495 129.861 45.6813 128.293C45.5335 126.916 45.28 125.555 45.1702 124.17C44.9221 121.034 44.5844 117.69 44.8188 114.552C44.9186 114.735 45.8521 116.426 46.0718 116.3C46.0054 116.339 44.995 113.91 44.5947 114.016Z" fill="#89C5CC"/>
<path opacity="0.5" fill-rule="evenodd" clip-rule="evenodd" d="M55.6641 111.958C53.6727 111.988 51.6812 112.023 49.6903 112.078C48.1073 112.122 45.6198 111.862 44.1681 112.528C42.4395 113.321 43.2596 115.087 44.8832 115.125C46.3195 115.158 47.8512 114.834 49.3006 114.784C53.2153 114.65 57.137 114.622 61.0536 114.588C64.5957 114.558 68.2884 114.935 71.7994 114.403C72.3202 119.028 70.9117 123.672 71.3907 128.349C71.465 129.075 71.4317 130.101 72.3562 130.266C73.523 130.475 73.571 129.319 73.6153 128.492C73.7416 126.129 73.6732 123.764 73.8462 121.398C74.0065 119.206 74.3222 116.965 74.0554 114.769C73.7275 112.066 72.4325 112.283 70.1434 112.171C65.3088 111.934 60.5041 111.887 55.6641 111.958Z" fill="#89C5CC"/>
<path opacity="0.5" fill-rule="evenodd" clip-rule="evenodd" d="M48.9906 128.378C47.9758 128.404 46.2904 128.091 45.6402 129.064C44.9637 130.076 45.7663 130.959 46.75 131.167C47.9144 131.413 49.4327 131.076 50.6412 131.072C51.8997 131.069 53.1586 131.083 54.4171 131.088C59.8128 131.109 65.2317 131.19 70.6236 130.967C71.3765 130.936 73.5136 131.189 74.0348 130.467C74.4973 129.826 74.1738 129.251 73.5647 128.925C72.5654 128.39 70.5129 128.593 69.4014 128.551C68.0287 128.498 66.6544 128.481 65.281 128.46C59.8601 128.376 54.4109 128.244 48.9906 128.378Z" fill="#89C5CC"/>
<path opacity="0.5" fill-rule="evenodd" clip-rule="evenodd" d="M53.5545 133.059C51.5353 133.093 49.3809 133.004 47.3818 133.311C45.6239 133.58 45.4076 135.279 47.2998 135.478C49.0387 135.661 51.1469 135.319 52.8942 135.207C53.5148 135.167 54.2365 135.224 54.534 134.538C54.8445 133.821 54.2509 133.133 53.5545 133.059Z" fill="#89C5CC"/>
<path opacity="0.5" fill-rule="evenodd" clip-rule="evenodd" d="M68.8203 133.237C67.7425 133.263 64.5945 132.8 64.0607 134.031C63.172 136.08 67.4337 135.302 68.2512 135.272C69.2815 135.234 73.2974 135.835 73.2983 134.195C73.2992 132.587 69.8071 133.212 68.8203 133.237Z" fill="#89C5CC"/>
<path opacity="0.5" fill-rule="evenodd" clip-rule="evenodd" d="M7.50456 143.42C7.50713 147.149 7.27514 150.912 7.61523 154.63C7.75586 156.168 7.73178 159.115 8.62264 160.419C9.25503 161.344 10.1321 161.279 10.4775 160.168C10.7084 159.425 10.3391 157.939 10.2979 157.144C10.2582 156.382 10.2119 155.619 10.1766 154.856C10.086 152.891 10.0931 150.928 10.1201 148.961C10.1433 147.275 10.5494 145.043 10.1665 143.42C9.80947 141.908 7.50456 141.555 7.50456 143.42Z" fill="#69A1AC"/>
<path opacity="0.5" fill-rule="evenodd" clip-rule="evenodd" d="M44.9739 140.142C38.5058 140.304 32.023 140.159 25.5606 140.479C22.3734 140.637 19.1988 140.984 16.0277 141.329C14.4697 141.499 12.9126 141.674 11.3574 141.866C10.8881 141.924 6.98821 142.075 8.45502 143.558C9.09549 144.206 11.1337 143.529 11.9401 143.434C13.5016 143.249 15.0662 143.089 16.6299 142.923C19.6054 142.609 22.5847 142.31 25.5729 142.145C32.6106 141.755 39.6773 141.872 46.722 141.612C48.6276 141.542 50.5276 141.492 52.4339 141.567C52.9345 141.586 56.613 141.773 55.0159 140.415C54.2607 139.772 51.4133 140.104 50.4695 140.084C48.6378 140.046 46.8049 140.096 44.9739 140.142Z" fill="#69A1AC"/>
<path opacity="0.5" fill-rule="evenodd" clip-rule="evenodd" d="M53.6491 141.256C53.5665 139.443 56.0354 139.168 56.7676 140.636C57.5072 142.117 57.0267 145.058 57.0745 146.701C57.1851 150.505 57.8905 154.764 57.1454 158.526C56.8862 159.835 55.7824 160.523 55.0478 159.809L55.0448 159.814C54.6924 160.333 53.3901 160.189 52.8199 160.228C51.0843 160.345 49.3809 160.544 47.6607 160.802C44.2333 161.316 40.8357 161.632 37.3712 161.718C30.5192 161.887 23.6388 161.729 16.7971 162.198C15.2817 162.302 13.7894 162.481 12.2989 162.766C11.2345 162.97 9.18324 163.668 9.05878 161.909C8.90859 159.79 14.2251 159.794 15.7452 159.653C22.2722 159.045 28.9066 159.173 35.4536 159.265C38.6196 159.309 41.7797 159.405 44.9431 159.212C48.1036 159.019 51.3712 159.069 54.5085 158.729C54.5088 158.729 54.5091 158.729 54.5094 158.729C54.1041 157.163 54.1632 155.204 54.0498 153.603C53.7587 149.493 53.8366 145.369 53.6491 141.256Z" fill="#69A1AC"/>
<path opacity="0.5" fill-rule="evenodd" clip-rule="evenodd" d="M59.0265 142.583C58.1527 142.702 57.4238 143.45 57.8139 144.399C58.3053 145.593 59.7688 145.126 60.7356 145.051C63.8085 144.81 67.017 145.291 70.0528 144.928C70.8819 144.829 72.0847 144.377 71.3404 143.263C70.7808 142.426 68.7421 142.573 67.8755 142.493C64.9115 142.218 61.9866 142.292 59.0265 142.583Z" fill="#C1DEE2"/>
<path opacity="0.5" fill-rule="evenodd" clip-rule="evenodd" d="M64.2125 147.795C63.0208 147.875 60.2465 147.812 59.7443 149.168C58.8435 151.6 62.372 150.743 63.4463 150.605C64.6944 150.444 67.6364 150.875 68.301 149.664C69.4893 147.5 65.2576 147.723 64.2125 147.795Z" fill="#C1DEE2"/>
<path opacity="0.5" fill-rule="evenodd" clip-rule="evenodd" d="M61.1479 153.132C60.5827 153.698 60.5817 154.708 61.1479 155.274C61.8412 155.966 63.3516 155.822 64.2625 155.873C65.5329 155.944 69.1819 156.616 69.8128 155.12C70.6639 153.101 67.3597 153.144 66.2729 153.029C65.0167 152.897 62.189 152.091 61.1479 153.132Z" fill="#C1DEE2"/>
<path opacity="0.5" fill-rule="evenodd" clip-rule="evenodd" d="M16.6113 118.581C16.6113 120.751 20.0007 120.751 20.0007 118.581C20.0007 116.423 16.6113 116.39 16.6113 118.581Z" fill="#89C5CC"/>
<path opacity="0.5" fill-rule="evenodd" clip-rule="evenodd" d="M23.041 118.606C23.041 121.087 26.9015 121.082 26.9015 118.606C26.9015 116.134 23.041 116.108 23.041 118.606Z" fill="#89C5CC"/>
<path opacity="0.5" fill-rule="evenodd" clip-rule="evenodd" d="M19.151 121.905C17.2744 122.423 19.0032 124.013 19.8745 124.377C21.2594 124.954 23.1494 125.38 24.5345 124.514C25.0857 124.17 25.5331 123.712 25.1292 123.043C24.6989 122.331 24.1097 122.648 23.4545 122.714C22.6245 122.797 21.9537 122.784 21.1522 122.518C20.554 122.319 19.8034 121.725 19.151 121.905Z" fill="#89C5CC"/>
<path opacity="0.5" fill-rule="evenodd" clip-rule="evenodd" d="M53.1904 118.719C53.1904 120.187 55.4696 120.187 55.4696 118.719C55.4696 117.251 53.1904 117.251 53.1904 118.719Z" fill="#89C5CC"/>
<path opacity="0.5" fill-rule="evenodd" clip-rule="evenodd" d="M58.2305 118.94C58.2305 120.571 60.7624 120.571 60.7624 118.94C60.7624 117.309 58.2305 117.31 58.2305 118.94Z" fill="#89C5CC"/>
<path opacity="0.5" fill-rule="evenodd" clip-rule="evenodd" d="M58.0434 122.48C56.7134 122.651 52.8667 123.041 52.6514 124.681C52.3194 127.21 56.5343 125.163 57.4963 124.964C58.7216 124.711 59.8158 124.777 61.039 124.826C61.7105 124.853 62.6038 124.962 62.5334 123.939C62.4179 122.259 59.206 122.331 58.0434 122.48Z" fill="#89C5CC"/>
<path opacity="0.5" fill-rule="evenodd" clip-rule="evenodd" d="M24.6033 145.804C23.6392 146.061 22.3781 147.728 23.0414 148.748C24.129 150.421 24.6086 147.852 25.0638 147.605C25.8919 147.155 26.5642 148.799 27.4297 147.937C28.7954 146.576 25.4631 145.574 24.6033 145.804Z" fill="#69A1AC"/>
<path opacity="0.5" fill-rule="evenodd" clip-rule="evenodd" d="M35.6487 144.568C34.5054 144.578 32.0919 146.197 31.9209 147.392C31.8194 148.102 32.2902 148.784 33.0557 148.794C34.0981 148.806 34.4293 147.451 35.3329 147.168C36.3076 146.862 36.1629 147.566 37.0047 147.931C37.6207 148.198 38.3911 148.086 38.6051 147.329C39.0088 145.9 36.8234 144.545 35.6487 144.568Z" fill="#69A1AC"/>
<path opacity="0.5" fill-rule="evenodd" clip-rule="evenodd" d="M26.8974 151.409C25.0688 152.481 28.0776 154.778 29.1207 155.065C30.6954 155.498 33.8647 154.69 34.2379 152.766C34.3864 152 33.9076 151.307 33.0627 151.444C32.367 151.557 31.9209 152.429 31.2765 152.742C30.4068 153.164 29.6336 153.135 28.8946 152.5C28.2925 151.983 27.9701 150.784 26.8974 151.409Z" fill="#69A1AC"/>
<path opacity="0.5" fill-rule="evenodd" clip-rule="evenodd" d="M28.2228 167.244C26.5891 167.592 24.9284 167.358 23.2867 167.686C21.6127 168.02 20.6123 168.653 19.0571 168.016C18.9839 167.985 18.9109 167.954 18.838 167.923C17.6342 167.404 16.3726 167.251 15.1126 168.077C14.3669 168.566 12.1034 170.258 12.3762 171.29C12.9674 173.527 15.5144 170.019 16.1639 169.677C17.4024 169.025 18.2515 169.858 19.5266 170.093C21.0539 170.374 22.2828 169.567 23.7215 169.246C25.4041 168.87 27.2971 168.739 29.0089 168.538C29.6852 168.458 32.247 168.993 32.4782 168.151C32.8755 166.706 28.865 167.108 28.2228 167.244Z" fill="#C1DEE2"/>
<path opacity="0.5" fill-rule="evenodd" clip-rule="evenodd" d="M40.0101 171.749C40.1169 171.83 40.0312 171.765 40.0101 171.749V171.749ZM44.5857 167.156C45.9843 167.014 50.4592 166.015 51.378 167.46C51.9764 168.401 51.0267 171.876 50.1207 172.325C49.3966 172.684 47.7099 172.287 46.9154 172.259C45.437 172.207 43.9555 172.184 42.4788 172.092C41.9835 172.061 40.3899 172.152 40.0016 171.713C39.5431 171.196 39.5635 168.437 39.4556 167.752C40.7415 168.169 43.2411 167.292 44.5857 167.156ZM47.5723 165.739C45.781 165.816 43.9901 165.951 42.2122 166.191C41.2212 166.325 40.2171 166.681 39.3018 166.85C39.0067 166.904 38.5278 166.754 38.166 166.928C37.1088 167.439 38.0346 170.892 38.2896 171.815C38.6811 173.232 39.6667 173.462 41.0474 173.595C42.8663 173.772 44.7225 173.716 46.547 173.694C48.3058 173.672 50.6772 174.062 51.664 172.297C52.3019 171.156 52.9862 168.499 52.4409 167.228C51.7236 165.555 49.0453 165.677 47.5723 165.739Z" fill="#C1DEE2"/>
<path opacity="0.5" fill-rule="evenodd" clip-rule="evenodd" d="M67.6311 172.698C67.5354 172.821 67.5354 172.821 67.6311 172.698V172.698ZM68.0236 172.225C67.994 172.27 67.8565 172.415 68.0236 172.225V172.225ZM63.7519 172.095C64.5415 171.947 65.3314 171.8 66.1219 171.655C65.3733 172.703 64.585 172.27 63.3063 172.179C63.4548 172.151 63.6034 172.123 63.7519 172.095ZM59.9848 171.724C60.185 171.657 60.385 171.59 60.5852 171.524C60.5791 171.676 60.6118 171.819 60.6833 171.951C60.3407 171.914 59.9984 171.875 59.6564 171.833C59.7658 171.796 59.8754 171.76 59.9848 171.724ZM58.2391 170.435C58.2279 170.16 58.6413 170.349 58.8783 170.331C58.4214 170.733 58.2084 170.768 58.2391 170.435ZM64.4823 167.317C64.5424 167.24 64.622 167.244 64.7211 167.329C64.613 167.365 64.1966 167.541 64.4823 167.317ZM68.531 166.841C68.5417 166.841 68.7663 167.144 68.531 166.841V166.841ZM68.4174 166.742C68.4762 166.786 68.4762 166.786 68.4174 166.742V166.742ZM67.912 166.683C68.7399 166.822 68.677 167.794 67.912 166.683V166.683ZM58.1863 166.616C58.0181 166.756 58.0757 166.621 58.1863 166.616V166.616ZM61.3521 164.548C59.9467 164.63 57.367 164.547 56.1932 165.296C54.6615 166.274 55.4674 169.638 55.6046 171.113C55.8071 173.293 56.8329 173.914 58.8862 174.143C61.3365 174.416 63.8541 174.467 66.3171 174.402C68.5352 174.344 69.7986 173.581 70.2048 171.246C70.3293 170.531 70.6451 169.426 70.6352 168.741C70.6284 168.266 70.3918 168.05 70.3023 167.646C69.7929 165.348 68.941 165.075 66.5851 164.975C64.8512 164.901 63.0535 164.459 61.3521 164.548Z" fill="#89C5CC"/>
</g>
<g opacity="0.5">
<path opacity="0.5" fill-rule="evenodd" clip-rule="evenodd" d="M139.462 111.741C143.036 111.817 147.09 113.795 146.525 117.985C146.111 121.054 143.453 123.545 140.376 123.76C137.068 123.991 133.571 121.452 133.122 118.084C132.616 114.296 135.968 111.666 139.462 111.741ZM137.71 110.036C136.262 110.252 134.877 111.013 133.602 111.694C133.115 111.954 130.646 113.541 132.582 113.935C127.918 121.458 138.896 128.446 145.068 123.557C147.84 121.361 149.299 117.198 147.508 113.94C145.655 110.569 141.26 109.503 137.71 110.036Z" fill="#89C5CC"/>
<path opacity="0.5" fill-rule="evenodd" clip-rule="evenodd" d="M136.856 116.44C136.856 117.845 139.037 117.845 139.037 116.44C139.037 115.034 136.856 115.034 136.856 116.44Z" fill="#89C5CC"/>
<path opacity="0.5" fill-rule="evenodd" clip-rule="evenodd" d="M140.899 116.664C140.899 118.187 143.264 118.187 143.264 116.664C143.264 115.141 140.899 115.141 140.899 116.664Z" fill="#89C5CC"/>
<path opacity="0.5" fill-rule="evenodd" clip-rule="evenodd" d="M138.171 119.676C137.853 120.832 141.481 121.425 141.602 120.087C141.659 119.448 138.392 118.87 138.171 119.676Z" fill="#89C5CC"/>
<path opacity="0.5" fill-rule="evenodd" clip-rule="evenodd" d="M148.807 118.963C152.982 118.462 157.286 118.694 161.482 118.814C162.531 118.844 163.581 118.874 164.631 118.891C165.299 118.902 166.741 119.223 167.323 118.91C169.709 117.631 165.029 117.012 164.366 116.953C160.193 116.61 153.754 116.487 149.568 116.649C148.331 116.697 148.063 119.052 148.807 118.963Z" fill="#89C5CC"/>
<path opacity="0.5" fill-rule="evenodd" clip-rule="evenodd" d="M167.594 139.717C167.629 135.343 167.786 130.939 168.122 126.577C168.259 124.8 168.424 123.024 168.56 121.247C168.624 120.409 168.922 119.237 168.429 118.502C167.922 117.745 166.81 117.587 166.139 118.258C165.337 119.297 165.57 121.041 165.47 122.298C165.317 124.23 165.131 126.161 165.039 128.097C164.861 131.845 164.819 135.659 165.12 139.401C165.263 141.167 165.571 142.891 165.981 144.613C166.168 145.397 167.654 148.89 167.342 149.372C166.858 150.118 163.279 149.836 162.503 149.857C160.511 149.91 158.518 149.945 156.526 149.983C154.82 150.016 153.114 150.039 151.408 150.054C150.731 150.06 146.751 149.94 147.634 150.944C137.761 151.632 127.7 150.484 117.887 150.09C117.391 150.07 116.58 149.929 115.832 149.888C115.742 149.527 115.668 149.204 115.65 148.979C115.521 147.402 115.488 145.82 115.348 144.243C115.092 141.358 114.596 138.503 114.301 135.623C114.006 132.746 114.036 129.861 113.864 126.977C113.835 126.483 113.766 122.436 112.744 121.452C113.228 121.636 114.009 121.66 114.459 121.623C118.099 121.33 121.712 120.697 125.321 120.154C126.354 119.999 128.697 120.109 129.553 119.593C130.294 119.146 130.588 117.58 129.298 117.706C125.7 118.092 122.121 118.69 118.55 119.279C117.595 119.437 116.643 119.605 115.691 119.777C115.055 119.892 113.376 119.883 112.883 120.267C112.283 120.732 112.22 121.049 112.423 121.26C112.141 121.182 111.802 121.304 111.396 121.711C110.628 122.711 111.35 125.173 111.442 126.346C111.552 127.752 111.606 129.161 111.67 130.57C111.793 133.296 112.079 135.985 112.518 138.678C113.009 141.696 113.427 144.726 113.92 147.743C114.048 148.528 114.216 149.294 114.429 150.053C113.101 150.732 114.004 151.812 115.057 152.004C115.065 152.005 115.073 152.006 115.08 152.007C115.408 152.808 115.867 153.55 116.226 152.477C116.253 152.395 116.266 152.293 116.27 152.18C118.989 152.487 121.979 152.296 124.656 152.406C130.456 152.643 136.292 152.998 142.098 152.818C144.397 152.747 146.702 152.543 148.981 152.236C150.317 152.056 151.657 151.842 152.971 151.544C153.065 151.523 153.208 151.5 153.374 151.473C153.401 151.472 153.428 151.472 153.454 151.471C155.466 151.441 157.476 151.387 159.486 151.303C161.174 151.233 162.869 151.197 164.551 151.038C165.596 150.939 167.804 150.958 168.445 149.907C169.028 148.952 168.053 146.491 167.915 145.417C167.671 143.528 167.578 141.621 167.594 139.717Z" fill="#C1DEE2"/>
<path opacity="0.5" fill-rule="evenodd" clip-rule="evenodd" d="M147.203 127.087C145.596 127.224 144.109 127.979 142.487 127.989C141.125 127.996 139.784 127.589 138.415 127.65C136.808 127.72 135.925 128.758 134.518 129.106C133.398 129.383 132.692 128.525 131.707 128.146C130.463 127.667 129.544 127.914 128.477 128.638C127.694 129.171 125.867 130.366 125.881 131.442C125.923 134.704 129.728 130.198 130.495 130.144C131.515 130.071 132.653 131.233 133.738 131.299C135.172 131.387 136.091 130.463 137.411 130.126C138.746 129.785 140.189 130.203 141.528 130.332C143.055 130.48 144.391 130.139 145.869 129.775C147.301 129.422 148.521 129.44 149.976 129.737C150.957 129.937 153.404 131.101 153.833 129.605C154.418 127.566 148.327 126.991 147.203 127.087Z" fill="#89C5CC"/>
<path opacity="0.5" fill-rule="evenodd" clip-rule="evenodd" d="M147.693 133.307C144.399 133.626 141.085 133.907 137.775 133.996C136.342 134.035 130.832 133.421 131.321 135.242C131.739 136.804 139.238 135.821 140.765 135.702C142.451 135.571 144.134 135.388 145.812 135.175C146.406 135.1 147.842 135.178 148.262 134.679C148.662 134.204 148.464 133.229 147.693 133.307Z" fill="#89C5CC"/>
<path opacity="0.5" fill-rule="evenodd" clip-rule="evenodd" d="M124.968 141.601C124.893 141.633 124.893 141.633 124.968 141.601V141.601ZM125.663 141.592C126.484 141.566 126.308 141.133 127.127 141.358C127.505 141.462 127.544 141.308 127.837 141.669C128.408 142.374 127.87 143.908 127.306 144.476C125.22 146.578 122.717 141.685 125.663 141.592ZM125.663 139.529C119.952 139.721 122.341 148.543 127.312 146.742C129.364 145.998 130.655 142.648 129.447 140.765C128.86 139.849 128.111 139.686 127.127 139.622C126.899 139.608 126.611 139.94 126.469 139.925C126.13 139.889 126.161 139.51 125.663 139.529Z" fill="#89C5CC"/>
<path opacity="0.5" fill-rule="evenodd" clip-rule="evenodd" d="M139.319 141.904C139.217 141.872 141.122 142.426 140.914 142.209C141.359 142.672 140.761 143.766 140.258 143.957C139.039 144.419 138.355 142.525 139.319 141.904ZM140.165 139.511C138.376 139.765 136.996 140.51 136.752 142.498C136.526 144.333 137.767 146.192 139.723 146.228C143.986 146.306 144.116 138.96 140.165 139.511Z" fill="#89C5CC"/>
<path opacity="0.5" fill-rule="evenodd" clip-rule="evenodd" d="M159.629 141.984C159.879 145.243 156.499 142.26 159.629 141.984V141.984ZM158.179 138.497C157.883 139.002 158.135 139.538 158.581 139.832C154.595 140.675 155.497 146.674 159.554 145.787C161.617 145.337 161.996 143.167 161.689 141.376C161.543 140.524 159.42 136.374 158.179 138.497Z" fill="#89C5CC"/>
</g>
<path opacity="0.5" fill-rule="evenodd" clip-rule="evenodd" d="M179.164 141.628C177.484 141.839 173.515 143.151 173.549 144.561C173.603 146.761 176.977 144.358 177.727 144.035C181.759 142.298 186.981 144.548 191.179 145.027C193.103 145.247 196.868 145.652 198.568 144.739C201.592 143.116 194.6 143.522 193.709 143.457C188.869 143.103 184.054 141.009 179.164 141.628Z" fill="#C1DEE2"/>
<g opacity="0.5">
<path opacity="0.5" fill-rule="evenodd" clip-rule="evenodd" d="M239.245 126.156C239.243 128.407 239.13 130.705 239.545 132.93C239.67 133.603 239.769 134.893 240.48 135.243C241.193 135.594 241.885 135.199 242.063 134.468C242.269 133.617 241.816 132.343 241.77 131.449C241.707 130.229 241.702 129.007 241.702 127.785C241.702 126.902 241.992 125.482 240.95 125.028C240.175 124.69 239.245 125.318 239.245 126.156Z" fill="#C1DEE2"/>
<path opacity="0.5" fill-rule="evenodd" clip-rule="evenodd" d="M274.837 122.595C267.378 123.344 259.811 123.5 252.325 123.89C248.864 124.071 244.682 123.84 241.422 125.18C240.817 125.429 238.648 126.813 240.409 127.377C240.957 127.553 241.515 126.962 241.965 126.764C242.716 126.434 243.584 126.332 244.384 126.204C251.187 125.111 258.302 125.301 265.175 124.791C266.936 124.66 268.697 124.525 270.455 124.353C271.71 124.229 274.349 123.324 275.508 123.787C277.488 124.578 277.441 129.717 277.48 131.484C277.501 132.398 276.614 135.679 278.377 135.346C279.788 135.08 279.277 131.671 279.167 130.739C278.879 128.295 278.386 122.236 274.837 122.595Z" fill="#C1DEE2"/>
<path opacity="0.5" fill-rule="evenodd" clip-rule="evenodd" d="M277.588 135.227C271.109 135.812 264.481 135.238 257.975 135.468C254.564 135.589 251.158 135.781 247.747 135.894C246.272 135.942 244.796 135.944 243.32 135.955C242.614 135.96 239.402 136.388 241.389 137.787C242.269 138.407 245.073 137.908 246.082 137.895C247.599 137.878 249.114 137.815 250.629 137.755C254.14 137.618 257.647 137.428 261.159 137.333C264.519 137.242 267.88 137.222 271.239 137.131C272.91 137.086 274.604 137.035 276.261 136.791C276.635 136.736 277.849 136.692 278.109 136.275C278.354 135.881 278.182 135.17 277.588 135.227Z" fill="#89C5CC"/>
<path opacity="0.5" fill-rule="evenodd" clip-rule="evenodd" d="M245.744 130.364C245.709 130.446 245.709 130.446 245.744 130.364V130.364ZM248.55 129.511C248.652 129.554 248.652 129.554 248.55 129.511V129.511ZM248.418 129.487C249.93 131.029 247.605 132.868 246.189 131.364C244.685 129.768 247.445 129.493 248.418 129.487ZM246.815 127.156C241.606 128.082 243.45 135.024 248.315 134.021C250.45 133.58 251.672 131.429 250.937 129.362C250.649 128.555 250.024 127.669 249.152 127.414C248.717 127.287 248.333 127.487 247.919 127.44C247.524 127.396 247.305 127.067 246.815 127.156Z" fill="#C1DEE2"/>
<path opacity="0.5" fill-rule="evenodd" clip-rule="evenodd" d="M266.748 129.108C263.607 129.118 260.466 129.251 257.326 129.311C256.362 129.329 253.887 128.898 253.883 130.416C253.879 132.039 256.636 131.44 257.554 131.418C260.669 131.343 263.792 131.207 266.894 130.91C267.678 130.835 270.391 130.965 270.388 129.899C270.385 128.77 267.381 129.108 266.748 129.108Z" fill="#C1DEE2"/>
<path opacity="0.5" fill-rule="evenodd" clip-rule="evenodd" d="M274.249 139.699C266.481 139.907 258.725 139.98 250.964 140.377C248.061 140.526 245.162 140.636 242.254 140.636C241.694 140.636 240.567 140.42 240.04 140.772C238.61 141.729 240.238 142.55 241.17 142.601C247.546 142.955 254.015 142.074 260.387 141.876C264.118 141.759 267.849 141.725 271.577 141.535C272.594 141.483 273.612 141.423 274.627 141.344C275.211 141.299 276.756 141.423 277.228 141.082C279.288 139.59 274.944 139.68 274.249 139.699Z" fill="#89C5CC"/>
<path opacity="0.5" fill-rule="evenodd" clip-rule="evenodd" d="M238.61 143.497C238.537 145.511 238.53 147.49 238.793 149.493C238.897 150.281 238.944 151.175 239.868 151.375C240.707 151.557 241.133 150.923 241.306 150.219C241.73 148.501 241.357 146.028 241.352 144.244C241.35 143.361 241.349 142.374 240.259 142.174C239.427 142.022 238.642 142.623 238.61 143.497Z" fill="#89C5CC"/>
<path opacity="0.5" fill-rule="evenodd" clip-rule="evenodd" d="M282.482 148.351C269.908 149.013 257.351 149.592 244.768 150.124C243.787 150.165 236.164 150.082 238.829 152.74C239.652 153.561 241.773 153.005 242.837 152.953C244.437 152.875 246.038 152.815 247.637 152.733C253.98 152.41 260.339 152.323 266.677 151.961C270.165 151.761 273.645 151.449 277.115 151.043C278.765 150.85 280.814 150.87 282.36 150.223C283.155 149.891 284.013 148.269 282.482 148.351Z" fill="#89C5CC"/>
<path opacity="0.5" fill-rule="evenodd" clip-rule="evenodd" d="M275.253 138.136C274.296 139.088 274.788 140.967 274.86 142.144C274.959 143.764 275.08 145.385 275.282 146.996C275.414 148.042 275.344 149.671 275.902 150.575C276.556 151.633 277.995 151.516 278.587 150.493C279.109 149.589 278.845 147.686 278.831 146.684C278.813 145.298 278.726 143.909 278.644 142.526C278.575 141.37 278.837 139.517 278.201 138.528C277.555 137.522 276.149 137.245 275.253 138.136Z" fill="#89C5CC"/>
<path opacity="0.5" fill-rule="evenodd" clip-rule="evenodd" d="M246.512 145.526C246.4 145.612 246.4 145.612 246.512 145.526V145.526ZM248.746 145.246C250.83 145.665 247.46 148.098 246.395 146.428C246.229 146.167 246.142 145.847 246.409 145.62C246.653 145.413 246.806 145.779 247.036 145.681C247.433 145.511 248.323 145.23 248.746 145.246ZM248.458 143.249C247.036 143.361 245.079 143.449 244.375 144.875C243.429 146.791 245.047 148.667 246.919 148.958C248.72 149.239 251.41 148.241 251.554 146.14C251.67 144.447 250.059 143.119 248.458 143.249Z" fill="#89C5CC"/>
<path opacity="0.5" fill-rule="evenodd" clip-rule="evenodd" d="M260.336 144.261C258.863 144.285 255.968 143.849 254.685 144.567C253.415 145.278 253.981 146.543 255.14 146.845C255.905 147.045 257.157 146.723 257.954 146.69C259.002 146.647 260.052 146.638 261.101 146.624C262.865 146.6 264.629 146.62 266.394 146.62C268.196 146.62 270.03 146.669 271.829 146.537C274.105 146.369 274.044 144.665 271.818 144.451C268.035 144.089 264.13 144.202 260.336 144.261Z" fill="#89C5CC"/>
<path opacity="0.5" fill-rule="evenodd" clip-rule="evenodd" d="M256.574 163.354C256.574 164.164 257.293 163.354 257.288 163.354C257.293 163.354 256.574 162.544 256.574 163.354Z" fill="#89C5CC"/>
<path opacity="0.5" fill-rule="evenodd" clip-rule="evenodd" d="M240.32 156.834C240.366 159.188 240.396 161.545 240.497 163.897C240.529 164.641 240.316 166.093 241.217 166.472C242.221 166.895 242.533 165.842 242.648 165.129C243.014 162.871 242.656 160.292 242.62 158.006C242.609 157.239 242.775 156.171 241.903 155.788C241.192 155.476 240.305 156.056 240.32 156.834Z" fill="#89C5CC"/>
<path opacity="0.5" fill-rule="evenodd" clip-rule="evenodd" d="M279.033 156.87C279.093 157.01 279.093 157.01 279.033 156.87V156.87ZM279.117 156.846C279.166 156.866 279.361 156.948 279.117 156.846V156.846ZM260.099 154.943C256.485 155 252.869 155.043 249.257 155.198C247.716 155.264 246.157 155.317 244.621 155.463C243.533 155.565 240.83 155.608 240.124 156.497C238.668 158.333 241.756 157.832 242.421 157.683C243.632 157.412 244.867 157.325 246.104 157.26C248.787 157.118 251.472 157.042 254.158 156.988C261.444 156.842 268.735 156.864 276.022 156.831C276.727 156.828 278.002 156.544 278.654 156.83C279.307 157.116 279.27 157.819 279.338 158.635C279.428 159.722 278.711 161.792 279.257 162.706C280.104 164.123 281.336 162.92 281.524 161.886C281.784 160.458 281.372 158.744 280.968 157.379C280.399 155.453 279.608 155.377 277.746 155.226C275.569 155.05 273.401 154.944 271.218 154.924C267.513 154.89 263.805 154.886 260.099 154.943Z" fill="#89C5CC"/>
<path opacity="0.5" fill-rule="evenodd" clip-rule="evenodd" d="M274.394 164.675C266.555 165.586 258.494 165.049 250.613 165.081C248.697 165.089 246.779 165.104 244.864 165.197C243.853 165.246 241.456 164.968 240.763 165.748C239.303 167.392 241.933 167.631 242.894 167.563C244.835 167.425 246.782 167.362 248.728 167.347C255.585 167.294 262.48 167.614 269.331 167.276C272.202 167.134 275.008 166.643 277.825 166.095C278.449 165.973 282.721 165.161 280.285 164.187C278.845 163.612 275.907 164.499 274.394 164.675Z" fill="#89C5CC"/>
<path opacity="0.5" fill-rule="evenodd" clip-rule="evenodd" d="M251.507 161.665C251.452 161.735 251.452 161.735 251.507 161.665V161.665ZM251.454 161.653C251.436 161.703 251.378 161.828 251.454 161.653V161.653ZM250.96 161.015C250.971 161.03 251.018 161.09 250.96 161.015V161.015ZM250.941 161.01C251.13 161.236 251.257 161.487 251.322 161.764C249.698 162.204 249.072 160.89 250.941 161.01ZM250.838 160.949C250.839 160.949 251.067 161.045 250.838 160.949V160.949ZM248.17 158.991C247.119 160.3 246.251 161.826 247.562 163.321C248.734 164.658 251.091 164.83 252.578 163.938C254.11 163.018 253.978 161.082 252.909 159.819C252.221 159.005 251.663 159.028 250.665 158.895C249.985 158.804 248.747 158.276 248.17 158.991Z" fill="#89C5CC"/>
<path opacity="0.5" fill-rule="evenodd" clip-rule="evenodd" d="M259.035 161.414C259.035 163.157 266.561 162.407 267.9 162.405C269.022 162.403 275.804 163.022 275.317 161.228C274.917 159.754 268.237 160.487 266.814 160.485C265.584 160.483 259.035 159.639 259.035 161.414Z" fill="#89C5CC"/>
</g>
<g opacity="0.5">
<path opacity="0.5" fill-rule="evenodd" clip-rule="evenodd" d="M147.26 177.746C151.03 178.293 154.95 180.066 154.917 184.453C154.89 188.142 151.796 192.068 147.823 191.847C144.248 191.649 140.882 187.739 140.434 184.389C140.202 182.653 140.636 180.784 141.657 179.356C142.995 177.485 145.118 177.488 147.26 177.746ZM145.48 175.361C142.754 175.376 140.759 176.362 139.072 178.444C138.467 179.19 137.763 179.993 137.303 180.839C136.873 181.629 136.948 183.637 138.424 182.695C138.061 186.583 140.333 190.357 143.6 192.349C147.15 194.515 151.164 194.093 154.119 191.057C156.824 188.279 157.776 183.585 155.797 180.149C153.819 176.714 149.236 175.324 145.48 175.361Z" fill="#89C5CC"/>
<path opacity="0.5" fill-rule="evenodd" clip-rule="evenodd" d="M153.654 174.318C151.909 175.598 150.315 177.282 148.992 178.99C147.698 180.66 146.843 182.746 145.288 184.202C144.504 183.347 143.584 181.038 142.018 181.954C140.719 182.714 141.556 184.021 142.188 184.88C143.822 187.096 145.637 187.988 147.732 185.798C149.636 183.81 150.716 181.157 152.496 179.054C153.277 178.131 154.482 177.215 155.104 176.197C155.667 175.273 154.971 173.351 153.654 174.318Z" fill="#89C5CC"/>
</g>
<g opacity="0.5">
<path opacity="0.5" fill-rule="evenodd" clip-rule="evenodd" d="M217.682 29.9195C218.824 29.9255 220.369 29.679 221.507 29.9433C223.721 30.4574 223.581 34.2537 223.626 36.0894C223.708 39.3821 223.66 42.8437 223.393 46.1288C223.301 47.263 222.475 48.7006 221.534 47.1371C221.009 46.2653 221.243 44.2288 221.243 43.2657C221.24 39.8415 221.777 36.3139 221.263 32.9073C221.095 31.7906 221.132 31.7151 219.996 31.7386C219.095 31.7573 218.194 31.7873 217.292 31.8062C215.457 31.8447 213.621 31.8698 211.786 31.937C211.09 31.9627 208.586 32.4001 206.634 32.3984C206.635 32.414 206.636 32.4296 206.637 32.4456C206.663 33.7657 206.016 35.368 205.928 36.7569C205.716 40.0976 205.969 43.5164 205.656 46.8401C205.647 46.9411 205.642 47.0485 205.636 47.1567C205.695 47.1473 205.752 47.141 205.807 47.1375C207.262 47.0452 208.737 47.0833 210.195 47.0496C213.181 46.9804 216.284 47.1435 219.253 46.7939C219.856 46.7157 220.067 47.4897 219.796 47.8909C219.492 48.3413 218.52 48.3183 218.07 48.3849C216.753 48.58 215.417 48.6481 214.088 48.707C212.692 48.7689 211.294 48.8151 209.897 48.854C208.687 48.8875 206.002 49.3936 204.882 48.8871C204.01 48.4923 204.03 48.0539 204.386 47.7142C204.17 47.2401 204.206 46.463 204.16 46.09C203.966 44.5273 203.849 42.9845 203.846 41.4083C203.841 38.321 203.847 35.1145 204.701 32.1261C204.359 31.9763 204.153 31.7555 204.154 31.4373C204.158 29.5473 211.092 29.9986 212.498 29.9611C214.226 29.916 215.954 29.9101 217.682 29.9195Z" fill="#89C5CC"/>
<path opacity="0.5" fill-rule="evenodd" clip-rule="evenodd" d="M248.974 49.0811C246.924 49.6347 242.386 49.2675 241.551 49.2679C240.036 49.2685 231.81 50.2423 231.796 48.4898C231.795 48.3538 231.839 48.2319 231.922 48.1228C231.695 47.8912 231.491 47.5509 231.359 47.1263C230.888 45.6023 230.844 43.9577 230.809 42.3773C230.734 38.9651 230.772 35.5468 230.751 32.1335V32.2361C230.445 31.8248 230.627 31.3546 231.009 31.0265C232.042 30.1399 235.018 30.3649 236.329 30.2955C238.216 30.1957 240.104 30.1727 241.994 30.1657C243.994 30.1557 245.997 30.1916 247.997 30.2531C248.739 30.2759 253.897 30.4056 251.591 31.6562C251.46 31.7277 251.311 31.7875 251.149 31.8372C251.245 32.4051 251.256 32.9921 251.241 33.2748C251.143 35.0731 251.101 36.8746 251.021 38.6738C250.932 40.682 250.847 42.69 250.778 44.6991C250.741 45.7612 251.105 48.2308 250.264 48.9976C249.698 49.5146 249.31 49.4109 249.05 49.0597L248.974 49.0811ZM245.577 31.8812C243.648 31.881 241.721 31.8592 239.793 31.8974C237.71 31.9387 235.604 31.9631 233.536 32.2378C233.423 32.2529 233.287 32.282 233.136 32.3173C233.451 33.634 233.069 35.7521 233.067 36.9723C233.064 40.3911 233.189 43.7914 233.266 47.1922C233.269 47.3038 233.266 47.4075 233.259 47.5034C235.553 47.0129 239.833 47.3403 240.733 47.337C242.41 47.3304 244.088 47.3537 245.763 47.4207C246.285 47.4416 247.563 47.341 248.572 47.4528C248.563 47.3613 248.557 47.278 248.553 47.2059C248.461 45.3974 248.561 43.57 248.62 41.7615C248.678 39.9387 248.768 38.1173 248.838 36.2948C248.874 35.3574 248.638 33.4006 248.894 32.0515C247.676 32.0286 246.399 31.8813 245.577 31.8812Z" fill="#89C5CC"/>
<path opacity="0.5" fill-rule="evenodd" clip-rule="evenodd" d="M212.558 48.7827C211.318 49.5071 211.987 52.4049 212.417 53.4071C213.123 55.0551 214.556 56.3446 216.102 57.2C219.228 58.9289 223.733 58.4697 226.096 61.4671C226.121 61.4981 226.938 62.3069 227.124 61.2595C227.276 60.3999 225.751 59.0871 225.16 58.6561C223.479 57.4309 221.324 57.0357 219.38 56.4237C217.306 55.7708 215.031 54.5674 214.162 52.43C213.854 51.673 214.441 47.6777 212.558 48.7827Z" fill="#C1DEE2"/>
<path opacity="0.5" fill-rule="evenodd" clip-rule="evenodd" d="M240.907 50.1756C239.77 50.4889 240.522 52.0526 240.52 52.8355C240.518 53.8123 240.206 54.8345 239.604 55.614C238.077 57.5908 235.088 57.887 232.847 58.4538C231.22 58.8656 227.326 59.7486 227.174 61.9493C227.004 64.407 230.441 61.4162 230.731 61.2936C233.944 60.1151 238.1 59.8875 240.58 57.2935C241.604 56.2228 242.209 54.7936 242.305 53.3186C242.359 52.4881 242.368 49.7764 240.907 50.1756Z" fill="#C1DEE2"/>
<path opacity="0.5" fill-rule="evenodd" clip-rule="evenodd" d="M225.686 63.6428C230.416 62.3968 234.822 65.7108 235.379 70.4782C235.968 75.5094 232.176 79.5597 227.175 79.7818C222.776 79.9771 217.454 76.8275 217.426 71.9753C217.4 67.4281 221.751 64.6775 225.686 63.6428ZM227.991 65.8292C228.247 66.177 228.478 66.732 227.963 67.0343C227.154 67.5057 227.005 66.2825 226.433 66.121C225.858 65.9591 224.934 66.5639 224.455 66.9164C223.642 67.5153 221.389 71.0009 220.297 69.108C216.984 74.8292 225.244 79.1108 229.941 76.9457C235.1 74.5678 234.095 65.8745 227.991 65.8292Z" fill="#89C5CC"/>
<path opacity="0.5" fill-rule="evenodd" clip-rule="evenodd" d="M223.662 70.4522C223.662 71.4959 225.31 71.4959 225.31 70.4522C225.31 69.4203 223.662 69.3761 223.662 70.4522Z" fill="#89C5CC"/>
<path opacity="0.5" fill-rule="evenodd" clip-rule="evenodd" d="M226.562 70.2569C226.562 71.5354 228.582 71.5354 228.582 70.2569C228.582 68.9929 226.562 68.939 226.562 70.2569Z" fill="#89C5CC"/>
<path opacity="0.5" fill-rule="evenodd" clip-rule="evenodd" d="M224.488 73.2357C222.836 74.2074 227.56 76.1379 227.746 74.1652C227.827 73.3139 227.002 73.5435 226.453 73.4809C225.927 73.4209 224.986 72.9454 224.488 73.2357Z" fill="#89C5CC"/>
<path opacity="0.5" fill-rule="evenodd" clip-rule="evenodd" d="M223.77 80.1297C223.842 82.6114 223.807 85.0917 224.278 87.5389C224.368 88.0036 224.43 89.6895 224.797 90.0347C225.701 90.8841 225.716 89.2562 225.751 88.6323C225.876 86.3979 225.642 84.0938 225.59 81.8547C225.578 81.3728 225.706 80.3745 225.479 79.908C225.118 79.1675 223.735 78.9476 223.77 80.1297Z" fill="#C1DEE2"/>
<path opacity="0.5" fill-rule="evenodd" clip-rule="evenodd" d="M222.004 78.1175C218.382 82.182 213.395 81.8827 208.372 82.2385C205.717 82.4267 203.033 82.8128 200.897 84.5298C199.904 85.3285 199.047 86.3289 198.472 87.469C198.22 87.9675 197.027 90.8434 198.819 90.1611C199.455 89.9192 200.081 88.0172 200.492 87.4547C201.275 86.3832 202.277 85.4988 203.478 84.9238C205.797 83.8147 208.565 83.8336 211.079 83.6929C213.707 83.5458 216.527 83.4084 218.943 82.2657C220.079 81.7282 221.145 81.0577 222.059 80.1938C222.386 79.8849 223.087 79.3604 223.139 78.8882C223.199 78.3484 222.68 77.3603 222.004 78.1175Z" fill="#C1DEE2"/>
<path opacity="0.5" fill-rule="evenodd" clip-rule="evenodd" d="M203.722 90.5925C200.321 90.7061 196.923 90.8438 193.526 91.0589C192.83 91.1029 190.509 90.9623 191.1 92.3888C191.574 93.5322 194.405 92.7758 195.341 92.7204C198.881 92.5103 202.435 92.4372 205.967 92.1188C206.761 92.0474 210.347 92.0758 208.866 90.6696C208.162 90.0003 204.696 90.5593 203.722 90.5925Z" fill="#89C5CC"/>
<path opacity="0.5" fill-rule="evenodd" clip-rule="evenodd" d="M188.941 92.2331C187.868 93.6414 188.361 97.064 188.442 98.7569C188.52 100.398 188.202 103.397 190.343 103.652C189.663 103.562 190.859 103.693 191.054 103.703C191.489 103.727 191.926 103.734 192.361 103.739C193.367 103.75 194.373 103.737 195.379 103.716C197.657 103.671 199.941 103.605 202.216 103.479C203.172 103.426 208.36 103.47 208.565 102.476C208.828 101.207 203.854 101.925 202.963 101.966C200.795 102.065 198.623 102.086 196.452 102.114C195.376 102.129 194.299 102.139 193.224 102.118C192.78 102.11 191.02 102.292 190.75 101.996C190.52 101.743 190.7 99.4237 190.695 99.0689C190.679 97.9123 190.68 96.753 190.721 95.5969C190.749 94.8185 191.17 93.3376 190.827 92.6064C190.494 91.8956 189.521 91.653 188.941 92.2331Z" fill="#89C5CC"/>
<path opacity="0.5" fill-rule="evenodd" clip-rule="evenodd" d="M206.456 92.2998C206.519 94.8761 206.538 97.5044 207.146 100.024C207.349 100.862 207.633 102.592 208.475 103.026C209.359 103.481 210.123 102.831 210.18 101.955C210.253 100.853 209.663 99.4076 209.542 98.2776C209.401 96.9591 209.319 95.6394 209.271 94.3145C209.234 93.3181 209.537 91.8241 208.587 91.1816C207.734 90.6044 206.429 91.1856 206.456 92.2998Z" fill="#89C5CC"/>
<path opacity="0.5" fill-rule="evenodd" clip-rule="evenodd" d="M213.226 91.6699C212.168 92.7237 212.64 96.0603 212.773 97.4144C212.87 98.4062 213.955 103.285 215.582 100.741C216.301 99.6155 215.387 96.6398 215.393 95.3275C215.398 94.4917 215.694 93.4349 215.551 92.632C215.362 91.5708 214.185 90.7115 213.226 91.6699Z" fill="#89C5CC"/>
<path opacity="0.5" fill-rule="evenodd" clip-rule="evenodd" d="M230.106 90.1958C232.264 90.1789 235.957 89.995 237.543 91.7654C238.496 92.8284 238.83 94.5796 239.202 95.906C239.487 96.9248 240.262 98.7618 239.712 99.814C239.463 100.29 239.062 100.696 238.453 100.527C238.31 100.488 238.198 100.437 238.111 100.377C238.345 100.629 238.449 100.989 238.297 101.341C237.934 102.185 236.595 102.003 235.868 102.064C233.442 102.266 231.005 102.401 228.57 102.422C226.218 102.443 223.864 102.383 221.512 102.406C219.553 102.425 217.511 102.822 215.57 102.743C214.759 102.709 213.894 102.444 214.099 101.396C214.281 100.467 215.216 100.459 215.979 100.382C218.276 100.148 220.574 100.065 222.882 100.073C227.732 100.09 232.578 100.065 237.427 100.04C237.627 100.056 237.815 100.133 237.97 100.25C237.715 99.942 237.837 99.4853 237.79 99.0396C237.662 97.8399 237.58 96.6607 237.352 95.4611C237.171 94.5016 237.033 92.8719 236.145 92.2683C235.174 91.6092 233.019 91.8272 231.861 91.7973C228.743 91.7169 225.609 91.9383 222.506 92.2204C221.091 92.349 219.658 92.447 218.259 92.701C217.48 92.8427 215.194 93.9863 214.572 93.2826C213.074 91.5881 219.658 90.8923 220.552 90.8C223.729 90.4722 226.911 90.2263 230.106 90.1958Z" fill="#89C5CC"/>
<path opacity="0.5" fill-rule="evenodd" clip-rule="evenodd" d="M254.359 86.9419C254.497 87.1196 254.497 87.1196 254.359 86.9419V86.9419ZM232.855 76.444C230.925 77.5784 234.497 80.9071 235.407 81.4219C237.454 82.5803 240.268 82.755 242.555 83.0808C245.448 83.4934 248.597 83.6452 251.378 84.5935C252.563 84.9976 253.316 85.628 254.092 86.5971C254.485 87.088 255.432 89.2043 256.294 88.7033C258.03 87.6944 253.353 83.4605 252.322 83.0054C249.979 81.9704 247.21 81.6806 244.705 81.2789C242.376 80.905 239.997 80.6272 237.725 79.9683C236.476 79.606 235.589 79.0216 234.869 77.9032C234.42 77.2062 234.052 75.7436 232.855 76.444Z" fill="#C1DEE2"/>
<path opacity="0.5" fill-rule="evenodd" clip-rule="evenodd" d="M262.441 89.4459C263.481 89.4242 264.873 89.3304 265.704 90.0976C266.65 90.9712 266.839 93.1383 267.122 94.3059C267.43 95.574 267.798 96.8642 267.927 98.165C267.957 98.4699 268.039 98.9935 268.002 99.4645C268.435 99.5229 268.693 99.9424 268.649 100.401C268.568 101.251 267.39 101.367 266.7 101.502C264.408 101.95 261.956 101.848 259.632 101.914C254.769 102.05 249.568 102.836 244.723 102.368C243.891 102.288 242.996 101.993 243.211 100.938L243.209 100.95C242.631 99.8438 242.366 97.7179 242.315 97.298C242.093 95.4891 242.076 93.7015 242.106 91.8815C242.124 90.8822 243.268 90.4056 244.009 90.9667C245 90.5514 246.677 90.489 247.578 90.398C249.059 90.2484 250.552 90.1928 252.037 90.104C255.504 89.8968 258.968 89.5229 262.441 89.4459ZM264.985 91.9087C264.462 90.6876 264.007 90.9701 262.645 91.0626C261.245 91.1576 259.846 91.2913 258.447 91.4063C255.372 91.6592 252.294 91.8193 249.216 92.0336C247.573 92.148 246.004 92.6272 244.395 92.794L244.531 92.7777C244.508 93.3354 244.429 93.8983 244.438 94.3054C244.457 95.1621 244.522 96.0144 244.596 96.8669L244.686 97.8901C244.729 98.3759 244.929 99.2144 244.959 99.9495C245.152 99.9478 245.342 99.9514 245.52 99.9483C247.966 99.9055 250.41 99.8314 252.854 99.7374C255.347 99.6418 257.84 99.535 260.334 99.5064C262.318 99.4838 264.36 99.655 266.358 99.5778C265.927 98.4547 265.992 96.6847 265.763 95.5204C265.536 94.3647 265.45 92.9941 264.985 91.9087Z" fill="#89C5CC"/>
</g>
<path fill-rule="evenodd" clip-rule="evenodd" d="M215.308 56.7618C213.007 61.1069 213.281 72.1286 216.255 72.9052C217.441 73.2148 219.967 72.4562 222.538 70.8862L220.925 82.4539H230.455L227.174 66.9618C229.004 64.786 230.242 62.1196 230.035 59.1319C229.439 50.5229 217.609 52.4167 215.308 56.7618Z" fill="#915B3C"/>
<path fill-rule="evenodd" clip-rule="evenodd" d="M229.33 56.9274C227.157 47.8826 214.861 53.4981 212.495 51.972C211.978 55.256 213.646 57.9039 219.51 57.3923C220.804 58.1246 221.725 59.4981 222.833 61.2998C223.103 61.1923 223.397 61.1333 223.704 61.1333C225.02 61.1333 226.087 62.2139 226.087 63.547C226.087 64.2235 225.812 64.835 225.369 65.2733C225.92 66.0615 226.538 66.8852 227.246 67.7352C229.886 66.131 231.849 61.4585 229.338 56.9445L229.33 56.9274Z" fill="#191847"/>
<path fill-rule="evenodd" clip-rule="evenodd" d="M233.631 115.843L219.085 166.622L212.243 204.747H205.376L212.231 115.843H233.631Z" fill="#915B3C"/>
<path fill-rule="evenodd" clip-rule="evenodd" d="M233.631 115.843L219.085 166.622L212.243 204.747H205.376L212.231 115.843H233.631Z" fill="black" fill-opacity="0.1"/>
<path fill-rule="evenodd" clip-rule="evenodd" d="M240.168 115.843C239.153 142.223 239.553 156.61 239.78 159.007C240.007 161.404 241.297 177.455 250.085 205.552H242.943C231.304 178.598 227.242 162.547 225.907 159.007C224.572 155.468 220.63 141.08 214.874 115.843H240.168Z" fill="#915B3C"/>
<path fill-rule="evenodd" clip-rule="evenodd" d="M233.943 115.843C230.16 133.316 223.615 161.208 214.311 199.518H204.267C203.525 160.196 206.681 134.316 212.146 115.843H233.943Z" fill="#69A1AC"/>
<path fill-rule="evenodd" clip-rule="evenodd" d="M240.219 115.843C239.225 142.223 241.801 168.211 249.781 199.928H239.065C227.405 173.377 219.048 147.516 213.337 115.843H240.219Z" fill="#89C5CC"/>
<path fill-rule="evenodd" clip-rule="evenodd" d="M251.104 210.781L250.709 204.345C248.402 205.028 245.512 204.76 242.039 203.54C238.305 206.219 233.605 208.049 227.938 209.029C227.505 209.104 227.215 209.519 227.288 209.957C227.293 209.986 227.299 210.014 227.307 210.041L227.852 211.988H242.039H250.315L251.104 210.781Z" fill="#191847"/>
<path fill-rule="evenodd" clip-rule="evenodd" d="M213.775 210.781L213.381 204.345C211.074 205.028 208.184 204.76 204.711 203.54C200.977 206.219 196.277 208.049 190.609 209.029C190.177 209.104 189.886 209.519 189.96 209.957C189.965 209.986 189.971 210.014 189.979 210.041L190.524 211.988H204.711H212.987L213.775 210.781Z" fill="#191847"/>
<path fill-rule="evenodd" clip-rule="evenodd" d="M248.599 111.025L240.301 111.058C245.425 127.814 248.191 136.705 248.599 137.731C249.518 140.038 247.573 143.551 246.742 145.439C249.45 146.667 249.162 142.12 252.578 143.73C255.696 145.2 258.068 147.863 261.671 145.611C262.114 145.334 262.6 144.291 261.427 143.477C258.505 141.447 254.295 137.895 253.726 136.726C252.95 135.132 251.241 126.565 248.599 111.025ZM199.965 110.7L187.298 120.123C183.862 121.062 180.992 122.23 178.687 123.628C178.142 124.13 177.484 125.148 179.742 124.972C182 124.796 184.383 124.714 184.695 125.495C185.007 126.275 183.64 127.208 184.27 128.261C184.69 128.963 186.674 127.203 190.221 122.981L202.765 117.712L199.965 110.7Z" fill="#915B3C"/>
<path fill-rule="evenodd" clip-rule="evenodd" d="M225.017 75.7506L221.583 75.1539C208.842 86.3033 203.61 107.723 187.993 119.069L191.752 123.789C218.844 120.391 225.559 94.2647 225.017 75.7506Z" fill="#E87613"/>
<path fill-rule="evenodd" clip-rule="evenodd" d="M239.985 119.464C226.217 119.464 216.089 119.464 209.602 119.464C208.214 119.464 208.476 117.433 208.676 116.408C210.993 104.581 220.034 91.8315 220.034 74.9957L228.798 73.6035C236.047 85.4138 238.554 99.9548 239.985 119.464Z" fill="#DDE3E9"/>
<path fill-rule="evenodd" clip-rule="evenodd" d="M229.458 73.6047C229.162 73.6047 228.891 73.6235 228.644 73.661L225.899 73.8198C218.028 100.845 215.857 118.876 219.386 127.913L243.3 127.913C244.717 131.26 246.073 134.076 247.368 136.361H253.884C254.497 116.273 249.783 99.2244 239.741 85.2136C241.013 84.8432 242.022 83.9787 242.765 82.6203C245.968 76.7651 244.811 73.5413 241.388 72.4817C237.965 71.422 234.912 73.6047 229.458 73.6047Z" fill="#FF9B21"/>
<path fill-rule="evenodd" clip-rule="evenodd" d="M234.426 127.912L243.301 127.912C241.648 124.008 239.912 119.382 238.093 114.033C237.341 120.407 236.119 125.034 234.426 127.912Z" fill="black" fill-opacity="0.1"/>
<path fill-rule="evenodd" clip-rule="evenodd" d="M139.038 122.185C142.783 122.185 144.145 117.756 146.272 115.325C147.794 113.586 150.393 114.105 151.162 111.67C153.095 105.548 147.92 101.239 141.167 101.239C134.415 101.239 129.863 105.018 128.88 110.699C127.896 116.38 132.285 122.185 139.038 122.185Z" fill="#191847"/>
<path fill-rule="evenodd" clip-rule="evenodd" d="M149.243 110.023C151.142 113.519 150.916 122.388 148.462 123.013C147.483 123.262 145.399 122.652 143.277 121.388L144.608 130.697H136.744L139.451 118.231C137.941 116.48 136.92 114.334 137.09 111.93C137.582 105.003 147.344 106.527 149.243 110.023Z" fill="#D4A181"/>
<path fill-rule="evenodd" clip-rule="evenodd" d="M149.714 110.042C148.21 110.321 145.181 111.74 142.766 113.774C142.481 113.625 142.154 113.54 141.806 113.54C140.691 113.54 139.788 114.41 139.788 115.482C139.788 115.92 139.939 116.324 140.192 116.649C139.714 117.427 139.388 118.245 139.281 119.086C137.624 119.086 131.578 112.893 137.601 107.066C143.625 101.24 152.33 109.557 149.714 110.042Z" fill="#191847"/>
<path fill-rule="evenodd" clip-rule="evenodd" d="M122.53 171.156H147.844L151.161 211.295H113.479L122.53 171.156Z" fill="#C5CFD6"/>
<path fill-rule="evenodd" clip-rule="evenodd" d="M122.53 171.156H130.316L134.975 211.295H113.479L122.53 171.156Z" fill="black" fill-opacity="0.1"/>
<path fill-rule="evenodd" clip-rule="evenodd" d="M190.207 209.68C183.747 201.887 179.375 196.109 177.093 192.347C173.186 185.906 169.988 180.174 168.978 177.985C166.572 172.764 174.519 170.319 176.318 172.754C179.04 176.44 184.854 188.038 193.759 207.549L190.207 209.68Z" fill="#D4A181"/>
<path fill-rule="evenodd" clip-rule="evenodd" d="M176.969 207.412L164.946 177.514C162.374 172.063 174.793 168.481 176.682 171.017C180.973 176.776 191.171 199.492 192.449 201.208L176.969 207.412Z" fill="#2F3676"/>
<path fill-rule="evenodd" clip-rule="evenodd" d="M144.947 201.416C147.289 198.041 155.808 186.686 160.448 181.988C161.781 180.638 163.082 179.343 164.313 178.135C167.971 174.546 175.254 180.579 171.603 183.848C162.511 191.989 149.245 202.979 148.137 203.959C146.584 205.332 143.475 203.537 144.947 201.416Z" fill="#D4A181"/>
<path fill-rule="evenodd" clip-rule="evenodd" d="M145.493 199.89C144.687 200.546 144.162 201.082 143.919 201.497C143.623 202.003 143.278 202.789 142.881 203.856C143.475 204.195 148.81 207.238 158.887 212.985C160.097 211.864 160.285 210.994 159.452 210.374C158.619 209.755 157.932 209.232 157.39 208.807L151.866 201.288C151.76 201.143 151.555 201.111 151.408 201.216C151.406 201.218 151.403 201.22 151.401 201.222L150.253 202.095C149.2 202.004 148.414 201.811 147.895 201.515C147.474 201.275 146.99 200.774 146.444 200.015L146.444 200.015C146.235 199.723 145.826 199.655 145.531 199.862C145.518 199.871 145.505 199.88 145.493 199.89Z" fill="#E4E4E4"/>
<path fill-rule="evenodd" clip-rule="evenodd" d="M187.428 208.514C187.061 209.481 186.878 210.204 186.878 210.684C186.878 211.268 186.976 212.12 187.173 213.24C187.859 213.24 194.019 213.24 205.655 213.24C206.135 211.671 205.858 210.824 204.823 210.699C203.788 210.574 202.929 210.461 202.244 210.36L193.654 206.577C193.489 206.505 193.295 206.578 193.222 206.741C193.22 206.744 193.219 206.747 193.218 206.75L192.666 208.073C191.708 208.514 190.929 208.735 190.331 208.735C189.844 208.735 189.172 208.541 188.315 208.153L188.315 208.153C187.986 208.004 187.597 208.146 187.446 208.471C187.439 208.485 187.433 208.5 187.428 208.514Z" fill="#E4E4E4"/>
<path fill-rule="evenodd" clip-rule="evenodd" d="M160.619 179.007C150.626 177.398 143.932 176.299 140.539 175.707C130.864 174.022 128.043 168.88 129.711 157.659H147.536C149.894 158.332 159.75 162.494 177.103 170.144C180.225 171.675 179.644 176.19 179.073 177.677C179.05 177.737 173.786 186.647 163.283 204.405L148.702 195.229L160.646 180.088C160.962 179.46 160.953 179.1 160.619 179.007Z" fill="#5C63AB"/>
<path fill-rule="evenodd" clip-rule="evenodd" d="M116.974 148.673L122.778 149.505C116.548 162.858 113.208 169.92 112.758 170.69C111.746 172.424 112.936 175.444 113.402 177.043C111.049 177.714 111.801 174.124 108.826 175.019C106.112 175.837 103.871 177.69 101.183 175.486C100.852 175.216 100.574 174.33 101.624 173.814C104.242 172.528 108.085 170.175 108.683 169.308C109.497 168.126 112.261 161.247 116.974 148.673ZM161.765 152.258L171.656 160.542C174.431 161.491 176.727 162.592 178.545 163.845C178.965 164.279 179.448 165.134 177.6 164.864C175.751 164.595 173.794 164.393 173.493 165.002C173.192 165.61 174.264 166.437 173.686 167.246C173.3 167.786 171.767 166.26 169.087 162.67L159.061 157.727L161.765 152.258Z" fill="#D4A181"/>
<path fill-rule="evenodd" clip-rule="evenodd" d="M141.231 125.3L144.828 124.124C149.703 136.16 156.974 147.804 169.128 157.638L166.12 162.762C155.438 156.549 145.326 151.724 141.225 142.397C139.849 139.267 141.118 129.043 141.231 125.3Z" fill="#C5CFD6"/>
<path fill-rule="evenodd" clip-rule="evenodd" d="M128.879 159.184C139.181 160.263 147.289 160.263 153.204 159.184C153.937 159.05 154.053 157.838 153.713 157.015C148.42 144.204 144.791 133.026 144.791 124.128C143.82 124.612 142.12 124.684 139.692 124.345C133.167 133.515 130.168 144.037 128.879 159.184Z" fill="#323337"/>
<path fill-rule="evenodd" clip-rule="evenodd" d="M138.079 123.408L138.07 123.575L140.789 123.576C141.416 127.218 143.38 176.08 149.401 192.869L149.585 193.367H116.225C116.949 178.439 122.654 160.506 128.433 145.5C123.323 150.119 118.869 157.947 115.071 168.982L108.822 167.397C113.468 147.621 123.02 133.085 137.478 123.789L137.572 123.576L137.814 123.575L138.079 123.408Z" fill="#DDE3E9"/>
</svg>