<svg xmlns="http://www.w3.org/2000/svg" width="96" height="153" viewBox="0 0 96 153" fill="none">
<path fill-rule="evenodd" clip-rule="evenodd" d="M38.7289 4.89513C36.5037 9.04276 36.7681 19.5636 39.644 20.3049C40.7909 20.6005 43.234 19.8764 45.7206 18.3776L44.16 29.4197H53.376L50.2035 14.6316C51.9728 12.5547 53.1703 10.0095 52.9702 7.15747C52.3936 -1.06031 40.9541 0.747495 38.7289 4.89513Z" fill="#915B3C"/>
<path fill-rule="evenodd" clip-rule="evenodd" d="M52.2883 5.05313C50.187 -3.58059 38.2969 1.77972 36.0091 0.322958C35.509 3.45765 37.122 5.98526 42.7928 5.49691C44.0441 6.19596 44.9343 7.50702 46.0058 9.22683C46.2666 9.12423 46.5509 9.06787 46.8483 9.06787C48.1207 9.06787 49.1523 10.0994 49.1523 11.3719C49.1523 12.0177 48.8866 12.6014 48.4585 13.0198C48.991 13.7722 49.5886 14.5585 50.2734 15.3698C52.8258 13.8385 54.7248 9.37829 52.2963 5.06949L52.2883 5.05313Z" fill="#191847"/>
<path fill-rule="evenodd" clip-rule="evenodd" d="M60.8081 61.292C60.1157 70.7421 15.5105 98.5644 15.2502 99.345C15.1346 99.692 19.7626 110.659 29.1342 132.247L25.235 133.762C10.8605 110.899 4.04244 98.2497 4.78077 95.8136C5.83783 92.3258 17.374 80.8521 39.3894 61.3925L60.8081 61.292Z" fill="#915B3C"/>
<path fill-rule="evenodd" clip-rule="evenodd" d="M60.8081 61.292C60.1157 70.7421 15.5105 98.5644 15.2502 99.345C15.1346 99.692 19.7626 110.659 29.1342 132.247L25.235 133.762C10.8605 110.899 4.04244 98.2497 4.78077 95.8136C5.83783 92.3258 17.374 80.8521 39.3894 61.3925L60.8081 61.292Z" fill="black" fill-opacity="0.1"/>
<path fill-rule="evenodd" clip-rule="evenodd" d="M28.1088 127.371L21.7428 129.689C8.31914 114.543 3.05743 102.046 4.01683 95.6788C4.65643 91.434 16.1528 79.9794 38.5061 61.3151L61.2654 61.3151C60.4888 83.2001 19.1453 99.4283 18.5924 100.361C18.0394 101.293 23.4814 110.427 28.1088 127.371Z" fill="#2F3676"/>
<path fill-rule="evenodd" clip-rule="evenodd" d="M30.5696 131.502C31.3655 132.433 31.8608 133.166 32.0556 133.701C32.2924 134.351 32.5296 135.34 32.7672 136.668C32.0123 136.942 25.2283 139.412 12.415 144.075C11.2498 142.519 11.2115 141.464 12.3002 140.91C13.389 140.356 14.2897 139.885 15.0025 139.499L22.9271 131.839C23.0796 131.691 23.3227 131.695 23.4701 131.848C23.4726 131.851 23.4751 131.853 23.4776 131.856L24.6225 133.109C25.8565 133.218 26.8032 133.152 27.4627 132.912C27.9986 132.717 28.6598 132.231 29.4464 131.455L29.4464 131.455C29.7483 131.157 30.2345 131.16 30.5325 131.462C30.5453 131.475 30.5577 131.488 30.5696 131.502Z" fill="#E4E4E4"/>
<path fill-rule="evenodd" clip-rule="evenodd" d="M55.6801 61.292L75.5505 108.995L95.0801 149.324H90.4724L40.0614 61.292H55.6801Z" fill="#915B3C"/>
<path fill-rule="evenodd" clip-rule="evenodd" d="M95.3556 147.462C95.7852 148.609 96 149.467 96 150.036C96 150.729 95.8846 151.739 95.6539 153.068C94.8506 153.068 87.6312 153.068 73.9956 153.068C73.4328 151.207 73.7577 150.203 74.9703 150.054C76.1829 149.906 77.1903 149.772 77.9923 149.652L88.0589 145.165C88.2526 145.078 88.4796 145.165 88.566 145.359C88.5674 145.362 88.5689 145.366 88.5703 145.369L89.2173 146.939C90.3399 147.462 91.2521 147.724 91.9539 147.724C92.5241 147.724 93.3116 147.494 94.3164 147.033L94.3164 147.033C94.7019 146.857 95.1578 147.026 95.3345 147.412C95.3422 147.428 95.3492 147.445 95.3556 147.462Z" fill="#E4E4E4"/>
<path fill-rule="evenodd" clip-rule="evenodd" d="M93.3164 140.946L83.0781 142.866C75.162 131.228 42.0324 83.5071 38.4 61.292H61.1927C73.3229 77.3513 85.7706 129.115 93.3164 140.946Z" fill="#5C63AB"/>
<path fill-rule="evenodd" clip-rule="evenodd" d="M24.9192 47.5324L12.6703 56.527C9.34809 57.4235 6.57253 58.5388 4.34357 59.873C3.81705 60.3528 3.1807 61.3244 5.3643 61.1564C7.5479 60.9885 9.85228 60.9101 10.1536 61.6549C10.4549 62.3997 9.13347 63.2904 9.74252 64.2953C10.1486 64.9652 12.0668 63.2854 15.4973 59.2557L27.627 54.2258L24.9192 47.5324ZM0.983908 14.4526C2.43214 16.0955 3.88158 17.8886 3.46808 18.5775C3.05459 19.2663 1.54801 18.7471 1.11198 19.8382C0.821295 20.5657 3.31733 21.0867 8.60009 21.4013L19.9169 28.0614L23.633 21.8707L9.07798 17.5014C6.36272 15.3877 3.80161 13.8422 1.39464 12.865C0.694614 12.7333 -0.464323 12.8098 0.983908 14.4526Z" fill="#915B3C"/>
<path fill-rule="evenodd" clip-rule="evenodd" d="M43.9443 23.3091C37.2739 35.7466 27.6284 45.2809 13.6448 55.1922L18.9395 61.1622C34.5527 55.36 42.793 51.8593 46.8396 40.1083C47.8552 37.159 48.565 27.7573 49.174 22.8106L43.9443 23.3091Z" fill="#2026A2"/>
<path fill-rule="evenodd" clip-rule="evenodd" d="M62.5918 64.7477H33.0238C39.7214 44.3209 43.1429 30.3013 43.288 22.6888C43.2954 22.3007 44.0122 21.6168 44.3293 21.7063C46.6483 22.3613 49.1298 22.1164 51.7738 20.9717C58.7835 32.2453 61.2075 46.1254 62.5918 64.7477Z" fill="#F2F2F2"/>
<path fill-rule="evenodd" clip-rule="evenodd" d="M11.1657 17.5161L9.59999 25.3395C21.5861 33.0484 33.7229 39.02 44.3578 38.1717C39.7392 57.9808 39.9521 74.1968 50.1475 74.1968H65.9131C68.4171 57.3691 61.8362 34.0372 55.7353 22.2687C55.5023 21.8193 55.0063 20.9721 53.8379 20.9721H49.2569C49.2549 20.9783 49.2528 20.9844 49.2508 20.9905C40.7753 21.0597 27.0243 22.6074 11.1657 17.5161Z" fill="#1F28CF"/>
</svg>