<svg xmlns="http://www.w3.org/2000/svg" width="218" height="230" viewBox="0 0 218 230" fill="none">
<path opacity="0.16" d="M122.143 221.32C67.7782 221.32 23.7071 177.56 23.7071 123.58C23.7071 69.5989 67.7782 25.8389 122.143 25.8389C176.507 25.8389 220.578 69.5989 220.578 123.58C220.578 177.56 176.507 221.32 122.143 221.32Z" fill="#855FFB"/>
<path fill-rule="evenodd" clip-rule="evenodd" d="M214.529 50.087L138.352 47.4457C129.742 47.1471 122.518 53.8359 122.217 62.3855L115.599 250.571C115.298 259.121 122.035 266.294 130.645 266.592L206.822 269.234C215.432 269.532 222.656 262.843 222.957 254.294L229.575 66.108C229.876 57.5584 223.14 50.3856 214.529 50.087Z" fill="#F2F2F2"/>
<path fill-rule="evenodd" clip-rule="evenodd" d="M202.52 56.0705C202.409 59.2437 199.773 61.7383 196.596 61.7179L196.425 61.7144L155.61 60.2992C152.415 60.1884 149.902 57.5709 149.923 54.4163L149.926 54.2468L149.987 52.5263L138.006 52.1109C132.266 51.9119 127.45 56.3711 127.249 62.0708L120.607 250.944C120.407 256.644 124.897 261.426 130.638 261.625L207.488 264.289C213.228 264.488 218.044 260.029 218.245 254.329L224.887 65.4563C225.088 59.7566 220.597 54.9747 214.856 54.7756L202.581 54.35L202.52 56.0705Z" fill="#240E6A"/>
<path fill-rule="evenodd" clip-rule="evenodd" d="M51.6547 137.364C56.5446 140.742 62.3048 152.661 59.4981 155.121C58.3789 156.102 55.215 156.678 51.5563 156.411L59.6686 167.878L49.3066 173.105L44.3592 154.763C41.1741 153.443 38.3623 151.275 36.9452 147.972C32.8621 138.452 46.7648 133.987 51.6547 137.364Z" fill="#B28B67"/>
<path fill-rule="evenodd" clip-rule="evenodd" d="M41.3661 136.539C46.9266 133.735 50.2088 134.952 51.3559 136.915C49.3085 138.768 45.274 141.119 39.2681 144.094L39.4893 144.524L44.8955 142.338L47.0871 144.481C45.6597 145.073 45.1601 146.506 45.0226 148.158C44.5645 148.097 44.0866 148.16 43.6513 148.38C42.4581 148.981 42.0356 150.528 42.597 151.618C43.181 152.753 44.1711 153.358 45.1318 153.343C45.1325 154.349 45.0179 155.137 44.5882 155.486C42.6241 156.24 37.7941 152.861 35.8426 149.07C33.7067 144.92 35.1796 139.659 41.3661 136.539Z" fill="#191847"/>
<path fill-rule="evenodd" clip-rule="evenodd" d="M55.6289 208.64L73.4211 269.423L81.7896 315.06H90.1891L81.8046 208.64H55.6289Z" fill="#B28B67"/>
<path fill-rule="evenodd" clip-rule="evenodd" d="M55.6289 208.64L73.4211 269.423L81.7896 315.06H90.1891L81.8046 208.64H55.6289Z" fill="black" fill-opacity="0.1"/>
<path fill-rule="evenodd" clip-rule="evenodd" d="M47.6332 208.64C48.8747 240.216 48.3851 257.439 48.1072 260.308C47.8294 263.177 46.2519 282.39 35.5029 316.023H44.2392C58.4744 283.758 63.4439 264.545 65.0765 260.308C66.7092 256.071 71.5312 238.848 78.5712 208.64H47.6332Z" fill="#B28B67"/>
<path fill-rule="evenodd" clip-rule="evenodd" d="M55.2471 208.64C59.8751 229.555 67.8796 262.942 79.2606 308.8H91.5458C92.4532 261.731 88.5931 230.752 81.9085 208.64H55.2471Z" fill="#191847"/>
<path fill-rule="evenodd" clip-rule="evenodd" d="M47.5717 208.64C48.7876 240.216 45.6366 271.325 35.876 309.291H48.9836C63.2451 277.508 73.4668 246.553 80.4526 208.64H47.5717Z" fill="#2F3676"/>
<path fill-rule="evenodd" clip-rule="evenodd" d="M26.9281 200.62L37.2474 198.124C35.799 225.384 34.9837 239.671 34.8016 240.985C34.3918 243.941 37.7322 247.469 39.2743 249.426C36.425 251.647 35.4277 246.264 31.8515 249.137C28.5873 251.758 26.5594 255.553 21.6244 253.979C21.0177 253.786 20.1351 252.712 21.2856 251.421C24.1518 248.204 28.0974 242.838 28.4274 241.309C28.8775 239.225 28.3777 225.662 26.9281 200.62ZM95.1108 196.308L111.723 205.983C116.02 206.677 119.66 207.715 122.642 209.097C123.369 209.63 124.3 210.763 121.532 210.834C118.765 210.905 115.857 211.103 115.579 212.074C115.301 213.044 117.082 213.988 116.452 215.323C116.032 216.214 113.394 214.359 108.538 209.76L92.6105 205.029L95.1108 196.308Z" fill="#B28B67"/>
<path fill-rule="evenodd" clip-rule="evenodd" d="M51.0955 163.862L54.9858 162.168C67.0898 183.137 103.883 190.412 108.034 198.343C109.556 201.252 107.717 203.363 109.109 204.021L104.798 209.173C103.64 208.353 102.211 210.725 97.8865 210.375C93.562 210.026 57.8437 190.557 51.0955 163.862Z" fill="#DB2721"/>
<path fill-rule="evenodd" clip-rule="evenodd" d="M42.5909 161L55.48 158.769C56.5346 158.586 57.5422 159.288 57.7306 160.338L58.6048 165.215C65.6764 195.191 84.9431 198.54 84.1096 211.462C83.4216 222.129 55.5973 240.254 47.8673 231.863C44.7378 228.466 42.5685 223.961 41.1543 218.831C40.8075 223.125 40.6027 226.798 40.5408 229.851C40.434 235.117 35.3819 237.192 35.8625 239.092L28.4645 238.892C28.2808 236.195 24.7018 235.739 24.1175 229.757C21.4995 202.951 27.2879 181.632 41.4827 165.798L41.0225 163.231C40.8341 162.182 41.5363 161.183 42.5909 161Z" fill="#FF4133"/>
<mask id="mask0" mask-type="alpha" maskUnits="userSpaceOnUse" x="8" y="0" width="217" height="344">
<path d="M130.639 261.625L207.489 264.29C213.229 264.489 218.045 260.03 218.246 254.33L224.888 65.4569C225.089 59.7572 220.598 54.9753 214.857 54.7762L196.611 0.0981445H8.89732V343.892H91.3591C116.81 289.022 129.903 261.6 130.639 261.625Z" fill="white"/>
</mask>
<g mask="url(#mask0)">
<path fill-rule="evenodd" clip-rule="evenodd" d="M102.144 80.6677C104.579 89.234 118.857 103.194 123.78 100.421C125.744 99.3157 128.136 95.1188 129.563 89.8113L142.028 106.88L154.664 94.7634L130.755 78.8229C130.434 73.6722 128.709 68.6364 124.663 65.0209C113.003 54.603 99.7091 72.1015 102.144 80.6677Z" fill="#B28B67"/>
<mask id="mask1" mask-type="alpha" maskUnits="userSpaceOnUse" x="95" y="55" width="47" height="28">
<path fill-rule="evenodd" clip-rule="evenodd" d="M99.4396 77.1306C98.5794 76.6983 95.0685 76.1703 95.9639 71.5999C96.1248 70.7786 97.2793 70.3359 97.7781 69.4365C98.1534 68.7597 97.6142 67.8468 98.1015 67.1298C98.6071 66.386 99.8899 66.3286 100.557 65.586C100.965 65.131 100.983 63.7985 101.405 63.3221C102.16 62.4718 103.648 62.5251 104.496 61.8078C104.987 61.3919 104.805 60.1367 105.227 59.6565C106.253 58.4878 107.776 58.0278 108.915 57.2388C109.964 56.5116 112.184 57.9543 113.278 57.7489C116.711 57.1042 118.73 55.9085 121.802 55.6798C125.455 55.4081 127.052 56.2802 128.975 56.5892C130.898 56.8981 135.234 60.3268 137.19 63.3125C138.344 65.0738 141.533 69.8492 141.377 73.0313C141.164 77.3869 137.101 82.5143 136.406 82.6264C133.191 83.1455 121.739 79.9431 116.156 80.284C112.051 80.5347 104.768 79.8089 99.4396 77.1306Z" fill="white"/>
</mask>
<g mask="url(#mask1)">
<path fill-rule="evenodd" clip-rule="evenodd" d="M99.4396 77.1306C98.5794 76.6983 95.0685 76.1703 95.9639 71.5999C96.1248 70.7786 97.2793 70.3359 97.7781 69.4365C98.1534 68.7597 97.6142 67.8468 98.1015 67.1298C98.6071 66.386 99.8899 66.3286 100.557 65.586C100.965 65.131 100.983 63.7985 101.405 63.3221C102.16 62.4718 103.648 62.5251 104.496 61.8078C104.987 61.3919 104.805 60.1367 105.227 59.6565C106.253 58.4878 107.776 58.0278 108.915 57.2388C109.964 56.5116 112.184 57.9543 113.278 57.7489C116.711 57.1042 118.73 55.9085 121.802 55.6798C125.455 55.4081 127.052 56.2802 128.975 56.5892C130.898 56.8981 135.234 60.3268 137.19 63.3125C138.344 65.0738 141.533 69.8492 141.377 73.0313C141.164 77.3869 137.101 82.5143 136.406 82.6264C133.191 83.1455 121.739 79.9431 116.156 80.284C112.051 80.5347 104.768 79.8089 99.4396 77.1306Z" fill="#FF9B21"/>
<path fill-rule="evenodd" clip-rule="evenodd" d="M101.784 61.4415C110.49 66.9805 116.715 70.7357 120.459 72.7072C124.256 74.7066 127.442 76.4304 130.082 77.8097C125.746 76.0983 120.178 73.9058 114.681 71.4501C110.741 69.6895 105.945 67.1952 100.293 63.9674L98.728 65.4679C107.97 70.0723 114.557 73.1605 118.489 74.7323C124.815 77.2614 129.537 79.2604 132.886 80.4286C128.256 79.4787 120.88 77.7583 111.784 74.6559C108.336 73.4798 103.479 71.2745 97.2115 68.04L96.3562 70.0544C104.689 73.7639 110.684 76.1742 114.342 77.2855C126.262 80.9076 134.983 81.6283 137.73 81.5713C138.205 81.5615 138.341 81.5348 138.168 81.4747C138.184 81.4523 138.187 81.4262 138.176 81.3965C138.427 81.4519 138.659 81.4887 138.873 81.5065C141.949 81.7632 129.211 76.1028 117.019 69.0475C113.285 66.8873 108.779 63.9086 103.498 60.1115L101.784 61.4415Z" fill="black" fill-opacity="0.2"/>
</g>
<path fill-rule="evenodd" clip-rule="evenodd" d="M204.242 142.204L197.454 237.534L199.684 307.572L187.352 310.161L165.813 150.273L204.242 142.204Z" fill="#B28B67"/>
<path fill-rule="evenodd" clip-rule="evenodd" d="M204.242 142.204L197.454 237.534L199.684 307.572L187.352 310.161L165.813 150.273L204.242 142.204Z" fill="black" fill-opacity="0.1"/>
<path fill-rule="evenodd" clip-rule="evenodd" d="M216.07 139.684C224.291 186.748 230.489 212.059 231.81 216.214C233.13 220.37 241.56 248.288 268.047 294.694L255.215 297.388C224.042 254.08 210.631 227.207 206.885 221.447C203.139 215.688 190.578 191.713 170.627 149.225L216.07 139.684Z" fill="#B28B67"/>
<path fill-rule="evenodd" clip-rule="evenodd" d="M204.809 142.084C204.667 174.43 203.534 226.251 201.411 297.548L183.37 301.335C167.062 232.036 162.874 185.052 165.656 150.303L204.809 142.084Z" fill="#191847"/>
<path fill-rule="evenodd" clip-rule="evenodd" d="M216.161 139.666C224.422 186.726 238.95 231.748 265.369 284.869L246.112 288.912C215.048 246.32 190.181 203.706 167.855 149.807L216.161 139.666Z" fill="#2F3676"/>
<path fill-rule="evenodd" clip-rule="evenodd" d="M205.744 114.019L192.344 122.727C228.636 146.183 247.606 158.485 249.254 159.632C252.962 162.214 253.443 169.476 254.031 173.166C259.433 172.33 254.477 165.726 261.352 164.765C267.628 163.888 273.934 165.563 277.266 158.563C277.675 157.702 277.391 155.638 274.771 155.571C268.244 155.404 258.216 154.211 256.177 153.005C253.397 151.361 236.586 138.365 205.744 114.019ZM84.1714 175.778C88.3572 176.278 92.7391 176.991 93.041 178.503C93.3428 180.015 90.5266 181.195 91.3165 183.311C91.8431 184.721 96.0704 182.281 103.998 175.991L128.721 171.07L126.008 157.483L99.6366 169.808C93.0381 170.252 87.3938 171.311 82.7037 172.986C81.5367 173.69 79.9856 175.278 84.1714 175.778Z" fill="#997659"/>
<path fill-rule="evenodd" clip-rule="evenodd" d="M141.263 95.4874L131.203 102.959C143.854 127.911 139.374 151.706 104.53 167.076L119.961 199.764C151.964 184.536 170.166 156.111 154.657 120.895C150.642 111.778 146.119 102.513 141.263 95.4874Z" fill="#AFB9C5"/>
<path fill-rule="evenodd" clip-rule="evenodd" d="M144.509 89.0311L144.508 89.0462L130.952 102.936C148.594 129.894 151.36 152.702 159.783 175.38L160.04 176.067L203.058 148.346C208.191 154.873 213.216 161.744 218.189 168.921L250.399 148.165C217.839 114.268 182.89 94.3329 145.553 88.3588L144.509 89.0311Z" fill="#C5CFD6"/>
<path fill-rule="evenodd" clip-rule="evenodd" d="M170.859 113.88C183.06 130.122 190.875 143.482 194.304 153.96L203.038 148.329C193.102 135.691 182.761 124.341 171.612 114.538L170.859 113.88Z" fill="black" fill-opacity="0.1"/>
</g>
</svg>