<svg xmlns="http://www.w3.org/2000/svg" width="128" height="170" viewBox="0 0 128 170" fill="none">
<g clip-path="url(#clip0)">
<path fill-rule="evenodd" clip-rule="evenodd" d="M23.6191 20.1918C22.7443 21.11 21.505 21.6866 20.1267 21.6866C17.4783 21.6866 15.3314 19.5707 15.3314 16.9605C15.3314 14.3504 17.4783 12.2345 20.1267 12.2345V3.45752C12.5926 3.45752 6.42578 9.53523 6.42578 16.9605C6.42578 24.3858 12.5926 30.4636 20.1267 30.4636C24.0842 30.4636 27.6608 28.8135 30.0989 26.1885L23.6191 20.1918Z" fill="#F2F2F2"/>
<path fill-rule="evenodd" clip-rule="evenodd" d="M19.8525 3.45752V12.3485C22.5162 12.3485 24.6755 14.4919 24.6755 17.1359H33.6324C33.6324 9.61416 27.4301 3.45752 19.8525 3.45752Z" fill="#42A5FF"/>
<path fill-rule="evenodd" clip-rule="evenodd" d="M24.5485 16.7852C24.5485 18.3286 23.8162 19.7005 22.6787 20.5864L28.2748 27.6577C31.5323 25.1261 33.6319 21.2018 33.6319 16.7852H24.5485Z" fill="#C5CFD6"/>
<path d="M119.138 42.388C123.041 42.388 126.204 39.2475 126.204 35.3734C126.204 31.4994 123.041 28.3589 119.138 28.3589C115.235 28.3589 112.071 31.4994 112.071 35.3734C112.071 39.2475 115.235 42.388 119.138 42.388Z" fill="#C1DEE2"/>
<path d="M23.5619 115.339C26.1963 115.339 28.3319 113.219 28.3319 110.604C28.3319 107.989 26.1963 105.87 23.5619 105.87C20.9276 105.87 18.792 107.989 18.792 110.604C18.792 113.219 20.9276 115.339 23.5619 115.339Z" fill="#89C5CC"/>
<path d="M50.4155 39.933C53.0498 39.933 55.1854 37.8132 55.1854 35.1982C55.1854 32.5832 53.0498 30.4634 50.4155 30.4634C47.7811 30.4634 45.6455 32.5832 45.6455 35.1982C45.6455 37.8132 47.7811 39.933 50.4155 39.933Z" fill="#69A1AC"/>
<path d="M40.8754 108.325C43.5098 108.325 45.6454 106.205 45.6454 103.59C45.6454 100.975 43.5098 98.855 40.8754 98.855C38.2411 98.855 36.1055 100.975 36.1055 103.59C36.1055 106.205 38.2411 108.325 40.8754 108.325Z" fill="#69A1AC"/>
<path d="M58.189 76.4086C61.799 76.4086 64.7256 73.5036 64.7256 69.9201C64.7256 66.3366 61.799 63.4316 58.189 63.4316C54.5789 63.4316 51.6523 66.3366 51.6523 69.9201C51.6523 73.5036 54.5789 76.4086 58.189 76.4086Z" fill="#C1DEE2"/>
<path d="M107.125 50.4544C112.394 50.4544 116.665 46.2147 116.665 40.9848C116.665 35.7548 112.394 31.5151 107.125 31.5151C101.856 31.5151 97.585 35.7548 97.585 40.9848C97.585 46.2147 101.856 50.4544 107.125 50.4544Z" fill="#89C5CC"/>
<path d="M14.0219 98.8549C16.6563 98.8549 18.7919 96.7351 18.7919 94.1201C18.7919 91.5051 16.6563 89.3853 14.0219 89.3853C11.3875 89.3853 9.25195 91.5051 9.25195 94.1201C9.25195 96.7351 11.3875 98.8549 14.0219 98.8549Z" fill="#C1DEE2"/>
<path d="M4.1291 118.496C5.98292 118.496 7.48573 117.004 7.48573 115.164C7.48573 113.324 5.98292 111.832 4.1291 111.832C2.27528 111.832 0.772461 113.324 0.772461 115.164C0.772461 117.004 2.27528 118.496 4.1291 118.496Z" fill="#C1DEE2"/>
<path d="M41.0519 89.0346C43.0032 89.0346 44.5852 87.4643 44.5852 85.5273C44.5852 83.5903 43.0032 82.02 41.0519 82.02C39.1005 82.02 37.5186 83.5903 37.5186 85.5273C37.5186 87.4643 39.1005 89.0346 41.0519 89.0346Z" fill="#C1DEE2"/>
<path d="M72.8523 81.3188C76.1697 81.3188 78.8589 78.6493 78.8589 75.3564C78.8589 72.0635 76.1697 69.394 72.8523 69.394C69.535 69.394 66.8457 72.0635 66.8457 75.3564C66.8457 78.6493 69.535 81.3188 72.8523 81.3188Z" fill="#C1DEE2"/>
<path d="M75.325 56.4174C78.6423 56.4174 81.3316 53.748 81.3316 50.455C81.3316 47.1621 78.6423 44.4927 75.325 44.4927C72.0076 44.4927 69.3184 47.1621 69.3184 50.455C69.3184 53.748 72.0076 56.4174 75.325 56.4174Z" fill="#C1DEE2"/>
<path d="M28.3318 82.02C31.6492 82.02 34.3384 79.3505 34.3384 76.0576C34.3384 72.7647 31.6492 70.0952 28.3318 70.0952C25.0144 70.0952 22.3252 72.7647 22.3252 76.0576C22.3252 79.3505 25.0144 82.02 28.3318 82.02Z" fill="#89C5CC"/>
<path d="M93.3449 67.2899C97.2477 67.2899 100.412 64.1493 100.412 60.2753C100.412 56.4013 97.2477 53.2607 93.3449 53.2607C89.4421 53.2607 86.2783 56.4013 86.2783 60.2753C86.2783 64.1493 89.4421 67.2899 93.3449 67.2899Z" fill="#89C5CC"/>
<path fill-rule="evenodd" clip-rule="evenodd" d="M52.0247 63.7707C56.473 63.7707 58.0908 58.4708 60.6181 55.5623C62.4263 53.4814 65.5123 54.1019 66.4257 51.1886C68.7227 43.863 62.5749 38.707 54.5546 38.707C46.5344 38.707 41.1267 43.229 39.959 50.0266C38.7914 56.8243 44.0045 63.7707 52.0247 63.7707Z" fill="#191847"/>
<path fill-rule="evenodd" clip-rule="evenodd" d="M64.1458 49.2172C66.4013 53.4009 66.1333 64.0132 63.2183 64.761C62.0559 65.0592 59.5795 64.3288 57.0592 62.817L58.641 73.9552H49.2998L52.5154 59.0384C50.722 56.9434 49.5083 54.376 49.7111 51.4992C50.2955 43.2099 61.8904 45.0334 64.1458 49.2172Z" fill="#915B3C"/>
<path fill-rule="evenodd" clip-rule="evenodd" d="M64.7069 49.2406C62.9204 49.5743 59.3226 51.2717 56.454 53.7064C56.1149 53.5275 55.7259 53.426 55.3126 53.426C53.9891 53.426 52.9163 54.4665 52.9163 55.7501C52.9163 56.274 53.095 56.7573 53.3966 57.146C52.8287 58.0775 52.4413 59.056 52.3143 60.0619C50.3463 60.0619 43.1639 52.6513 50.319 45.6792C57.474 38.707 67.8139 48.6601 64.7069 49.2406Z" fill="#191847"/>
<path fill-rule="evenodd" clip-rule="evenodd" d="M67.9824 122.374C71.4217 122.374 74.2098 125.148 74.2098 128.571V164.207C74.2098 167.629 71.4217 170.404 67.9824 170.404H23.2226C19.7832 170.404 16.9951 167.629 16.9951 164.207V128.571C16.9951 125.148 19.7832 122.374 23.2226 122.374H67.9824ZM61.7549 133.219H29.45C28.5902 133.219 27.8932 133.913 27.8932 134.769V158.009C27.8932 158.865 28.5902 159.558 29.45 159.558H61.7549C62.6147 159.558 63.3118 158.865 63.3118 158.009V134.769C63.3118 133.913 62.6147 133.219 61.7549 133.219Z" fill="#C5CFD6"/>
<path fill-rule="evenodd" clip-rule="evenodd" d="M96.7666 114.145L96.8787 114.08C100.096 112.286 105.351 114.722 105.347 117.43C105.336 125.628 97.8185 164.265 97.426 166.707C97.0335 169.15 92.8288 169.795 92.5839 166.715C92.1943 161.815 91.4705 144.852 92.1947 137C92.4937 133.759 92.8157 130.672 93.1326 127.918C89.1885 135.007 83.0874 145.158 74.8301 158.371L70.3477 156.332C73.8676 144.791 76.7538 136.643 79.0065 131.889C82.8635 123.748 86.4802 116.777 88.0023 114.321C90.3967 110.458 94.5646 111.806 96.7666 114.145Z" fill="#915B3C"/>
<path fill-rule="evenodd" clip-rule="evenodd" d="M70.6674 149.924L86.0522 113.654C89.7378 107.753 100.071 114.854 98.8144 118.276C95.9609 126.045 81.4487 151.198 80.5985 153.512L70.6674 149.924Z" fill="#1F28CF"/>
<path fill-rule="evenodd" clip-rule="evenodd" d="M69.8218 154.049C68.862 154.837 68.2373 155.48 67.9479 155.979C67.5959 156.585 67.1834 157.528 66.7105 158.807C67.4152 159.212 73.7483 162.848 85.7099 169.715C87.1495 168.37 87.3751 167.326 86.3868 166.586C85.3985 165.845 84.5829 165.221 83.9401 164.712L77.3907 155.713C77.2646 155.54 77.0212 155.501 76.847 155.628C76.844 155.63 76.8411 155.632 76.8382 155.634L75.4726 156.683C74.2216 156.576 73.2883 156.346 72.6726 155.992C72.1724 155.705 71.5987 155.107 70.9514 154.197L70.9514 154.197C70.703 153.849 70.2171 153.767 69.866 154.016C69.8509 154.026 69.8361 154.038 69.8218 154.049Z" fill="#E4E4E4"/>
<path fill-rule="evenodd" clip-rule="evenodd" d="M91.5994 164.75C91.164 165.906 90.9463 166.772 90.9463 167.346C90.9463 168.045 91.0632 169.064 91.2971 170.404C92.1113 170.404 99.4288 170.404 113.25 170.404C113.82 168.527 113.491 167.514 112.262 167.364C111.033 167.215 110.012 167.079 109.199 166.959L98.9953 162.432C98.7989 162.345 98.5688 162.433 98.4813 162.628C98.4798 162.632 98.4784 162.635 98.4769 162.638L97.8211 164.222C96.6833 164.75 95.7587 165.014 95.0473 165.014C94.4694 165.014 93.6712 164.782 92.6528 164.317L92.6528 164.317C92.262 164.139 91.7999 164.31 91.6208 164.699C91.6131 164.715 91.6059 164.732 91.5994 164.75Z" fill="#E4E4E4"/>
<path fill-rule="evenodd" clip-rule="evenodd" d="M106.425 120.217C106.425 130.508 101.515 154.511 101.512 156.777L90.9462 156.785C92.4927 135.367 93.041 124.542 92.5913 124.312C91.9167 123.966 64.9372 126.992 56.8456 126.992C45.1775 126.992 40.3507 119.67 39.959 106.105H63.0731C67.7793 106.606 92.3275 111.534 101.444 113.228C105.347 113.953 106.425 117.382 106.425 120.217Z" fill="#2B44FF"/>
<path fill-rule="evenodd" clip-rule="evenodd" d="M24.9774 97.1957L32.9531 98.7705C24.9322 113.646 20.6307 121.531 20.0487 122.423C18.7391 124.432 19.9609 128.112 20.4123 130.05C17.5808 130.706 18.6974 126.465 15.1142 127.351C11.8436 128.159 9.07058 130.233 6.02089 127.436C5.64595 127.092 5.37147 126.017 6.64984 125.465C9.83471 124.092 14.5401 121.519 15.3031 120.521C16.3435 119.159 19.5683 111.384 24.9774 97.1957ZM103.863 85.2869L103.719 85.4978C102.517 87.2595 101.392 89.1077 101.874 89.722C102.375 90.3608 103.826 89.6557 104.4 90.6946C104.782 91.3872 102.335 92.2157 97.0597 93.18L86.4974 101.239L81.9942 95.498L96.0972 89.3342C98.5678 86.8842 100.953 85.0221 103.254 83.7479C103.942 83.5299 105.118 83.4641 103.863 85.2869Z" fill="#915B3C"/>
<path fill-rule="evenodd" clip-rule="evenodd" d="M54.6304 67.4991L57.996 66.9246C65.3265 74.0014 68.318 91.0032 73.2033 93.2537C77.8222 95.3814 84.3698 93.3224 92.1526 90.5423L94.536 95.8419C87.4646 103.456 72.3997 109.888 66.2932 106.216C56.5303 100.345 54.2765 79.3757 54.6304 67.4991Z" fill="#DB2721"/>
<path fill-rule="evenodd" clip-rule="evenodd" d="M39.959 109.591C53.4538 109.591 63.3802 109.591 69.7384 109.591C71.0992 109.591 70.8428 107.635 70.6461 106.648C68.3758 95.2604 59.5137 82.9847 59.5137 66.7741L50.9239 65.4336C43.819 76.8054 41.362 90.8063 39.959 109.591Z" fill="#DDE3E9"/>
<path fill-rule="evenodd" clip-rule="evenodd" d="M53.7709 65.4336C61.4822 91.5935 63.6081 109.024 60.1485 117.725H33.3424C33.7665 111.358 35.1265 104.625 36.9892 98.0595C30.9183 108.958 25.8154 116.804 21.6805 121.598L15.4385 120.382C19.4593 95.5652 31.1031 77.2492 50.3698 65.4336L53.7709 65.4336Z" fill="#FF4133"/>
<path d="M121.611 0.651367H85.5715C84.791 0.651367 84.1582 1.27947 84.1582 2.05428V4.8601C84.1582 5.63491 84.791 6.26301 85.5715 6.26301H121.611C122.392 6.26301 123.025 5.63491 123.025 4.8601V2.05428C123.025 1.27947 122.392 0.651367 121.611 0.651367Z" fill="#2B44FF"/>
<path d="M107.478 9.06885H85.5715C84.791 9.06885 84.1582 9.69695 84.1582 10.4718V13.2776C84.1582 14.0524 84.791 14.6805 85.5715 14.6805H107.478C108.259 14.6805 108.891 14.0524 108.891 13.2776V10.4718C108.891 9.69695 108.259 9.06885 107.478 9.06885Z" fill="#C1DEE2"/>
<path d="M113.131 17.4863H85.5715C84.791 17.4863 84.1582 18.1144 84.1582 18.8892V21.6951C84.1582 22.4699 84.791 23.098 85.5715 23.098H113.131C113.912 23.098 114.545 22.4699 114.545 21.6951V18.8892C114.545 18.1144 113.912 17.4863 113.131 17.4863Z" fill="#C1DEE2"/>
<path d="M2.89244 150.763C2.89244 150.182 2.41787 149.71 1.83245 149.71C1.24703 149.71 0.772461 150.182 0.772461 150.763V157.426C0.772461 158.008 1.24703 158.479 1.83245 158.479C2.41787 158.479 2.89244 158.008 2.89244 157.426V150.763Z" fill="#42A5FF"/>
<path d="M7.83873 145.151C7.83873 144.57 7.36416 144.099 6.77874 144.099C6.19332 144.099 5.71875 144.57 5.71875 145.151V157.427C5.71875 158.008 6.19332 158.479 6.77874 158.479C7.36416 158.479 7.83873 158.008 7.83873 157.427V145.151Z" fill="#42A5FF"/>
<path d="M12.786 142.346C12.786 141.765 12.3114 141.293 11.726 141.293C11.1406 141.293 10.666 141.765 10.666 142.346V157.427C10.666 158.008 11.1406 158.479 11.726 158.479C12.3114 158.479 12.786 158.008 12.786 157.427V142.346Z" fill="#42A5FF"/>
<path d="M17.7323 145.151C17.7323 144.57 17.2577 144.099 16.6723 144.099C16.0869 144.099 15.6123 144.57 15.6123 145.151V157.427C15.6123 158.008 16.0869 158.479 16.6723 158.479C17.2577 158.479 17.7323 158.008 17.7323 157.427V145.151Z" fill="#42A5FF"/>
<path d="M22.6786 139.539C22.6786 138.958 22.204 138.487 21.6186 138.487C21.0332 138.487 20.5586 138.958 20.5586 139.539V157.427C20.5586 158.008 21.0332 158.479 21.6186 158.479C22.204 158.479 22.6786 158.008 22.6786 157.427V139.539Z" fill="#2B44FF"/>
<path fill-rule="evenodd" clip-rule="evenodd" d="M106.771 152.347C106.771 146.654 111.383 141.995 117.018 141.995V152.347L110.015 159.882C108.023 158.04 106.771 155.337 106.771 152.347Z" fill="#F2F2F2"/>
<path fill-rule="evenodd" clip-rule="evenodd" d="M116.626 152.166H126.911C126.911 154.821 125.827 157.309 124.112 159.117C122.226 161.094 119.541 162.337 116.626 162.337C113.942 162.337 111.484 161.265 109.598 159.569L116.626 152.166Z" fill="#AFB9C5"/>
<path fill-rule="evenodd" clip-rule="evenodd" d="M127.265 152.166C127.265 146.573 122.653 141.995 117.018 141.995V152.166H127.265ZM111.895 141.995L115.993 151.149L106.771 147.08C107.683 144.707 109.731 142.9 111.895 141.995Z" fill="#8991DC"/>
<path d="M40.5217 117.093C43.3512 117.093 45.645 114.816 45.645 112.007C45.645 109.199 43.3512 106.922 40.5217 106.922C37.6922 106.922 35.3984 109.199 35.3984 112.007C35.3984 114.816 37.6922 117.093 40.5217 117.093Z" fill="#89C5CC"/>
<path d="M55.5378 85.1768C56.9037 85.1768 58.0111 84.0776 58.0111 82.7217C58.0111 81.3658 56.9037 80.2666 55.5378 80.2666C54.1718 80.2666 53.0645 81.3658 53.0645 82.7217C53.0645 84.0776 54.1718 85.1768 55.5378 85.1768Z" fill="#C1DEE2"/>
<path d="M86.631 85.8783C89.5581 85.8783 91.931 83.5229 91.931 80.6174C91.931 77.7118 89.5581 75.3564 86.631 75.3564C83.7039 75.3564 81.3311 77.7118 81.3311 80.6174C81.3311 83.5229 83.7039 85.8783 86.631 85.8783Z" fill="#89C5CC"/>
</g>
<defs>
<clipPath id="clip0">
<rect width="128" height="170.667" fill="white"/>
</clipPath>
</defs>
</svg>